<svg width="114" height="114" viewBox="0 0 114 114" fill="none" xmlns="http://www.w3.org/2000/svg">
<g clip-path="url(#clip0_3036_1401)">
<rect width="114" height="114" rx="4" fill="black" fill-opacity="0.01"/>
<path d="M47.7514 18.768C50.2474 15.888 51.3034 14.736 52.6474 14.736C54.1834 14.736 56.1034 16.176 60.7114 18.48L68.3914 22.32L69.1594 43.632C69.5434 55.344 70.2154 67.344 70.6954 70.416C70.8874 71.856 71.0794 73.104 71.0794 74.064C71.0794 75.6 70.6954 76.464 70.1194 76.848H69.8314C68.3914 76.848 63.6874 75.024 58.6954 72.432L48.6154 67.344L49.2874 52.176C49.4794 47.856 49.5754 44.784 49.5754 42.576C49.5754 38.16 49.0954 37.104 48.1354 37.104C46.6954 37.104 44.5834 36.048 39.5914 32.88C39.4954 32.88 39.4954 32.784 39.4954 32.688C39.4954 31.056 44.5834 22.416 47.7514 18.768Z" fill="white"/>
<g clip-path="url(#clip1_3036_1401)">
<path d="M50.2269 99.3872C41.9109 118.049 22.5235 127.635 6.93828 120.796C-8.65109 113.952 -14.5426 93.2788 -6.22663 74.6168C2.0935 55.9549 21.4685 46.3653 37.062 53.2086C52.6472 60.0477 58.5471 80.7253 50.2269 99.3872Z" fill="url(#paint0_radial_3036_1401)"/>
<path d="M33.1234 61.7062L49.2175 78.8862L28.3531 108.747L13.2437 99.9086L33.1234 61.7062Z" fill="url(#paint1_linear_3036_1401)"/>
<path d="M33.1647 61.7267L8.68008 66.3204L4.79102 102.667L18.0594 102.023L33.1647 61.7267Z" fill="url(#paint2_linear_3036_1401)"/>
<path d="M28.4564 108.513C27.4014 110.923 21.2741 111.485 14.7702 109.769C8.26639 108.053 3.84774 104.708 4.90276 102.302C5.95363 99.8922 12.0851 99.3298 18.589 101.05C25.0928 102.766 29.5115 106.107 28.4564 108.517V108.513Z" fill="#FF9310"/>
<mask id="mask0_3036_1401" style="mask-type:luminance" maskUnits="userSpaceOnUse" x="4" y="100" width="25" height="11">
<path d="M28.4564 108.513C27.4014 110.923 21.2741 111.485 14.7702 109.769C8.26639 108.053 3.84774 104.708 4.90276 102.302C5.95363 99.8922 12.0851 99.3298 18.589 101.05C25.0928 102.766 29.5115 106.107 28.4564 108.517V108.513Z" fill="white"/>
</mask>
<g mask="url(#mask0_3036_1401)">
<path d="M15.4278 99.728C14.2239 102.429 14.6169 105.217 16.3049 105.955C17.993 106.698 20.3347 105.11 21.5386 102.409C22.6516 99.9168 22.9453 95.8035 22.1427 93.1844C21.2407 94.3708 20.3719 95.709 19.1555 96.6491C19.3086 96.0128 19.5651 95.4176 19.9044 94.9126C19.9416 94.8305 19.9416 94.8305 19.9044 94.9126C18.0343 95.7829 16.247 97.8725 15.4237 99.7198L15.4278 99.728Z" fill="#FFFFF2"/>
</g>
<path opacity="0.5" d="M15.4278 99.728C14.2239 102.429 14.6169 105.217 16.3049 105.955C17.993 106.698 20.3347 105.11 21.5386 102.409C22.6516 99.9168 22.9453 95.8035 22.1427 93.1844C21.2407 94.3708 20.3719 95.709 19.1555 96.6491C19.3086 96.0128 19.5651 95.4176 19.9044 94.9126C19.9416 94.8305 19.9416 94.8305 19.9044 94.9126C18.0343 95.7829 16.247 97.8725 15.4237 99.7198L15.4278 99.728Z" fill="#FFFFF2"/>
<mask id="mask1_3036_1401" style="mask-type:luminance" maskUnits="userSpaceOnUse" x="4" y="100" width="25" height="11">
<path d="M28.4564 108.513C27.4014 110.923 21.2741 111.485 14.7702 109.769C8.26639 108.053 3.84774 104.708 4.90276 102.302C5.95363 99.8922 12.0851 99.3298 18.589 101.05C25.0928 102.766 29.5115 106.107 28.4564 108.517V108.513Z" fill="white"/>
</mask>
<g mask="url(#mask1_3036_1401)">
<path d="M26.5501 102.617L6.68018 107.771L6.79214 108.196L26.662 103.042L26.5501 102.617Z" fill="#D64316"/>
<path d="M4.43756 99.4428L4.25977 99.8451L29.7746 110.948L29.9524 110.545L4.43756 99.4428Z" fill="#D64316"/>
</g>
<path opacity="0.3" d="M4.9069 102.298C5.49026 100.955 7.3024 100.492 8.60565 100.27C10.8026 99.8963 13.1608 99.9743 15.3453 100.393C15.0019 99.9784 14.3896 100.011 13.918 99.806C6.70663 96.6409 5.77987 83.0406 11.8452 69.428C12.4782 68.0076 13.165 66.6447 13.8931 65.3434L8.68426 66.3204C8.68426 66.3204 4.79105 102.667 4.79933 102.667C4.82415 102.544 4.85311 102.417 4.9069 102.298Z" fill="#FF6700"/>
<g opacity="0.5">
<mask id="mask2_3036_1401" style="mask-type:luminance" maskUnits="userSpaceOnUse" x="4" y="61" width="46" height="48">
<path d="M49.2174 78.8862L33.1564 61.7432L33.1647 61.7267H33.144L33.1233 61.7062L33.1109 61.7349L8.68008 66.3204L4.79102 102.667L16.9464 102.076L28.353 108.747L49.2174 78.8862Z" fill="white"/>
</mask>
<g mask="url(#mask2_3036_1401)">
<path d="M5.56059 79.5718C5.93708 78.2704 8.29535 75.8197 9.21797 77.979C9.64411 78.9724 10.3847 79.9494 11.6093 79.8797C14.4765 79.7196 15.1385 75.3476 18.1297 75.4831C19.2964 75.5364 19.2716 78.0447 20.0494 78.7384C20.9514 79.5389 22.0643 79.3829 23.0697 78.8616C24.224 78.2581 25.1673 77.3222 26.2761 76.6448C26.7022 76.3862 28.1544 75.8689 28.3158 76.6325C28.4523 77.2688 28.3985 77.9543 28.4813 78.5989C28.7792 80.9388 30.1279 82.6424 32.5317 81.7885C33.4129 81.4724 35.2003 80.7294 35.5188 82.1457C35.7671 83.2582 35.3988 84.4405 35.5974 85.5694C35.7629 86.5218 36.3918 87.2114 37.2772 87.5645C38.506 88.0571 39.7016 86.8625 40.9139 86.9569C41.4476 86.998 41.0545 88.4553 41.0339 88.7878C41.0049 89.2804 41.1166 89.7771 41.3773 90.2C41.9896 91.1811 42.9412 91.5382 44.0748 91.53C45.0222 91.5218 45.6014 91.3001 45.498 92.4865C45.4153 93.4348 46.8923 93.6606 46.975 92.7041C47.0495 91.8461 47.0371 90.6597 46.0772 90.2574C45.1008 89.851 44.021 90.2821 43.0611 89.8757C41.9937 89.4282 42.9163 87.2812 42.4281 86.374C41.8489 85.3025 40.5953 85.397 39.5899 85.672C39.0397 85.8239 38.237 86.3452 37.6578 86.1154C37.0579 85.8732 37.0248 85.1753 37 84.6334C36.9503 83.5086 37.1986 82.4372 36.8304 81.3411C36.0443 78.9929 33.1564 80.0398 31.5429 80.5529C29.437 81.2261 30.4506 75.7253 28.8743 75.0028C26.1975 73.7794 24.1288 76.8049 21.9898 77.7286C20.6576 78.3033 20.459 75.754 19.975 74.9576C19.222 73.7178 17.476 73.8862 16.3548 74.3911C15.2295 74.896 14.3606 75.8197 13.5828 76.7392C12.5526 77.9584 11.3776 79.2351 10.4964 77.1662C9.90062 75.7663 8.51463 75.4707 7.14518 75.8361C5.58541 76.2548 4.50144 77.9092 4.08771 79.3501C3.82292 80.2655 5.30408 80.4749 5.56473 79.5677L5.56059 79.5718Z" fill="#D64316"/>
<path d="M42.4735 98.3404C41.4971 97.934 40.4214 98.3651 39.4574 97.9587C38.3899 97.5112 39.3126 95.3642 38.8202 94.457C38.241 93.3897 36.9874 93.4759 35.982 93.755C35.4318 93.9069 34.6291 94.4324 34.054 94.1984C33.4541 93.9562 33.421 93.2583 33.3962 92.7164C33.3466 91.5916 33.5948 90.5202 33.2266 89.4241C32.4364 87.076 29.5485 88.1228 27.9391 88.6359C25.8291 89.3091 26.8469 83.8083 25.2705 83.0858C22.5937 81.8624 20.525 84.8879 18.3861 85.8116C17.0538 86.3863 16.8553 83.837 16.3712 83.0406C15.6182 81.8009 13.8723 81.9692 12.7511 82.4741C11.6298 82.979 10.7569 83.9027 9.97905 84.8222C8.94886 86.0415 7.77387 87.3182 6.89262 85.2492C6.29685 83.8493 4.91085 83.5537 3.5414 83.9191C1.98164 84.3378 0.897666 85.9922 0.479798 87.4331C0.21501 88.3485 1.69617 88.5579 1.95682 87.6507C2.33331 86.3493 4.69158 83.8945 5.6142 86.0579C6.04034 87.0554 6.78092 88.0283 8.00556 87.9586C10.8727 87.7985 11.5347 83.4265 14.526 83.562C15.6927 83.6153 15.6678 86.1236 16.4457 86.8173C17.3476 87.6178 18.4605 87.4618 19.4659 86.9405C20.6202 86.337 21.5635 85.4011 22.6723 84.7237C23.0985 84.4651 24.5506 83.9519 24.712 84.7114C24.8485 85.3477 24.7948 86.0332 24.8775 86.6778C25.1754 89.0177 26.5241 90.7213 28.9279 89.8674C29.8092 89.5555 31.5965 88.8083 31.9109 90.2246C32.1592 91.3371 31.7951 92.5194 31.9895 93.6483C32.155 94.6007 32.7798 95.2903 33.6693 95.6434C34.8981 96.136 36.0937 94.9414 37.306 95.0358C37.8397 95.0769 37.4466 96.5342 37.4259 96.8667C37.397 97.3593 37.5087 97.856 37.7693 98.2789C38.3817 99.26 39.3332 99.6171 40.4669 99.6089C41.4143 99.6048 41.9935 99.379 41.8901 100.565C41.8074 101.514 43.2844 101.739 43.3671 100.783C43.4416 99.925 43.4292 98.7386 42.4693 98.3363L42.4735 98.3404Z" fill="#D64316"/>
</g>
</g>
</g>
</g>
<defs>
<radialGradient id="paint0_radial_3036_1401" cx="0" cy="0" r="1" gradientTransform="matrix(28.2675 12.4056 -15.0637 33.7924 22.4904 87.2468)" gradientUnits="userSpaceOnUse">
<stop stop-color="#FFEC8E"/>
<stop offset="0.96" stop-color="#FFB600" stop-opacity="0"/>
</radialGradient>
<linearGradient id="paint1_linear_3036_1401" x1="19.6387" y1="110.474" x2="38.8279" y2="74.0941" gradientUnits="userSpaceOnUse">
<stop stop-color="#FFF515"/>
<stop offset="0.98" stop-color="#FF6700"/>
</linearGradient>
<linearGradient id="paint2_linear_3036_1401" x1="-6.25802" y1="106.695" x2="35.8648" y2="57.5797" gradientUnits="userSpaceOnUse">
<stop stop-color="#FFF515"/>
<stop offset="0.98" stop-color="#FFCA00"/>
</linearGradient>
<clipPath id="clip0_3036_1401">
<rect width="114" height="114" rx="4" fill="white"/>
</clipPath>
<clipPath id="clip1_3036_1401">
<rect width="64" height="72" fill="white" transform="translate(-10 51)"/>
</clipPath>
</defs>
</svg>
