<svg width="114" height="114" viewBox="0 0 114 114" fill="none" xmlns="http://www.w3.org/2000/svg">
<g clip-path="url(#clip0_2130_5460)">
<rect width="114" height="114" rx="4" fill="#CCECFB"/>
<path d="M28.832 77.536C27.232 72.288 26.432 66.624 26.432 60.544C26.432 53.76 27.104 48.128 28.448 43.648C29.792 39.168 30.88 35.776 31.712 33.472C32.544 31.168 33.376 29.184 34.208 27.52C35.104 25.792 35.872 24.32 36.512 23.104C37.216 21.824 37.856 20.768 38.432 19.936C37.792 22.304 37.024 26.048 36.128 31.168C35.296 36.288 34.88 41.76 34.88 47.584C34.88 57.888 36.576 66.496 39.968 73.408L28.832 77.536ZM25.568 33.376L24.8 26.368C27.36 25.984 29.376 25.472 30.848 24.832C32.384 24.128 33.504 23.616 34.208 23.296C34.976 22.976 35.584 22.656 36.032 22.336C35.712 22.976 35.2 23.808 34.496 24.832C33.792 25.856 32.768 27.264 31.424 29.056C30.08 30.848 28.128 32.288 25.568 33.376ZM68.27 79.36C60.654 75.712 55.598 71.424 53.102 66.496C50.67 61.568 49.454 57.28 49.454 53.632V51.616C49.454 45.28 50.286 40.096 51.95 36.064C53.614 31.968 55.502 28.992 57.614 27.136C59.726 25.216 61.582 23.968 63.182 23.392C64.846 22.816 66.126 22.496 67.022 22.432C65.102 23.392 62.702 25.6 59.822 29.056C56.942 32.512 55.502 37.504 55.502 44.032C55.502 45.184 55.502 46.304 55.502 47.392C55.694 48.224 55.822 48.768 55.886 49.024C55.886 50.432 56.174 52.192 56.75 54.304C57.39 56.352 58.926 58.848 61.358 61.792C63.79 64.672 67.342 67.168 72.014 69.28L68.27 79.36ZM69.518 21.184C74.574 23.232 78.382 25.888 80.942 29.152C83.566 32.352 85.198 35.232 85.838 37.792C86.542 40.288 86.894 42.112 86.894 43.264C87.022 44.416 87.118 45.344 87.182 46.048C87.246 46.688 87.278 47.712 87.278 49.12C87.278 55.136 86.094 60.128 83.726 64.096C81.422 68 79.15 70.72 76.91 72.256C74.67 73.792 72.878 74.848 71.534 75.424C72.942 74.144 74.606 71.68 76.526 68.032C78.446 64.32 79.406 59.296 79.406 52.96C79.406 52.128 79.374 51.264 79.31 50.368C79.31 49.408 79.246 48.448 79.118 47.488C78.99 46.464 78.862 45.632 78.734 44.992C78.606 44.352 78.254 43.2 77.678 41.536C77.166 39.872 75.694 37.952 73.262 35.776C70.894 33.536 67.566 32.416 63.278 32.416L69.518 21.184Z" fill="#3A3A3A"/>
<path d="M113.203 106.083C113.203 106.083 106.393 126.703 81.7234 118.063C55.5634 108.903 66.4534 83.6433 66.4534 83.6433L113.203 106.083Z" fill="#DE5A29"/>
<path d="M66.4534 83.6433L113.203 106.083C113.203 106.083 112.693 107.613 111.463 109.663C108.503 113.023 104.513 117.153 100.053 115.183C98.5034 114.503 97.3634 112.893 95.6334 112.713C94.0134 112.543 92.4434 113.533 90.8934 113.873C86.9634 114.723 85.0334 113.333 82.6734 110.513C80.0134 107.323 78.4734 107.863 74.6634 107.563C70.7734 107.263 70.8934 104.373 69.4134 101.523C68.2534 99.2733 66.1034 98.5933 64.2634 97.3233C63.7434 89.9033 66.4434 83.6433 66.4434 83.6433H66.4534Z" fill="#EFC340"/>
<path d="M102.963 113.063C104.103 113.863 102.803 115.623 101.673 114.823C100.533 114.023 101.833 112.263 102.963 113.063Z" fill="white"/>
<path d="M89.9434 110.083C91.0834 110.893 89.7834 112.643 88.6534 111.843C87.5134 111.043 88.8134 109.283 89.9434 110.083Z" fill="white"/>
<path d="M80.5934 111.803C81.0734 112.153 81.1634 112.833 80.8234 113.323L80.6134 113.623C80.2734 114.103 79.5634 114.213 79.0934 113.863C78.6134 113.513 78.5234 112.833 78.8634 112.343L79.0734 112.043C79.4234 111.553 80.1234 111.453 80.5934 111.803Z" fill="white"/>
<path d="M75.2034 103.663C76.3434 104.463 75.0434 106.223 73.9134 105.423C72.7734 104.623 74.0734 102.863 75.2034 103.663Z" fill="white"/>
<path d="M67.4434 101.733C68.5834 102.533 67.2834 104.293 66.1534 103.493C65.0134 102.693 66.3134 100.933 67.4434 101.733Z" fill="white"/>
<g style="mix-blend-mode:multiply" opacity="0.6">
<path d="M81.7234 118.063C81.6134 118.023 81.5034 117.983 81.3934 117.943C99.0934 119.513 104.103 105.853 104.103 105.853L107.013 103.113L113.213 106.093C113.213 106.093 106.403 126.713 81.7334 118.073L81.7234 118.063Z" fill="#CFD1D2"/>
</g>
<path d="M66.4534 83.6433C63.2934 90.1333 71.1934 100.423 84.1034 106.623C97.0134 112.823 110.043 112.583 113.203 106.093C116.363 99.6033 108.463 89.3133 95.5534 83.1233C82.6434 76.9233 69.6134 77.1633 66.4534 83.6533V83.6433Z" fill="#89C7DD"/>
<path d="M111.383 106.783C107.153 111.933 97.1934 111.393 85.2434 105.653C74.3834 100.433 66.6234 93.1333 66.4634 86.8233C70.6934 81.6733 82.7434 81.8933 94.6934 87.6333C105.553 92.8533 111.223 100.473 111.383 106.783Z" fill="#89C7DD"/>
<g style="mix-blend-mode:multiply" opacity="0.3">
<path d="M66.4634 86.8233C68.7734 84.0033 73.4334 82.8033 79.1234 83.2233C81.3934 83.9633 83.4134 85.0633 83.6334 86.6433C81.9934 86.9633 80.0634 85.0133 78.4634 85.8833C76.2134 87.1033 78.5934 88.6433 79.8934 89.3433C82.0034 90.4833 84.5434 90.7833 86.5934 92.0633C89.0734 93.6033 90.6434 95.9633 92.4134 98.2633C95.4934 102.263 101.083 106.833 106.433 103.283C107.803 102.373 108.363 100.513 108.413 98.6133C110.303 101.383 111.313 104.193 111.383 106.783C107.153 111.933 97.1934 111.393 85.2434 105.653C74.3834 100.433 66.6234 93.1333 66.4634 86.8233Z" fill="#4A6C8C"/>
</g>
<path d="M66.4534 83.6433C63.2934 90.1333 71.1934 100.423 84.1034 106.623C97.0134 112.823 110.043 112.583 113.203 106.093C116.363 99.6033 108.463 89.3133 95.5534 83.1233C82.6434 76.9233 69.6134 77.1633 66.4534 83.6533V83.6433ZM94.8434 85.3733C106.873 91.1433 113.923 99.7333 111.333 105.063C108.733 110.393 97.4734 110.453 85.4434 104.683C73.4134 98.9033 65.7734 89.9033 68.3634 84.5733C70.9634 79.2433 82.8134 79.6033 94.8434 85.3733Z" fill="#2B398E"/>
<path d="M106.663 100.993C107.473 98.6433 104.963 92.6033 103.903 90.5833C101.823 86.6233 96.2034 80.7433 92.5934 78.1333C85.4134 72.9433 74.3334 74.4033 66.1334 76.3933C57.7434 78.4233 49.1934 78.1733 41.5834 73.8933C39.3034 72.6133 37.3134 70.8533 35.7634 68.7233C34.8834 67.5133 34.1234 65.5433 32.8134 64.7833C29.3634 62.7933 28.9934 67.6533 29.8834 69.8433C31.2834 73.2633 34.6434 74.7933 37.8734 75.9933C39.9634 76.7733 45.5334 79.8633 40.5434 80.9433C35.5134 82.0233 30.2434 82.1033 26.3834 78.2733C24.5734 76.4733 19.8034 67.1833 16.6734 70.7433C14.7934 72.8733 16.0534 78.1833 17.2934 80.3633C19.3934 84.0533 21.6034 89.3733 27.7734 91.0633C33.6834 92.6833 36.6534 93.4733 42.7034 92.2133C48.3034 91.0533 53.4934 88.5533 59.2534 87.9533C61.9134 87.6733 64.4634 87.7433 67.0934 88.1033C73.2534 88.9533 79.1234 86.0133 84.1334 89.4733" fill="#89C7DD"/>
<path d="M101.653 90.2933C99.3535 88.6133 97.6535 86.1433 95.7235 84.0833C93.0735 81.2533 89.7735 78.8133 86.1635 77.3933C81.1635 75.4333 75.4635 77.0233 70.6235 78.6033C68.1435 79.4133 65.6935 80.0133 63.1635 80.5633C61.0435 81.0233 58.6535 81.5633 56.4135 81.6533C55.7735 81.6833 54.2635 81.8833 54.4335 80.9233C54.5935 80.0133 56.3835 80.2533 56.9035 79.7433C58.7235 77.9333 53.2035 78.9933 52.5235 78.9733C50.6135 78.9133 45.7535 78.6033 45.2935 75.6133C51.9235 78.1733 59.0835 78.0933 66.1535 76.3833C74.3535 74.3933 85.4235 72.9433 92.6135 78.1233C96.2335 80.7333 101.843 86.6133 103.923 90.5733C103.983 90.6833 104.043 90.8133 104.113 90.9433C103.563 91.3433 102.493 90.8833 101.663 90.2833L101.653 90.2933Z" fill="#D6F7FF"/>
<path d="M39.2734 99.4833C41.8634 98.6933 44.3734 100.053 47.0234 99.5833C49.6734 99.1233 52.0034 97.6733 54.4034 96.7033C55.1534 96.4033 56.2034 96.1533 57.0634 95.9933C59.0334 95.6233 59.3234 97.3933 57.7534 98.2933C52.3734 101.603 47.0934 106.303 40.4734 105.673C36.6234 105.303 34.7334 100.863 39.2734 99.4733V99.4833Z" fill="#D6F7FF"/>
<path d="M27.3835 57.8833C28.4535 58.4333 29.4735 59.0633 29.3535 60.3833C29.0735 63.2733 26.2235 61.8333 25.0035 60.5833C21.9435 57.4633 25.0935 55.9033 27.3835 57.8733V57.8833Z" fill="#89C7DD"/>
<path d="M26.7034 57.4233C26.9334 57.5533 27.1634 57.6933 27.3834 57.8833C28.4534 58.4333 29.4734 59.0633 29.3534 60.3833C29.3134 60.8333 29.1934 61.1733 29.0434 61.4333C28.5434 61.1533 28.0834 60.8033 27.7534 60.4533C26.4234 59.0833 26.2634 58.0233 26.7134 57.4233H26.7034Z" fill="#D6F7FF"/>
<path d="M48.0934 65.1433C50.6034 65.9933 53.5234 67.6433 54.2634 67.7733C56.4834 68.1633 61.0034 69.8833 56.4934 71.5933C54.1134 72.4933 50.4234 70.9633 48.3134 69.9133C47.1334 69.3233 44.3134 67.9633 44.1534 66.4233C43.9234 64.2533 45.8434 64.3833 48.0934 65.1433Z" fill="#89C7DD"/>
<path d="M47.5834 65.7033C47.5534 65.4233 47.5634 65.1833 47.5934 64.9833C47.7534 65.0333 47.9234 65.0833 48.0934 65.1433C50.6034 65.9933 53.5234 67.6433 54.2634 67.7733C56.2734 68.1233 60.1734 69.5633 57.5334 71.1133C55.4934 70.9133 53.2234 69.9433 51.7434 69.2033C50.5634 68.6133 47.7434 67.2533 47.5834 65.7133V65.7033Z" fill="#D6F7FF"/>
<path d="M-5.88657 85.3833C-6.57657 82.6733 -3.96657 83.2233 -2.16657 83.9833C1.55343 85.5533 4.54343 86.9833 8.63343 87.6533C10.8234 88.0133 20.0534 88.2133 19.0534 91.8933C18.1734 95.1433 10.3034 94.9433 7.90343 94.6133C4.70343 94.1833 2.04343 92.6133 -0.39657 90.6133C-2.07657 89.2333 -5.32657 87.5933 -5.88657 85.3733V85.3833Z" fill="#89C7DD"/>
<path d="M1.76343 85.6433C3.92343 86.5133 6.06343 87.2333 8.64343 87.6633C10.8334 88.0233 20.0634 88.2233 19.0634 91.9033C18.6034 93.6033 16.2334 94.3533 13.7334 94.6433C11.3434 93.9633 9.24343 92.6433 7.29343 91.0433C5.61343 89.6633 2.36343 88.0233 1.80343 85.8033C1.79343 85.7433 1.78343 85.6933 1.77343 85.6433H1.76343Z" fill="#D6F7FF"/>
<path d="M33.7034 74.0633C34.9934 74.5733 36.2534 75.2633 37.5034 75.8433C36.2034 75.3433 34.8834 74.7833 33.7034 74.0633Z" fill="#95D7DF"/>
<g style="mix-blend-mode:multiply" opacity="0.3">
<path d="M16.6834 70.7333C17.2534 70.0833 17.8734 69.8633 18.5334 69.9533C18.5634 69.9733 18.5834 69.9933 18.6134 70.0133C21.5234 72.4933 19.5734 76.3433 20.4134 79.3833C22.3234 86.3433 31.5734 90.3033 38.4234 89.3633C47.0034 88.1833 54.7834 84.0633 63.2434 82.5833C66.5734 82.0033 70.0634 81.6933 73.3534 82.0233C75.9334 82.2833 83.2234 83.5533 83.6434 86.6433C82.0034 86.9633 80.0734 85.0133 78.4734 85.8833C76.2234 87.1033 78.6034 88.6433 79.9034 89.3433C82.0134 90.4833 84.5534 90.7833 86.6034 92.0633C89.0834 93.6033 90.6534 95.9633 92.4134 98.2533L81.2234 97.0233C76.2134 93.5633 73.2534 88.9433 67.0934 88.0933C64.4634 87.7333 61.9134 87.6633 59.2534 87.9433C53.4934 88.5433 48.3034 91.0433 42.7034 92.2033C36.6534 93.4633 33.6834 92.6733 27.7734 91.0533C21.6134 89.3633 19.4034 84.0433 17.2934 80.3533C16.0534 78.1833 14.8034 72.8733 16.6734 70.7333H16.6834Z" fill="#4A6C8C"/>
</g>
<path d="M37.8934 75.9933C34.6634 74.7933 31.3034 73.2533 29.9034 69.8433C29.2034 68.1333 29.2834 64.7933 31.0134 64.3733C31.0134 64.3733 30.6434 67.5733 30.9634 68.3633C31.7334 70.3133 33.9534 71.7733 35.6234 72.9833C37.2334 74.1533 38.9934 74.5233 40.8034 75.4333C42.0334 76.0533 44.2034 78.4533 42.5634 79.7533C42.8734 78.4033 39.4434 76.5633 37.9034 75.9933H37.8934Z" fill="#89C7DD"/>
<path d="M38.5334 85.4433C39.7034 86.4133 38.7434 86.7033 37.5234 86.6933C34.5634 86.6533 31.5834 85.9233 28.9734 84.5433C28.1434 84.1033 23.6634 81.1233 24.7734 79.7233C25.3734 78.9633 26.8834 80.7933 27.2834 81.1933C28.7734 82.6733 30.6434 83.8233 32.7334 84.2333C34.5234 84.5833 37.0334 84.2033 38.5334 85.4533V85.4433Z" fill="#D6F7FF"/>
<path d="M86.6035 87.9133C87.2535 89.5033 92.9635 94.7133 94.8435 93.8333C97.7335 92.4833 90.3335 88.4033 89.0235 88.2333C87.2935 88.0033 87.2735 89.0833 88.5335 90.1733" fill="#89C7DD"/>
<path d="M36.6334 102.113C36.8934 102.213 37.1634 102.323 37.4534 102.413C39.3134 102.963 40.5134 102.053 42.3234 101.943C43.6134 101.873 44.8034 102.473 46.0634 102.523C47.7734 102.603 49.1434 101.893 50.6734 101.173C52.9234 100.113 56.9934 98.6033 58.6234 96.4133C58.9634 96.9333 58.6834 97.7633 57.7534 98.3033C52.3734 101.613 47.0934 106.313 40.4734 105.683C38.1434 105.463 36.5334 103.743 36.6334 102.123V102.113Z" fill="#89C7DD"/>
</g>
<defs>
<clipPath id="clip0_2130_5460">
<rect width="114" height="114" rx="4" fill="white"/>
</clipPath>
</defs>
</svg>
