<svg width="114" height="114" viewBox="0 0 114 114" fill="none" xmlns="http://www.w3.org/2000/svg">
<g clip-path="url(#clip0_2130_5494)">
<rect width="114" height="114" rx="4" fill="#CCECFB"/>
<path d="M41.082 77.536C39.482 72.288 38.682 66.624 38.682 60.544C38.682 53.76 39.354 48.128 40.698 43.648C42.042 39.168 43.13 35.776 43.962 33.472C44.794 31.168 45.626 29.184 46.458 27.52C47.354 25.792 48.122 24.32 48.762 23.104C49.466 21.824 50.106 20.768 50.682 19.936C50.042 22.304 49.274 26.048 48.378 31.168C47.546 36.288 47.13 41.76 47.13 47.584C47.13 57.888 48.826 66.496 52.218 73.408L41.082 77.536ZM37.818 33.376L37.05 26.368C39.61 25.984 41.626 25.472 43.098 24.832C44.634 24.128 45.754 23.616 46.458 23.296C47.226 22.976 47.834 22.656 48.282 22.336C47.962 22.976 47.45 23.808 46.746 24.832C46.042 25.856 45.018 27.264 43.674 29.056C42.33 30.848 40.378 32.288 37.818 33.376ZM65.832 77.536C64.232 72.288 63.432 66.624 63.432 60.544C63.432 53.76 64.104 48.128 65.448 43.648C66.792 39.168 67.88 35.776 68.712 33.472C69.544 31.168 70.376 29.184 71.208 27.52C72.104 25.792 72.872 24.32 73.512 23.104C74.216 21.824 74.856 20.768 75.432 19.936C74.792 22.304 74.024 26.048 73.128 31.168C72.296 36.288 71.88 41.76 71.88 47.584C71.88 57.888 73.576 66.496 76.968 73.408L65.832 77.536ZM62.568 33.376L61.8 26.368C64.36 25.984 66.376 25.472 67.848 24.832C69.384 24.128 70.504 23.616 71.208 23.296C71.976 22.976 72.584 22.656 73.032 22.336C72.712 22.976 72.2 23.808 71.496 24.832C70.792 25.856 69.768 27.264 68.424 29.056C67.08 30.848 65.128 32.288 62.568 33.376Z" fill="#3A3A3A"/>
<path d="M33.35 81.2925C31.4 83.1825 27.58 82.1525 26.33 77.3225C25.83 75.3925 25.46 72.1425 25.25 68.7925C24.94 63.7825 25 58.5325 25.54 57.1325C26.45 54.7925 27.15 55.4525 27.15 55.4525C27.15 55.4525 31.91 59.7825 32.18 66.0025C32.21 66.7625 32.28 67.5425 32.38 68.3225C33.07 73.9025 35.06 79.6225 33.35 81.2725V81.2925Z" fill="#D36251"/>
<path d="M0.0499946 116.443C0.0499946 116.443 1.08999 118.783 6.40999 118.353C6.40999 118.353 7.86999 107.703 11.48 103.063C15.09 98.4225 -0.990005 107.693 0.0499946 116.443Z" fill="#33314F"/>
<path d="M23.4 112.713C19.78 121.223 8.64002 128.153 6.23002 130.863C3.82002 133.573 5.63002 138.543 6.08002 139.603C6.53002 140.663 4.73002 142.163 2.39002 141.413C0.850018 140.923 0.440019 139.473 0.0400187 137.933C-0.159981 137.143 -0.359981 136.323 -0.699981 135.613C-2.36998 132.123 -2.43998 130.653 0.280019 129.213C2.79002 127.883 4.27002 123.413 5.40002 117.843C5.87002 115.523 6.62002 113.523 7.33002 111.983C8.32002 109.833 9.24002 108.583 9.24002 108.583C14.21 103.913 27.01 104.213 23.4 112.723V112.713Z" fill="#E48963"/>
<path opacity="0.5" d="M23.4 112.713C19.78 121.223 8.64004 128.153 6.23004 130.863C3.82004 133.573 5.63004 138.543 6.08004 139.603C6.53004 140.663 4.73004 142.163 2.39004 141.413C0.850039 140.923 0.440039 139.473 0.0400391 137.933C0.750039 138.593 1.47004 138.853 2.06004 138.263C3.99004 136.333 2.46004 135.703 4.51004 131.663C6.56004 127.623 15.77 117.793 12.25 115.683C10.32 114.533 8.54004 113.073 7.33004 111.983C8.32004 109.833 9.24004 108.583 9.24004 108.583C14.21 103.913 27.01 104.213 23.4 112.723V112.713Z" fill="#D36251"/>
<path d="M44.85 129.133C44.91 129.623 44.13 130.043 43.2 130.173C41.62 130.403 39.13 129.643 37.63 129.493C36.12 129.343 33.49 130.853 33.19 129.043C32.89 127.233 35 125.423 33.26 121.963C31.53 118.503 29.85 112.023 29.87 111.793C30.47 105.693 42.82 104.183 42.67 107.053C42.59 108.603 42.1101 110.983 41.4801 113.523C40.9501 115.673 40.3201 117.933 39.7301 119.923C38.4501 124.293 40.63 127.223 43.27 128.053C44.35 128.393 44.8001 128.773 44.8401 129.113L44.85 129.133Z" fill="#E48963"/>
<path opacity="0.5" d="M44.85 129.133C44.91 129.623 44.13 130.043 43.2 130.173C41.62 130.403 39.13 129.643 37.63 129.493C36.12 129.343 33.49 130.853 33.19 129.043C32.89 127.233 35 125.423 33.26 121.963C31.53 118.503 29.85 112.023 29.87 111.793C30.47 105.693 42.82 104.183 42.67 107.053C42.59 108.603 42.1101 110.983 41.4801 113.523C40.3201 114.253 38.5901 115.103 36.1401 115.793C30.5801 117.353 35.83 121.723 36.02 125.033C36.21 128.343 36.02 128.533 40.77 128.843C42.74 128.973 43.98 129.123 44.85 129.123V129.133Z" fill="#D36251"/>
<path d="M43.13 110.293C43.13 110.293 39.9901 112.113 30.9401 113.063C29.4001 113.223 27.7 113.363 25.81 113.453C25.35 113.473 24.8901 113.493 24.4401 113.503C21.3101 113.563 18.5301 113.243 16.1301 112.733C9.16005 111.273 5.33005 108.253 5.33005 108.253C4.88005 102.683 6.23005 96.9525 6.23005 96.9525C6.23005 96.9525 0.96005 91.6825 0.13005 84.7525C0.13005 84.7425 0.13005 84.7325 0.13005 84.7125C-0.67995 77.8125 2.62005 74.1325 2.62005 74.1325L24.08 79.0325L23.0001 83.2025C36.3801 90.5325 42.91 101.703 43.21 103.663C43.51 105.623 43.14 110.293 43.14 110.293H43.13Z" fill="#33314F"/>
<g style="mix-blend-mode:multiply">
<path d="M21.2601 84.5625C21.2601 84.5625 24.7501 87.8525 24.9501 93.2625C24.9501 93.2625 27.3601 89.9725 30.8001 89.9225C30.8001 89.9225 31.1901 88.6425 28.6401 87.0725C26.0801 85.5025 22.1501 83.7825 22.0001 83.6825C21.8501 83.5825 21.2601 84.5725 21.2601 84.5725V84.5625Z" fill="#33314F"/>
</g>
<g style="mix-blend-mode:multiply">
<path d="M17.7901 102.393C15.9001 106.783 15.8401 110.443 16.1301 112.743C9.16007 111.283 5.33007 108.263 5.33007 108.263C4.88007 102.693 6.23007 96.9625 6.23007 96.9625C6.23007 96.9625 0.960066 91.6925 0.130066 84.7625C0.130066 84.7525 0.130066 84.7425 0.130066 84.7225C1.83007 88.2825 4.89007 93.2525 8.87007 93.6425C15.1401 94.2625 18.8501 91.9625 18.8501 91.9625L21.8501 90.9925C21.8501 90.9925 21.0601 94.7925 17.7901 102.383V102.393Z" fill="#33314F"/>
</g>
<g style="mix-blend-mode:multiply">
<path d="M30.94 113.073C29.4 113.233 27.7 113.373 25.81 113.463C25.35 113.483 24.89 113.503 24.44 113.513C25.94 110.883 27.96 106.403 27.39 103.073C26.57 98.3325 21.82 88.9125 21.67 88.6225C21.88 88.8925 28.47 97.7325 30.02 102.623C31.06 105.883 31.06 110.373 30.94 113.073Z" fill="#33314F"/>
</g>
<path d="M38.42 45.4725C36.45 48.3925 32.09 47.3025 32.09 47.3025C32.09 47.3025 29.48 53.0025 26.48 62.8625C23.48 72.7225 2.17002 74.1225 -5.93998 66.2925C-10.26 62.1225 -10.45 56.8925 -8.51998 52.6525C-6.82998 48.9325 -3.50998 45.9625 0.050024 45.1225C7.68002 43.3325 14.5 42.7525 20.49 38.5525C26.48 34.3525 31.34 33.3725 35.08 35.0825C36.81 35.8725 37.98 36.8925 38.72 38.0325C40.29 40.4525 39.83 43.3725 38.42 45.4725Z" fill="#521817"/>
<g style="mix-blend-mode:multiply" opacity="0.5">
<path d="M39.51 43.0025C39.3 43.8925 38.92 44.7225 38.42 45.4625C36.45 48.3825 32.09 47.2925 32.09 47.2925C32.09 47.2925 29.48 52.9925 26.48 62.8525C23.48 72.7125 2.17002 74.1125 -5.93998 66.2825C-10.26 62.1125 -10.45 56.8825 -8.51998 52.6425C-8.51998 52.6625 -8.51998 52.6825 -8.51998 52.7025C-8.18998 55.3625 -4.77998 56.2025 -3.17998 54.0525C-1.91998 52.3625 -0.189976 50.5825 2.09002 49.3225C7.85003 46.1425 13.68 45.1525 13.68 45.1525C13.68 45.1525 7.92002 47.0025 3.61002 51.5825C-0.689976 56.1525 -0.829976 59.4025 -0.829976 59.4025C-0.829976 59.4025 2.15002 52.5125 8.98002 49.7925C15.69 47.1225 20.35 42.8525 20.5 42.7125C20.43 42.8625 19.3 45.2225 16.73 47.4125C16.73 47.4125 19.38 47.3425 23.29 43.1125C25.92 40.2625 28.7 39.0825 30.24 38.6225C30.99 38.4025 31.44 38.3425 31.44 38.3425C31.44 38.3425 30.24 39.1225 28.68 40.4225C27.31 41.5825 25.66 43.1525 24.32 44.9925C24.7 44.5125 25.75 43.4025 27.81 42.5525C28.87 42.5325 30.59 42.8025 32.61 44.3525C35.22 46.3525 38.17 45.5325 39.5 43.0025H39.51Z" fill="#18203D"/>
</g>
<path d="M32.38 68.3325C29.44 67.7825 26.67 68.3825 25.25 68.7925C24.94 63.7825 25 58.5325 25.54 57.1325C26.45 54.7925 27.15 55.4525 27.15 55.4525C27.15 55.4525 31.91 59.7825 32.18 66.0025C32.21 66.7625 32.28 67.5425 32.38 68.3225V68.3325Z" fill="#E99ABA"/>
<path d="M24.27 81.0025L23.87 82.8325L23.79 83.2125C23.79 83.2125 20.44 86.0225 11.64 83.7025C2.83998 81.3825 1.91998 74.3625 1.91998 74.3625C1.91998 74.3625 3.19998 75.5225 5.29998 76.8325C7.42998 78.1725 10.42 79.6725 13.79 80.2925C20.49 81.5325 24.26 80.9925 24.26 80.9925L24.27 81.0025Z" fill="#4C6E90"/>
<path d="M23.87 82.8425L23.79 83.2225C23.79 83.2225 20.44 86.0325 11.64 83.7125C2.83998 81.3925 1.91998 74.3725 1.91998 74.3725C1.91998 74.3725 3.19998 75.5325 5.29998 76.8425C5.30998 77.0925 5.30998 77.2425 5.30998 77.2425C5.30998 77.2425 4.47998 77.0325 5.47998 79.0325C6.47998 81.0325 12.06 83.7825 18.76 83.7425C21.11 83.7325 22.78 83.2825 23.86 82.8425H23.87Z" fill="#345275"/>
<path d="M22.68 83.3125C22.49 84.4525 21.64 84.7625 20.22 84.8925C18.8 85.0225 18.7 84.4825 18.61 83.2825C18.55 82.5725 18.54 81.8925 18.72 81.4425C18.84 81.1325 19.05 80.9325 19.39 80.8925C19.39 80.8925 20.37 80.8025 21.66 80.8025C22.35 80.8025 22.64 81.1925 22.74 81.7325C22.83 82.2025 22.76 82.7925 22.67 83.3225L22.68 83.3125Z" fill="#4C6E90"/>
<path d="M22.68 83.3125C22.49 84.4525 21.64 84.7625 20.22 84.8925C18.8 85.0225 18.7 84.4825 18.61 83.2825C18.55 82.5725 18.54 81.8925 18.72 81.4425L19.46 81.6325C18.62 83.2525 19.65 84.2725 20.26 83.2425C20.86 82.2025 21.06 83.1425 21.41 83.4925C21.77 83.8325 22.66 82.8625 22.43 82.0825C22.35 81.8125 22.52 81.6925 22.75 81.7325C22.84 82.2025 22.77 82.7925 22.68 83.3225V83.3125Z" fill="#345275"/>
<path d="M21.94 84.1125C23.08 85.4925 26.21 88.4225 25.36 92.4425C25.36 92.4425 27.67 89.3425 30.08 88.8525C32.49 88.3625 32.93 89.2925 32.93 89.2925C32.93 89.2925 33.27 87.3225 28.11 85.9525C24.74 85.0525 23.29 84.0925 22.42 83.5925C22.12 83.4225 21.76 83.8925 21.94 84.1125Z" fill="#18203D"/>
<path d="M5.4 98.9825C4.19 99.4625 3.59 99.6925 3.38 99.7825C4.18 99.4825 10.28 97.1425 3.76 99.9325C-5.09 103.733 -7.94 110.213 -7.94 110.213C-8.12 108.123 -8.62 106.493 -9.27 105.233C-11.08 101.723 -14 101.093 -14 101.093C-11.89 98.1425 -6.46 93.5025 5.6 92.5025C17.67 91.5025 19.39 84.9725 19.39 84.9725C19.71 84.6125 20.01 84.6025 20.2 84.6625C20.33 84.6925 20.41 84.7625 20.41 84.7625C19.57 94.8725 12.62 96.1425 5.4 98.9825Z" fill="#18203D"/>
<path d="M5.39998 98.9825C4.18998 99.4625 3.58998 99.6925 3.37998 99.7825C4.17998 99.4825 10.28 97.1425 3.75998 99.9325C-5.09002 103.733 -7.94002 110.213 -7.94002 110.213C-8.12002 108.123 -8.62002 106.493 -9.27002 105.233C-8.12002 104.793 -6.96002 104.063 -5.92002 102.863C-1.99002 98.3325 3.40998 96.8625 3.40998 96.8625C-1.72002 99.3225 -4.01002 103.573 -4.01002 103.573C-0.41002 99.0425 6.29998 96.8625 12.19 94.9025C18.08 92.9325 20.2 84.9025 20.2 84.9025C20.2 84.8225 20.2 84.7425 20.2 84.6725C20.33 84.7025 20.41 84.7725 20.41 84.7725C19.57 94.8825 12.62 96.1525 5.39998 98.9925V98.9825Z" fill="#2B398E"/>
<path d="M21.2 83.8925C21.2 83.8925 25.33 90.0925 19.04 98.6425C12.75 107.203 10.98 109.313 10.34 113.143C10.34 113.143 9.65001 109.993 4.83001 111.573C0.0100117 113.143 0.0600125 116.493 0.0600125 116.493C0.0600125 116.493 -1.45999 113.833 1.09001 109.753C3.64001 105.673 10.09 100.703 14.12 96.7725C18.15 92.8425 19.97 88.9025 20.17 84.3825C20.17 84.3825 20.12 83.6425 21.2 83.8925Z" fill="#18203D"/>
<path d="M20.56 87.9725C20.56 87.9725 18.94 95.2525 13.46 100.423C7.97998 105.593 6.53998 109.003 6.53998 109.003C6.53998 109.003 10.63 103.883 14.67 100.463C18.71 97.0525 20.15 92.6425 20.56 87.9725Z" fill="#2B398E"/>
<path d="M29.22 67.4025C28.1 70.3625 25.67 77.1225 24.69 79.8425C24.43 80.5725 24.27 81.0125 24.27 81.0125C24.27 81.0125 22.14 82.7625 13.51 81.4125C4.87998 80.0625 1.91998 74.3725 1.91998 74.3725C1.91998 74.3725 2.61998 68.1825 6.15998 60.1225C6.96998 58.2825 7.82998 56.6725 8.72998 55.2825C11.75 50.6025 15.06 48.4725 17.41 48.5825C20.45 48.7225 22.94 51.6425 22.94 51.6425C31.51 57.5325 30.64 63.6525 29.22 67.4025Z" fill="#F1BED3"/>
<g style="mix-blend-mode:multiply" opacity="0.3">
<path d="M13.52 81.4125C4.88999 80.0625 1.92999 74.3725 1.92999 74.3725C1.92999 74.3725 2.62999 68.1825 6.16999 60.1225C6.97999 58.2825 7.83999 56.6725 8.73999 55.2825C8.84999 55.2225 8.94999 55.1725 9.03999 55.1325C13.15 53.3625 14.58 54.4425 14.58 54.4425C14.58 54.4425 14.6 57.0825 13.82 60.3725C12.67 65.2425 14.1 70.3125 17.55 73.8325C18.65 74.9525 19.34 76.4525 19.35 78.0225C19.36 80.0425 18.32 82.1625 13.52 81.4125Z" fill="#4A6C8C"/>
</g>
<path d="M28.59 50.2025C27.8 51.3425 26.67 53.9425 26.43 54.5025C26.4 54.5725 26.39 54.6125 26.39 54.6125C26.39 54.6125 25.51 55.6125 23.35 54.8525C21.18 54.0925 21.27 50.9225 21.27 50.9225C22.38 49.9025 23.46 48.5625 24.28 47.4125C25.24 46.0825 25.88 45.0325 25.88 45.0325C25.88 45.0325 29.49 48.9225 28.6 50.2025H28.59Z" fill="#E48963"/>
<path d="M28.59 50.2025C27.8 51.3425 26.67 53.9425 26.43 54.5025C24.14 52.7425 24.02 49.6025 24.27 47.4125C25.23 46.0825 25.87 45.0325 25.87 45.0325C25.87 45.0325 29.48 48.9225 28.59 50.2025Z" fill="#D36251"/>
<path d="M42.38 69.0225C42.24 69.8625 40.96 70.7925 38.5 70.8925C33.86 71.0825 19.32 69.4625 18.88 69.3525C18.44 69.2425 17.82 68.6225 17.82 68.6225C17.82 68.4625 17.46 67.6325 17.03 65.6525C17 65.5225 16.97 65.3825 16.94 65.2525C16.48 62.9925 19.82 64.1925 21.6 66.8725C21.62 66.8925 21.63 66.9125 21.64 66.9425C23.41 69.6625 22.95 66.4525 21.64 63.6525C21.37 63.0725 21.26 62.6025 21.29 62.2625C21.4 60.9725 23.44 61.4225 25.53 63.6525C28.16 66.4725 30 66.1125 35.03 62.9825C39.53 60.1825 42.64 60.2025 40.89 62.3625C40.68 62.6125 40.41 62.9025 40.06 63.2125C37.78 65.2625 36.97 66.6125 37.85 67.2325C38.24 67.5125 38.97 67.6425 40.06 67.6225C41.72 67.5925 42.5 68.2825 42.37 69.0225H42.38Z" fill="#95D7DF"/>
<path d="M21.61 66.8725C21.49 66.8125 21.34 66.6825 21.16 66.4625C20.01 65.0525 18.89 64.3525 17.71 64.9825C17.32 65.1925 17.13 65.4325 17.05 65.6625C17.02 65.5325 16.99 65.3925 16.96 65.2625C16.5 63.0025 19.85 63.8825 21.62 66.8825L21.61 66.8725Z" fill="#E8F0FD"/>
<path d="M31.22 65.6825C27.62 67.6525 26.61 66.1625 24.68 63.4925C23.49 61.8525 22.01 61.7025 21.3 62.2525C21.41 60.9625 23.51 61.1625 25.6 63.3925C28.23 66.2125 29.98 65.7525 35.01 62.6225C39.51 59.8225 42.82 60.2425 40.9 62.3525C40.89 61.9425 40.65 61.6425 40.09 61.5225C38.34 61.1525 34.82 63.7125 31.22 65.6825Z" fill="#E8F0FD"/>
<path d="M42.38 69.0225C42.14 68.5525 41.53 68.1925 40.39 68.1325C38.88 68.0525 38.05 67.7325 37.86 67.2225C38.25 67.5025 39 67.5725 40.09 67.5625C41.75 67.5325 42.61 68.1925 42.38 69.0225Z" fill="#E8F0FD"/>
<path d="M41.7 72.4225C41.7 72.4225 41.32 73.9725 40.12 75.7325C38.45 78.1725 35.21 81.0225 29.24 80.7025C20.64 80.2225 16.49 76.4725 16.09 71.2225C16.01 70.2025 16.07 69.1325 16.27 68.0125C16.27 68.0125 16.66 67.8325 17.37 67.5925C19.4 66.9125 24.1 65.7325 30.13 66.7225C37.37 67.9125 40.87 71.4725 41.56 72.2625C41.65 72.3625 41.69 72.4225 41.69 72.4225H41.7Z" fill="#EEE6E0"/>
<path d="M41.7 72.4225C41.7 72.4225 41.32 73.9725 40.12 75.7325C38.2 73.9625 34.12 70.8625 28.29 69.9625C22.23 69.0225 17.97 70.3925 16.09 71.2225C16.01 70.2025 16.07 69.1325 16.27 68.0125C16.27 68.0125 21.98 65.3825 30.13 66.7325C38.29 68.0725 41.7 72.4325 41.7 72.4325V72.4225Z" fill="#E9A749"/>
<g style="mix-blend-mode:multiply">
<path d="M41.7 72.4225C41.7 72.4225 41.32 73.9725 40.12 75.7325C38.45 78.1725 35.21 81.0225 29.24 80.7025C20.64 80.2225 16.49 76.4725 16.09 71.2225C16.01 70.2025 16.07 69.1325 16.27 68.0125C16.27 68.0125 16.66 67.8325 17.37 67.5925C17.71 69.4225 19.13 74.0825 24.93 75.0025C32.05 76.1425 37.47 76.9325 41.57 72.2625C41.66 72.3625 41.7 72.4225 41.7 72.4225Z" fill="#D0D0D0"/>
</g>
<path d="M35.93 80.6025C35.89 82.2225 34.44 81.2825 34.44 81.2825C34.21 82.5825 32.34 82.6725 30.72 82.7025C29.1 82.7325 28.74 81.9425 28.51 80.2225C28.46 79.8725 28.45 79.5525 28.49 79.2525C28.79 76.1625 32.94 76.0725 33.42 76.4525C33.92 76.8425 34.33 79.1825 34.37 79.4725C34.35 79.1425 34.19 76.2525 34.75 76.3025C35.13 76.3425 35.53 77.4625 35.75 78.6825C35.87 79.3425 35.93 80.0425 35.92 80.6025H35.93Z" fill="#E48963"/>
<path opacity="0.5" d="M35.93 80.6025C35.89 82.2225 34.44 81.2825 34.44 81.2825C34.21 82.5825 32.34 82.6725 30.72 82.7025C29.1 82.7325 28.74 81.9425 28.51 80.2225C28.46 79.8725 28.45 79.5525 28.49 79.2525C28.62 80.6625 29.43 81.9725 30 81.8625C30.77 81.7025 29.93 79.4625 30.13 79.1625C30.32 78.8725 30.8 81.8625 31.58 81.6025C32.35 81.3425 31.61 79.0625 31.9 78.8425C32.19 78.6225 32.51 81.5425 33.51 81.4425C34.51 81.3425 34.22 79.7125 34.35 79.6725C34.48 79.6425 34.61 80.7925 35.15 80.7925C35.61 80.7925 35.73 79.6925 35.77 78.6725C35.89 79.3325 35.95 80.0325 35.94 80.5925L35.93 80.6025Z" fill="#D36251"/>
<path d="M23.1 73.8725C23.1 73.8725 25.86 74.8425 27.45 74.9225C29.04 75.0025 27.37 76.8025 24.88 76.1425C22.39 75.4925 23.1 73.8725 23.1 73.8725Z" fill="#D36251"/>
<path d="M26.72 81.9225C26.02 82.1925 23.55 81.0825 23.55 81.0825C23.55 81.0825 20.6 80.7325 19.51 80.4725C18.41 80.2125 16.94 76.5425 16.94 76.5425C5.20002 76.3425 1.20002 73.0125 1.20002 73.0125C1.09002 72.0325 1.05002 71.0725 1.07002 70.1225C1.18002 65.4425 2.79002 61.2125 5.03002 57.7725C8.25002 52.8125 12.79 49.4825 16.04 48.7625C16.04 48.7625 18.13 51.8125 16.04 56.4125C15.11 58.4625 13.64 60.9025 12.29 62.9825C10.61 65.5725 9.12002 67.5925 9.12002 67.5925C11.4 67.7525 15.93 70.2825 17.8 71.3425C19.67 72.4025 21.92 73.6625 22.85 73.7825C23.79 73.9025 26.07 77.0025 26.34 77.6525C26.42 77.8525 26.55 78.2925 26.68 78.8225C26.97 80.0425 27.22 81.7325 26.74 81.9225H26.72Z" fill="#E48963"/>
<path opacity="0.5" d="M26.72 81.9225C26.02 82.1925 23.55 81.0825 23.55 81.0825C23.55 81.0825 20.6 80.7325 19.51 80.4725C18.41 80.2125 16.94 76.5425 16.94 76.5425C5.20002 76.3425 1.20002 73.0125 1.20002 73.0125C1.09002 72.0325 1.05002 71.0725 1.07002 70.1225C2.39002 72.4925 5.79002 73.8925 10.3 74.0325C16.3 74.2225 17.47 74.2225 17.47 74.2225C17.47 74.2225 18.25 78.3625 18.98 79.1325C19.71 79.9025 20.19 78.9525 20.19 78.9525C20.19 78.9525 20.45 79.9025 21.25 79.9425C22.05 79.9725 22.31 79.1025 22.31 79.1025C22.31 79.1025 22.67 80.1325 23.37 80.2025C24.07 80.2725 24.36 79.4325 24.36 79.4325C24.36 79.4325 24.54 80.4925 25.53 80.6025C26.34 80.6925 26.59 79.8225 26.67 78.8425C26.96 80.0625 27.21 81.7525 26.73 81.9425L26.72 81.9225Z" fill="#D36251"/>
<path d="M16.03 56.4025C15.27 58.0825 14.13 60.0425 13.01 61.8325C12.76 62.2225 12.52 62.6025 12.28 62.9725C7.59003 62.4325 5.72003 59.4325 5.03003 57.7625C5.25003 57.4225 5.48003 57.0925 5.71003 56.7725C8.87003 52.3625 13.01 49.4225 16.03 48.7525C16.03 48.7525 18.12 51.8025 16.03 56.4025Z" fill="#E99ABA"/>
<path d="M13 61.8325C12.75 62.2225 12.51 62.6025 12.27 62.9725C7.58002 62.4325 5.71002 59.4325 5.02002 57.7625C5.24002 57.4225 5.47002 57.0925 5.70002 56.7725C6.68002 58.4125 8.84002 61.0225 13 61.8325Z" fill="white"/>
<path d="M34.8699 47.3325C33.7299 49.3525 32.5399 53.7825 28.4199 52.6825C27.5899 52.4625 26.9299 52.0525 26.4399 51.5025C24.4599 49.3425 24.9499 45.0825 26.7999 42.1125C29.1699 38.3025 31.9099 36.7125 34.5199 37.6725C34.9999 37.8525 35.4899 38.1225 35.9599 38.4725C38.9799 40.7525 35.9999 45.3125 34.8599 47.3325H34.8699Z" fill="#E48963"/>
<path opacity="0.5" d="M34.5199 37.6625C34.1399 38.1225 33.61 38.7025 32.84 39.4825C32.84 39.4825 28.8299 43.0825 27.0699 47.3125C26.3499 49.0425 26.2699 50.4425 26.4399 51.5025C24.4599 49.3425 24.9499 45.0825 26.7999 42.1125C29.1699 38.3025 31.9099 36.7125 34.5199 37.6725V37.6625Z" fill="#D36251"/>
<path d="M33.99 40.2725C33.99 40.2725 31.01 43.1225 26.23 42.4625C26.23 42.4625 26.29 36.4325 31.75 36.1925C37.21 35.9525 38.95 39.6725 38.61 42.0425C38.27 44.4125 36.77 45.5725 36.77 45.5725C36.77 45.5725 33.62 43.9225 33.99 40.2725Z" fill="#521817"/>
<path d="M39.88 40.7425C39.75 40.6825 39.6 40.7425 39.54 40.8725L39.52 40.9025C39.48 40.9725 39.35 41.1525 39.06 41.3225C38.77 41.4925 38.32 41.6425 37.62 41.6425C37.48 41.6425 37.34 41.6425 37.19 41.6225C36.2 41.5425 35.56 41.0625 35.15 40.5925C34.95 40.3625 34.81 40.1225 34.72 39.9525C34.68 39.8625 34.64 39.7925 34.62 39.7525L34.6 39.7025V39.6925C34.56 39.5825 34.46 39.5125 34.35 39.5225H34.32C34.16 39.5225 33.36 39.5125 32.42 39.2825C31.49 39.0625 30.44 38.6225 29.77 37.8225C29.17 37.1025 29.01 36.4325 29 35.8725C29 35.4725 29.09 35.1325 29.18 34.8825C29.22 34.7625 29.27 34.6725 29.3 34.6025C29.32 34.5725 29.33 34.5425 29.34 34.5325V34.5125H29.35C29.43 34.3925 29.39 34.2325 29.27 34.1525C29.15 34.0725 28.99 34.1125 28.91 34.2325C28.91 34.2325 28.48 34.9025 28.48 35.8625C28.48 36.5325 28.69 37.3425 29.37 38.1425C30.16 39.0725 31.31 39.5325 32.3 39.7725C33.14 39.9725 33.86 40.0125 34.18 40.0225C34.27 40.2225 34.45 40.5625 34.76 40.9225C35.23 41.4625 36 42.0425 37.15 42.1325C37.32 42.1425 37.48 42.1525 37.63 42.1525C38.55 42.1525 39.15 41.9025 39.52 41.6425C39.89 41.3725 40.01 41.1025 40.03 41.0725C40.09 40.9425 40.03 40.7925 39.89 40.7325L39.88 40.7425Z" fill="#4C6E90"/>
<path d="M28.91 47.8825C29.44 48.3125 30.28 48.9325 31.19 49.3125C31.44 49.4125 31.48 49.7425 31.27 49.9025C30.87 50.2125 30.17 50.4925 29.23 49.9425C28.42 49.4725 28.23 48.7725 28.23 48.2225C28.23 47.8625 28.64 47.6525 28.92 47.8825H28.91Z" fill="white"/>
<path d="M26.43 41.9625C26.43 41.9625 24.88 40.9725 24.9 39.7625C24.91 38.5425 26.14 38.6725 26.43 39.5825C26.83 40.8125 26.43 41.9625 26.43 41.9625Z" fill="#E9A749"/>
<path d="M26.43 41.9725C26.43 41.9725 26.03 40.1825 26.9 39.3325C27.77 38.4825 28.54 39.4425 28.11 40.2925C27.52 41.4425 26.43 41.9725 26.43 41.9725Z" fill="white"/>
<path d="M26.42 41.9725C26.42 41.9725 27.41 40.4225 28.62 40.4425C29.84 40.4525 29.71 41.6825 28.8 41.9725C27.57 42.3725 26.42 41.9725 26.42 41.9725Z" fill="#E9A749"/>
<path d="M26.41 41.9725C26.41 41.9725 28.2 41.5725 29.05 42.4425C29.9 43.3125 28.94 44.0825 28.09 43.6525C26.94 43.0625 26.41 41.9725 26.41 41.9725Z" fill="white"/>
<path d="M26.3999 41.9625C26.3999 41.9625 27.9499 42.9525 27.9299 44.1625C27.9199 45.3825 26.6899 45.2525 26.3999 44.3425C25.9999 43.1125 26.3999 41.9625 26.3999 41.9625Z" fill="#E9A749"/>
<path d="M26.41 41.9525C26.41 41.9525 26.81 43.7425 25.94 44.5925C25.07 45.4425 24.3 44.4825 24.73 43.6325C25.32 42.4825 26.41 41.9525 26.41 41.9525Z" fill="white"/>
<path d="M26.42 41.9525C26.42 41.9525 25.43 43.5025 24.22 43.4825C23 43.4725 23.13 42.2425 24.04 41.9525C25.27 41.5525 26.42 41.9525 26.42 41.9525Z" fill="#E9A749"/>
<path d="M26.4299 41.9525C26.4299 41.9525 24.6399 42.3525 23.7899 41.4825C22.9399 40.6125 23.9 39.8425 24.75 40.2725C25.9 40.8625 26.4299 41.9525 26.4299 41.9525Z" fill="white"/>
<path d="M26.48 42.8725C26.9715 42.8725 27.37 42.4741 27.37 41.9825C27.37 41.491 26.9715 41.0925 26.48 41.0925C25.9884 41.0925 25.59 41.491 25.59 41.9825C25.59 42.4741 25.9884 42.8725 26.48 42.8725Z" fill="#AD223F"/>
<path d="M123.69 133.863C123.22 134.763 122.69 136.903 122.12 137.713C121.55 138.523 118.18 138.093 116.99 138.143C115.8 138.193 114.19 138.993 114.14 137.813C114.14 137.613 114.23 137.363 114.4 137.063C115.21 135.603 117.67 133.123 117.61 130.993C117.61 130.973 117.61 130.943 117.61 130.923C117.47 128.363 115.95 126.703 112.34 122.853C108.73 119.003 105.05 113.163 106.03 110.933C107.31 107.993 115.86 107.373 117.95 110.313C118.68 111.353 119.37 113.363 119.97 115.633C121.09 119.813 121.96 124.853 122.46 126.173C123.17 128.063 124.15 128.653 124.63 129.893C124.67 129.993 124.71 130.093 124.74 130.203C125.17 131.673 124.17 132.963 123.7 133.863H123.69Z" fill="#EAAA90"/>
<path opacity="0.5" d="M117.61 130.923C117.47 128.363 115.95 126.703 112.34 122.853C108.73 119.003 105.05 113.163 106.03 110.933C107.31 107.993 115.86 107.373 117.95 110.313C118.68 111.353 119.37 113.363 119.97 115.633C119.81 117.153 119.18 119.333 116.93 120.813C113.3 123.203 119.32 127.223 119.61 129.323C119.78 130.583 118.89 130.673 117.62 130.993C117.62 130.973 117.62 130.943 117.62 130.923H117.61Z" fill="#D36251"/>
<path d="M101.18 128.733C101.89 132.963 100.8 133.673 98.57 133.433C96.33 133.193 95.58 133.243 93.2 133.763C91.91 134.043 90.52 134.103 89.54 133.923C88.72 133.773 88.18 133.453 88.22 132.953C88.32 131.863 92.59 130.293 94.02 128.293C95.45 126.303 94.4 122.843 92.61 116.683C91.65 113.383 91.09 110.573 91.03 108.453C90.97 106.623 91.28 105.303 92.02 104.623C94.05 102.753 98.68 103.363 100.39 106.733C102.1 110.103 101.91 114.903 101.05 119.223C100.2 123.543 100.48 124.493 101.2 128.723L101.18 128.733Z" fill="#EAAA90"/>
<path opacity="0.5" d="M101.18 128.733C101.89 132.963 100.8 133.673 98.57 133.433C96.33 133.193 95.58 133.243 93.2 133.763C91.91 134.043 90.52 134.103 89.54 133.923C96.16 131.923 99.41 130.663 99.04 127.583C98.66 124.423 99.13 113.903 96.55 111.513C94.65 109.753 92.19 108.823 91.01 108.453C90.95 106.623 91.26 105.303 92 104.623C94.03 102.753 98.66 103.363 100.37 106.733C102.08 110.103 101.89 114.903 101.03 119.223C100.18 123.543 100.46 124.493 101.18 128.723V128.733Z" fill="#D36251"/>
<path d="M126.87 94.3425C126.05 97.6725 124.07 102.513 122.26 106.583C120.38 110.833 118.68 114.253 118.68 114.253C116.08 113.013 113.63 112.643 111.34 112.603C111.21 112.603 111.08 112.603 110.95 112.603C108.7 112.583 106.63 112.853 104.74 112.863C102.79 112.883 101.03 112.613 99.51 111.463C99.02 111.093 98.52 110.723 98.04 110.373C94.09 107.483 90.76 105.423 90.76 105.423C100.06 89.5125 109.83 85.8825 109.83 85.8825L112 85.5025L126.48 82.9925C126.48 82.9925 128.53 87.5525 126.85 94.3425H126.87Z" fill="#33314F"/>
<g style="mix-blend-mode:multiply">
<path d="M126.87 94.3425C126.05 97.6725 124.07 102.513 122.26 106.583C120.38 110.833 118.68 114.253 118.68 114.253C116.08 113.013 113.63 112.643 111.34 112.603C111.21 112.603 111.08 112.603 110.95 112.603C119.91 104.413 128.13 87.9925 122.7 89.3925C116.93 90.8725 111.41 89.4725 111.41 89.4725C111.41 89.4725 111.58 87.7725 112.01 85.5025L126.49 82.9925C126.49 82.9925 128.54 87.5525 126.86 94.3425H126.87Z" fill="#33314F"/>
</g>
<g style="mix-blend-mode:multiply">
<path d="M122.26 106.583C120.38 110.833 118.68 114.253 118.68 114.253C116.08 113.013 113.63 112.643 111.34 112.603C110.83 106.703 109.75 92.7925 110.6 90.9525C111.69 88.6025 112.2 89.8025 112.2 89.8025C112.2 89.8025 111.29 98.5625 114.55 101.483C116.52 103.243 119.89 105.263 122.25 106.583H122.26Z" fill="#33314F"/>
</g>
<g style="mix-blend-mode:multiply">
<path d="M112.08 88.9425C106.93 100.433 105.26 109.153 104.75 112.863C102.8 112.883 101.04 112.613 99.52 111.463C99.03 111.093 98.53 110.723 98.05 110.373C102.4 97.5625 112.08 88.9525 112.08 88.9525V88.9425Z" fill="#33314F"/>
</g>
<path d="M124.05 87.0025C119.94 89.6825 114 91.2625 109.56 89.8025C109.54 89.8025 109.53 89.8025 109.51 89.7925C106.23 88.7025 107.55 85.7225 108.98 85.1925C108.98 85.1925 112.87 83.9125 116.99 82.6625C121.19 81.3925 125.63 80.1525 126.43 80.3425C128.02 80.7125 128.18 84.3125 124.05 87.0025Z" fill="#18203D"/>
<g style="mix-blend-mode:multiply" opacity="0.5">
<path d="M124.05 87.0025C119.94 89.6825 114 91.2625 109.56 89.8025C111.47 90.0225 114 89.9825 117.14 89.2425C125.15 87.3525 123.76 83.4125 117.98 85.0025L116.99 82.6525C121.19 81.3825 125.63 80.1425 126.43 80.3325C128.02 80.7025 128.18 84.3025 124.05 86.9925V87.0025Z" fill="#18203D"/>
</g>
<path d="M124.44 110.493C124.23 110.453 119.82 109.603 118.32 115.903C118.32 115.913 118.32 115.923 118.32 115.933C117.53 119.253 115.67 120.543 114.04 121.013C112.48 121.463 111.14 121.163 111.14 121.163C101.16 107.623 110.31 89.9225 110.31 89.9225C111.92 87.6925 112.6 90.1125 112.6 90.1125C112.6 90.1125 111.06 96.6025 113.36 100.653C115.63 104.643 124.18 110.313 124.45 110.493H124.44Z" fill="#18203D"/>
<g style="mix-blend-mode:multiply" opacity="0.5">
<path d="M118.31 115.913C118.31 115.913 118.31 115.933 118.31 115.943C117.52 119.263 115.66 120.553 114.03 121.023C111.78 117.923 107.72 111.313 108.08 104.443C108.58 95.0525 107.97 109.993 118.32 115.903L118.31 115.913Z" fill="#18203D"/>
</g>
<path d="M105.09 70.8825C105.09 70.8825 105.02 70.9225 104.98 70.9425C97.07 75.1025 85.63 75.7125 85.63 75.7125C85.63 75.7125 82.25 79.2025 79.87 79.5525C77.49 79.9025 76.37 77.8025 78.29 76.8625C80.21 75.9325 81.38 74.1025 81.38 74.1025C81.38 74.1025 78.21 74.0425 79.27 73.2525C80.33 72.4625 84.36 71.7825 84.36 71.7825C84.36 71.7825 90.44 69.5025 97.01 65.1325C98.38 64.2225 99.61 63.4025 100.73 62.6725C107.17 58.4325 109.75 57.0325 111.98 58.2325C115.86 60.3025 113.01 66.6825 105.1 70.8925L105.09 70.8825Z" fill="#D36251"/>
<g style="mix-blend-mode:multiply">
<path d="M94.9599 66.4325C89.2199 69.9525 84.34 71.7825 84.34 71.7825C84.34 71.7825 80.3099 72.4625 79.2499 73.2525C78.1899 74.0425 81.3599 74.1025 81.3599 74.1025C81.3599 74.1025 80.18 75.9325 78.27 76.8625C76.35 77.7925 77.4699 79.9025 79.8499 79.5525C82.2299 79.2025 85.6099 75.7125 85.6099 75.7125C85.6099 75.7125 89.5399 75.5025 94.3899 74.4925C96.2799 70.0725 95.8 68.6225 94.95 66.4425L94.9599 66.4325Z" fill="#D36251"/>
</g>
<path d="M105.09 70.8825C105.09 70.8825 105.02 70.9225 104.98 70.9425C104.42 66.7625 102.02 63.9325 100.72 62.6725C107.16 58.4325 109.74 57.0325 111.97 58.2325C115.85 60.3025 113 66.6825 105.09 70.8925V70.8825Z" fill="#8CD663"/>
<path d="M113.67 55.1325L106.42 59.6425C106.42 59.6425 106.2 58.4225 105.97 57.2125C105.75 56.0425 105.54 54.8725 105.52 54.8225C105.52 54.7025 111 50.9325 111 50.9325C111.03 50.9425 111.19 51.1825 111.39 51.4925C111.83 52.1925 112.49 53.2825 112.49 53.2825L113.66 55.1325H113.67Z" fill="#EAAA90"/>
<path d="M111.4 51.4925C110.8 52.7125 109.16 55.6625 105.98 57.2125C105.76 56.0425 105.55 54.8725 105.53 54.8225C105.53 54.7025 111.01 50.9325 111.01 50.9325C111.04 50.9425 111.2 51.1825 111.4 51.4925Z" fill="#D36251"/>
<path d="M118.87 41.1825C114.91 42.0825 113.65 36.9925 113.65 36.9925C113.65 36.9925 113.67 36.9025 113.73 36.7625C113.98 36.1025 114.95 34.2925 117.87 34.7625C119.59 35.0425 120.81 36.3425 121.15 37.7125C121.52 39.1725 120.91 40.7025 118.87 41.1725V41.1825Z" fill="#18203D"/>
<g style="mix-blend-mode:multiply" opacity="0.5">
<path d="M118.87 41.1825C114.91 42.0825 113.65 36.9925 113.65 36.9925C113.65 36.9925 113.67 36.9025 113.73 36.7625C114.42 37.5525 116.12 39.3325 117.67 39.6325C119.67 40.0125 120.33 38.0625 120.33 38.0625C120.33 38.0625 120.41 38.5725 119.97 39.2325C119.97 39.2325 120.66 38.8225 121.15 37.7225C121.52 39.1825 120.91 40.7125 118.87 41.1825Z" fill="#18203D"/>
</g>
<path d="M116.49 39.2725C116.27 40.3425 115.2 41.4425 115.2 41.4425L113.65 39.4225L112.13 37.4425C112.13 37.4425 112.52 36.7325 113.42 36.4725C114.32 36.2125 116.69 38.2025 116.48 39.2625L116.49 39.2725Z" fill="#E9A749"/>
<g style="mix-blend-mode:multiply">
<path d="M116.49 39.2725C116.27 40.3425 115.2 41.4425 115.2 41.4425L113.65 39.4225C114.23 39.2425 114.94 38.9825 115.32 38.6325C115.96 38.0525 116.32 38.7225 116.48 39.2725H116.49Z" fill="#E9A749"/>
</g>
<path d="M112.68 48.8825C110.68 53.2825 105.79 56.7525 102.72 56.1325C102.4 56.0625 102.11 55.9625 101.84 55.8325C99.48 54.6625 98.86 51.0325 100.05 48.4025C101.39 45.4625 100.27 44.5325 102.05 41.1525C103.83 37.7725 106.68 36.7725 110.32 38.0425C111.07 38.3025 111.71 38.7825 112.22 39.4125C113.96 41.5625 114.22 45.4925 112.67 48.8925L112.68 48.8825Z" fill="#EAAA90"/>
<path opacity="0.5" d="M112.68 48.8825C110.68 53.2825 105.79 56.7525 102.72 56.1325C102.4 56.0625 102.11 55.9625 101.84 55.8325C109.94 55.0825 111.82 45.0125 112.23 39.4025C113.97 41.5525 114.23 45.4825 112.68 48.8825Z" fill="#D36251"/>
<path d="M102.19 50.0825C102.81 50.2225 104.14 50.4025 106.51 50.3025C106.84 50.2925 107.04 50.6625 106.84 50.9325C106.35 51.5825 105.37 52.4625 103.78 52.3325C102.08 52.1925 101.75 51.1525 101.71 50.4925C101.7 50.2325 101.93 50.0325 102.18 50.0925L102.19 50.0825Z" fill="white"/>
<path d="M114.99 47.8025C113.01 51.0925 112.5 53.2725 112.5 53.2725L111.25 51.2725L112.36 49.4025L111.25 48.9125L111.83 45.4025C110.06 44.8525 109.93 42.3125 109.97 41.1625C109.98 40.8125 110 40.5925 110 40.5925C106.09 41.5225 102.93 40.1925 102.39 37.3925C102.09 35.8225 102.67 34.7925 103.23 34.1825C103.52 33.8625 104.04 33.9825 104.19 34.3925C104.5 35.2025 105.61 36.2725 109.32 36.3325C113.23 36.3925 115.59 39.0825 116.1 42.2725C116.14 42.5325 116.17 42.7825 116.18 43.0325C116.28 44.6925 115.82 46.3625 114.96 47.7925L114.99 47.8025Z" fill="#18203D"/>
<g style="mix-blend-mode:multiply" opacity="0.5">
<path d="M114.99 47.8025C113.01 51.0925 112.5 53.2725 112.5 53.2725L111.25 51.2725L112.36 49.4025L111.25 48.9125L111.83 45.4025C110.06 44.8525 109.93 42.3125 109.97 41.1625C110.11 41.5625 110.52 42.3725 111.72 43.4525C111.68 43.3825 111.27 42.6425 111.56 41.2125C111.56 41.2125 112.2 42.7625 113.88 43.7325C115.54 44.6825 114.24 41.2125 114.19 41.0825C114.27 41.1325 115.41 41.9025 116.21 43.0325C116.31 44.6925 115.85 46.3625 114.99 47.7925V47.8025Z" fill="#18203D"/>
</g>
<path d="M111.88 49.1825C112.15 48.6325 112.56 48.1725 113.07 47.8425C113.85 47.3425 115.02 46.8525 115.83 47.5825C117.16 48.7825 114.45 52.8725 110.76 51.4525L111.88 49.1825Z" fill="#EAAA90"/>
<path d="M112.32 50.5925C112.32 50.5925 113.11 48.1225 115.14 48.2525C115.14 48.2525 113.56 48.5525 112.32 50.5925Z" fill="#B53F25"/>
<path d="M113.42 48.9825C113.42 48.9825 113.98 49.7525 113.86 50.9025C113.86 50.9025 114.23 49.9825 113.76 48.8325L113.42 48.9825Z" fill="#B53F25"/>
<path d="M127.18 76.7925C127.13 79.8525 126.27 82.5825 124.16 84.1325C119.45 87.5825 109.93 88.1025 108.45 86.4625C106.97 84.8225 108.61 80.8525 107.5 78.9525C106.91 77.9425 105.88 76.7625 105.01 75.0325C104.25 73.5125 103.61 71.5825 103.48 68.9625C103.45 68.2125 103.48 67.4325 103.59 66.6425C104.1 62.9125 106.08 58.9325 108.49 56.7125C109.39 55.8825 110.35 55.2925 111.31 55.0525C117.97 53.4125 122.78 61.2425 125.16 67.0025C126.38 69.9625 127.23 73.5625 127.17 76.8025L127.18 76.7925Z" fill="#78B88F"/>
<path d="M127.18 76.7925C127.13 79.8525 126.27 82.5825 124.16 84.1325C119.45 87.5825 109.93 88.1025 108.45 86.4625C106.97 84.8225 108.61 80.8525 107.5 78.9525C106.39 77.0525 103.75 74.5625 103.48 68.9625C103.28 64.6825 105.57 59.4025 108.49 56.7125C108.29 57.0725 108.06 57.4625 107.8 57.8825C103.83 64.3725 106.25 72.2825 110.41 74.8925C114.57 77.5025 112.05 78.9525 110.7 80.2025C109.34 81.4625 116.5 79.0425 120.27 77.2025C124.04 75.3725 120.75 79.9125 114.47 81.9425C108.85 83.7625 121.07 83.1025 127.18 76.8025V76.7925Z" fill="#557F83"/>
<g style="mix-blend-mode:multiply" opacity="0.5">
<path d="M105.01 75.0225C104.25 73.5025 103.61 71.5725 103.48 68.9525C103.45 68.2025 103.48 67.4225 103.59 66.6325C104.03 66.2825 104.45 66.0025 104.83 65.8225C108.9 63.9225 114.56 62.5325 114.56 62.5325C114.56 62.5325 115.92 69.5725 105 75.0225H105.01Z" fill="#18203D"/>
</g>
<path d="M59.5 79.0125C58.5 77.6225 53.99 80.5525 55.64 82.7425C57.29 84.9225 60.78 80.7925 59.5 79.0125Z" fill="#77BDDF"/>
<path d="M48.66 76.3525C47.94 74.8425 44.36 76.5225 45.54 78.3725C46.72 80.2225 49.5 78.1025 48.66 76.3525Z" fill="#77BDDF"/>
<path d="M50.31 69.4725C50.1 68.5625 46.45 69.1325 46.65 70.2825C46.85 71.4225 50.65 70.9525 50.31 69.4725Z" fill="#77BDDF"/>
<path d="M61.95 83.0825C61.3 83.0525 60.74 85.2825 61.8 85.3225C62.86 85.3625 62.75 83.1225 61.95 83.0825Z" fill="#77BDDF"/>
<path d="M90.11 67.8325L76.5 75.5925C76.5 75.5925 71.84 74.3125 68.03 76.7825C63.41 79.7825 58.49 78.8925 62.48 75.0625C66.65 71.0525 72.52 71.5625 72.87 71.5925C72.51 71.4825 66.15 69.6325 60.08 72.5025C53.61 75.5725 49.53 73.0625 54.56 69.3625C59.6 65.6525 67.57 66.2325 67.57 66.2325C61.92 62.3725 59 56.2025 57.97 52.3125C57.95 52.2525 57.94 52.2025 57.93 52.1425C56.93 48.2625 60.97 46.4625 62.93 53.1225C64.54 58.5725 69.73 62.3725 71.13 62.2725C71.44 62.2525 71.57 62.0325 71.42 61.6025C71.09 60.6225 71.08 59.4125 71.54 58.7425C72.19 57.7925 73.8 57.9425 76.79 61.4325C81.62 67.0625 87.32 67.7725 89.34 67.8325C89.82 67.8525 90.1 67.8325 90.1 67.8325H90.11Z" fill="#89C7DD"/>
<path d="M71.13 62.2825V62.2925C69.88 62.6525 65.4 60.7425 63.31 56.9825C61.22 53.2225 60.92 48.5625 58.83 49.8825C58.17 50.3025 57.95 51.2425 57.96 52.3325C57.94 52.2725 57.93 52.2225 57.92 52.1625C56.92 48.2825 60.96 46.4825 62.92 53.1425C64.53 58.5925 69.72 62.3925 71.12 62.2925L71.13 62.2825Z" fill="#E8F0FD"/>
<path d="M89.35 67.8425C89.09 68.1125 88.68 68.2825 88.09 68.3225C80.69 68.8025 76.87 62.8925 74.72 60.4425C73.51 59.0625 72.33 58.6125 71.55 58.7525C72.2 57.8025 73.81 57.9525 76.8 61.4425C81.63 67.0725 87.33 67.7825 89.35 67.8425Z" fill="#E8F0FD"/>
<path d="M67.32 74.7025C67 73.7925 64.17 75.5025 64.37 76.1325C64.56 76.7625 67.62 75.5325 67.32 74.7025Z" fill="#E8F0FD"/>
<path d="M58.46 70.0525C58.11 69.3625 54.89 70.6025 55.52 71.1025C56.14 71.6025 58.77 70.6625 58.46 70.0525Z" fill="#E8F0FD"/>
<path d="M83.51 69.0225C83.51 69.0225 83.43 69.1725 83.29 69.4025C82.49 70.6925 79.71 74.7525 77.1 73.0225C74.02 70.9625 65.46 67.5925 57.62 65.9225C51.49 64.6125 48.25 61.8525 49.11 59.4325C49.16 59.2925 49.22 59.1525 49.3 59.0125C50.72 56.4925 55.83 57.4225 62.34 62.0425C68.85 66.6625 74.95 65.8625 74.95 65.8625C75.56 64.9225 77.2 63.9425 79.17 66.3025C81.14 68.6625 83.51 69.0325 83.51 69.0325V69.0225Z" fill="#95D7DF"/>
<path d="M83.51 69.0225C83.51 69.0225 83.43 69.1725 83.29 69.4025C81.32 68.7825 79.56 67.7125 78.46 66.4925C77.36 65.2725 76.55 65.4125 76.04 65.7825C75.24 66.3625 74.32 66.7825 73.33 66.8225C70.13 66.9625 67.79 65.5925 63.24 63.3325C57.76 60.6225 54.72 57.6325 51.51 58.2425C50.5 58.4325 49.71 58.8825 49.11 59.4125C49.16 59.2725 49.23 59.1325 49.3 58.9925C50.72 56.2825 55.91 57.0925 62.42 61.7125C65.91 64.1925 69.2 65.2525 71.58 65.5625C73.07 65.7625 74.57 65.5925 75.94 64.9725C76.75 64.6125 77.89 64.7325 79.17 66.2725C81.14 68.6325 83.51 69.0025 83.51 69.0025V69.0225Z" fill="#E8F0FD"/>
<path d="M73.16 61.2425C72.42 61.6425 73.28 63.6025 74.44 63.3025C75.6 63.0025 74.02 60.7825 73.16 61.2425Z" fill="#E8F0FD"/>
<path d="M86.23 82.5125C80.91 85.2325 76.79 83.9425 74.27 82.3925C72.46 81.2725 71.48 80.0125 71.48 80.0125C71.48 80.0125 71.56 79.6925 71.78 79.1425C72.46 77.4425 74.5 73.5325 79.73 70.1025C86.64 65.5625 92.92 65.6425 92.92 65.6425C92.97 65.7225 93.02 65.7925 93.07 65.8725C93.63 66.7425 94.07 67.6125 94.39 68.5025C96.15 73.4625 93.88 78.5725 86.22 82.5025L86.23 82.5125Z" fill="#E9A749"/>
<g style="mix-blend-mode:multiply">
<path d="M86.23 82.5125C80.91 85.2325 76.79 83.9425 74.27 82.3925C72.46 81.2725 71.48 80.0125 71.48 80.0125C71.48 80.0125 71.56 79.6925 71.78 79.1425C73.21 79.5125 76.12 79.5925 81.09 78.1125C89.56 75.5725 92.27 67.4825 93.08 65.8825C93.64 66.7525 94.08 67.6225 94.4 68.5125C96.16 73.4725 93.89 78.5825 86.23 82.5125Z" fill="#E9A749"/>
</g>
<path d="M71.49 80.0125C71.49 80.0125 72.47 81.2725 74.28 82.3925C75.31 79.9925 77.79 75.5125 82.75 72.3125C87.9 68.9925 92.35 68.5225 94.41 68.5125C94.07 67.5525 93.58 66.5925 92.94 65.6525C92.94 65.6525 86.66 65.5725 79.75 70.1125C72.84 74.6525 71.49 80.0125 71.49 80.0125Z" fill="#18203D"/>
<path d="M114.61 63.4825C113.83 66.0325 111.68 69.1125 108.21 71.8825C108.18 71.9125 108.14 71.9325 108.11 71.9625C101.1 77.5025 89.97 80.2025 89.97 80.2025C89.97 80.2025 87.29 84.2625 85.02 85.0425C83.89 85.4325 82.95 85.1625 82.5 84.6425C82.06 84.1125 82.11 83.3325 82.97 82.6925C84.68 81.4225 85.5 79.4125 85.5 79.4125C85.5 79.4125 82.37 79.9325 83.26 78.9625C84.15 77.9925 87.99 76.5825 87.99 76.5825C87.99 76.5825 93.55 73.2225 99.21 67.7225C100.39 66.5825 101.45 65.5425 102.41 64.6225C107.96 59.2725 110.24 57.4225 112.65 58.1825C114.76 58.8425 115.4 60.9025 114.61 63.4825Z" fill="#EAAA90"/>
<path opacity="0.5" d="M114.61 63.4825C113.83 66.0325 111.68 69.1125 108.21 71.8825C108.18 71.9125 108.14 71.9325 108.11 71.9625C101.1 77.5025 89.97 80.2025 89.97 80.2025C89.97 80.2025 87.29 84.2625 85.02 85.0425C83.89 85.4325 82.95 85.1625 82.5 84.6425C84.12 84.7425 85.85 83.5125 86.82 82.1325C87.99 80.4725 88.29 78.8625 88.29 78.8625C88.29 78.8625 103.64 75.2725 112.59 65.4725C113.31 64.6725 113.99 64.0225 114.63 63.4925L114.61 63.4825Z" fill="#D36251"/>
<path d="M114.75 63.4625C113.98 66.0125 111.68 69.1125 108.2 71.8825C108.17 71.9125 108.13 71.9325 108.1 71.9625C107.88 71.3025 107.62 70.6825 107.33 70.1025C105.87 67.2125 103.66 65.4425 102.4 64.6125C107.81 59.0225 110.36 57.1525 112.77 57.9225C114.88 58.5825 115.53 60.8725 114.75 63.4625Z" fill="#8CD663"/>
<path d="M114.03 58.7525C114.03 58.7525 114.12 58.7825 114.17 58.8025C113.81 58.4025 113.35 58.1025 112.77 57.9225C110.36 57.1625 107.81 59.0325 102.4 64.6125C102.6 64.7425 102.82 64.9025 103.06 65.0725C108.71 59.7825 111.45 58.0025 114.03 58.7525Z" fill="#679BA0"/>
<path d="M108.06 70.9325C107.6 70.1125 107.08 69.3825 106.53 68.7325C106.81 69.1525 107.08 69.6025 107.32 70.0925C107.61 70.6625 107.87 71.2825 108.09 71.9525C108.12 71.9325 108.16 71.9025 108.19 71.8725C108.27 71.8025 108.35 71.7425 108.43 71.6725C108.31 71.4125 108.18 71.1625 108.05 70.9225L108.06 70.9325Z" fill="#679BA0"/>
<path d="M114.48 64.2125C114.54 63.9625 114.59 63.7225 114.61 63.4725C113.98 64.0025 113.3 64.6625 112.57 65.4525C110.99 67.1925 109.2 68.7325 107.33 70.0925C107.62 70.6625 107.88 71.2825 108.1 71.9525C108.13 71.9325 108.17 71.9025 108.2 71.8725C111.34 69.3625 113.51 66.6025 114.47 64.2125H114.48Z" fill="#557F83"/>
</g>
<defs>
<clipPath id="clip0_2130_5494">
<rect width="114" height="114" rx="4" fill="white"/>
</clipPath>
</defs>
</svg>
