<svg width="114" height="114" viewBox="0 0 114 114" fill="none" xmlns="http://www.w3.org/2000/svg">
<g clip-path="url(#clip0_3036_1587)">
<rect width="114" height="114" rx="4" fill="black" fill-opacity="0.01"/>
<path d="M31.6108 18.768C34.1068 15.888 35.1628 14.736 36.5068 14.736C38.0428 14.736 39.9628 16.176 44.5708 18.48L52.2508 22.32L53.0188 43.632C53.4028 55.344 54.0748 67.344 54.5548 70.416C54.7468 71.856 54.9388 73.104 54.9388 74.064C54.9388 75.6 54.5548 76.464 53.9788 76.848H53.6908C52.2508 76.848 47.5468 75.024 42.5548 72.432L32.4748 67.344L33.1468 52.176C33.3388 47.856 33.4348 44.784 33.4348 42.576C33.4348 38.16 32.9548 37.104 31.9948 37.104C30.5547 37.104 28.4428 36.048 23.4507 32.88C23.3547 32.88 23.3547 32.784 23.3547 32.688C23.3547 31.056 28.4428 22.416 31.6108 18.768ZM64.892 18.768C67.388 15.888 68.444 14.736 69.788 14.736C71.324 14.736 73.244 16.176 77.852 18.48L85.532 22.32L86.3 43.632C86.684 55.344 87.356 67.344 87.836 70.416C88.028 71.856 88.22 73.104 88.22 74.064C88.22 75.6 87.836 76.464 87.26 76.848H86.972C85.532 76.848 80.828 75.024 75.836 72.432L65.756 67.344L66.428 52.176C66.62 47.856 66.716 44.784 66.716 42.576C66.716 38.16 66.236 37.104 65.276 37.104C63.836 37.104 61.724 36.048 56.732 32.88C56.636 32.88 56.636 32.784 56.636 32.688C56.636 31.056 61.724 22.416 64.892 18.768Z" fill="white"/>
<path d="M48.7102 91.6832C44.9251 111.313 28.6632 124.68 12.3986 121.544C-3.87402 118.405 -13.9932 99.9498 -10.2055 80.3201C-6.42043 60.6877 9.83354 47.3177 26.1061 50.4569C42.3707 53.5934 52.4952 72.0535 48.7102 91.6832Z" fill="url(#paint0_radial_3036_1587)"/>
<path d="M37.7111 80.0516C37.3815 72.3911 31.7251 65.427 24.2932 63.4016V63.3511C24.0939 63.3112 23.8892 63.2793 23.6872 63.2448C23.4879 63.1996 23.2858 63.1517 23.0838 63.1145L23.0679 63.1624C15.4207 62.248 7.56083 66.578 4.37914 73.5553C-0.1927 83.8686 5.46629 94.2562 6.00853 104.604L15.5589 104.939L24.5351 108.216C28.9262 98.8281 38.0726 91.327 37.7084 80.0516H37.7111Z" fill="url(#paint1_linear_3036_1587)"/>
<g style="mix-blend-mode:multiply" opacity="0.3">
<path d="M6.84315 89.5461C9.41615 76.3463 18.6502 67.0378 27.4643 68.7549C31.9883 69.6374 35.5235 73.2523 37.5436 78.3505C36.5203 71.381 31.167 65.2755 24.2932 63.4016V63.3511C24.0939 63.3112 23.8892 63.2793 23.6872 63.2448C23.4879 63.1996 23.2858 63.1517 23.0838 63.1145L23.0679 63.1624C15.4207 62.248 7.56083 66.578 4.37914 73.5553C-0.1927 83.8686 5.46629 94.2562 6.00853 104.604L7.27907 104.649C6.02182 100.234 5.78259 94.9845 6.84315 89.5461Z" fill="#FF6700"/>
</g>
<path opacity="0.5" d="M12.9619 100.375C12.3692 103.461 13.4377 106.26 15.3542 106.627C17.2706 106.996 19.2987 104.793 19.8941 101.709C20.4417 98.86 19.7639 94.5273 18.3099 92.0022C17.664 93.4482 17.0925 95.0403 16.0639 96.3003C16.0692 95.6039 16.1914 94.9287 16.42 94.3227C16.436 94.2296 16.436 94.2296 16.42 94.328C14.7056 95.6756 13.3633 98.2646 12.9592 100.375H12.9619Z" fill="#FFFFF2"/>
<path opacity="0.7" d="M14.2301 101.733C13.8898 103.504 14.5038 105.106 15.6016 105.319C16.7021 105.529 17.8636 104.266 18.2039 102.499C18.5175 100.867 18.1294 98.3815 17.2975 96.9355C16.928 97.7649 16.5984 98.6766 16.0083 99.3996C16.011 99.0009 16.0827 98.6128 16.213 98.2672C16.2236 98.2141 16.2236 98.2141 16.213 98.2699C15.2295 99.0434 14.4613 100.527 14.2274 101.736L14.2301 101.733Z" fill="#FFFFF2"/>
<path opacity="0.2" d="M26.9567 93.6901C25.4336 101.51 20.2265 107.079 15.3277 106.122C10.4289 105.168 7.69646 98.0519 9.21952 90.2319C10.7452 82.4093 15.9497 76.8433 20.8485 77.7976C25.7473 78.7518 28.4797 85.8674 26.9567 93.6874V93.6901Z" fill="#FFFFF2"/>
<g style="mix-blend-mode:multiply" opacity="0.3">
<mask id="mask0_3036_1587" style="mask-type:luminance" maskUnits="userSpaceOnUse" x="2" y="63" width="36" height="46">
<path d="M37.7111 80.0516C37.3815 72.3911 31.7251 65.427 24.2932 63.4016V63.3511C24.0939 63.3112 23.8892 63.2793 23.6872 63.2448C23.4879 63.1996 23.2858 63.1517 23.0838 63.1145L23.0679 63.1624C15.4207 62.248 7.56083 66.578 4.37914 73.5553C-0.1927 83.8686 5.46629 94.2562 6.00853 104.604L15.8646 103.924L24.5351 108.216C28.9262 98.8281 38.0726 91.327 37.7084 80.0516H37.7111Z" fill="white"/>
</mask>
<g mask="url(#mask0_3036_1587)">
<path d="M29.7424 76.9125C30.0295 73.3959 29.8753 69.7703 28.8174 66.3839C28.1476 64.2389 26.9249 61.7324 24.7187 60.818C24.6655 60.7462 24.5884 60.6931 24.4901 60.6771C24.2934 60.6452 24.1047 60.608 23.908 60.5628C23.8096 60.5415 23.7192 60.5628 23.6422 60.608C20.7396 60.6266 18.3633 63.266 16.8296 65.4456C14.2593 69.0951 12.792 73.4224 11.8909 77.763C10.025 86.7632 11.1174 95.9574 10.4636 105.056C10.4529 105.194 10.4423 105.33 10.4317 105.468C10.4131 105.704 10.5699 105.973 10.8463 105.933C12.3933 105.712 13.9403 105.492 15.4873 105.269C15.5085 105.279 15.5325 105.29 15.5617 105.308C15.7238 105.401 15.886 105.497 16.0455 105.59C16.5213 105.867 16.997 106.143 17.4728 106.422C18.1639 106.826 18.8577 107.228 19.5488 107.632C19.7907 107.772 20.0379 107.581 20.1096 107.355C22.8687 98.6606 27.3236 90.5695 29.0832 81.5534C29.3809 80.0197 29.5989 78.4701 29.7397 76.9125H29.7424ZM15.4527 105.253C15.4128 105.237 15.4182 105.245 15.4527 105.253V105.253ZM25.7234 90.5137C24.1897 94.7559 22.345 98.8786 20.7635 103.102C20.3169 104.29 19.8996 105.489 19.5062 106.696C18.9454 106.369 18.3845 106.045 17.8264 105.718C17.3506 105.441 16.8748 105.162 16.399 104.886C16.1784 104.758 15.9072 104.527 15.6494 104.476C15.4075 104.429 15.0939 104.535 14.8573 104.567C14.3204 104.644 13.7808 104.721 13.2412 104.798C12.5741 104.894 11.9069 104.989 11.2397 105.085C11.867 96.1674 10.857 87.1699 12.5767 78.3372C13.4007 74.0949 14.7962 69.858 17.2256 66.2484C18.1267 64.9087 19.1873 63.6355 20.4817 62.6574C21.4546 61.9211 22.6055 61.3629 23.8495 61.3921C23.884 61.3921 23.9186 61.3868 23.9478 61.3762C24.0143 61.3895 24.0807 61.4028 24.1472 61.416C24.1711 61.4373 24.2004 61.4559 24.2323 61.4692C26.3507 62.2693 27.4325 64.6376 28.0731 66.6471C29.1071 69.8793 29.2453 73.4092 28.9716 76.7663C28.5436 81.487 27.3315 86.0668 25.7234 90.5164V90.5137Z" fill="#D64316"/>
</g>
</g>
<path d="M24.5191 108.163C24.3145 109.21 20.0137 109.253 14.9129 108.259C9.80948 107.265 5.84102 105.609 6.04303 104.561C6.2477 103.514 10.5484 103.472 15.6492 104.468C20.7527 105.463 24.7211 107.119 24.5165 108.163H24.5191Z" fill="#FF9310"/>
<mask id="mask1_3036_1587" style="mask-type:luminance" maskUnits="userSpaceOnUse" x="6" y="103" width="19" height="6">
<path d="M24.5191 108.163C24.3145 109.21 20.0137 109.253 14.9129 108.259C9.80948 107.265 5.84102 105.609 6.04303 104.561C6.2477 103.514 10.5484 103.472 15.6492 104.468C20.7527 105.463 24.7211 107.119 24.5165 108.163H24.5191Z" fill="white"/>
</mask>
<g mask="url(#mask1_3036_1587)">
<path d="M5.88346 106.528C12.1405 106.728 18.4002 106.802 24.6599 106.956C25.0879 106.967 25.0879 106.303 24.6599 106.292C18.4002 106.135 12.1405 106.063 5.88346 105.864C5.45551 105.851 5.45551 106.515 5.88346 106.528Z" fill="#D64316"/>
<path d="M24.2824 109.516C18.3151 107.283 12.393 104.936 6.43896 102.664C6.03759 102.51 5.86748 103.153 6.26353 103.304C12.2149 105.577 18.1397 107.924 24.107 110.157C24.5084 110.308 24.6811 109.665 24.2824 109.516Z" fill="#D64316"/>
<path d="M12.9619 100.375C12.3692 103.461 13.4377 106.26 15.3542 106.627C17.2706 106.996 19.2987 104.793 19.8941 101.709C20.4417 98.86 19.7639 94.5274 18.3099 92.0022C17.664 93.4482 17.0925 95.0404 16.0639 96.3003C16.0692 95.6039 16.1914 94.9288 16.42 94.3227C16.436 94.2297 16.436 94.2297 16.42 94.328C14.7056 95.6757 13.3633 98.2646 12.9592 100.375H12.9619Z" fill="#FFFFF2"/>
</g>
</g>
<defs>
<radialGradient id="paint0_radial_3036_1587" cx="0" cy="0" r="1" gradientUnits="userSpaceOnUse" gradientTransform="translate(20.4334 86.2309) rotate(10.92) scale(30.0438 36.1973)">
<stop stop-color="#FFEC8E"/>
<stop offset="0.96" stop-color="#FFB600" stop-opacity="0"/>
</radialGradient>
<linearGradient id="paint1_linear_3036_1587" x1="15.0389" y1="101.662" x2="23.4113" y2="68.5605" gradientUnits="userSpaceOnUse">
<stop stop-color="#FFF515"/>
<stop offset="0.98" stop-color="#FF6700"/>
</linearGradient>
<clipPath id="clip0_3036_1587">
<rect width="114" height="114" rx="4" fill="white"/>
</clipPath>
</defs>
</svg>
