<svg width="90" height="50" viewBox="0 0 90 50" fill="none" xmlns="http://www.w3.org/2000/svg">
<path d="M15.7688 49.9642H0.572111L7.15139 23.2903L8.67106 19.2623L4.6484 23.2903L0.178785 27.8195L0 14.5004L15.7688 0.0177002H28.0513L15.7688 49.9642Z" fill="white"/>
<path d="M70.6386 29.2695L65.7935 21.0525L89.3037 0.0177002H67.4026L58.4633 8.61065L28.1414 36.4482L13.5884 49.9642H34.3095L49.8817 36.0544L55.1201 45.0054C56.9079 47.261 59.4288 50 70.1201 50H82.635L70.6564 29.2516L70.6386 29.2695Z" fill="white"/>
<path d="M56.7828 5.85375V5.74633C55.4413 3.87248 53.6514 2.36596 51.5772 1.36504C49.503 0.364112 47.211 -0.0991711 44.9115 0.0177018H28.7314L40.7994 20.5692L56.7828 5.85375Z" fill="white"/>
</svg>
