<svg width="114" height="114" viewBox="0 0 114 114" fill="none" xmlns="http://www.w3.org/2000/svg">
<g clip-path="url(#clip0_3036_1436)">
<rect width="114" height="114" rx="4" fill="black" fill-opacity="0.01"/>
<path d="M59.2035 26.928C61.0275 28.272 61.8915 28.752 62.2755 28.752C62.3715 28.752 62.4675 28.752 62.4675 28.656C62.4675 27.984 59.8755 25.392 58.0515 25.296H57.9555C57.7635 25.296 57.7635 25.392 57.7635 25.488C57.7635 25.776 58.2435 26.256 59.2035 26.928ZM33.6675 27.6C33.6675 23.184 46.4355 10.992 54.2115 10.992C57.8595 10.992 71.3955 21.936 72.7395 25.968C73.1235 27.024 73.3155 28.08 73.3155 29.232C73.3155 33.36 70.9155 37.776 66.4995 41.328L62.4675 44.592L69.6675 49.488C76.4835 54.096 79.3635 57.456 79.3635 61.392C79.3635 62.448 79.0755 63.6 78.6915 64.848C76.4835 71.568 70.2435 75.216 56.5155 78C55.3635 78.192 54.4035 78.384 53.4435 78.384C49.5075 78.384 47.0115 76.08 41.9235 68.784L35.8755 60.24L41.0595 59.952C47.0115 59.664 59.8755 57.36 61.4115 56.4C61.6035 56.304 61.6995 56.112 61.6995 55.92C61.6995 54.96 57.7635 53.904 53.5395 53.808C49.3155 53.712 38.3715 47.664 38.3715 45.36C38.3715 44.88 39.9075 43.824 41.8275 43.056C47.6835 40.656 53.1555 33.168 53.1555 28.272C53.1555 27.696 53.0595 27.12 52.8675 26.64C52.7715 26.256 52.3875 26.16 51.9075 26.16C49.9875 26.16 45.8595 28.464 44.6115 30.672C44.1315 31.536 42.9795 31.92 41.5395 31.92C38.2755 31.92 33.6675 29.904 33.6675 27.6Z" fill="white"/>
<path d="M52.7102 92.6832C48.9251 112.313 32.6632 125.68 16.3986 122.544C0.125983 119.405 -9.9932 100.95 -6.20549 81.3201C-2.42043 61.6877 13.8335 48.3177 30.1061 51.4569C46.3707 54.5934 56.4952 73.0535 52.7102 92.6832Z" fill="url(#paint0_radial_3036_1436)"/>
<path d="M41.7111 81.0516C41.3815 73.3911 35.7251 66.427 28.2932 64.4016V64.3511C28.0939 64.3112 27.8892 64.2793 27.6872 64.2448C27.4879 64.1996 27.2858 64.1517 27.0838 64.1145L27.0679 64.1624C19.4207 63.248 11.5608 67.578 8.37914 74.5553C3.8073 84.8686 9.46629 95.2562 10.0085 105.604L19.5589 105.939L28.5351 109.216C32.9262 99.8281 42.0726 92.327 41.7084 81.0516H41.7111Z" fill="url(#paint1_linear_3036_1436)"/>
<g style="mix-blend-mode:multiply" opacity="0.3">
<path d="M10.8432 90.5461C13.4161 77.3463 22.6502 68.0378 31.4643 69.7549C35.9883 70.6374 39.5235 74.2523 41.5436 79.3505C40.5203 72.381 35.167 66.2755 28.2932 64.4016V64.3511C28.0939 64.3112 27.8892 64.2793 27.6872 64.2448C27.4879 64.1996 27.2858 64.1517 27.0838 64.1145L27.0679 64.1624C19.4207 63.248 11.5608 67.578 8.37914 74.5553C3.8073 84.8686 9.46629 95.2562 10.0085 105.604L11.2791 105.649C10.0218 101.234 9.78259 95.9845 10.8432 90.5461Z" fill="#FF6700"/>
</g>
<path opacity="0.5" d="M16.9619 101.375C16.3692 104.461 17.4377 107.26 19.3542 107.627C21.2706 107.996 23.2987 105.793 23.8941 102.709C24.4417 99.86 23.7639 95.5273 22.3099 93.0022C21.664 94.4482 21.0925 96.0403 20.0639 97.3003C20.0692 96.6039 20.1914 95.9287 20.42 95.3227C20.436 95.2296 20.436 95.2296 20.42 95.328C18.7056 96.6756 17.3633 99.2646 16.9592 101.375H16.9619Z" fill="#FFFFF2"/>
<path opacity="0.7" d="M18.2301 102.733C17.8898 104.504 18.5038 106.106 19.6016 106.319C20.7021 106.529 21.8636 105.266 22.2039 103.499C22.5175 101.867 22.1294 99.3815 21.2975 97.9355C20.928 98.7649 20.5984 99.6766 20.0083 100.4C20.011 100.001 20.0827 99.6128 20.213 99.2672C20.2236 99.2141 20.2236 99.2141 20.213 99.2699C19.2295 100.043 18.4613 101.527 18.2274 102.736L18.2301 102.733Z" fill="#FFFFF2"/>
<path opacity="0.2" d="M30.9567 94.69C29.4336 102.51 24.2265 108.079 19.3277 107.122C14.4289 106.167 11.6965 99.0519 13.2195 91.2319C14.7452 83.4093 19.9497 77.8433 24.8485 78.7976C29.7473 79.7518 32.4797 86.8674 30.9567 94.6874V94.69Z" fill="#FFFFF2"/>
<g style="mix-blend-mode:multiply" opacity="0.3">
<mask id="mask0_3036_1436" style="mask-type:luminance" maskUnits="userSpaceOnUse" x="6" y="64" width="36" height="46">
<path d="M41.7111 81.0516C41.3815 73.3911 35.7251 66.427 28.2932 64.4016V64.3511C28.0939 64.3112 27.8892 64.2793 27.6872 64.2448C27.4879 64.1996 27.2858 64.1517 27.0838 64.1145L27.0679 64.1624C19.4207 63.248 11.5608 67.578 8.37914 74.5553C3.8073 84.8686 9.46629 95.2562 10.0085 105.604L19.8646 104.924L28.5351 109.216C32.9262 99.8281 42.0726 92.327 41.7084 81.0516H41.7111Z" fill="white"/>
</mask>
<g mask="url(#mask0_3036_1436)">
<path d="M33.7424 77.9125C34.0295 74.3959 33.8753 70.7703 32.8174 67.3839C32.1476 65.2389 30.9249 62.7323 28.7187 61.818C28.6655 61.7462 28.5884 61.693 28.4901 61.6771C28.2934 61.6452 28.1047 61.608 27.908 61.5628C27.8096 61.5415 27.7192 61.5628 27.6422 61.608C24.7396 61.6266 22.3633 64.266 20.8296 66.4456C18.2593 70.0951 16.792 74.4224 15.8909 78.763C14.025 87.7632 15.1174 96.9574 14.4636 106.056C14.4529 106.194 14.4423 106.33 14.4317 106.468C14.4131 106.704 14.5699 106.973 14.8463 106.933C16.3933 106.712 17.9403 106.492 19.4873 106.269C19.5085 106.279 19.5325 106.29 19.5617 106.308C19.7238 106.401 19.886 106.497 20.0455 106.59C20.5213 106.867 20.997 107.143 21.4728 107.422C22.1639 107.826 22.8577 108.228 23.5488 108.632C23.7907 108.772 24.0379 108.581 24.1096 108.355C26.8687 99.6606 31.3236 91.5695 33.0832 82.5534C33.3809 81.0197 33.5989 79.4701 33.7397 77.9125H33.7424ZM19.4527 106.253C19.4128 106.237 19.4182 106.245 19.4527 106.253V106.253ZM29.7234 91.5137C28.1897 95.7559 26.345 99.8786 24.7635 104.102C24.3169 105.29 23.8996 106.489 23.5062 107.696C22.9454 107.369 22.3845 107.045 21.8264 106.718C21.3506 106.441 20.8748 106.162 20.399 105.886C20.1784 105.758 19.9072 105.527 19.6494 105.476C19.4075 105.429 19.0939 105.535 18.8573 105.567C18.3204 105.644 17.7808 105.721 17.2412 105.798C16.5741 105.894 15.9069 105.989 15.2397 106.085C15.867 97.1674 14.857 88.1699 16.5767 79.3372C17.4007 75.0949 18.7962 70.858 21.2256 67.2484C22.1267 65.9087 23.1873 64.6355 24.4817 63.6573C25.4546 62.9211 26.6055 62.3629 27.8495 62.3921C27.884 62.3921 27.9186 62.3868 27.9478 62.3762C28.0143 62.3894 28.0807 62.4027 28.1472 62.416C28.1711 62.4373 28.2004 62.4559 28.2323 62.4692C30.3507 63.2693 31.4325 65.6376 32.0731 67.6471C33.1071 70.8793 33.2453 74.4091 32.9716 77.7663C32.5436 82.487 31.3315 87.0668 29.7234 91.5163V91.5137Z" fill="#D64316"/>
</g>
</g>
<path d="M28.5191 109.163C28.3145 110.21 24.0137 110.253 18.9129 109.259C13.8095 108.265 9.84102 106.609 10.043 105.561C10.2477 104.514 14.5484 104.472 19.6492 105.468C24.7527 106.463 28.7211 108.119 28.5165 109.163H28.5191Z" fill="#FF9310"/>
<mask id="mask1_3036_1436" style="mask-type:luminance" maskUnits="userSpaceOnUse" x="10" y="104" width="19" height="6">
<path d="M28.5191 109.163C28.3145 110.21 24.0137 110.253 18.9129 109.259C13.8095 108.265 9.84102 106.609 10.043 105.561C10.2477 104.514 14.5484 104.472 19.6492 105.468C24.7527 106.463 28.7211 108.119 28.5165 109.163H28.5191Z" fill="white"/>
</mask>
<g mask="url(#mask1_3036_1436)">
<path d="M9.88346 107.528C16.1405 107.728 22.4002 107.802 28.6599 107.956C29.0879 107.967 29.0879 107.303 28.6599 107.292C22.4002 107.135 16.1405 107.063 9.88346 106.864C9.45551 106.851 9.45551 107.515 9.88346 107.528Z" fill="#D64316"/>
<path d="M28.2824 110.516C22.3151 108.283 16.393 105.936 10.439 103.664C10.0376 103.51 9.86748 104.153 10.2635 104.304C16.2149 106.577 22.1397 108.924 28.107 111.157C28.5084 111.308 28.6811 110.665 28.2824 110.516Z" fill="#D64316"/>
<path d="M16.9619 101.375C16.3692 104.461 17.4377 107.26 19.3542 107.627C21.2706 107.996 23.2987 105.793 23.8941 102.709C24.4417 99.86 23.7639 95.5274 22.3099 93.0022C21.664 94.4482 21.0925 96.0404 20.0639 97.3003C20.0692 96.6039 20.1914 95.9287 20.42 95.3227C20.436 95.2297 20.436 95.2297 20.42 95.328C18.7056 96.6757 17.3633 99.2646 16.9592 101.375H16.9619Z" fill="#FFFFF2"/>
</g>
</g>
<defs>
<radialGradient id="paint0_radial_3036_1436" cx="0" cy="0" r="1" gradientUnits="userSpaceOnUse" gradientTransform="translate(24.4334 87.2309) rotate(10.92) scale(30.0438 36.1973)">
<stop stop-color="#FFEC8E"/>
<stop offset="0.96" stop-color="#FFB600" stop-opacity="0"/>
</radialGradient>
<linearGradient id="paint1_linear_3036_1436" x1="19.0389" y1="102.662" x2="27.4113" y2="69.5605" gradientUnits="userSpaceOnUse">
<stop stop-color="#FFF515"/>
<stop offset="0.98" stop-color="#FF6700"/>
</linearGradient>
<clipPath id="clip0_3036_1436">
<rect width="114" height="114" rx="4" fill="white"/>
</clipPath>
</defs>
</svg>
