<svg width="114" height="114" viewBox="0 0 114 114" fill="none" xmlns="http://www.w3.org/2000/svg">
<g clip-path="url(#clip0_2130_2562)">
<rect width="114" height="114" rx="4" fill="#CCECFB"/>
<path d="M78.0176 50.656L75.1376 59.392C68.9936 58.048 63.3296 57.376 58.1456 57.376C53.3456 57.376 49.7296 57.824 47.2976 58.72C44.8656 59.552 43.2656 60.288 42.4976 60.928C44.5456 59.008 48.0016 56.608 52.8656 53.728C57.7936 50.848 63.3936 49.408 69.6656 49.408C72.6736 49.408 75.4576 49.824 78.0176 50.656ZM68.2256 77.152L57.5696 74.944C58.4016 71.744 59.1376 68.48 59.7776 65.152C60.4816 61.824 61.1216 57.952 61.6976 53.536C62.2736 49.12 62.5616 44.416 62.5616 39.424C62.5616 35.584 62.4016 32.384 62.0816 29.824L61.3136 24.736C62.9776 26.592 64.9616 30.272 67.2656 35.776C69.5696 41.28 70.7216 48.384 70.7216 57.088C70.7216 63.424 69.8896 70.112 68.2256 77.152ZM35.9696 57.184C37.9536 48.608 41.0576 41.536 45.2816 35.968C49.5056 30.4 52.9296 26.784 55.5536 25.12C58.1776 23.392 60.1296 22.176 61.4096 21.472C62.6896 20.768 63.7456 20.256 64.5776 19.936L60.9296 23.68C59.1376 25.536 57.0896 28.256 54.7856 31.84C52.4816 35.36 50.5936 39.2 49.1216 43.36C47.6496 47.456 46.5936 50.976 45.9536 53.92C45.3776 56.8 45.0896 59.776 45.0896 62.848L35.9696 57.184Z" fill="#3A3A3A"/>
<path d="M-27.9717 18.2905C-27.9538 18.3444 -27.907 18.4092 -27.8495 18.4271C-27.4684 18.5602 -27.0837 18.6896 -26.6881 18.7867C-26.3106 18.8802 -25.9331 18.9629 -25.552 19.024C-25.0881 19.0995 -24.6207 19.1606 -24.1497 19.2038C-23.7542 19.2397 -23.3587 19.2649 -22.9632 19.2865C-22.6036 19.3044 -22.2477 19.3188 -21.8881 19.326C-21.8665 19.4015 -21.8414 19.4734 -21.8126 19.5453C-21.7766 19.646 -21.7371 19.7467 -21.6975 19.8474C-21.6184 20.0487 -21.5393 20.2501 -21.453 20.4478C-21.2876 20.8469 -21.1151 21.2424 -20.9389 21.638C-20.5901 22.4182 -20.227 23.1876 -19.8566 23.9571C-18.9254 25.8951 -17.9366 27.8043 -17.0018 29.7423C-17.0018 29.7423 -17.0018 29.7423 -17.0018 29.7387C-16.9874 29.7711 -16.973 29.7998 -16.9586 29.8322C-16.5559 30.6663 -16.164 31.5077 -15.7937 32.3563C-15.8404 32.4533 -15.8044 32.572 -15.7074 32.6187C-15.693 32.6259 -15.6786 32.6295 -15.6642 32.6331C-15.6534 32.6475 -15.6391 32.6583 -15.6211 32.6691C-15.5887 32.687 -15.5492 32.6906 -15.5132 32.6763C-15.4485 32.6547 -15.4017 32.5792 -15.4233 32.5109C-15.3514 32.4174 -15.2831 32.3239 -15.2148 32.2304C-15.1321 32.1154 -15.0458 32.0003 -14.9595 31.8852C-14.7869 31.6587 -14.6179 31.4286 -14.4417 31.2021C-14.1038 30.7598 -13.7586 30.3212 -13.4206 29.8753C-13.0682 29.4151 -12.7231 28.9477 -12.3995 28.4695C-12.1082 28.0344 -11.835 27.5886 -11.5833 27.1319C-10.4615 25.0933 -9.66686 22.8676 -8.33292 20.9476C-8.33651 20.9548 -8.3437 20.962 -8.3473 20.9692C-8.34011 20.9584 -8.33292 20.9476 -8.32573 20.9368V20.944C-8.32573 20.944 -8.32573 20.9404 -8.32573 20.9368C-8.09202 20.6024 -7.84033 20.2824 -7.57066 19.9768C-7.55988 19.9624 -7.54909 19.948 -7.5419 19.9301C-6.27267 19.9696 -5.00345 19.9984 -3.73063 20.0092C-2.96118 20.0164 -2.19174 20.0164 -1.42229 20.0128C-1.40431 20.0559 -1.38634 20.0991 -1.36836 20.1422C-1.33959 20.2033 -1.31083 20.2645 -1.28207 20.3256C-1.22813 20.4406 -1.1706 20.5557 -1.11308 20.6672C-0.990826 20.9009 -0.868578 21.1346 -0.742735 21.3647C-0.494642 21.8249 -0.242952 22.2816 0.012331 22.7382C0.918406 24.3598 1.84965 25.967 2.87078 27.5203C3.88113 29.0591 4.98137 30.5441 6.22902 31.9032C6.25778 31.9356 6.31171 31.95 6.35486 31.95C6.36565 31.9571 6.37643 31.9643 6.38722 31.9715C6.4807 32.0219 6.59216 31.9823 6.6425 31.8888C7.17464 30.9252 7.6888 29.9472 8.19937 28.9693C8.71353 27.9877 9.2205 27.0025 9.71309 26.0101C10.2524 24.9207 10.7774 23.8204 11.2664 22.7094C11.7194 21.6775 12.1437 20.6312 12.532 19.5705C15.4803 19.3979 18.4215 19.1822 21.3626 18.9233C21.4453 19.0599 21.5352 19.1966 21.6215 19.3332L21.9307 19.815C22.1357 20.1386 22.3442 20.4586 22.5492 20.7822C23.5847 22.3966 24.6058 24.0218 25.6701 25.6218C26.2022 26.42 26.7416 27.211 27.2989 27.9913C27.8238 28.7248 28.3667 29.4439 28.9277 30.1522C28.9384 30.1953 28.9636 30.2313 29.0068 30.2529C29.0139 30.2636 29.0211 30.2708 29.0283 30.2816C29.0499 30.3104 29.0751 30.332 29.111 30.3392C29.147 30.3463 29.1829 30.3392 29.2117 30.3176C29.2692 30.278 29.2908 30.1917 29.2513 30.1342C29.4059 29.807 29.5461 29.4726 29.6863 29.1418C29.8301 28.7895 29.9704 28.4371 30.107 28.0812C30.3587 27.416 30.596 26.7436 30.8225 26.0713C30.8261 26.0605 30.8333 26.0497 30.8333 26.0353L30.88 25.8987C31.4949 24.0613 32.0486 22.2024 32.6814 20.3687C33.005 19.4375 33.3502 18.5134 33.7313 17.6074C36.5142 17.2586 39.2936 16.8739 42.0693 16.464C42.0693 16.4676 42.0729 16.4712 42.0765 16.4748C42.1017 16.5179 42.1269 16.561 42.1556 16.6006C42.2132 16.6833 42.2743 16.7624 42.3318 16.8451C42.4433 17.0105 42.5511 17.1759 42.6626 17.3377C42.8819 17.6541 43.1121 17.9669 43.3422 18.2761C43.8132 18.9017 44.3058 19.5094 44.8055 20.1134C45.122 20.4946 45.4384 20.8757 45.7584 21.2568C46.0208 21.5696 46.2797 21.886 46.5278 22.2096C47.0168 22.8568 47.477 23.522 47.9516 24.18C48.4406 24.8596 48.944 25.5319 49.5013 26.1575C49.7638 26.456 50.0407 26.7436 50.3319 27.0097C50.5476 27.2074 50.7777 27.3908 51.015 27.5634C51.0115 27.5886 51.0115 27.6173 51.0186 27.6461C51.033 27.6856 51.0618 27.7216 51.1013 27.7396C51.1553 27.7647 51.22 27.7612 51.2703 27.7252C51.2955 27.7288 51.3243 27.7252 51.3458 27.718C51.3818 27.7072 51.4106 27.6785 51.4285 27.6461C51.4465 27.6101 51.4501 27.5706 51.4357 27.531C51.4285 27.5131 51.4177 27.4987 51.407 27.4843C51.4177 27.4627 51.4249 27.4412 51.4357 27.4196C51.4645 27.3477 51.4933 27.2758 51.5256 27.2038C51.9499 26.1504 52.3418 25.0825 52.7229 24.0146C53.1112 22.9216 53.4816 21.8249 53.8232 20.7175C54.4847 18.5925 55.0564 16.4388 55.4807 14.2527C57.354 13.9147 59.2273 13.566 61.0933 13.2064C61.7513 13.0806 62.4093 12.9511 63.0709 12.8253C63.1752 12.9907 63.2902 13.1453 63.4089 13.2999C63.5419 13.4725 63.6749 13.6415 63.8116 13.8105C64.0812 14.1413 64.3509 14.472 64.6242 14.7956C65.3037 15.6046 66.0013 16.3993 66.7096 17.1831C67.4179 17.9669 68.1406 18.7399 68.8777 19.4986C70.2907 20.9476 71.7505 22.3463 73.2606 23.6874C73.2786 23.7377 73.3218 23.7809 73.3757 23.7917C73.3865 23.8025 73.3973 23.8097 73.4081 23.8204C73.4764 23.8816 73.5842 23.8708 73.6418 23.8025C73.7029 23.7341 73.6921 23.6263 73.6238 23.5688C73.6202 23.5652 73.6166 23.5616 73.6094 23.558C73.631 23.5076 73.649 23.4573 73.6633 23.4034C73.6957 23.2919 73.7281 23.1804 73.7604 23.069C73.8251 22.8461 73.8863 22.6195 73.9438 22.3966C74.2171 21.3647 74.4508 20.3256 74.6665 19.2793C74.8822 18.2258 75.08 17.1687 75.2705 16.108C75.6337 14.0837 75.9753 12.0594 76.3816 10.0423C78.5029 9.56054 80.6135 9.04997 82.7205 8.50704C82.9111 8.76233 83.1052 9.01042 83.3102 9.25132C83.6985 9.70795 84.0976 10.1574 84.4967 10.6068C84.903 11.0599 85.3093 11.5129 85.7228 11.9624C86.539 12.8505 87.3624 13.7314 88.2001 14.6015C89.0343 15.4716 89.8828 16.3273 90.7458 17.1687C91.6015 18.0065 92.4788 18.8226 93.3669 19.628C93.4352 19.6892 93.5431 19.6784 93.6006 19.6101C93.6006 19.6065 93.6078 19.6029 93.6078 19.5957C93.6689 19.5813 93.7193 19.5346 93.73 19.4698C93.7372 19.4231 93.748 19.3764 93.7552 19.3296C93.8092 19.0348 93.8523 18.7399 93.8954 18.4451C93.9422 18.1467 93.9853 17.8518 94.0285 17.5534C94.1148 16.953 94.2011 16.3525 94.2838 15.7521C94.4492 14.5404 94.6038 13.3287 94.7332 12.1134C94.9957 9.69717 95.1647 7.27018 95.1215 4.83959C95.1215 4.8324 95.1215 4.82521 95.1215 4.81443C95.1323 4.81443 95.1395 4.80723 95.1503 4.80364C96.9804 4.16723 98.7998 3.49486 100.594 2.76497C102.367 2.04586 104.125 1.29439 105.843 0.456633C105.901 0.427869 105.948 0.399105 105.976 0.337981C106.002 0.284048 106.009 0.215732 105.987 0.158204C105.966 0.100675 105.923 0.0503375 105.869 0.0251688C105.843 0.0107866 105.811 0.00359554 105.779 0C105.746 0 105.718 0 105.689 0.0143822C104.229 0.675961 102.762 1.32675 101.277 1.9308C99.8461 2.51328 98.4043 3.07059 96.9517 3.59554C94.0105 4.65982 91.0298 5.62342 88.0239 6.49714C81.9942 8.25176 75.8782 9.68279 69.7334 10.9736C69.755 10.97 69.7766 10.9664 69.7981 10.9592C67.3819 11.4662 64.9585 11.9516 62.5351 12.4226C59.95 12.926 57.3576 13.415 54.7652 13.8788C49.5589 14.8136 44.3381 15.673 39.0994 16.4208C30.6463 17.6253 22.1537 18.5674 13.6286 19.0995C9.3823 19.3656 5.12878 19.5382 0.871664 19.5849C-1.28566 19.6101 -3.44299 19.6029 -5.60031 19.5489C-7.74325 19.4986 -9.88619 19.4123 -12.0291 19.3008H-12.0219C-12.0219 19.3008 -12.0435 19.3008 -12.0543 19.3008C-12.0543 19.3008 -12.0759 19.3008 -12.0867 19.3008C-13.1042 19.2469 -14.1217 19.1894 -15.1393 19.1283C-15.6606 19.0959 -16.1784 19.0635 -16.6997 19.0312C-17.1096 19.006 -17.5231 18.9773 -17.933 18.9557C-18.7312 18.9125 -19.5294 18.9017 -20.3276 18.891C-21.187 18.8802 -22.0499 18.8658 -22.9092 18.8262C-23.6895 18.7831 -24.4733 18.7292 -25.2463 18.6033C-25.6311 18.5422 -26.0122 18.4775 -26.3897 18.384C-26.6845 18.3121 -26.9758 18.233 -27.267 18.1431C-27.3965 18.0999 -27.5259 18.0568 -27.6553 18.0101C-27.7165 17.9885 -27.774 17.9777 -27.8387 17.9993C-27.8998 18.0208 -27.9466 18.064 -27.9753 18.1215C-28.0041 18.179 -28.0077 18.2438 -27.9861 18.3049L-27.9717 18.2905ZM83.1196 8.39918C83.1412 8.39199 83.1628 8.38839 83.1843 8.3812C83.3389 8.33805 83.4935 8.2985 83.6517 8.25895L83.8819 8.19783C87.9089 7.12995 91.4649 6.06208 94.7584 4.92948C94.7728 5.84275 94.7512 6.79557 94.6901 7.83827V7.85625V7.87063V7.88502V7.87782C94.6721 8.18704 94.6505 8.49626 94.6253 8.80188C94.5498 9.79425 94.442 10.8873 94.2909 12.1637C94.1687 13.2028 94.0285 14.2671 93.9026 15.2019L93.8235 15.7988C93.7444 16.3993 93.6689 17.0069 93.597 17.6038C93.5611 17.9166 93.5287 18.2114 93.4999 18.5026L93.4819 18.668C93.464 18.8298 93.446 19.0312 93.4316 19.2253C93.3238 19.1247 93.2123 19.024 93.1044 18.9233C92.5148 18.3768 91.8891 17.7763 91.1664 17.0644C89.5988 15.5147 87.9772 13.8105 86.2154 11.8509L86.1974 11.8329L86.1902 11.8257L86.1794 11.8149C85.7048 11.2864 85.1906 10.7075 84.5614 9.992L84.3241 9.72234C83.9574 9.30525 83.5439 8.83064 83.1196 8.39918ZM63.4125 12.7498C63.8943 12.6563 64.3797 12.5628 64.8615 12.4657C67.6228 11.9192 70.1074 11.4086 72.4193 10.9125C73.7209 10.632 74.9182 10.3695 76.076 10.1071C76.076 10.1142 76.076 10.125 76.0724 10.1322C76.0112 10.4486 75.9501 10.7614 75.889 11.0779C75.7128 11.9803 75.5438 12.9008 75.3784 13.7925L75.3676 13.8536C75.1663 14.9467 74.9362 16.1907 74.6953 17.406C74.4472 18.6465 74.235 19.646 74.0265 20.5557C73.9078 21.077 73.782 21.5984 73.6526 22.1054C73.5878 22.3607 73.5231 22.6159 73.4548 22.8712L73.4009 23.069L73.3469 23.2667L73.3361 23.3135C73.2427 23.2308 73.1492 23.1481 73.0593 23.0654C72.5343 22.5944 71.995 22.0874 71.4449 21.5588C69.9851 20.153 68.5505 18.6608 67.0547 16.9997L67.0619 17.0069C66.9289 16.8595 66.7995 16.7157 66.67 16.5682C66.1631 16.0001 65.6489 15.4069 65.1383 14.8028C64.8219 14.4289 64.5091 14.055 64.1963 13.6774L64.0992 13.5624C63.9734 13.4114 63.8439 13.2568 63.7181 13.1057C63.639 13.0123 63.5563 12.9188 63.4736 12.8253L63.4628 12.8145C63.4448 12.7929 63.4232 12.7714 63.4053 12.7498H63.4125ZM42.4181 16.4028C42.7022 16.3597 42.9862 16.3201 43.2667 16.277C47.1211 15.6909 51.1085 15.0294 55.1391 14.3066C55.1391 14.321 55.1355 14.3354 55.1319 14.3462C55.0205 14.9179 54.891 15.504 54.7472 16.0936C54.2618 18.1143 53.6326 20.2105 52.7733 22.6986C52.5216 23.4285 52.2339 24.2267 51.9031 25.1292C51.7737 25.4852 51.6407 25.8411 51.5076 26.1971L51.4537 26.3409L51.3674 26.571V26.5782L51.2272 26.945L51.1768 27.0888L51.1229 27.2326L51.1085 27.2722C51.0834 27.2506 51.0546 27.2326 51.0258 27.2146C50.598 26.8874 50.1773 26.4883 49.7135 25.9634L49.7206 25.9706C49.6631 25.9059 49.6092 25.8411 49.5517 25.7764C49.3179 25.5032 49.0735 25.1975 48.8182 24.856C48.455 24.3742 48.1063 23.878 47.7647 23.3998C47.6316 23.2092 47.495 23.0186 47.362 22.8317C47.1606 22.5476 46.9161 22.2132 46.6644 21.8824C46.4415 21.5912 46.2006 21.3036 45.9705 21.0231L45.9489 20.9979L45.859 20.8901L45.8195 20.8397C45.2118 20.1063 44.5826 19.3512 43.9822 18.5817C43.655 18.1611 43.3637 17.7727 43.0905 17.3952C42.9395 17.1867 42.7956 16.9817 42.659 16.7876C42.5835 16.6797 42.5152 16.5754 42.4469 16.4604L42.4325 16.4388L42.4145 16.4064L42.4181 16.4028ZM21.7042 18.8946C22.1896 18.8514 22.675 18.8083 23.1604 18.7615C26.5258 18.4451 29.974 18.0676 33.4293 17.6361C33.4077 17.6865 33.3861 17.7368 33.3645 17.7871C33.1165 18.3948 32.872 19.0276 32.6203 19.7179C32.1924 20.9081 31.7897 22.1305 31.405 23.3135V23.3243L31.3762 23.4034C31.1785 24.0074 30.9735 24.633 30.765 25.2479C30.6859 25.478 30.6104 25.7081 30.5277 25.9382C30.5277 25.9454 30.5205 25.9562 30.5205 25.9634C30.3407 26.4811 30.1825 26.927 30.0315 27.3297C29.8589 27.7971 29.6791 28.2537 29.4993 28.6888C29.4023 28.9261 29.3052 29.1526 29.2153 29.3648C29.165 29.4798 29.1146 29.5985 29.0643 29.7135C29.0463 29.7531 29.0283 29.7962 29.0103 29.8358C28.9672 29.7818 28.9241 29.7279 28.8809 29.674C28.5429 29.2389 28.1978 28.7787 27.849 28.2969C26.72 26.7292 25.6485 25.0717 24.6597 23.5112C24.4512 23.184 24.2427 22.8532 24.0377 22.526L23.9227 22.3463L23.8472 22.224C23.6063 21.8429 23.3654 21.4582 23.1209 21.077C22.88 20.6959 22.6175 20.286 22.3442 19.8689C22.2148 19.6676 22.0817 19.4698 21.9487 19.2721L21.8696 19.157C21.8121 19.0707 21.7546 18.9844 21.6934 18.8982L21.7042 18.8946ZM-1.10588 20.0164C-0.915319 20.0164 -0.724756 20.0164 -0.534193 20.0164C0.763796 20.0056 2.10853 19.984 3.46405 19.948C5.81553 19.8905 8.13465 19.8042 10.3531 19.6928C10.95 19.664 11.5576 19.6316 12.1617 19.5957C11.5181 21.3359 10.7234 23.1445 9.65197 25.2874C9.17736 26.2366 8.6596 27.2362 7.97285 28.5342L7.62049 29.1958L7.44071 29.5338L7.12071 30.1342C6.84385 30.6556 6.61374 31.0942 6.38722 31.5365C6.37643 31.5257 6.36565 31.5149 6.35486 31.5041C6.21823 31.3567 6.07441 31.1949 5.92699 31.0187C5.45597 30.465 4.98856 29.8753 4.53911 29.2677C3.56472 27.9445 2.60471 26.4632 1.51886 24.6007C1.10897 23.8995 0.673908 23.1337 0.145363 22.1881C-0.0775604 21.789 -0.300482 21.3899 -0.527 20.9943L-0.577337 20.9045L-0.58453 20.8901C-0.674419 20.7319 -0.767902 20.5665 -0.864983 20.4083L-0.911722 20.3328C-0.958466 20.2573 -1.00161 20.1854 -1.04836 20.1134L-1.06993 20.0775L-1.10588 20.0236V20.0164ZM-21.5429 19.3368C-21.5034 19.3368 -21.4602 19.3368 -21.4207 19.3368C-21.1007 19.3404 -20.7843 19.3476 -20.4679 19.3512H-20.3276C-19.5474 19.362 -18.7456 19.3728 -17.9546 19.4087C-17.5914 19.4267 -17.2247 19.4519 -16.8687 19.4734H-16.8364C-16.6422 19.4878 -16.448 19.5022 -16.2575 19.513C-15.6498 19.5489 -15.0458 19.5849 -14.4381 19.6209C-13.1509 19.6928 -12.0291 19.7503 -11.008 19.797C-9.9545 19.8438 -8.98011 19.8833 -8.03449 19.9121C-8.54146 20.509 -9.01607 21.2029 -9.49428 22.0371C-9.96889 22.8676 -10.3968 23.7377 -10.8138 24.5791L-10.821 24.5935L-10.857 24.669C-10.9397 24.8416 -11.026 25.0106 -11.1123 25.1832C-11.3244 25.6074 -11.6049 26.1683 -11.9213 26.7328C-12.2053 27.247 -12.5253 27.754 -12.8669 28.2466C-13.2624 28.8111 -13.6867 29.3648 -14.0966 29.8969L-14.2296 30.0695L-14.3626 30.2421C-14.6107 30.5657 -14.8768 30.918 -15.1285 31.2776C-15.2364 31.4358 -15.3658 31.6192 -15.4916 31.8097C-15.542 31.8888 -15.5923 31.9679 -15.6426 32.047C-15.6678 31.9895 -15.693 31.932 -15.7182 31.8744C-15.9195 31.4286 -16.1101 31.0043 -16.2934 30.6088C-16.8651 29.372 -17.4764 28.1279 -18.0696 26.927C-18.3968 26.2582 -18.7708 25.5032 -19.1195 24.7769C-19.1195 24.7769 -19.1195 24.784 -19.1159 24.7876C-19.1267 24.7661 -19.1375 24.7445 -19.1483 24.7229L-19.1878 24.6438L-19.2346 24.5431L-19.2274 24.5503C-19.3209 24.3562 -19.4144 24.162 -19.5043 23.9679C-19.8782 23.184 -20.1946 22.5009 -20.4822 21.8501C-20.6872 21.3827 -20.8885 20.9224 -21.0719 20.4838C-21.1582 20.2752 -21.2481 20.0667 -21.3344 19.8582L-21.3596 19.7934L-21.3883 19.7287C-21.4279 19.6316 -21.471 19.531 -21.5106 19.4339C-21.5249 19.4051 -21.5357 19.3728 -21.5465 19.344L-21.5537 19.3296L-21.5429 19.3368Z" fill="#161616"/>
<path d="M55.1392 14.3067C55.0241 14.8892 54.8947 15.4896 54.7473 16.0973C54.2619 18.118 53.6326 20.2142 52.7733 22.7023C52.5216 23.4322 52.234 24.2304 51.9032 25.1329C51.7737 25.4888 51.6407 25.8448 51.5077 26.2007L51.4537 26.3446L51.3674 26.5747V26.5819L51.2272 26.9486L51.1769 27.0924L51.123 27.2363L51.1086 27.2794C50.6519 26.9414 50.2097 26.5243 49.7171 25.967L49.7315 25.9778C49.4402 25.6506 49.1454 25.2839 48.8218 24.8596C48.4587 24.3814 48.1099 23.8816 47.7683 23.4034C47.6353 23.2129 47.4987 23.0223 47.3656 22.8353C47.1643 22.5513 46.9198 22.2169 46.6681 21.8861C46.4452 21.5949 46.2043 21.3072 45.9741 21.0268L45.9526 21.0016L45.8627 20.8937L45.8231 20.8434C45.2155 20.1099 44.5863 19.3548 43.9858 18.5854C43.6586 18.1647 43.3674 17.7764 43.0941 17.3989C42.9431 17.1903 42.7993 16.9854 42.6627 16.7912C42.5871 16.6834 42.5188 16.5791 42.4505 16.464L42.4361 16.4425L42.4182 16.4101C46.5314 15.7953 50.8137 15.0869 55.1428 14.3103L55.1392 14.3067Z" fill="#FA4862"/>
<path d="M33.4293 17.6362C33.1596 18.2906 32.8935 18.9701 32.6239 19.7216C32.196 20.9117 31.7933 22.1342 31.4086 23.3171V23.3279L31.3798 23.407C31.1821 24.0111 30.9771 24.6367 30.7722 25.2515C30.6931 25.4816 30.6176 25.7117 30.5349 25.9419C30.5313 25.9491 30.5277 25.9598 30.5277 25.967C30.3479 26.4812 30.1897 26.9306 30.0387 27.3333C29.8661 27.8008 29.6863 28.2574 29.5065 28.6925C29.4095 28.9298 29.3124 29.1563 29.2225 29.3684C29.1722 29.4835 29.1218 29.6021 29.0715 29.7172C29.0535 29.7567 29.0355 29.7999 29.0139 29.8394C28.6364 29.3612 28.2445 28.8399 27.8562 28.2969C26.7272 26.7293 25.6557 25.0681 24.6669 23.5113C24.4584 23.1841 24.2499 22.8533 24.0449 22.5261L23.9299 22.3463L23.8543 22.2241C23.6134 21.843 23.3725 21.4582 23.1281 21.0771C22.8872 20.696 22.6247 20.2861 22.3514 19.869C22.222 19.6676 22.0889 19.4699 21.9559 19.2721L21.8768 19.1571C21.8193 19.0708 21.7617 18.9845 21.7006 18.8982C25.5263 18.5566 29.4706 18.1324 33.4257 17.6362H33.4293Z" fill="#98C12A"/>
<path d="M76.0724 10.1071C76.0076 10.4307 75.9465 10.7543 75.8818 11.0779C75.7056 11.9804 75.5366 12.9008 75.3712 13.7925L75.3604 13.8537C75.1591 14.9467 74.929 16.1908 74.6881 17.4061C74.44 18.6465 74.2278 19.6461 74.0193 20.5557C73.9007 21.0771 73.7748 21.5985 73.6454 22.1054C73.5806 22.3607 73.5159 22.616 73.4476 22.8713L73.3937 23.069L73.3433 23.2668L73.3326 23.3135C72.7213 22.7706 72.0885 22.1809 71.4413 21.5589C69.9815 20.153 68.5469 18.6609 67.0511 16.9998L67.0691 17.0141C66.4327 16.313 65.7855 15.5687 65.1347 14.8029C64.8183 14.4289 64.5055 14.055 64.1927 13.6775L64.0956 13.5624C63.9698 13.4114 63.8403 13.2568 63.7145 13.1058C63.6354 13.0123 63.5527 12.9188 63.47 12.8253L63.4592 12.8146C63.4412 12.793 63.4197 12.7714 63.4017 12.7498C66.7563 12.0918 69.7011 11.4914 72.4085 10.9089C73.7101 10.6285 74.9038 10.366 76.0652 10.1035L76.0724 10.1071Z" fill="#FFE11A"/>
<path d="M12.158 19.5921C11.5144 21.3324 10.7198 23.1409 9.64835 25.2839C9.17374 26.2331 8.65599 27.2327 7.96924 28.5306L7.61687 29.1922L7.4371 29.5302L7.11709 30.1307C6.84024 30.652 6.61012 31.0907 6.3836 31.5329C6.23978 31.3747 6.08518 31.2021 5.92338 31.0152C5.45236 30.4614 4.98494 29.8718 4.5355 29.2641C3.56111 27.941 2.6011 26.4596 1.51525 24.5971C1.10536 23.896 0.670296 23.1301 0.141752 22.1845C-0.0811718 21.7854 -0.304096 21.3863 -0.530615 20.9908L-0.580952 20.9009L-0.588145 20.8865C-0.678034 20.7283 -0.771517 20.5629 -0.868597 20.4047L-0.915338 20.3292C-0.96208 20.2537 -1.00523 20.1818 -1.05197 20.1099L-1.07354 20.0739L-1.1095 20.02C0.364674 20.0092 1.90356 19.9876 3.46043 19.9481C5.81191 19.8906 8.13104 19.8043 10.3495 19.6928C10.9463 19.664 11.554 19.6317 12.158 19.5957V19.5921Z" fill="#FFE11A"/>
<path d="M94.7548 4.93313C94.7692 5.84999 94.7476 6.79922 94.6865 7.84192V7.8599V7.87428C94.6145 9.11834 94.4887 10.481 94.2874 12.1674C94.1651 13.2065 94.0249 14.2707 93.899 15.2056L93.8199 15.8024C93.7408 16.4029 93.6653 17.0105 93.5934 17.6074C93.5575 17.9202 93.5251 18.2151 93.4927 18.5063L93.4748 18.6717C93.4568 18.8335 93.4388 19.0348 93.4244 19.229C92.7341 18.6034 92.015 17.9166 91.1556 17.0681C89.588 15.5184 87.9664 13.8141 86.2046 11.8545L86.1866 11.8366L86.1794 11.8294L86.1686 11.8186C85.694 11.29 85.1798 10.7112 84.5506 9.99565L84.3133 9.72598C83.9466 9.3089 83.5331 8.83429 83.1088 8.40283C83.2886 8.35249 83.4648 8.30575 83.641 8.259L83.8711 8.19788C87.8981 7.1336 91.4541 6.06213 94.7476 4.92953L94.7548 4.93313Z" fill="#C12F8A"/>
<path d="M96.4237 130.617C96.3563 130.374 96.262 130.15 96.1318 129.921C96.0015 129.696 95.8489 129.489 95.6603 129.292C95.4447 129.063 95.1887 128.852 94.8834 128.659C94.4073 128.358 93.837 128.129 93.1365 127.963C92.7413 127.868 92.3237 127.81 91.9555 127.761C91.3986 127.684 90.8283 127.621 90.2804 127.563C88.8255 127.401 87.3256 127.235 85.8841 126.844C85.2195 126.651 84.703 126.44 84.254 126.189C84.0384 126.05 83.8498 125.906 83.6881 125.753C83.5938 125.645 83.5085 125.538 83.4367 125.421C83.3828 125.313 83.3379 125.21 83.2974 125.093C83.2705 124.963 83.2525 124.833 83.2481 124.698C83.257 124.514 83.284 124.33 83.3334 124.137C83.3828 123.984 83.4411 123.845 83.513 123.714C83.6477 123.508 83.8139 123.306 84.0294 123.086C84.3213 122.807 84.6581 122.538 85.0937 122.237C85.5024 121.95 85.9514 121.671 86.5487 121.325C88.1249 120.432 89.8179 119.641 91.3133 118.941C91.7309 118.748 92.1485 118.55 92.5662 118.357C93.9807 117.697 95.4447 117.014 96.8682 116.309C98.3187 115.591 100.214 114.607 102.024 113.408C102.796 112.896 103.47 112.385 104.08 111.85C104.722 111.289 105.239 110.741 105.665 110.171C105.85 109.919 106.034 109.632 106.222 109.29C106.375 109.012 106.505 108.707 106.608 108.379C106.712 108.051 106.775 107.741 106.806 107.44C106.838 107.113 106.833 106.762 106.784 106.398C106.743 106.102 106.667 105.792 106.537 105.424C106.402 105.042 106.209 104.688 106.016 104.364C105.912 104.194 105.8 104.023 105.661 103.839C105.504 103.632 105.32 103.448 105.122 103.264C104.655 102.819 104.067 102.505 103.667 102.312C103.142 102.056 102.571 101.881 102.037 101.733C101.476 101.576 100.851 101.463 100.066 101.373C99.374 101.293 98.6241 101.252 97.8472 101.252C97.3038 101.252 96.738 101.27 96.1228 101.311C94.9822 101.382 93.846 101.526 92.7413 101.733C91.9555 101.881 91.1157 102.074 90.0918 102.339C89.2386 102.559 88.336 102.828 87.2537 103.179C85.1117 103.875 82.8663 104.764 80.1854 105.976C78.9909 106.515 77.8278 107.148 76.8489 107.692C76.1214 108.096 75.3849 108.518 74.6754 108.931C74.2982 109.151 73.9209 109.367 73.5392 109.582L73.5572 109.573C73.4225 109.65 73.2878 109.722 73.153 109.798C72.7309 110.036 72.2908 110.278 71.8777 110.548C71.6891 110.674 71.5005 110.799 71.3119 110.93C70.9661 111.163 70.6113 111.406 70.2476 111.621C70.0814 111.711 69.9243 111.792 69.7671 111.868C69.583 111.953 69.3854 112.03 69.1114 112.106C69.0531 112.12 68.9902 112.133 68.9318 112.142C68.9947 111.904 69.062 111.626 69.1384 111.347C69.4572 110.238 69.8524 109.295 70.3419 108.46C70.6697 107.925 71.0469 107.413 71.496 106.888C71.8193 106.511 72.1741 106.134 72.5827 105.729C74.2173 104.144 76.1169 102.801 77.756 101.692C78.4475 101.225 79.1571 100.758 79.8441 100.309C81.0431 99.5188 82.2826 98.706 83.4726 97.8572C85.6461 96.308 87.2537 94.9114 88.5381 93.4474C89.2566 92.6301 89.8987 91.7275 90.4466 90.7575C91.1067 89.5944 91.5064 88.5077 91.668 87.4389C91.8342 86.3207 91.7085 85.1666 91.2953 84.1023C91.1157 83.6353 90.8552 83.1548 90.5229 82.6743C90.2445 82.2701 89.8897 81.866 89.4362 81.4349C89.0724 81.0891 88.6413 80.7568 88.1563 80.4514C87.6669 80.1416 87.146 79.8676 86.6116 79.6386C86.1131 79.4276 85.5563 79.2434 84.9096 79.0818C84.3707 78.9471 83.7914 78.8528 83.1852 78.8034C82.8484 78.7764 82.5071 78.7629 82.1344 78.7584C81.7841 78.7584 81.4114 78.7719 81.0252 78.7989C80.3561 78.8438 79.6555 78.9471 78.8831 79.1087C77.5494 79.3916 76.1797 79.8407 74.6978 80.4874C71.9989 81.6639 69.4572 83.285 67.1176 84.8613C62.3889 88.0451 57.6782 91.8487 53.1112 96.1553C49.7791 99.2987 46.465 102.752 42.9803 106.708L43.6224 105.837L44.2601 104.97C45.3873 103.435 46.483 101.926 47.5114 100.354C49.9633 96.5954 51.4092 93.389 52.0604 90.259C52.1906 89.6438 52.2849 89.0376 52.3478 88.4538C52.4017 87.9553 52.4376 87.4254 52.4601 86.8416C52.5095 85.5349 52.4511 84.2505 52.2849 83.0291C52.0963 81.628 51.7685 80.4604 51.279 79.459C51.0186 78.9291 50.7042 78.4576 50.336 78.0579C50.1698 77.8783 49.9722 77.6987 49.7342 77.5145C49.4917 77.3259 49.2223 77.1867 48.9888 77.0744C48.5667 76.8724 48.0592 76.7466 47.4754 76.7107C47.3946 76.7062 47.3093 76.7017 47.2284 76.7017C46.8782 76.7017 46.5504 76.7511 46.254 76.8499C46.0384 76.9218 45.8768 76.9936 45.7286 77.0789C45.5534 77.1822 45.3873 77.3035 45.2391 77.4382C44.9786 77.6762 44.7496 77.9816 44.5565 78.3408C44.1119 79.1716 43.9053 80.1101 43.7661 80.9229C43.6045 81.8705 43.5192 82.845 43.4383 83.788L43.4204 83.9946L43.3979 84.2685C43.2901 85.5169 43.1824 86.8057 42.9354 88.0541C42.7557 88.9118 42.5402 89.5854 42.2573 90.1692C42.0866 90.4926 41.9025 90.771 41.687 91.0225C41.5208 91.2021 41.3367 91.3637 41.1436 91.503C40.9415 91.6332 40.717 91.741 40.479 91.8308C40.2679 91.8981 40.0658 91.9385 39.8593 91.961C39.8323 91.961 39.8054 91.961 39.7829 91.961C39.6437 91.961 39.5045 91.9475 39.3653 91.9251C39.2036 91.8847 39.042 91.8263 38.8803 91.7544C38.6827 91.6467 38.4941 91.5164 38.301 91.3503C38.0136 91.0808 37.7397 90.762 37.4657 90.3668C36.6439 89.1139 36.1141 87.6814 35.6785 86.4375C35.4405 85.7459 35.2159 85.0364 35.0004 84.3493C34.8881 83.9901 34.7758 83.6353 34.6591 83.2761C34.5244 82.8584 34.3582 82.3645 34.1741 81.8705C33.99 81.3855 33.8059 80.9948 33.5903 80.64C33.2715 80.1236 32.8898 79.6611 32.4452 79.2704C32.2072 79.0593 31.9781 78.8797 31.7491 78.7225C31.5201 78.5654 31.2552 78.4127 30.9228 78.2465C29.9214 77.748 28.7404 77.4651 27.5099 77.4292C27.4246 77.4292 27.3393 77.4292 27.254 77.4292C26.1358 77.4292 25.0221 77.6403 23.9399 78.0579C23.4234 78.2555 22.9115 78.5339 22.3636 78.9022C21.9101 79.2075 21.479 79.5937 21.0479 80.0832C20.6796 80.5008 20.3653 80.9948 20.0824 81.5965C19.8399 82.113 19.6692 82.7057 19.5435 83.4736C19.4447 84.0754 19.4088 84.7445 19.4357 85.5259C19.4582 86.1905 19.53 86.9135 19.6513 87.7398C19.8085 88.8175 20.0375 89.9043 20.2575 90.9551C20.5853 92.5223 20.9221 94.139 21.0434 95.7691C21.1063 96.8199 21.0569 97.736 20.8952 98.5802C20.765 99.164 20.5808 99.7164 20.3339 100.224C20.0914 100.691 19.7905 101.135 19.4357 101.549C19.0495 101.971 18.6274 102.343 18.1739 102.662C17.8371 102.882 17.5047 103.053 17.1679 103.179C16.8895 103.268 16.5976 103.327 16.3147 103.354C16.2608 103.354 16.2114 103.354 16.1575 103.354C15.9061 103.354 15.6456 103.331 15.3851 103.282C14.9316 103.179 14.4601 103.004 13.9347 102.748C13.288 102.415 12.6683 102.02 12.0665 101.638C11.7657 101.45 11.4558 101.252 11.146 101.064C10.6026 100.736 10.1041 100.471 9.61913 100.251C9.11618 100.026 8.59526 99.8601 8.01597 99.7478C7.73306 99.6939 7.43218 99.6625 7.12233 99.6625C6.86187 99.6625 6.59243 99.6805 6.32299 99.7209C5.73022 99.8062 5.09255 100.031 4.42793 100.39C3.20647 101.05 2.15565 102.15 1.39673 103.574C0.363878 105.509 -0.0582428 107.696 -0.372589 109.6C-0.547725 110.665 -0.704899 111.747 -0.857581 112.798C-1.10457 114.495 -1.35604 116.251 -1.69734 117.966C-1.98474 119.363 -2.30357 120.602 -2.6763 121.757C-3.05352 122.92 -3.543 124.105 -4.17169 125.372C-5.47398 127.94 -7.06368 130.298 -8.89587 132.381L-8.90934 132.399L-8.94976 132.444L-8.93179 132.431C-9.47965 133.037 -9.99608 133.567 -10.5125 134.048C-11.1008 134.595 -11.7295 135.116 -12.3402 135.619L-12.5423 135.785C-13.0901 136.239 -13.656 136.706 -14.1949 137.186C-14.8146 137.739 -15.3759 138.314 -15.8744 138.897C-15.9597 138.996 -15.9732 139.167 -15.9507 139.279C-15.9238 139.4 -15.8519 139.513 -15.7531 139.584C-15.7666 139.638 -15.7711 139.692 -15.7621 139.751C-15.7486 139.863 -15.6947 139.957 -15.5914 140.052C-15.2097 140.397 -14.8235 140.757 -14.4553 141.102C-14.1993 141.345 -13.9389 141.583 -13.6829 141.821C-13.0722 142.382 -12.3402 143.024 -11.5184 143.541C-10.3913 144.25 -9.03508 144.753 -7.2478 145.135C-5.59523 145.485 -3.90674 145.602 -2.32154 145.696C-1.82756 145.723 -1.3291 145.75 -0.835129 145.773C0.23814 145.827 1.34734 145.88 2.43408 145.984C2.70352 146.011 2.96846 146.038 3.2379 146.069C3.41753 146.087 3.59716 146.109 3.77229 146.127C4.2034 146.172 4.66144 146.217 5.25421 146.271C6.23318 146.361 7.28399 146.437 8.46503 146.514C10.3736 146.63 12.3944 146.707 14.6397 146.743C15.4839 146.756 16.3731 146.765 17.2802 146.765C18.3714 146.765 19.4986 146.756 20.7335 146.734L21.4386 146.72C22.193 146.707 22.9699 146.693 23.7378 146.689C24.2991 146.689 24.8649 146.684 25.4263 146.684C25.9517 146.684 26.4726 146.684 26.998 146.684C27.2136 146.684 27.4291 146.684 27.6402 146.684H27.6357C27.6357 146.684 27.6312 146.684 27.6267 146.684H27.6132C28.3811 146.693 29.1445 146.698 29.908 146.702C31.4842 146.716 33.1098 146.729 34.7085 146.729C35.0632 146.729 35.418 146.729 35.7728 146.729C37.2277 146.725 38.6603 146.702 40.0344 146.662C40.6317 146.644 41.2873 146.617 42.0372 146.585C42.5851 146.558 43.1824 146.545 43.856 146.545C45.5669 146.558 47.3003 146.653 48.9798 146.747C50.4707 146.828 52.0065 146.913 53.5244 146.94C53.8207 146.945 54.1126 146.949 54.409 146.949C55.8146 146.949 57.0765 146.886 58.2665 146.756C59.0119 146.675 59.7888 146.545 60.5792 146.37C61.2393 146.226 61.9533 146.02 62.7617 145.741C64.3154 145.207 65.8333 144.497 67.2433 143.81C67.8271 143.527 68.4199 143.231 68.9902 142.944C69.8614 142.508 70.764 142.054 71.6621 141.632C72.4076 141.282 73.1665 140.95 73.921 140.644C74.6933 140.334 75.4927 140.069 76.2696 139.809L76.3145 139.796C78.2634 139.149 79.8531 138.664 81.3216 138.264C82.1523 138.044 82.8888 137.874 83.5714 137.739C84.2585 137.604 84.959 137.487 85.6371 137.375L86.0188 137.312C86.7598 137.186 87.5546 137.052 88.3629 136.895C89.1757 136.737 89.993 136.544 90.7879 136.324C91.5199 136.122 92.2339 135.871 92.9075 135.579C93.6619 135.251 94.3265 134.856 94.8834 134.411C95.0989 134.236 95.319 134.025 95.5704 133.738C95.768 133.518 95.9207 133.266 96.0734 133.006C96.1991 132.795 96.2934 132.557 96.3787 132.251C96.4147 132.121 96.4461 131.991 96.4686 131.861C96.5 131.676 96.5045 131.488 96.5 131.34C96.5 131.088 96.4596 130.841 96.3922 130.594L96.4237 130.617ZM71.1457 83.3614L71.1637 83.3524H71.1772L71.1906 83.3389C71.1727 83.3479 71.1547 83.3569 71.1367 83.3659C71.1367 83.3659 71.1457 83.3614 71.1502 83.3569L71.1457 83.3614ZM50.5291 99.5278C50.6773 99.3796 50.8255 99.2359 50.9737 99.0922L50.9871 99.0832L51.0141 99.0562C50.8524 99.2134 50.6907 99.3706 50.5291 99.5323V99.5278ZM34.8656 78.1657C35.6066 79.5757 36.6529 80.8017 37.6633 81.9827C38.081 82.4722 38.5121 82.9797 38.9162 83.4916C39.0958 83.7206 39.2755 83.9586 39.4506 84.2056C39.4506 84.2326 39.4506 84.2595 39.4596 84.2909C39.491 84.4661 39.6123 84.6098 39.7739 84.6861C39.8458 84.7939 39.9132 84.9062 39.9805 85.0184C40.0434 85.1217 40.1422 85.1801 40.2455 85.1801C40.2904 85.1801 40.3308 85.1711 40.3712 85.1487C40.4431 85.1127 40.5014 85.0409 40.5239 84.9601C40.5463 84.8882 40.5373 84.8164 40.5014 84.7535C40.47 84.6996 40.4341 84.6412 40.3981 84.5873C40.6631 84.3718 40.7394 83.9586 40.7709 83.6667C40.7978 83.4422 40.7978 83.2132 40.7933 82.9976C40.7933 82.6563 40.7664 82.3195 40.7394 82.0052C40.69 81.39 40.6047 80.7164 40.47 79.8946C40.3487 79.1491 40.1961 78.3767 40.0254 77.5954C39.8413 76.7646 39.6662 76.1 39.4821 75.5072C39.3249 75.0043 39.1363 74.425 38.8803 73.8996C38.7366 73.6032 38.539 73.3517 38.3684 73.1451C38.2022 72.9475 38.0001 72.7499 37.7487 72.5479C37.5735 72.4042 37.358 72.2739 37.0885 72.1527C36.9224 72.0763 36.7203 72.0269 36.4913 72.0045C36.4509 72 36.4104 72 36.37 72C36.2937 72 36.2218 72.0045 36.15 72.0135C36.0602 72.0225 35.9748 72.0359 35.8895 72.0584C35.6919 72.1123 35.5258 72.1841 35.3776 72.2829C35.2743 72.3503 35.189 72.4087 35.1126 72.4805C35.0183 72.5613 34.933 72.6601 34.8522 72.7544C34.6142 73.0329 34.4211 73.3966 34.2774 73.8277C34.1427 74.2319 34.0663 74.6854 34.0528 75.1839C34.0394 75.6823 34.0933 76.1718 34.2145 76.6299C34.3357 77.0879 34.5378 77.5819 34.8522 78.1747L34.8656 78.1657ZM110.637 117.616C110.596 117.463 110.52 117.302 110.403 117.104C110.313 116.961 110.197 116.817 110.012 116.642C109.869 116.502 109.703 116.395 109.545 116.296C109.397 116.202 109.231 116.121 109.042 116.04C108.701 115.896 108.301 115.775 107.857 115.69C107.52 115.622 107.156 115.573 106.712 115.537C106.375 115.51 106.034 115.497 105.697 115.497C105.023 115.497 104.332 115.55 103.645 115.663C102.509 115.842 101.332 116.188 100.151 116.687C97.4341 117.832 95.0765 119.606 92.8895 121.321C92.8042 121.388 92.7593 121.46 92.7413 121.55C92.7278 121.64 92.7413 121.734 92.7952 121.806C92.8581 121.9 92.9793 121.963 93.0961 121.963C93.1679 121.963 93.2308 121.941 93.2802 121.9C93.4239 121.788 93.5721 121.671 93.7158 121.559C93.7472 121.586 93.7787 121.608 93.8101 121.622C93.864 121.644 93.9179 121.658 93.9718 121.658C94.0167 121.658 94.0616 121.649 94.1155 121.635H94.1289L94.1424 121.631C94.2681 121.626 94.3984 121.622 94.5241 121.617L94.7172 121.608C94.8385 121.608 94.9597 121.604 95.0854 121.604C95.1932 121.604 95.2965 121.604 95.4043 121.608C96.0599 121.644 96.7245 121.725 97.3083 121.792C97.7753 121.846 98.2469 121.909 98.7049 121.968C99.0103 122.008 99.3157 122.048 99.621 122.084C100.973 122.255 102.553 122.435 104.134 122.435C104.305 122.435 104.475 122.435 104.646 122.43C105.418 122.412 106.191 122.313 106.945 122.143C107.619 121.99 108.275 121.721 108.836 121.366C109.11 121.191 109.375 120.975 109.622 120.728C109.833 120.513 110.03 120.248 110.223 119.915C110.381 119.641 110.511 119.336 110.632 118.914C110.699 118.689 110.717 118.46 110.726 118.249C110.735 118.065 110.708 117.863 110.641 117.616H110.637Z" fill="#7DCBF1"/>
<path d="M72.6456 89.06C72.4929 89.06 72.3267 89.0645 72.1157 89.0825C71.7654 89.1094 71.4196 89.1588 71.0918 89.2127C70.6652 89.2801 70.2072 89.3744 69.6503 89.5136C68.4558 89.8055 67.2029 90.259 65.8243 90.9012C64.6342 91.4536 63.4128 92.1496 62.0835 93.0298C61.0462 93.7168 59.964 94.5252 58.7649 95.5041C57.7231 96.3574 56.6453 97.3184 55.4688 98.45C54.5707 99.3122 53.6231 100.278 52.5768 101.391C52.1816 101.814 51.755 102.276 51.2431 102.846C50.8299 103.304 50.3405 103.852 49.8555 104.423C49.119 105.294 48.3511 106.277 47.444 107.521C46.6491 108.612 45.8947 109.713 45.0011 111.028C44.7361 111.419 44.4712 111.814 44.2062 112.209C42.9219 114.118 41.5926 116.094 40.1871 117.962L40.2365 117.904C39.2261 119.233 38.274 120.382 37.322 121.42C36.2892 122.542 35.189 123.571 34.0573 124.469C33.1637 125.165 32.3913 125.65 31.6144 126C31.2102 126.171 30.8644 126.274 30.5187 126.337C30.3884 126.355 30.2717 126.359 30.1549 126.359C30.0876 126.359 30.0247 126.359 29.9573 126.351C29.8406 126.333 29.7328 126.306 29.6295 126.27C29.5532 126.234 29.4768 126.193 29.405 126.144C29.3421 126.09 29.2792 126.032 29.2209 125.969C29.1535 125.879 29.0951 125.78 29.0412 125.668C28.9784 125.506 28.9335 125.34 28.893 125.138C28.8436 124.752 28.8436 124.339 28.893 123.827C28.9514 123.373 29.0367 122.924 29.158 122.462C29.2568 122.075 29.396 121.667 29.5846 121.182C30.4468 119.089 31.785 117.216 33.0828 115.411C33.3388 115.056 33.5903 114.702 33.8418 114.347C34.5198 113.381 35.3012 112.227 35.9613 110.957C36.2128 110.476 36.4418 109.951 36.6664 109.353C36.8685 108.814 37.0481 108.289 37.1963 107.786C37.3085 107.4 37.3894 107.054 37.4433 106.726C37.4972 106.412 37.5106 106.16 37.4927 105.931C37.4747 105.729 37.4253 105.563 37.34 105.424C37.3041 105.361 37.2502 105.303 37.1963 105.253C37.1244 105.195 37.0481 105.155 36.9358 105.114C36.873 105.092 36.8011 105.078 36.7203 105.078C36.6305 105.078 36.5362 105.092 36.4553 105.105C36.2487 105.137 36.0512 105.235 35.876 105.316C35.656 105.424 35.4539 105.554 35.2653 105.675C34.9914 105.86 34.7354 106.057 34.5198 106.228C33.4511 107.072 32.4317 108.047 31.538 108.909C31.3988 109.043 31.2596 109.178 31.1204 109.313C30.8016 109.618 30.4872 109.924 30.1639 110.229C29.8585 110.516 29.5801 110.777 29.2837 111.019C29.2837 110.799 29.2927 110.561 29.3241 110.265C29.396 109.672 29.5128 109.079 29.625 108.5C29.8181 107.512 30.0157 106.488 30.0067 105.46C29.9977 104.674 29.8181 104.009 29.4634 103.484C29.0951 102.936 28.4485 102.532 27.6446 102.352C27.4605 102.312 27.2674 102.299 27.1058 102.294C27.0878 102.294 27.0698 102.294 27.0564 102.294C26.9127 102.294 26.769 102.316 26.6297 102.339H26.5983C26.3154 102.388 26.0145 102.51 25.6777 102.716C25.534 102.806 25.4038 102.914 25.2781 103.017C25.1388 103.134 25.0131 103.268 24.9008 103.399C24.6898 103.637 24.4877 103.915 24.2542 104.301C23.8455 104.97 23.5492 105.707 23.2797 106.403C23.1899 106.641 23.1001 106.874 23.0148 107.112C22.916 107.386 22.8127 107.669 22.7004 107.948C22.1885 109.21 21.5553 110.57 20.7649 112.097C20.3069 112.982 19.8219 113.848 19.3279 114.666C18.807 115.532 18.2951 116.3 17.7652 117.005C17.3071 117.603 16.6829 118.371 15.915 118.99C15.6321 119.206 15.3672 119.368 15.1112 119.484C14.954 119.547 14.8013 119.592 14.6442 119.623C14.5633 119.632 14.487 119.637 14.4107 119.637C14.3702 119.637 14.3298 119.637 14.2894 119.637C14.1771 119.619 14.0739 119.592 13.9661 119.556C13.8583 119.507 13.7595 119.448 13.6607 119.381C13.517 119.264 13.3823 119.13 13.2521 118.972C13.059 118.712 12.8838 118.402 12.7177 118.038C12.6234 117.809 12.556 117.567 12.5111 117.288C12.4707 116.983 12.4572 116.678 12.4482 116.417V116.3C12.4348 116.049 12.4303 115.793 12.3943 115.537C12.3584 115.281 12.2956 115.079 12.1968 114.89C12.1563 114.814 12.0935 114.733 12.0037 114.648C11.9183 114.563 11.7971 114.495 11.6534 114.441C11.5052 114.387 11.339 114.36 11.1459 114.36C11.0516 114.36 10.9528 114.365 10.8406 114.378C10.3376 114.437 9.84814 114.603 9.3856 114.774C9.17005 114.85 8.96348 114.94 8.75241 115.047C8.54585 115.151 8.33928 115.29 8.11923 115.47C7.94859 115.609 7.78243 115.757 7.62077 115.928C7.45012 116.107 7.30193 116.3 7.13578 116.52C6.84388 116.911 6.60588 117.351 6.41278 117.728C6.18376 118.177 5.98168 118.649 5.78409 119.103L5.76163 119.156L5.7302 119.228C5.54608 119.655 5.35748 120.099 5.1509 120.526C5.06109 120.719 4.95781 120.908 4.85901 121.092L4.78267 121.236C4.62999 121.519 4.46383 121.828 4.27073 122.183C3.08071 124.339 1.71106 126.445 0.202193 128.448L0.233627 128.407C-1.18542 130.266 -2.75266 132.072 -4.43666 133.76C-6.05779 135.39 -7.82711 136.953 -9.84791 138.543L-9.82995 138.529L-9.81199 138.516C-10.3239 138.911 -10.8448 139.311 -11.3702 139.701C-11.4062 139.661 -11.4466 139.62 -11.4825 139.58C-11.5544 139.499 -11.6621 139.459 -11.7789 139.459C-11.8957 139.459 -12.0169 139.504 -12.0932 139.589C-12.2594 139.755 -12.2549 140.025 -12.0888 140.2C-11.258 141.066 -10.288 141.92 -9.12492 142.813C-8.03818 143.644 -6.83468 144.434 -5.54586 145.157C-4.33787 145.835 -3.06252 146.433 -1.75125 146.922C-1.18991 147.133 -0.592655 147.317 0.0225658 147.475C0.637787 147.632 1.29792 147.744 2.1691 147.847C3.05377 147.951 3.96537 148 4.95781 148C7.20314 148 9.48439 147.74 11.815 147.443C12.1204 147.407 12.4213 147.367 12.7267 147.326C14.02 147.16 15.3582 146.994 16.6784 146.864C17.4374 146.792 18.2008 146.738 18.9417 146.707C19.6513 146.675 20.3698 146.653 21.0658 146.635L21.7215 146.617C23.9533 146.55 26.2211 146.491 28.4125 146.437C33.2894 146.316 38.3324 146.19 43.2856 145.93C46.1552 145.777 49.9228 145.548 53.6636 145.086C56.7756 144.704 59.9235 144.156 63.0131 143.455C65.9365 142.795 68.9947 141.942 72.0977 140.923C74.9358 139.989 77.8862 138.879 81.1195 137.528C81.3979 137.411 81.6808 137.299 81.9637 137.182C82.3948 137.007 82.8394 136.827 83.2705 136.639C84.3438 136.172 85.2015 135.745 85.9739 135.296C86.3825 135.058 86.7822 134.788 87.1594 134.506C87.5636 134.2 87.8959 133.895 88.1743 133.58C88.4348 133.284 88.6368 132.97 88.7716 132.651C88.9242 132.287 88.9826 131.914 88.9467 131.551C88.9018 131.115 88.7132 130.675 88.4123 130.307C88.1384 129.974 87.7701 129.701 87.3121 129.494C86.89 129.305 86.4095 129.175 85.7987 129.085C85.3137 129.018 84.7973 128.982 84.1686 128.982H84.0474C82.9517 128.991 81.838 129.108 80.7647 129.225L80.4863 129.256C80.0327 129.305 79.5612 129.355 79.0897 129.377C78.9909 129.382 78.8876 129.386 78.7888 129.386C78.5014 129.386 78.1826 129.368 77.7964 129.328C77.2755 129.265 76.8668 129.171 76.5076 129.04C76.3324 128.964 76.1842 128.883 76.0495 128.793C75.9732 128.731 75.9103 128.668 75.8519 128.6C75.816 128.546 75.7846 128.497 75.7531 128.439C75.7307 128.376 75.7127 128.313 75.6947 128.246C75.6858 128.156 75.6858 128.061 75.6947 127.963C75.7172 127.805 75.7621 127.648 75.825 127.482C75.9687 127.15 76.1708 126.813 76.4537 126.431C76.8938 125.861 77.4147 125.3 78.1511 124.613C78.7619 124.038 79.4534 123.454 80.3246 122.762L80.3381 122.749L80.3516 122.736L80.365 122.722L80.383 122.709C81.5102 121.828 82.7271 120.948 84.1102 120.014C85.0712 119.363 85.9424 118.797 86.7822 118.285C86.8945 118.213 87.0112 118.146 87.128 118.079C87.4333 117.899 87.7522 117.742 88.0665 117.585L88.1114 117.562C88.3629 117.437 88.6189 117.311 88.8748 117.19C89.4496 116.911 90.0424 116.619 90.6172 116.314C91.5962 115.797 92.3551 115.317 93.0107 114.801C93.3296 114.549 93.6125 114.28 93.8415 114.001C93.9448 113.88 94.0436 113.741 94.1334 113.588C94.2142 113.453 94.2861 113.296 94.3579 113.085C94.4073 112.941 94.4208 112.789 94.4343 112.641C94.4478 112.497 94.4208 112.349 94.3939 112.196C94.3669 112.048 94.2996 111.909 94.2277 111.756C94.1424 111.576 94.0077 111.415 93.8685 111.253C93.7337 111.096 93.5811 110.965 93.388 110.813C93.2667 110.718 93.1365 110.629 92.9793 110.534C92.7054 110.368 92.3686 110.229 91.9554 110.112C91.5782 110.004 91.192 109.96 90.8642 109.928C90.6531 109.906 90.4331 109.897 90.1951 109.897C89.993 109.897 89.7775 109.906 89.5305 109.919C88.6997 109.969 87.7971 110.117 86.6834 110.386C85.7583 110.611 84.7704 110.912 83.5803 111.334C82.6328 111.671 81.6539 112.061 80.4908 112.56C78.6047 113.368 76.8129 114.244 75.3085 114.994C75.0705 115.11 74.8325 115.232 74.5945 115.348C73.6156 115.833 72.6052 116.336 71.6307 116.862C69.8659 117.814 68.0651 118.9 66.1206 120.189C65.3213 120.719 64.4771 121.303 63.5385 121.977L63.3813 122.089C62.838 122.475 62.2766 122.875 61.7512 123.306C61.4548 123.548 61.1585 123.8 60.8711 124.047C60.7543 124.146 60.642 124.244 60.5253 124.339C59.8966 124.869 59.3802 125.291 58.9042 125.672H58.8952C58.2844 126.157 57.768 126.535 57.2651 126.876C56.6633 127.28 56.1199 127.59 55.599 127.819C55.2622 127.958 54.9793 128.043 54.7099 128.088C54.6156 128.097 54.5302 128.106 54.4449 128.106C54.4 128.106 54.3596 128.106 54.3147 128.106C54.1934 128.088 54.0632 128.052 53.924 127.999C53.7938 127.94 53.6815 127.877 53.5737 127.801C53.4929 127.734 53.4255 127.666 53.3627 127.594C53.2998 127.509 53.2504 127.424 53.2055 127.329C53.1606 127.213 53.1247 127.091 53.1022 126.961C53.0753 126.741 53.0753 126.503 53.1022 126.243C53.1696 125.767 53.3088 125.259 53.5468 124.649C53.9285 123.71 54.4449 122.749 55.2128 121.532C55.7921 120.611 56.4612 119.655 57.3189 118.519C57.7501 117.953 58.1946 117.383 58.6841 116.776L58.8188 116.61C59.0479 116.327 59.2859 116.031 59.5328 115.753C59.7664 115.483 60.0268 115.232 60.2783 114.985L60.3906 114.872C60.8441 114.432 61.3111 113.988 61.7647 113.557L61.8141 113.512L62.0341 113.301C63.2242 112.173 64.4591 111.006 65.6536 109.838C67.3107 108.222 68.5501 106.955 69.6683 105.725C70.2835 105.047 70.8224 104.423 71.3119 103.812C71.6621 103.376 72.1112 102.792 72.4974 102.155C72.6321 101.93 72.7534 101.706 72.8477 101.486C72.9554 101.239 73.0273 101.032 73.0677 100.83C73.1081 100.628 73.1081 100.444 73.0767 100.269C73.0363 100.044 72.9105 99.8691 72.7803 99.7119C72.6097 99.5008 72.3582 99.3886 72.183 99.3212C72.0663 99.2763 71.9361 99.2583 71.8193 99.2449C71.7519 99.2359 71.6756 99.2359 71.6038 99.2359C71.5319 99.2359 71.4556 99.2359 71.3792 99.2449C70.6697 99.3077 69.9961 99.6176 69.4213 99.905C68.5905 100.314 67.8316 100.817 67.131 101.302C66.2913 101.881 65.4964 102.487 64.8363 103.004C64.7465 103.071 64.6612 103.143 64.5714 103.21C65.1102 102.667 65.6581 102.114 66.188 101.58C66.6191 101.144 67.0502 100.713 67.4813 100.278C68.4154 99.3302 69.6458 98.0728 70.8314 96.7525C71.6262 95.8679 72.6546 94.6913 73.5392 93.416C73.8895 92.9085 74.1679 92.4415 74.379 91.9969C74.6035 91.5254 74.7248 91.1302 74.7652 90.7485C74.7921 90.4926 74.7786 90.1198 74.5631 89.7875C74.3835 89.5136 74.0826 89.307 73.665 89.1858C73.4449 89.1184 73.2069 89.096 73.0048 89.078C72.8926 89.069 72.7758 89.0645 72.6456 89.0645V89.06Z" fill="#49BDF1"/>
<path d="M96.8727 129.472C96.8188 129.314 96.7335 129.162 96.6482 129.018C96.5629 128.874 96.4506 128.749 96.3383 128.627C96.2081 128.488 96.0644 128.367 95.9072 128.259C95.6109 128.052 95.283 127.895 94.9462 127.77C94.5376 127.617 94.111 127.518 93.6843 127.437C92.7683 127.262 91.8252 127.213 90.8957 127.172C89.984 127.132 89.0724 127.118 88.1608 127.056C87.6354 127.015 87.1055 126.957 86.5936 126.818C85.8437 126.58 85.1027 126.283 84.4246 125.874C84.3168 125.803 84.2091 125.731 84.1058 125.654C83.989 125.569 83.8857 125.47 83.7869 125.367C83.7106 125.273 83.6387 125.183 83.5759 125.08C83.5355 124.999 83.504 124.918 83.4771 124.833C83.4636 124.752 83.4546 124.675 83.4546 124.595C83.4636 124.5 83.4816 124.411 83.504 124.321C83.5534 124.182 83.6163 124.056 83.6881 123.926C83.8947 123.611 84.1462 123.337 84.4156 123.077C85.3138 122.268 86.3466 121.617 87.3795 120.998C87.9812 120.634 88.5919 120.293 89.2072 119.947C89.8673 119.574 90.5364 119.21 91.201 118.847C92.3057 118.254 93.4688 117.773 94.6274 117.297C95.9566 116.754 97.2904 116.224 98.6016 115.636C99.8815 115.061 101.139 114.423 102.324 113.664C103.402 112.973 104.404 112.142 105.203 111.136C105.594 110.642 105.894 110.094 106.173 109.533C106.487 108.886 106.73 108.204 106.878 107.499C106.986 106.987 107.004 106.452 106.941 105.936C106.914 105.711 106.855 105.487 106.788 105.267C106.712 105.02 106.591 104.786 106.465 104.562C106.245 104.162 105.917 103.821 105.576 103.524C105.387 103.358 105.18 103.215 104.974 103.08C104.727 102.918 104.462 102.775 104.197 102.644C103.672 102.379 103.11 102.186 102.549 102.011C101.893 101.805 101.22 101.647 100.546 101.504C100.03 101.396 99.5043 101.306 98.9833 101.225C98.3726 101.126 97.7664 101.055 97.1511 101.001C95.9746 100.902 94.7935 100.911 93.617 101.001C91.3312 101.176 89.0904 101.755 86.9439 102.532C84.7524 103.327 82.6598 104.369 80.6075 105.464C78.5553 106.56 76.5435 107.732 74.5002 108.841C72.8881 109.713 71.249 110.543 69.565 111.271C69.5964 110.925 69.6638 110.584 69.7581 110.251C69.9557 109.632 70.2476 109.048 70.5844 108.491C71.469 107.095 72.6276 105.887 73.8266 104.759C75.3265 103.363 76.9207 102.074 78.5284 100.808C80.2438 99.4514 81.9817 98.1267 83.6836 96.7481C85.2599 95.4682 86.8092 94.139 88.2237 92.6795C89.4003 91.467 90.5005 90.1288 91.2369 88.593C91.5468 87.9464 91.7713 87.2503 91.8791 86.5453C91.9824 85.8672 91.951 85.1666 91.7983 84.4975C91.7174 84.1607 91.6097 83.8329 91.4705 83.5141C91.3133 83.1458 91.1067 82.7956 90.8867 82.4588C90.6621 82.1175 90.3972 81.7986 90.1188 81.4933C89.7954 81.1385 89.4497 80.8107 89.0859 80.5008C88.4258 79.9395 87.6848 79.468 86.9035 79.0863C86.1445 78.718 85.3317 78.4576 84.5099 78.278C83.6657 78.0983 82.799 78.0355 81.9413 78.0355C81.0342 78.0355 80.1226 78.1387 79.2289 78.3004C78.2724 78.4755 77.3339 78.727 76.4088 79.0279C75.4163 79.3512 74.4464 79.7374 73.4988 80.1685C72.4974 80.6176 71.5184 81.125 70.5574 81.6549C69.5381 82.2163 68.5456 82.818 67.5667 83.4467C65.5189 84.7625 63.5565 86.213 61.648 87.7263C59.7125 89.2666 57.8444 90.8877 56.0212 92.5583C53.0933 95.2482 50.2911 98.0773 47.6191 101.019C47.2284 101.45 46.8378 101.885 46.4516 102.321C47.6191 100.511 48.7777 98.6925 49.8061 96.7975C50.583 95.3604 51.2655 93.8695 51.7954 92.3247C52.0379 91.6152 52.2445 90.8922 52.4152 90.1647C52.6083 89.3385 52.734 88.4987 52.8058 87.6545C52.8732 86.8866 52.8777 86.1142 52.8418 85.3463C52.8103 84.5918 52.707 83.8464 52.5858 83.1009C52.3927 81.9334 52.1188 80.7703 51.6742 79.6746C51.4766 79.1806 51.2206 78.7091 50.9287 78.2645C50.6324 77.8199 50.2551 77.4247 49.8195 77.1194C49.6264 76.9802 49.4154 76.8679 49.2043 76.7691C48.9843 76.6703 48.7463 76.6074 48.5083 76.5535C48.2568 76.4952 47.9963 76.4907 47.7404 76.4862C47.7224 76.4862 47.7045 76.4862 47.6865 76.4862C47.3497 76.4862 47.0174 76.549 46.6896 76.6254C46.1731 76.7466 45.6567 76.9308 45.1942 77.1957C44.9831 77.317 44.7855 77.4517 44.5969 77.6044C44.4218 77.7436 44.2646 77.9052 44.1164 78.0714C43.9682 78.2375 43.847 78.4217 43.7302 78.6103C43.6135 78.8034 43.5102 79.001 43.4204 79.212C43.3305 79.4186 43.2587 79.6386 43.2003 79.8587C43.1375 80.0877 43.0836 80.3212 43.0387 80.5592C42.9533 81.0173 42.9174 81.4798 42.895 81.9468C42.868 82.4722 42.868 83.0021 42.877 83.5275C42.895 84.6008 42.9533 85.6696 42.9309 86.7429C42.9039 87.5512 42.8276 88.3595 42.6075 89.1409C42.5537 89.3115 42.4908 89.4777 42.4234 89.6393C42.3471 89.8279 42.2483 90.0076 42.145 90.1827C41.9878 90.4207 41.8127 90.6363 41.6106 90.8338C41.5073 90.9282 41.3996 91.0135 41.2873 91.0988C41.1616 91.1931 41.0313 91.2739 40.8966 91.3503C40.6586 91.4715 40.4206 91.5793 40.1601 91.6511C40.0254 91.6781 39.8862 91.6961 39.747 91.6961C39.6347 91.6871 39.527 91.6691 39.4237 91.6422C39.3159 91.6018 39.2171 91.5568 39.1183 91.503C38.9791 91.4087 38.8534 91.3009 38.7366 91.1841C38.5076 90.9282 38.319 90.6408 38.1528 90.3444C37.8385 89.7606 37.596 89.1409 37.3669 88.5167C37.0885 87.7622 36.8415 86.9988 36.5856 86.2399C36.3116 85.4226 36.0242 84.6098 35.7054 83.8105C35.3866 83.0111 35.0183 82.2297 34.5917 81.4798C34.1831 80.7568 33.7026 80.0742 33.1278 79.4725C32.8583 79.1896 32.5754 78.9291 32.27 78.6911C31.9377 78.4306 31.5785 78.2106 31.2057 78.0175C30.851 77.8334 30.4738 77.6897 30.0876 77.5819C29.634 77.4517 29.176 77.3708 28.7089 77.3304C27.6177 77.2406 26.5175 77.3978 25.4577 77.6582C24.9188 77.7885 24.3889 77.9501 23.868 78.1522C23.3965 78.3363 22.9474 78.5654 22.5163 78.8258C21.8023 79.2614 21.1826 79.8497 20.7111 80.5368C20.271 81.1789 19.9926 81.9109 19.8174 82.6653C19.6198 83.5141 19.5884 84.3987 19.6109 85.2654C19.6378 86.195 19.7546 87.1201 19.8983 88.0362C20.0554 89.0511 20.2485 90.057 20.4371 91.0674C20.7964 92.9894 21.1467 94.9338 21.1062 96.8918C21.0928 97.2914 21.0613 97.6911 21.0075 98.0863C20.9536 98.4815 20.8682 98.8721 20.756 99.2583C20.6751 99.5188 20.5808 99.7748 20.4686 100.026C20.3563 100.278 20.2261 100.52 20.0824 100.758C19.9477 100.969 19.7995 101.171 19.6378 101.369C19.4627 101.584 19.2696 101.782 19.0675 101.971C18.6858 102.321 18.2861 102.635 17.837 102.891C17.5452 103.044 17.2398 103.17 16.9209 103.251C16.656 103.309 16.391 103.336 16.1171 103.331C15.8207 103.313 15.5333 103.264 15.2459 103.183C14.7115 103.013 14.2131 102.757 13.7371 102.46C12.3764 101.593 11.1639 100.484 9.69098 99.7972C9.35418 99.64 8.99942 99.5188 8.63568 99.42C8.2405 99.3167 7.83634 99.2808 7.42768 99.2763C7.02802 99.2763 6.63733 99.3526 6.25113 99.4514C5.77063 99.5772 5.32606 99.7972 4.89495 100.04C4.39649 100.323 3.93844 100.682 3.50734 101.059C3.28729 101.252 3.07623 101.454 2.86966 101.661C2.6586 101.872 2.46999 102.105 2.28588 102.343C1.97153 102.757 1.70658 103.21 1.46858 103.668C1.18117 104.221 0.94766 104.804 0.741089 105.393C0.305494 106.628 0.0180931 107.912 -0.228895 109.192C-0.502825 110.62 -0.704905 112.061 -0.911476 113.498C-1.30216 116.233 -1.67489 118.986 -2.46974 121.64C-2.68978 122.34 -2.93677 123.032 -3.23764 123.706C-3.38134 124.029 -3.53851 124.343 -3.70916 124.653C-3.91573 125.035 -4.14924 125.398 -4.37827 125.762C-4.3648 125.744 -4.35581 125.722 -4.34234 125.704C-5.55033 127.626 -6.87059 129.476 -8.30311 131.236C-9.71767 132.974 -11.2535 134.618 -12.8881 136.154C-14.2308 137.407 -15.6364 138.583 -17.1093 139.679C-18.6406 140.819 -20.2528 141.852 -21.9143 142.791C-22.0131 142.845 -22.0221 142.997 -21.9637 143.083C-21.9323 143.128 -21.8829 143.159 -21.829 143.168C-21.7706 143.177 -21.7257 143.159 -21.6718 143.132C-20.1315 142.265 -18.6406 141.309 -17.2036 140.276C-15.7711 139.248 -14.4059 138.13 -13.0946 136.948C-10.5035 134.618 -8.17288 132.004 -6.09819 129.207C-5.59075 128.524 -5.10575 127.823 -4.62974 127.118C-4.39174 126.764 -4.16272 126.409 -3.93369 126.05C-3.71365 125.708 -3.4981 125.363 -3.29153 125.012C-2.64487 123.908 -2.20479 122.695 -1.83655 121.478C-1.42341 120.108 -1.1405 118.703 -0.893513 117.297C-0.633055 115.833 -0.426483 114.365 -0.206442 112.896C0.125868 110.692 0.471649 108.473 1.10932 106.331C1.44163 105.267 1.85028 104.225 2.43407 103.273C2.59573 103.026 2.76189 102.788 2.946 102.554C3.16605 102.272 3.42201 102.02 3.68247 101.773C3.97437 101.504 4.27524 101.248 4.59408 101.01C4.86352 100.808 5.15092 100.628 5.44281 100.466C5.80207 100.282 6.17479 100.13 6.56548 100.026C6.74511 99.9858 6.92473 99.9544 7.10436 99.9319C7.27949 99.9095 7.45014 99.905 7.62528 99.9095C8.00698 99.9274 8.37522 99.9948 8.74345 100.103C9.35867 100.305 9.92449 100.601 10.4724 100.938C11.1594 101.373 11.8106 101.867 12.4752 102.339C13.1039 102.784 13.755 103.215 14.469 103.524C14.7834 103.664 15.1157 103.767 15.4525 103.839C15.8162 103.915 16.1935 103.929 16.5617 103.893C16.9254 103.861 17.2847 103.758 17.626 103.623C17.8101 103.551 17.9852 103.457 18.1604 103.363C18.3984 103.233 18.6184 103.075 18.834 102.914C19.045 102.757 19.2426 102.577 19.4357 102.397C19.6064 102.236 19.7725 102.069 19.9297 101.894C20.244 101.544 20.509 101.149 20.738 100.74C21.1826 99.9499 21.4296 99.0563 21.5598 98.1671C21.6227 97.727 21.6541 97.278 21.6631 96.8289C21.6721 96.308 21.6541 95.7915 21.6182 95.2706C21.5418 94.2198 21.3802 93.178 21.2006 92.1406C20.9715 90.8294 20.7066 89.5271 20.4955 88.2113C20.2979 86.9854 20.1542 85.7504 20.1767 84.5065C20.1991 83.779 20.2889 83.0605 20.4865 82.36C20.5539 82.1489 20.6302 81.9378 20.7156 81.7313C20.8188 81.4888 20.9401 81.2553 21.0748 81.0307C21.1781 80.8691 21.2904 80.7119 21.4116 80.5592C21.5553 80.3751 21.7215 80.2044 21.8921 80.0383C22.0762 79.8677 22.2693 79.7105 22.4759 79.5623C22.6915 79.4051 22.916 79.2704 23.145 79.1447C23.4504 78.983 23.7647 78.8438 24.088 78.718C24.4922 78.5609 24.9098 78.4396 25.3275 78.3318C25.8259 78.2106 26.3289 78.1163 26.8408 78.0489C27.2854 77.9906 27.7345 77.9681 28.1835 77.9771C28.4709 77.9906 28.7538 78.013 29.0368 78.0534C29.3331 78.0938 29.625 78.1657 29.9124 78.2465C30.3974 78.4037 30.8555 78.6103 31.2911 78.8752C31.7536 79.1761 32.1712 79.5309 32.5529 79.926C33.1367 80.5592 33.6172 81.2777 34.0304 82.0322C34.8387 83.5455 35.391 85.1711 35.9344 86.7967C36.1859 87.5467 36.4284 88.2966 36.7068 89.0376C36.9448 89.6708 37.2098 90.2905 37.5421 90.8743C37.8025 91.3323 38.1348 91.7679 38.5615 92.0778C38.6603 92.1496 38.768 92.2125 38.8803 92.2709C38.9926 92.3292 39.1093 92.3652 39.2261 92.4011C39.4686 92.4729 39.7245 92.4864 39.976 92.4729C40.1107 92.464 40.241 92.4325 40.3712 92.4011C40.5014 92.3697 40.6272 92.3292 40.7484 92.2798C40.946 92.2035 41.1391 92.1047 41.3232 92.0014C41.5747 91.8577 41.8037 91.6961 42.0238 91.5075C42.1944 91.3593 42.3516 91.1931 42.4998 91.018C42.6435 90.8473 42.7647 90.6542 42.8815 90.4656C43.1419 90.039 43.3036 89.554 43.4338 89.0735C43.573 88.5481 43.6359 88.0092 43.6763 87.4703C43.7167 86.9 43.7212 86.3297 43.7122 85.7594C43.6988 84.6008 43.6269 83.4467 43.6539 82.2881C43.6808 81.4933 43.7572 80.6984 43.9772 79.935C44.0356 79.7599 44.0984 79.5892 44.1748 79.4186C44.2421 79.2569 44.3275 79.1042 44.4173 78.956C44.57 78.727 44.7361 78.5205 44.9292 78.3274C45.028 78.242 45.1268 78.1567 45.2301 78.0804C45.3513 77.9861 45.4861 77.9097 45.6163 77.8334C46.0025 77.6358 46.4066 77.4876 46.8243 77.3753C47.0084 77.3349 47.1925 77.299 47.3766 77.2765C47.5383 77.2541 47.7045 77.2541 47.8706 77.2541C47.9963 77.2631 48.1176 77.2765 48.2388 77.29C48.3511 77.308 48.4634 77.3349 48.5756 77.3664C48.6699 77.3978 48.7642 77.4337 48.8586 77.4696C48.9888 77.5235 49.1145 77.5909 49.2358 77.6672C49.3256 77.7301 49.4154 77.793 49.5007 77.8603C49.6265 77.9546 49.7342 78.0624 49.8465 78.1747C49.9722 78.3139 50.089 78.4576 50.2013 78.6103C50.345 78.8034 50.4707 79.0144 50.5875 79.2255C50.9916 80.0069 51.2655 80.8376 51.4811 81.6909C51.6383 82.3645 51.7595 83.0425 51.8583 83.7251C51.9212 84.1562 51.9661 84.5873 51.9975 85.0229C52.0379 85.5349 52.0424 86.0468 52.0335 86.5587C52.02 86.9494 51.993 87.3356 51.9571 87.7218C51.9212 88.1125 51.8628 88.4987 51.7999 88.8849C51.6697 89.6887 51.4676 90.4791 51.2386 91.2605C51.0096 91.9969 50.7446 92.7154 50.4482 93.425C50.1474 94.1525 49.8106 94.8575 49.4558 95.558C48.7508 96.9546 47.9425 98.2973 47.1162 99.6221C45.4591 102.254 43.6853 104.809 42.172 107.53C42.1405 107.606 42.127 107.683 42.136 107.764C42.1495 107.876 42.2079 107.984 42.2932 108.06C42.4728 108.208 42.7737 108.195 42.9174 108.002C43.5686 107.113 44.2556 106.25 44.9562 105.402C45.8992 104.252 46.8782 103.125 47.8706 102.02C50.3854 99.2134 53.0259 96.519 55.7742 93.9369C55.7742 93.9369 55.7832 93.9279 55.7877 93.9234C55.7877 93.9234 55.7832 93.9279 55.7787 93.9324C55.7876 93.9234 55.8011 93.9144 55.8101 93.901C55.8191 93.892 55.8281 93.883 55.837 93.8785C55.8281 93.8875 55.8191 93.8965 55.8101 93.901C58.2081 91.6601 60.6959 89.5091 63.2915 87.5018C65.8333 85.5394 68.4962 83.7161 71.3164 82.1714L71.2849 82.1893C71.2849 82.1893 71.3119 82.1759 71.3253 82.1669C71.3253 82.1669 71.3253 82.1669 71.3343 82.1669C71.3523 82.1579 71.3658 82.1489 71.3837 82.1399C71.3702 82.1444 71.3613 82.1534 71.3478 82.1579C73.5662 80.9634 75.8968 79.935 78.3487 79.3288C79.669 79.0144 81.0207 78.8303 82.3769 78.8528C82.8394 78.8662 83.2975 78.9066 83.751 78.974C84.245 79.0459 84.7345 79.1536 85.215 79.2973C85.6057 79.4186 85.9874 79.5623 86.3601 79.7284C86.7508 79.9036 87.1235 80.1057 87.4827 80.3302C88.2147 80.7972 88.8838 81.3541 89.4856 81.9828C89.8942 82.4273 90.258 82.9078 90.5544 83.4377C90.7564 83.8194 90.9181 84.2191 91.0304 84.6412C91.1247 85.0544 91.1696 85.472 91.1651 85.8986C91.1426 86.3701 91.0618 86.8372 90.9316 87.2907C90.6981 88.0317 90.3523 88.7277 89.9436 89.3879C88.9736 90.9012 87.7208 92.2125 86.4185 93.4429C84.8871 94.871 83.2615 96.1912 81.6224 97.489C79.9115 98.8407 78.1826 100.165 76.4941 101.54C74.9628 102.784 73.4584 104.072 72.0932 105.5C71.505 106.116 70.9481 106.762 70.4497 107.454C70.0141 108.056 69.6324 108.698 69.3405 109.38C69.1698 109.775 69.0441 110.189 68.9543 110.611C68.8689 111.01 68.8465 111.424 68.86 111.832C68.8689 112.048 69.1294 112.191 69.318 112.111C73.1575 110.503 76.7186 108.338 80.3651 106.358C81.8919 105.532 83.4367 104.741 85.0219 104.041C86.652 103.322 88.336 102.721 90.0604 102.281C90.9944 102.056 91.933 101.881 92.885 101.764C93.8685 101.643 94.8609 101.602 95.8533 101.62C96.3832 101.638 96.9087 101.67 97.4341 101.719C98.0268 101.778 98.6151 101.867 99.2034 101.966C100.2 102.132 101.193 102.339 102.163 102.622C102.985 102.873 103.784 103.188 104.52 103.637C104.691 103.749 104.853 103.866 105.01 103.991C105.154 104.104 105.284 104.234 105.414 104.364C105.508 104.472 105.598 104.58 105.679 104.692C105.755 104.795 105.823 104.908 105.885 105.02C105.935 105.114 105.98 105.213 106.02 105.312C106.074 105.437 106.115 105.572 106.15 105.702C106.182 105.846 106.204 105.99 106.222 106.138C106.24 106.291 106.24 106.443 106.24 106.596C106.227 106.812 106.204 107.027 106.168 107.243C106.132 107.481 106.07 107.71 106.002 107.939C105.76 108.693 105.427 109.421 105.014 110.094C104.83 110.373 104.633 110.642 104.417 110.898C104.201 111.154 103.968 111.392 103.725 111.626C103.267 112.048 102.778 112.429 102.262 112.784C101.732 113.152 101.175 113.476 100.609 113.79C98.1122 115.133 95.4312 116.071 92.8311 117.19C92.2923 117.423 91.7534 117.666 91.228 117.931C90.9675 118.061 90.716 118.2 90.4646 118.339C90.0065 118.591 89.5485 118.842 89.0949 119.094C88.3494 119.502 87.613 119.92 86.881 120.355C86.1849 120.769 85.5069 121.2 84.8512 121.676C84.3752 122.022 83.9261 122.399 83.5175 122.821C83.3468 122.996 83.1942 123.189 83.0594 123.391C82.9202 123.593 82.8125 123.804 82.7316 124.038C82.6688 124.226 82.6328 124.415 82.6328 124.613C82.6328 124.702 82.6328 124.792 82.6463 124.882C82.6598 124.976 82.6867 125.071 82.7137 125.16C82.7406 125.255 82.7855 125.34 82.8304 125.425C82.8798 125.52 82.9337 125.605 82.9921 125.69C83.055 125.78 83.1268 125.861 83.2031 125.937C83.3199 126.059 83.4412 126.171 83.5759 126.279C83.8004 126.458 84.0564 126.606 84.3034 126.75C84.6357 126.939 84.9949 127.091 85.3497 127.235C85.691 127.374 86.0413 127.5 86.396 127.603C86.5712 127.653 86.7463 127.693 86.9214 127.729C87.2807 127.797 87.6489 127.832 88.0126 127.859C88.4707 127.895 88.9287 127.913 89.3823 127.931C90.258 127.963 91.1292 127.985 92.0048 128.052C92.7997 128.115 93.599 128.219 94.3624 128.439C94.6992 128.546 95.0226 128.681 95.3279 128.861C95.4806 128.964 95.6243 129.081 95.759 129.211C95.8489 129.314 95.9297 129.422 95.9971 129.539C96.0644 129.674 96.1138 129.808 96.1542 129.952C96.1946 130.15 96.2126 130.347 96.2126 130.549C96.1901 130.9 96.1228 131.241 96.024 131.578C95.9387 131.838 95.8444 132.09 95.7366 132.337C95.6333 132.579 95.5165 132.822 95.3863 133.055C95.2696 133.226 95.1348 133.383 94.9867 133.531C94.8519 133.652 94.7127 133.765 94.569 133.872C94.3714 134.021 94.1559 134.146 93.9403 134.263C93.3206 134.586 92.674 134.838 92.0138 135.062C91.2594 135.314 90.4915 135.516 89.7191 135.705C88.7895 135.929 87.851 136.127 86.9214 136.347C86.5262 136.441 86.1356 136.544 85.7494 136.661C85.0578 136.868 84.3707 137.07 83.6747 137.267C80.8725 138.067 78.0568 138.812 75.2592 139.638C72.4705 140.46 69.6952 141.354 67.0188 142.494C65.7165 143.047 64.4501 143.68 63.2152 144.372C61.9488 145.077 60.7408 145.88 59.5867 146.756C59.3757 146.918 59.3173 147.219 59.4745 147.439C59.6317 147.654 59.9415 147.708 60.1571 147.551C61.4863 146.581 62.8829 145.71 64.3244 144.919C66.0892 143.972 67.9124 143.146 69.7761 142.405C71.7385 141.623 73.7458 140.963 75.7711 140.352C77.7964 139.742 79.8396 139.189 81.8784 138.623C82.8529 138.354 83.8318 138.076 84.8018 137.797C85.5428 137.582 86.2748 137.348 87.0202 137.16C88.2102 136.877 89.4092 136.625 90.5948 136.324C91.8522 136.001 93.114 135.619 94.2681 135.009C94.7217 134.771 95.1483 134.488 95.5255 134.137C95.6917 133.98 95.8399 133.814 95.9746 133.63C96.1587 133.383 96.2845 133.095 96.4147 132.817C96.6392 132.332 96.8188 131.82 96.9356 131.295C97.0299 130.868 97.0569 130.41 96.994 129.979C96.967 129.804 96.9176 129.633 96.8593 129.467L96.8727 129.472ZM55.7966 93.9369C55.7966 93.9369 55.8101 93.9234 55.8191 93.9144C55.8101 93.9234 55.8056 93.9279 55.7966 93.9369ZM71.3298 82.1893C71.3298 82.1893 71.3388 82.1893 71.3388 82.1848C71.3388 82.1848 71.3343 82.1848 71.3298 82.1848V82.1893ZM71.3388 82.1848C71.3388 82.1848 71.3523 82.1759 71.3568 82.1759C71.3523 82.1759 71.3478 82.1803 71.3433 82.1848H71.3388ZM110.991 118.335C110.951 117.67 110.565 117.091 110.089 116.646C109.765 116.345 109.393 116.094 109.007 115.874C108.719 115.708 108.414 115.573 108.104 115.456C107.525 115.241 106.909 115.133 106.294 115.083C106.083 115.065 105.872 115.061 105.656 115.061C105.216 115.061 104.776 115.092 104.341 115.151C103.636 115.241 102.944 115.393 102.257 115.586C100.825 115.995 99.4369 116.592 98.1256 117.293C96.8503 117.971 95.6333 118.761 94.4927 119.655C93.6215 120.338 92.7862 121.087 92.0992 121.954C92.0542 122.013 92.0228 122.066 92.0228 122.143C92.0228 122.21 92.0498 122.277 92.0992 122.322C92.1081 122.331 92.1216 122.34 92.1351 122.349C92.1396 122.381 92.153 122.408 92.1665 122.439C92.2473 122.583 92.4315 122.628 92.5752 122.551C92.8087 122.426 93.0467 122.309 93.2892 122.206C93.9269 121.95 94.596 121.788 95.274 121.689C97.0748 121.456 98.898 121.68 100.694 121.887C101.615 121.995 102.535 122.098 103.461 122.143C104.368 122.188 105.279 122.165 106.177 122.035C107.044 121.909 107.884 121.653 108.674 121.272C109.011 121.11 109.334 120.917 109.631 120.692C109.905 120.49 110.161 120.266 110.376 120.001C110.762 119.534 111.032 118.954 110.991 118.339V118.335ZM110.412 118.622C110.39 118.761 110.354 118.896 110.304 119.031C110.228 119.206 110.129 119.372 110.012 119.525C109.824 119.763 109.604 119.969 109.366 120.153C108.962 120.454 108.513 120.692 108.046 120.89C107.385 121.159 106.694 121.334 105.984 121.433C104.184 121.662 102.365 121.433 100.578 121.218C99.6614 121.11 98.7408 121.007 97.8203 120.957C96.9176 120.912 96.0105 120.939 95.1169 121.074C94.6454 121.146 94.1783 121.263 93.7248 121.402C93.5002 121.469 93.2802 121.55 93.0647 121.635C93.2443 121.447 93.4284 121.263 93.6215 121.083C94.0885 120.643 94.5825 120.234 95.0899 119.844C96.7156 118.613 98.5073 117.576 100.393 116.794C100.384 116.794 100.375 116.799 100.371 116.803C100.384 116.799 100.398 116.794 100.407 116.79C100.416 116.79 100.425 116.781 100.434 116.781C100.429 116.781 100.425 116.781 100.42 116.785C101.669 116.278 102.967 115.878 104.305 115.69C105.059 115.591 105.823 115.564 106.582 115.649C107.107 115.717 107.623 115.842 108.117 116.035C108.571 116.229 109.002 116.476 109.397 116.772C109.64 116.961 109.864 117.172 110.057 117.414C110.161 117.558 110.25 117.706 110.322 117.868C110.372 117.989 110.408 118.119 110.426 118.249C110.439 118.371 110.439 118.492 110.426 118.618L110.412 118.622ZM100.398 116.799C100.398 116.799 100.389 116.799 100.384 116.803C100.393 116.803 100.398 116.799 100.407 116.794C100.407 116.794 100.402 116.794 100.398 116.794V116.799ZM33.478 76.1359C33.8867 77.3439 34.5782 78.4396 35.2967 79.4859C36.0916 80.6445 36.9583 81.7537 37.8115 82.8719C37.9058 82.9976 38.0001 83.1189 38.0944 83.2446C38.4627 83.7251 38.8264 84.2146 39.1677 84.7176C39.4326 85.1083 39.6886 85.5079 39.8772 85.9435C39.8907 85.9794 39.9087 86.0199 39.9221 86.0603C39.9491 86.1456 39.994 86.213 40.0748 86.2579C40.1512 86.3028 40.241 86.3118 40.3218 86.2893C40.3937 86.2713 40.4565 86.2219 40.5014 86.1636C40.5059 86.1636 40.5104 86.1591 40.5149 86.1546C40.5957 86.1097 40.6811 86.0154 40.6945 85.9211C40.717 85.7684 40.7664 85.6247 40.7933 85.472C40.8248 85.3193 40.8427 85.1666 40.8607 85.014C40.9056 84.6682 40.937 84.3224 40.9595 83.9721C40.9909 83.532 41.0089 83.0919 41.0134 82.6519C41.0178 82.1893 41.0044 81.7268 40.9819 81.2642C40.9146 80.0024 40.7619 78.7405 40.5059 77.5056C40.3757 76.8724 40.2095 76.2437 39.994 75.6285C39.7919 75.0402 39.5449 74.4609 39.2216 73.9265C38.9432 73.4595 38.5974 73.0149 38.1663 72.6781C37.9552 72.5119 37.7307 72.3682 37.4837 72.2605C37.3535 72.2021 37.2188 72.1527 37.0795 72.1168C36.9313 72.0763 36.7832 72.0539 36.6305 72.0359C36.5407 72.027 36.4508 72.0225 36.361 72.0225C36.1679 72.0225 35.9793 72.0449 35.7862 72.0719C35.4674 72.1213 35.1665 72.2335 34.8701 72.3548C34.6321 72.4536 34.4076 72.5793 34.201 72.7365C34.0932 72.8173 33.99 72.9026 33.8912 72.9969C33.7924 73.0957 33.707 73.2035 33.6262 73.3158C33.3478 73.6975 33.231 74.1735 33.2176 74.6405C33.2086 74.892 33.24 75.148 33.2849 75.3949C33.3298 75.6464 33.3972 75.8934 33.4825 76.1314L33.478 76.1359ZM34.0079 74.4923C34.0304 74.3486 34.0663 74.2049 34.1157 74.0657C34.1696 73.949 34.2325 73.8367 34.3043 73.7334C34.3986 73.6211 34.5019 73.5179 34.6187 73.4235C34.7893 73.3023 34.9779 73.199 35.171 73.1137C35.427 73.0104 35.6964 72.9341 35.9703 72.8892C36.1634 72.8667 36.3565 72.8622 36.5496 72.8802C36.7203 72.9071 36.8864 72.9475 37.0481 73.0104C37.2277 73.0912 37.3984 73.19 37.5555 73.3068C37.7711 73.4819 37.9642 73.684 38.1348 73.904C38.4447 74.3262 38.6872 74.7932 38.8893 75.2737C39.3922 76.5176 39.6617 77.8558 39.8458 79.1806C39.9625 80.0563 40.0389 80.9364 40.0793 81.8166C40.0928 82.1534 40.1018 82.4857 40.1018 82.8225C40.1018 83.2806 40.0748 83.7431 40.0434 84.2011C40.0299 84.4032 40.0119 84.6053 39.9985 84.8074C39.9895 84.7939 39.9805 84.7759 39.9715 84.7625C39.6796 84.2999 39.3608 83.8509 39.0375 83.4108C38.2426 82.3196 37.4118 81.2598 36.6215 80.1595C36.1679 79.5309 35.7323 78.8887 35.3327 78.2286C34.9824 77.6493 34.6501 77.052 34.3851 76.4278C34.219 76.0147 34.0798 75.588 34.0124 75.1435C33.9855 74.9234 33.981 74.7034 33.9989 74.4833L34.0079 74.4923ZM98.431 125.946C98.0448 125.56 97.5823 125.255 97.0883 125.026C96.042 124.541 94.8834 124.366 93.7383 124.321C93.5631 124.316 93.388 124.312 93.2173 124.312C91.5872 124.312 89.9661 124.577 88.3629 124.855C88.2372 124.878 88.1653 125.03 88.1968 125.147C88.2147 125.21 88.2551 125.259 88.309 125.291C88.3674 125.322 88.4258 125.327 88.4887 125.313C88.9557 125.232 89.4182 125.156 89.8897 125.093C91.439 124.882 93.0197 124.752 94.5735 124.936C95.2022 125.017 95.8264 125.16 96.4192 125.394C96.8233 125.565 97.205 125.776 97.5553 126.041C97.8292 126.261 98.0807 126.508 98.2963 126.786C98.5028 127.065 98.678 127.37 98.8172 127.684C98.8531 127.761 98.9429 127.819 99.0238 127.841C99.1091 127.864 99.1989 127.85 99.2752 127.81C99.3516 127.765 99.41 127.689 99.4324 127.603C99.4549 127.514 99.4324 127.437 99.401 127.356C99.1719 126.831 98.8486 126.351 98.44 125.946H98.431ZM55.7113 91.3997C56.0885 90.991 56.4747 90.5869 56.8699 90.1962C57.2741 89.792 57.6872 89.4058 58.1093 89.0196C58.9625 88.2338 59.8472 87.4838 60.7723 86.7833C61.6345 86.1321 62.5326 85.5214 63.4622 84.969C64.3828 84.4257 65.3348 83.9452 66.3227 83.5365C66.3227 83.5365 66.3227 83.5365 66.3183 83.5365C66.3811 83.5096 66.444 83.4826 66.5114 83.4602C66.5967 83.4243 66.664 83.3883 66.7134 83.303C66.7583 83.2267 66.7673 83.1369 66.7449 83.0515C66.7224 82.9662 66.664 82.8944 66.5877 82.8495C66.5383 82.8225 66.4754 82.8045 66.417 82.8045C66.3901 82.8045 66.3632 82.8045 66.3362 82.818C64.4905 83.5051 62.7796 84.502 61.1854 85.6516C59.5643 86.8192 58.0599 88.1439 56.6633 89.5675C56.2053 90.0345 55.7562 90.5105 55.3116 90.991C55.2039 91.1078 55.1949 91.2874 55.3116 91.3997C55.4194 91.5075 55.617 91.5164 55.7203 91.3997H55.7113ZM69.7985 80.5862C71.0245 79.8452 72.3043 79.1896 73.6246 78.6372C73.8311 78.5519 74.0377 78.4711 74.2443 78.3902C74.3296 78.3588 74.397 78.3184 74.4419 78.2375C74.4868 78.1612 74.4958 78.0714 74.4733 77.9906C74.4508 77.9097 74.397 77.8379 74.3206 77.793C74.2757 77.766 74.2128 77.7481 74.1545 77.7481C74.1275 77.7481 74.1006 77.7481 74.0736 77.7615C72.4705 78.3588 70.9347 79.1312 69.4752 80.0203C69.3225 80.1101 69.2641 80.3077 69.3539 80.4649C69.4393 80.6176 69.6458 80.676 69.7985 80.5862Z" fill="#161616"/>
</g>
<defs>
<clipPath id="clip0_2130_2562">
<rect width="114" height="114" rx="4" fill="white"/>
</clipPath>
</defs>
</svg>
