<svg width="114" height="114" viewBox="0 0 114 114" fill="none" xmlns="http://www.w3.org/2000/svg">
<g clip-path="url(#clip0_3036_1467)">
<rect width="114" height="114" rx="4" fill="black" fill-opacity="0.01"/>
<path d="M73.5639 47.76C72.0279 46.512 70.1079 45.36 69.3399 45.36C69.1479 45.36 69.0519 45.456 69.0519 45.552C69.0519 46.416 74.8119 50.064 75.6759 50.064C75.7719 50.064 75.7719 50.064 75.7719 49.968C75.7719 49.776 75.1959 49.104 73.5639 47.76ZM42.2679 16.464C50.5239 13.872 51.4839 13.776 62.9079 13.584L72.1239 13.392L76.2519 19.056C78.5559 22.128 80.3799 25.104 80.3799 25.68C80.3799 26.16 77.1159 26.448 72.6999 26.448H70.6839C66.3639 26.352 63.1959 26.256 60.6999 26.256C53.4999 26.256 53.2119 27.024 53.2119 30.096V30.96C53.2119 35.568 53.7879 37.584 55.4199 37.584C56.3799 37.584 57.6279 36.912 59.4519 35.568C62.2359 33.456 64.4439 32.304 66.5559 32.304C69.6279 32.304 72.6039 34.608 76.9239 39.6L83.1639 46.704L82.4919 55.248C81.1479 72.912 73.5639 84.528 63.5799 84.528C53.4039 84.528 34.2039 69.744 34.2039 61.968C34.2039 61.2 34.7799 60.816 35.9319 60.816C37.9479 60.816 41.4039 62.064 45.3399 64.272C50.4279 67.152 53.4999 68.496 55.8039 68.496C57.5319 68.496 58.7799 67.728 60.0279 66.384C61.3719 64.944 63.0999 62.256 63.7719 60.432C64.5399 58.32 65.0199 55.152 65.0199 52.56C65.0199 49.872 64.5399 47.76 63.6759 47.76C61.8519 47.76 55.5159 51.696 55.5159 52.752C55.5159 53.52 54.7479 53.808 53.4999 53.808C48.5079 53.808 36.1239 49.008 34.2999 45.552C33.7239 44.496 33.0519 37.776 32.8599 30.576C32.7639 27.216 32.6679 24.72 32.6679 22.896C32.6679 18.672 32.9559 17.808 34.0119 17.808C34.2039 17.808 34.3959 17.904 34.5879 17.904H35.0679C36.5079 17.904 39.5799 17.328 42.2679 16.464Z" fill="white"/>
<path d="M-8.1509 73.65C-12.2727 91.0148 -0.988665 108.553 17.0405 112.825C35.0759 117.098 53.0309 106.484 57.1528 89.1194C61.2715 71.7545 49.9967 54.2168 31.9613 49.9443C13.9322 45.6749 -4.03215 56.2852 -8.1509 73.65Z" fill="url(#paint0_radial_3036_1467)"/>
<path d="M15.5761 110.278C16.9727 108.33 19.6114 107.5 21.1007 105.484C23.7518 101.844 20.8504 98.1676 20.8782 94.3149C20.9709 94.7872 21.1316 95.1392 21.317 95.2657C21.3726 95.5991 21.4499 95.9295 21.5364 96.2598C21.5055 95.9603 21.4931 95.6609 21.5024 95.3553L21.7681 95.3151C21.8979 99.6 26.2854 102.848 24.1905 107.281C23.1029 109.54 20.6681 110.849 19.6577 113.023C18.8853 114.776 19.5125 116.406 19.976 118.126L18.2951 118.011C17.9398 116.267 17.4145 114.603 18.2951 112.899C19.4353 110.791 21.9504 109.636 23.174 107.447C24.5582 104.934 23.7023 102.69 22.7816 100.403C23.1771 102.06 23.2234 103.721 22.1234 105.444C20.7608 107.549 18.1777 108.543 16.9047 110.571C15.916 112.217 16.3331 113.912 16.5803 115.674L14.9303 115.35C14.7943 113.575 14.4854 111.859 15.573 110.278H15.5761Z" fill="url(#paint1_linear_3036_1467)"/>
<mask id="mask0_3036_1467" style="mask-type:luminance" maskUnits="userSpaceOnUse" x="14" y="94" width="11" height="25">
<path d="M15.5761 110.278C16.9727 108.33 19.6114 107.5 21.1007 105.484C23.7518 101.844 20.8504 98.1676 20.8782 94.3149C20.9709 94.7872 21.1316 95.1392 21.317 95.2657C21.3726 95.5991 21.4499 95.9295 21.5364 96.2598C21.5055 95.9603 21.4931 95.6609 21.5024 95.3553L21.7681 95.3151C21.8979 99.6 26.2854 102.848 24.1905 107.281C23.1029 109.54 20.6681 110.849 19.6577 113.023C18.8853 114.776 19.5125 116.406 19.976 118.126L18.2951 118.011C17.9398 116.267 17.4145 114.603 18.2951 112.899C19.4353 110.791 21.9504 109.636 23.174 107.447C24.5582 104.934 23.7023 102.69 22.7816 100.403C23.1771 102.06 23.2234 103.721 22.1234 105.444C20.7608 107.549 18.1777 108.543 16.9047 110.571C15.916 112.217 16.3331 113.912 16.5803 115.674L14.9303 115.35C14.7943 113.575 14.4854 111.859 15.573 110.278H15.5761Z" fill="white"/>
</mask>
<g mask="url(#mask0_3036_1467)">
<g style="mix-blend-mode:multiply" opacity="0.7">
<path d="M48.9063 107.021C47.8372 107.525 46.762 107.994 45.6805 108.429L44.0584 109.013C44.0584 108.991 44.0645 108.969 44.0522 108.948C42.087 105.478 39.9087 102.187 37.5265 99.103C33.9608 103.434 28.9583 106.194 23.3503 106.364C14.5721 106.626 6.9 100.471 3.74219 91.6014C4.02954 96.3678 5.36435 100.68 8.60868 104.332C13.9912 110.383 19.318 112.76 27.6915 112.405C35.2214 112.084 41.4722 111.649 49.0083 107.478C49.2462 107.345 49.1504 106.907 48.9032 107.024L48.9063 107.021Z" fill="#9B1B8F"/>
</g>
</g>
<path d="M6.83484 107.355C9.23255 104.579 12.9682 103.897 15.5111 101.035C20.047 95.8615 17.2136 89.2614 18.3229 83.0995C18.3136 83.8775 18.431 84.4795 18.6442 84.7326C18.6257 85.2821 18.638 85.8285 18.6566 86.378C18.6998 85.8934 18.7647 85.4087 18.8636 84.9209H19.2251C18.2054 91.8082 23.1337 98.0904 19.1169 104.672C17.0437 108.022 13.444 109.519 11.4974 112.751C9.98338 115.369 10.3634 118.135 10.5025 120.997L8.30251 120.401C8.31487 117.524 8.08005 114.727 9.72384 112.217C11.8249 109.124 15.4864 107.889 17.7234 104.691C20.2602 101.011 19.7504 97.2044 19.1633 93.3147C19.2282 96.0653 18.8265 98.7356 16.8892 101.221C14.4945 104.255 10.7867 105.212 8.53116 108.148C6.76069 110.538 6.84411 113.356 6.68035 116.236L4.57617 115.313C4.89134 112.439 4.95622 109.611 6.84102 107.352L6.83484 107.355Z" fill="url(#paint2_linear_3036_1467)"/>
<mask id="mask1_3036_1467" style="mask-type:luminance" maskUnits="userSpaceOnUse" x="4" y="83" width="17" height="38">
<path d="M6.83484 107.355C9.23255 104.579 12.9682 103.897 15.5111 101.035C20.047 95.8615 17.2136 89.2614 18.3229 83.0995C18.3136 83.8775 18.431 84.4795 18.6442 84.7326C18.6257 85.2821 18.638 85.8285 18.6566 86.378C18.6998 85.8934 18.7647 85.4087 18.8636 84.9209H19.2251C18.2054 91.8082 23.1337 98.0904 19.1169 104.672C17.0437 108.022 13.444 109.519 11.4974 112.751C9.98338 115.369 10.3634 118.135 10.5025 120.997L8.30251 120.401C8.31487 117.524 8.08005 114.727 9.72384 112.217C11.8249 109.124 15.4864 107.889 17.7234 104.691C20.2602 101.011 19.7504 97.2044 19.1633 93.3147C19.2282 96.0653 18.8265 98.7356 16.8892 101.221C14.4945 104.255 10.7867 105.212 8.53116 108.148C6.76069 110.538 6.84411 113.356 6.68035 116.236L4.57617 115.313C4.89134 112.439 4.95622 109.611 6.84102 107.352L6.83484 107.355Z" fill="white"/>
</mask>
<g mask="url(#mask1_3036_1467)">
<g style="mix-blend-mode:multiply" opacity="0.7">
<path d="M52.0296 110.331C50.4693 110.874 48.9089 111.362 47.3516 111.791L45.0343 112.325C45.0404 112.288 45.0528 112.254 45.0435 112.22C43.3966 106.185 41.4191 100.378 39.111 94.8582C33.1724 100.915 25.7568 104.104 18.2577 102.996C6.52253 101.261 -1.95907 89.5176 -3.68628 74.5452C-4.62868 82.2475 -4.05707 89.4775 -0.760211 96.1239C4.70571 107.136 11.1233 112.248 22.3487 113.739C32.4432 115.076 40.8692 115.912 52.042 111.087C52.3973 110.933 52.3881 110.21 52.0296 110.334V110.331Z" fill="#9B1B8F"/>
</g>
</g>
<path d="M25.9889 66.5374C25.7417 67.5839 26.3936 68.6335 27.4411 68.8805C28.4886 69.1274 29.5391 68.476 29.7863 67.4295C30.0335 66.383 29.3815 65.3334 28.3341 65.0864C27.2866 64.8395 26.2361 65.4908 25.9889 66.5374Z" fill="url(#paint3_linear_3036_1467)"/>
<path d="M4.97492 77.5335C3.05613 85.6896 9.98663 94.2902 20.455 96.7475C30.9234 99.2049 40.9622 94.5866 42.881 86.4305C44.7998 78.2744 37.8693 69.6738 27.4009 67.2165C16.9326 64.7592 6.89371 69.3775 4.97492 77.5335Z" fill="url(#paint4_linear_3036_1467)"/>
<g style="mix-blend-mode:multiply" opacity="0.3">
<path d="M36.593 89.3663C38.5118 81.2103 31.5813 72.6097 21.113 70.1523C17.2043 69.2355 13.3544 69.3034 9.96484 70.177C14.2968 66.9479 20.7607 65.6606 27.3977 67.2165C37.863 69.6738 44.7935 78.2775 42.8778 86.4305C41.6758 91.5396 37.2852 95.2596 31.5999 96.7228C34.0995 94.8582 35.8886 92.3485 36.59 89.3663H36.593Z" fill="#FF6700"/>
</g>
<path opacity="0.2" d="M13.1536 83.649C11.7971 89.4219 15.1002 95.1361 20.5321 96.411C25.9671 97.686 31.4701 94.0402 32.8297 88.2673C34.1861 82.4945 30.8831 76.7803 25.4511 75.5053C20.0161 74.2304 14.5131 77.8762 13.1567 83.649H13.1536Z" fill="#FFFFF2"/>
<path d="M14.3834 92.0212C13.9725 93.7623 16.6884 95.8893 20.4487 96.7722C24.2091 97.6551 27.5863 96.9575 27.9972 95.2163C28.4051 93.4752 25.6922 91.3482 21.9319 90.4653C18.1715 89.5824 14.7944 90.2801 14.3834 92.0212Z" fill="#FF9310"/>
<path opacity="0.5" d="M24.997 89.9745C24.3481 92.7035 22.451 94.5866 20.7547 94.1853C19.0583 93.7839 18.2148 91.2464 18.8637 88.5174C19.4631 85.9952 21.6044 82.7198 23.7147 81.1979C23.7116 82.6118 23.5942 84.1152 23.9681 85.5198C24.2184 84.9518 24.3667 84.356 24.4038 83.7787C24.4254 83.6954 24.4223 83.6984 24.4007 83.7787C25.3029 85.5044 25.445 88.1006 25.0001 89.9683L24.997 89.9745Z" fill="#FFFFF2"/>
<path opacity="0.7" d="M23.4642 90.6135C23.0903 92.1787 22.0027 93.2591 21.0325 93.0276C20.0592 92.7961 19.5741 91.3421 19.9479 89.7769C20.2909 88.3321 21.5207 86.4521 22.7288 85.5816C22.7288 86.3904 22.6577 87.2548 22.874 88.0605C23.0161 87.7333 23.1027 87.3937 23.1243 87.0634C23.1367 87.0171 23.1367 87.0171 23.1243 87.0634C23.6403 88.0512 23.7237 89.5423 23.4673 90.6135H23.4642Z" fill="#FFFFF2"/>
<mask id="mask2_3036_1467" style="mask-type:luminance" maskUnits="userSpaceOnUse" x="14" y="90" width="15" height="8">
<path d="M14.3834 92.0212C13.9725 93.7623 16.6884 95.8893 20.4487 96.7722C24.2091 97.6551 27.5863 96.9575 27.9972 95.2163C28.4051 93.4752 25.6922 91.3482 21.9319 90.4653C18.1715 89.5824 14.7944 90.2801 14.3834 92.0212Z" fill="white"/>
</mask>
<g mask="url(#mask2_3036_1467)">
<path d="M24.997 89.9745C24.3481 92.7035 22.451 94.5866 20.7547 94.1853C19.0583 93.7839 18.2148 91.2464 18.8637 88.5174C19.4631 85.9952 21.6044 82.7198 23.7147 81.1979C23.7116 82.6118 23.5942 84.1152 23.9681 85.5198C24.2184 84.9518 24.3667 84.356 24.4038 83.7787C24.4254 83.6954 24.4223 83.6984 24.4007 83.7787C25.3029 85.5044 25.445 88.1006 25.0001 89.9683L24.997 89.9745Z" fill="#FFFFF2"/>
</g>
<mask id="mask3_3036_1467" style="mask-type:luminance" maskUnits="userSpaceOnUse" x="14" y="90" width="15" height="8">
<path d="M14.3834 92.0212C13.9725 93.7623 16.6884 95.8893 20.4487 96.7722C24.2091 97.6551 27.5863 96.9575 27.9972 95.2163C28.4051 93.4752 25.6922 91.3482 21.9319 90.4653C18.1715 89.5824 14.7944 90.2801 14.3834 92.0212Z" fill="white"/>
</mask>
<g mask="url(#mask3_3036_1467)">
<path d="M29.7337 99.5691C23.4953 96.2073 17.3373 92.6602 11.1267 89.2336C10.8764 89.0947 11.1483 88.5575 11.3986 88.6964C17.6092 92.1231 23.7672 95.6701 30.0056 99.032C30.2559 99.1678 29.984 99.705 29.7337 99.5691Z" fill="#D64316"/>
<path d="M9.75154 93.4907C16.9632 93.8055 24.2027 93.9259 31.4236 94.176C31.7079 94.1853 31.6647 94.7872 31.3773 94.778C24.1564 94.531 16.9169 94.4106 9.70519 94.0927C9.42093 94.0803 9.46418 93.4783 9.75154 93.4907Z" fill="#D64316"/>
</g>
<g style="mix-blend-mode:multiply" opacity="0.3">
<mask id="mask4_3036_1467" style="mask-type:luminance" maskUnits="userSpaceOnUse" x="4" y="66" width="40" height="32">
<path d="M4.97492 77.5335C3.05613 85.6896 9.98663 94.2902 20.455 96.7475C30.9234 99.2049 40.9622 94.5866 42.881 86.4305C44.7998 78.2744 37.8693 69.6738 27.4009 67.2165C16.9326 64.7592 6.89371 69.3775 4.97492 77.5335Z" fill="white"/>
</mask>
<g mask="url(#mask4_3036_1467)">
<path d="M0.00347185 102.891C-4.21106 98.8746 -6.00008 94.4045 -5.03605 90.3017C-4.07202 86.199 -0.475452 82.9946 5.08625 81.272C10.5676 79.5772 17.3313 79.5216 24.1289 81.1177C30.9265 82.7137 36.9548 85.773 41.1076 89.7306C45.3221 93.7469 47.1111 98.217 46.1471 102.32C45.1831 106.422 41.5865 109.627 36.0248 111.349C30.5434 113.044 23.7798 113.1 16.9821 111.504C10.1845 109.908 4.15621 106.848 0.00347185 102.891ZM-4.18017 90.5024C-6.04025 98.4084 3.54442 107.447 17.186 110.649C30.8246 113.85 43.4342 110.022 45.2943 102.116C47.1544 94.21 37.5697 85.171 23.9281 81.9697C10.2864 78.7684 -2.32317 82.5964 -4.18017 90.5024Z" fill="#D64316"/>
<path d="M1.98101 94.4847C-2.23352 90.4684 -4.02254 85.9983 -3.05851 81.8956C-2.09448 77.7929 1.50209 74.5885 7.06379 72.8659C12.5452 71.1711 19.3088 71.1155 26.1065 72.7115C32.9041 74.3076 38.9324 77.3668 43.0882 81.3245C47.3027 85.3408 49.0917 89.8109 48.1277 93.9136C47.1637 98.0163 43.5671 101.221 38.0054 102.943C32.524 104.638 25.7604 104.694 18.9627 103.098C12.1651 101.502 6.13684 98.4424 1.9841 94.4847H1.98101ZM-2.20263 82.0963C-4.06271 90.0023 5.52196 99.0412 19.1636 102.243C32.8021 105.444 45.4117 101.616 47.2718 93.7099C49.1319 85.8038 39.5472 76.7649 25.9056 73.5636C12.2671 70.3623 -0.342546 74.1872 -2.20263 82.0963Z" fill="#D64316"/>
</g>
</g>
</g>
<defs>
<radialGradient id="paint0_radial_3036_1467" cx="0" cy="0" r="1" gradientTransform="matrix(-32.6968 -7.74639 -7.47306 31.4869 24.0417 80.908)" gradientUnits="userSpaceOnUse">
<stop stop-color="#FFEC8E"/>
<stop offset="0.06" stop-color="#FFE67F" stop-opacity="0.9"/>
<stop offset="0.2" stop-color="#FFD95D" stop-opacity="0.66"/>
<stop offset="0.34" stop-color="#FFCE41" stop-opacity="0.46"/>
<stop offset="0.48" stop-color="#FFC529" stop-opacity="0.29"/>
<stop offset="0.61" stop-color="#FFBE17" stop-opacity="0.17"/>
<stop offset="0.74" stop-color="#FFBA0A" stop-opacity="0.07"/>
<stop offset="0.86" stop-color="#FFB702" stop-opacity="0.02"/>
<stop offset="0.96" stop-color="#FFB600" stop-opacity="0"/>
</radialGradient>
<linearGradient id="paint1_linear_3036_1467" x1="21.9984" y1="117.583" x2="16.0562" y2="95.6236" gradientUnits="userSpaceOnUse">
<stop stop-color="#FFF515"/>
<stop offset="0.98" stop-color="#FFCA00"/>
</linearGradient>
<linearGradient id="paint2_linear_3036_1467" x1="13.1704" y1="121.476" x2="8.36981" y2="85.3431" gradientUnits="userSpaceOnUse">
<stop stop-color="#FFF515"/>
<stop offset="0.98" stop-color="#FFCA00"/>
</linearGradient>
<linearGradient id="paint3_linear_3036_1467" x1="27.4385" y1="68.8814" x2="28.3287" y2="65.0884" gradientUnits="userSpaceOnUse">
<stop stop-color="#FFF515"/>
<stop offset="0.98" stop-color="#FF6700"/>
</linearGradient>
<linearGradient id="paint4_linear_3036_1467" x1="20.4506" y1="96.7518" x2="27.3828" y2="67.2162" gradientUnits="userSpaceOnUse">
<stop stop-color="#FFF515"/>
<stop offset="0.98" stop-color="#FF6700"/>
</linearGradient>
<clipPath id="clip0_3036_1467">
<rect width="114" height="114" rx="4" fill="white"/>
</clipPath>
</defs>
</svg>
