<svg width="114" height="114" viewBox="0 0 114 114" fill="none" xmlns="http://www.w3.org/2000/svg">
<g clip-path="url(#clip0_2130_5206)">
<rect width="114" height="114" rx="4" fill="#CCECFB"/>
<path d="M46.4885 69.568C44.3125 66.752 42.8405 63.968 42.0725 61.216C41.3045 58.4 40.9205 55.968 40.9205 53.92V53.44V52.96L41.0165 52.48V51.712C41.0165 43.968 42.3925 37.728 45.1445 32.992C47.8965 28.192 50.5845 24.896 53.2085 23.104C55.8965 21.312 57.9445 20.224 59.3525 19.84C57.5605 20.992 55.1285 23.616 52.0565 27.712C49.0485 31.808 47.5445 37.408 47.5445 44.512C47.5445 46.048 47.5765 47.232 47.6405 48.064C47.7045 48.896 47.8965 50.144 48.2165 51.808C48.2805 52.704 48.7605 54.176 49.6565 56.224C50.4245 58.272 51.9605 60.672 54.2645 63.424C56.6325 66.112 59.8965 68.384 64.0565 70.24L56.2805 77.632C52.0565 75.328 48.7925 72.64 46.4885 69.568ZM60.4085 39.808C63.2245 39.808 65.3045 40.288 66.6485 41.248C68.0565 42.208 69.0165 42.912 69.5285 43.36C70.0405 43.808 70.5525 44.32 71.0645 44.896C73.0485 48.224 74.0405 51.456 74.0405 54.592C74.0405 58.56 72.8565 61.824 70.4885 64.384C68.1205 66.944 66.2325 68.576 64.8245 69.28C65.0165 69.024 65.3045 68.416 65.6885 67.456C66.0725 66.432 66.5205 65.216 67.0325 63.808C67.6085 62.336 67.8965 60.448 67.8965 58.144C67.8965 53.728 65.8485 51.008 61.7525 49.984L61.3685 49.888L60.4085 49.792C57.7845 49.792 55.3205 51.008 53.0165 53.44L45.6245 46.816C50.7445 42.144 55.6725 39.808 60.4085 39.808Z" fill="#3A3A3A"/>
<path d="M206.983 11.4842C206.936 11.3906 206.86 11.3204 206.761 11.2853C206.656 11.2502 206.568 11.2677 206.463 11.3028C206.252 11.3789 206.041 11.4491 205.831 11.5193C205.357 11.6655 204.883 11.7942 204.403 11.9112C203.789 12.0633 203.163 12.1686 202.543 12.2681C201.285 12.467 200.01 12.5606 198.741 12.6308C197.342 12.6951 195.938 12.7185 194.54 12.7361C193.242 12.7536 191.943 12.7712 190.644 12.8414C189.971 12.8765 189.304 12.9233 188.638 12.9642C187.795 13.0169 186.947 13.0695 186.099 13.1222C184.443 13.2217 182.788 13.3153 181.132 13.403C181.114 13.403 181.097 13.403 181.079 13.403C181.079 13.403 181.044 13.403 181.027 13.403H181.038C177.552 13.5785 174.065 13.7189 170.578 13.8067C167.068 13.8886 163.558 13.9003 160.048 13.8652C153.122 13.7891 146.201 13.5083 139.293 13.0754C125.428 12.2096 111.604 10.6827 97.8508 8.71712C89.3273 7.50031 80.8331 6.10216 72.3622 4.58115C68.1443 3.82064 63.9265 3.03089 59.7203 2.21188C55.7774 1.44553 51.8344 0.655771 47.9032 -0.169085C47.9383 -0.163235 47.9734 -0.157385 48.0085 -0.145683C38.0108 -2.24585 28.0599 -4.57416 18.2494 -7.42898C13.3587 -8.85054 8.51489 -10.4125 3.72371 -12.15C1.3603 -13.0041 -0.985567 -13.9108 -3.31388 -14.8585C-5.72995 -15.8413 -8.11091 -16.9002 -10.4919 -17.9766C-10.5328 -17.9941 -10.5855 -18 -10.6381 -18C-10.6908 -18 -10.7434 -17.9824 -10.7844 -17.959C-10.8721 -17.9122 -10.9482 -17.8362 -10.9774 -17.7426C-11.0125 -17.649 -11.0067 -17.5437 -10.9599 -17.4501C-10.9131 -17.3506 -10.837 -17.3038 -10.7434 -17.257C-7.94712 -15.894 -5.0806 -14.6713 -2.20238 -13.5013C0.722641 -12.3196 3.67692 -11.2198 6.65459 -10.1843C6.67214 -10.1843 6.68383 -10.1726 6.70138 -10.1668C6.70138 -10.1551 6.70138 -10.1434 6.70138 -10.1258C6.63703 -6.17122 6.91199 -2.2166 7.33319 1.70878C7.54965 3.68609 7.79535 5.65755 8.06445 7.62901C8.199 8.60597 8.3394 9.58293 8.4798 10.5599C8.55 11.0454 8.62019 11.531 8.69625 12.0107C8.77229 12.4904 8.8425 12.9701 8.9244 13.4498C8.9361 13.5259 8.95364 13.6019 8.96534 13.678C8.98289 13.7833 9.06481 13.8593 9.16426 13.8827C9.16426 13.8886 9.17595 13.8944 9.17595 13.9061C9.26955 14.0173 9.44505 14.0348 9.5562 13.9354C11.0012 12.6249 12.4286 11.297 13.8209 9.93393C15.2249 8.56502 16.6055 7.17271 17.9627 5.757C19.3258 4.34129 20.6654 2.90803 21.9934 1.46307C22.6661 0.731819 23.3272 -0.00528336 23.9883 -0.742388C24.6376 -1.46779 25.287 -2.19905 25.9188 -2.94785C26.2522 -3.33981 26.574 -3.74931 26.8782 -4.15881C30.3063 -3.27545 33.7461 -2.44475 37.1918 -1.66084C37.847 1.61518 38.4086 4.9146 38.9995 8.20817C39.3095 9.93393 39.6313 11.6538 39.9823 13.3679C40.3333 15.0644 40.7135 16.7609 41.1581 18.4399C41.2576 18.8026 41.357 19.1711 41.4565 19.5338C41.5091 19.7152 41.5618 19.8965 41.6144 20.0779C41.6378 20.1656 41.6671 20.2476 41.7022 20.3295C41.6963 20.3353 41.6905 20.3412 41.6788 20.347C41.5676 20.4464 41.5501 20.6161 41.6495 20.7273C41.7431 20.8384 41.9245 20.856 42.0298 20.7565C42.0473 20.739 42.0649 20.7273 42.0824 20.7097C42.1702 20.6922 42.2404 20.622 42.2696 20.5401C44.7325 18.358 47.1076 16.0765 49.4008 13.7248C50.6001 12.4904 51.7759 11.2326 52.9284 9.95733C54.0808 8.68202 55.2158 7.38916 56.3214 6.0729C56.766 5.54055 57.2106 5.0082 57.6435 4.47C57.8658 4.19504 58.0823 3.92009 58.2987 3.63929C58.4918 3.38774 58.6848 3.13619 58.8486 2.86708C59.9192 3.07769 60.9897 3.28244 62.0661 3.48719C65.1082 4.07219 68.1502 4.63965 71.1981 5.18955C71.8884 8.74637 72.8185 12.2505 73.8949 15.7079C74.4565 17.5097 75.0591 19.294 75.685 21.0724C76.3051 22.8157 76.9428 24.5473 77.6331 26.2614C77.6799 26.3784 77.7267 26.4954 77.7793 26.6124C77.791 26.6475 77.8086 26.6826 77.8261 26.7177C77.8086 26.7411 77.791 26.7645 77.7793 26.7937C77.7559 26.8522 77.7618 26.9224 77.7911 26.9809C77.8203 27.0394 77.8671 27.0804 77.9256 27.0979C77.9607 27.1096 78.0075 27.1155 78.0485 27.1096C78.1245 27.1623 78.2356 27.174 78.3234 27.133C78.3877 27.1038 78.4346 27.0453 78.458 26.9809C78.4755 26.9341 78.4755 26.8932 78.4638 26.8464C78.8499 26.5656 79.2185 26.2672 79.5753 25.9455C80.055 25.5126 80.4996 25.0446 80.9267 24.559C81.8334 23.5411 82.6466 22.4472 83.448 21.3415C84.2202 20.2709 84.9691 19.1887 85.7647 18.1357C86.1683 17.6033 86.5895 17.0944 87.0165 16.5854C87.5313 15.9653 88.052 15.3511 88.5668 14.7251C89.38 13.7423 90.1814 12.7536 90.9478 11.7357C91.328 11.2326 91.6966 10.7295 92.0535 10.2089C92.2348 9.94563 92.4161 9.67653 92.5916 9.40743C92.6794 9.27288 92.7788 9.14417 92.8783 9.00962C92.9251 8.94527 92.9719 8.87507 93.007 8.80487C93.007 8.79902 93.0128 8.79317 93.0187 8.78732C97.5349 9.45423 102.057 10.0802 106.585 10.6476C107.205 12.1218 107.767 13.6253 108.293 15.1405C109.323 18.124 110.224 21.1485 111.224 24.1378L111.3 24.3601C111.3 24.3601 111.312 24.4011 111.318 24.4186C111.686 25.5184 112.072 26.6065 112.482 27.6888C112.698 28.2679 112.926 28.8413 113.166 29.4146C113.389 29.9586 113.623 30.5027 113.874 31.0292C113.804 31.1228 113.845 31.2632 113.938 31.3275C113.985 31.3626 114.05 31.3743 114.102 31.3626C114.161 31.3509 114.202 31.3158 114.237 31.269C114.248 31.2515 114.26 31.2398 114.272 31.2222C114.342 31.1871 114.383 31.1286 114.401 31.0584C115.313 29.9118 116.197 28.736 117.051 27.5425C117.957 26.2731 118.835 24.9861 119.701 23.6874C121.432 21.09 123.088 18.4457 124.779 15.8132C125.112 15.2867 125.451 14.7661 125.785 14.2396L126.288 13.4557C126.428 13.2334 126.575 13.0169 126.709 12.7887C131.494 13.21 136.28 13.561 141.077 13.8418C141.703 15.5675 142.393 17.2699 143.136 18.9488C143.932 20.7624 144.786 22.5466 145.663 24.3192C146.459 25.9338 147.289 27.5367 148.126 29.1338C148.957 30.725 149.787 32.3162 150.659 33.884C150.741 34.0302 150.922 34.0946 151.074 34.0185C151.092 34.0068 151.11 33.9951 151.127 33.9834C151.197 33.9834 151.285 33.96 151.332 33.9074C153.362 31.6961 155.152 29.28 156.796 26.7762C158.457 24.249 159.972 21.634 161.447 18.9956C161.862 18.2527 162.271 17.5097 162.675 16.7609C162.88 16.3865 163.079 16.0063 163.278 15.626C163.371 15.4447 163.459 15.2575 163.553 15.0703C163.599 14.9708 163.646 14.8714 163.693 14.7719C163.722 14.7017 163.752 14.6315 163.781 14.5613C165.033 14.5613 166.285 14.5613 167.536 14.5555C169.602 14.5379 171.667 14.4911 173.738 14.4268C173.749 14.456 173.767 14.4794 173.784 14.5028C174.223 15.0001 174.633 15.5207 175.013 16.0648C175.013 16.0648 175.013 16.0706 175.019 16.0765V16.0648C175.019 16.0648 175.036 16.0999 175.048 16.1174C175.042 16.1057 175.03 16.094 175.025 16.0823C177.195 19.2121 178.482 22.8274 180.313 26.1444C180.722 26.8873 181.167 27.6127 181.641 28.3206C182.167 29.1045 182.729 29.8592 183.302 30.608C183.852 31.3275 184.414 32.0471 184.964 32.7666C185.245 33.1352 185.525 33.5037 185.806 33.8781C185.947 34.0653 186.081 34.2525 186.221 34.4397C186.333 34.5918 186.444 34.7439 186.561 34.896C186.526 35.0072 186.608 35.13 186.707 35.1651C186.766 35.1827 186.83 35.1768 186.883 35.1534C186.912 35.1359 186.935 35.1183 186.953 35.0949C186.976 35.0891 187 35.0832 187.023 35.0715C187.175 34.9896 187.239 34.7966 187.163 34.6445C187.772 33.2639 188.409 31.9008 189.059 30.5378C189.082 30.4851 189.106 30.4383 189.129 30.3857C189.129 30.3857 189.129 30.3857 189.129 30.3915C190.65 27.2383 192.253 24.132 193.774 20.9788C194.376 19.7269 194.967 18.475 195.535 17.2055C195.821 16.562 196.102 15.9185 196.371 15.2692C196.506 14.9416 196.64 14.6198 196.769 14.2922C196.833 14.1284 196.892 13.9646 196.956 13.8008C196.997 13.6838 197.038 13.5668 197.079 13.444C197.664 13.4264 198.243 13.4089 198.828 13.3796C199.472 13.3445 200.115 13.3036 200.759 13.2451C201.525 13.1807 202.28 13.0754 203.04 12.9526C203.66 12.8531 204.281 12.7127 204.889 12.5664C205.527 12.4085 206.158 12.2037 206.779 11.9814C206.872 11.9463 206.948 11.8469 206.977 11.7591C207.013 11.6597 207.007 11.5544 206.96 11.4608L206.983 11.4842ZM26.2581 -4.31091C25.5677 -3.60891 24.895 -2.8367 24.2983 -2.1581L23.9122 -1.71935C22.8884 -0.555187 22.0519 0.386667 21.2797 1.24662L21.2621 1.26417L21.2504 1.27587L21.2212 1.30512C18.3547 4.49339 15.7163 7.26631 13.1657 9.78768C11.9898 10.9518 10.9719 11.9288 10.0125 12.8121C9.837 12.976 9.65565 13.1398 9.48015 13.3036C9.45675 12.9935 9.42166 12.66 9.39826 12.3968L9.369 12.1277C9.3222 11.6538 9.26955 11.1741 9.21105 10.6652C9.09405 9.69408 8.9712 8.70542 8.84249 7.72847L8.71379 6.75736C8.51489 5.2305 8.28675 3.49889 8.082 1.81408C7.8363 -0.262686 7.66078 -2.03525 7.53793 -3.65571C7.49698 -4.15881 7.46189 -4.65606 7.43263 -5.15917V-5.14747V-5.17087V-5.19427V-5.22352C7.33319 -6.92003 7.29808 -8.46444 7.32148 -9.9562C12.6801 -8.11344 18.4658 -6.37597 25.0178 -4.63851L25.3923 -4.53906C25.6438 -4.47471 25.8954 -4.40451 26.1528 -4.34016C26.1879 -4.32846 26.2229 -4.32261 26.2581 -4.31091ZM58.3221 2.76764C58.2929 2.80273 58.2578 2.83783 58.2285 2.87293L58.211 2.89049C58.0764 3.04259 57.9477 3.19469 57.8132 3.34679C57.6026 3.59249 57.3978 3.83819 57.1931 4.08974L57.0351 4.27694C56.5262 4.8912 56.0172 5.4996 55.5024 6.10801C54.6658 7.09081 53.8351 8.05607 53.0103 8.98037C52.7997 9.22023 52.5832 9.46008 52.3726 9.69408L52.3843 9.68238C49.9507 12.3851 47.6166 14.8129 45.2414 17.1002C44.3464 17.9602 43.4689 18.7792 42.6148 19.5514C42.4627 19.6859 42.3164 19.8205 42.1643 19.955L42.1468 19.879L42.059 19.5572L41.9713 19.2355C41.8601 18.8201 41.7548 18.4048 41.6495 17.9894C41.4448 17.1646 41.24 16.3163 41.0411 15.4681C40.7018 13.988 40.3566 12.3617 39.953 10.3434C39.561 8.36612 39.1866 6.34786 38.859 4.5636L38.8415 4.46414C38.5724 3.01333 38.2974 1.51573 38.0108 0.0473671C37.9113 -0.461586 37.8119 -0.976391 37.7124 -1.49119C37.7124 -1.50289 37.7124 -1.52044 37.7066 -1.53214C39.5961 -1.10509 41.5442 -0.672188 43.6561 -0.221735C47.4118 0.585569 51.4542 1.41628 55.9529 2.30548C56.7368 2.46343 57.5265 2.61553 58.3104 2.76764H58.3221ZM92.4805 8.71127L92.4512 8.76392L92.4278 8.79902C92.3167 8.98622 92.2055 9.15587 92.0827 9.33138C91.8662 9.64143 91.6264 9.98073 91.3807 10.32C90.9361 10.9401 90.4622 11.5719 89.9299 12.2505C88.9588 13.4966 87.935 14.731 86.9405 15.9244L86.8761 16.0063L86.7299 16.1818L86.6948 16.2227C86.3204 16.6732 85.9284 17.147 85.5657 17.6209C85.1562 18.1532 84.7643 18.6973 84.4308 19.1653C84.2085 19.4753 83.9921 19.7795 83.7756 20.0896C83.2257 20.8677 82.6524 21.6808 82.0616 22.4589C81.6404 23.0146 81.2484 23.5119 80.8682 23.9565C80.7804 24.0618 80.6868 24.1671 80.5932 24.2724L80.6049 24.2607C79.8503 25.1148 79.1716 25.7641 78.4696 26.2965C78.4287 26.3316 78.3819 26.3608 78.3351 26.3901L78.3117 26.3257L78.224 26.0917L78.142 25.8577L77.9197 25.261V25.2493L77.7735 24.8749L77.6858 24.6409C77.4693 24.0618 77.2528 23.4826 77.0422 22.9035C76.4982 21.4293 76.036 20.1364 75.6265 18.9488C74.2284 14.9006 73.2046 11.49 72.4149 8.20232C72.1867 7.24291 71.9761 6.2835 71.7889 5.3592C71.7889 5.3358 71.7831 5.3124 71.7772 5.29485C78.3351 6.47071 84.8286 7.55297 91.094 8.50067C91.5562 8.57087 92.0183 8.63522 92.4746 8.70542L92.4805 8.71127ZM126.183 12.7654C126.083 12.9058 125.99 13.0462 125.896 13.1866L125.767 13.3738C125.551 13.6955 125.334 14.0231 125.124 14.3449C124.679 15.0235 124.258 15.6904 123.86 16.3105C123.468 16.9306 123.07 17.5507 122.678 18.1766L122.556 18.3755L122.368 18.668C122.029 19.2004 121.696 19.7386 121.356 20.271C119.748 22.8099 118.004 25.5067 116.167 28.0574C115.606 28.8413 115.038 29.5959 114.488 30.2979C114.418 30.3857 114.348 30.4734 114.278 30.5612C114.248 30.4968 114.219 30.4266 114.19 30.3623C114.108 30.1751 114.026 29.982 113.944 29.7948C113.798 29.4555 113.64 29.087 113.482 28.695C113.19 27.9871 112.903 27.2442 112.616 26.4837C112.371 25.8285 112.113 25.1031 111.821 24.2607C111.821 24.249 111.815 24.2314 111.809 24.2197C111.68 23.8453 111.552 23.4709 111.423 23.0965C111.089 22.0962 110.756 21.0783 110.428 20.0954L110.387 19.9667V19.9492C109.75 18.0245 109.1 16.0355 108.404 14.0992C107.995 12.976 107.603 11.9463 107.193 10.9577C107.158 10.8758 107.123 10.7939 107.088 10.712C112.71 11.414 118.32 12.0282 123.796 12.543C124.586 12.6191 125.375 12.6893 126.165 12.7595L126.183 12.7654ZM163.295 14.5906L163.237 14.6783L163.202 14.7368C163.126 14.8538 163.049 14.9767 162.979 15.0937L162.903 15.2165C162.745 15.4739 162.593 15.743 162.447 16.0004L162.435 16.0238L162.353 16.1701C161.985 16.8136 161.622 17.4629 161.259 18.1123C160.399 19.6508 159.692 20.8969 159.025 22.0377C157.258 25.068 155.696 27.4782 154.111 29.631C153.379 30.6255 152.619 31.5791 151.853 32.48C151.607 32.7608 151.373 33.0299 151.156 33.2697C151.139 33.2873 151.121 33.3048 151.104 33.3224C150.735 32.597 150.361 31.8891 149.91 31.0409L149.39 30.0639L149.097 29.514L148.524 28.4376C147.406 26.3257 146.564 24.6994 145.792 23.155C144.054 19.6742 142.756 16.7317 141.709 13.8944C142.691 13.9529 143.68 14.0056 144.651 14.0524C148.261 14.2337 152.034 14.3741 155.86 14.4677C158.071 14.5204 160.253 14.5613 162.365 14.5789C162.675 14.5789 162.985 14.5789 163.295 14.5789V14.5906ZM196.547 13.4849L196.535 13.5083C196.518 13.5551 196.494 13.6078 196.477 13.6546C196.406 13.8125 196.342 13.9763 196.278 14.1343L196.231 14.2396L196.19 14.3449C196.05 14.6842 195.909 15.0235 195.763 15.3628C195.459 16.0823 195.137 16.8311 194.803 17.5858C194.335 18.6446 193.821 19.7561 193.212 21.0315C193.06 21.3474 192.914 21.6633 192.762 21.9792L192.774 21.9675L192.697 22.1313L192.633 22.26C192.616 22.2951 192.598 22.3302 192.58 22.3653C192.58 22.3653 192.58 22.3536 192.586 22.3477C192.586 22.3477 192.586 22.3594 192.58 22.3594V22.3477C192.019 23.5294 191.416 24.7638 190.884 25.846C189.925 27.7999 188.93 29.8241 187.994 31.8365C187.696 32.48 187.38 33.1703 187.058 33.8957C187.017 33.9893 186.976 34.0829 186.935 34.1765C186.853 34.0478 186.771 33.9191 186.689 33.7904C186.485 33.4803 186.28 33.1761 186.099 32.9246C185.689 32.3396 185.262 31.7721 184.853 31.2398L184.636 30.959L184.42 30.6782C183.753 29.8065 183.062 28.9115 182.419 27.993C181.863 27.1915 181.348 26.3608 180.88 25.5301C180.371 24.6175 179.909 23.7049 179.564 23.0088C179.424 22.728 179.289 22.453 179.149 22.1722L179.09 22.0494L179.079 22.026C178.406 20.6571 177.704 19.2355 176.932 17.89C176.154 16.5328 175.376 15.4037 174.557 14.4326C176.101 14.38 177.68 14.3215 179.395 14.2454C181.056 14.1694 182.881 14.0758 184.975 13.9588C185.964 13.9003 186.947 13.8418 187.936 13.7833C188.251 13.7657 188.562 13.7423 188.877 13.7248H188.93C189.509 13.6838 190.106 13.6429 190.697 13.6136C191.984 13.5551 193.288 13.5376 194.558 13.52H194.786C195.301 13.5083 195.821 13.5025 196.336 13.4966C196.401 13.4966 196.471 13.4966 196.535 13.4966L196.547 13.4849Z" fill="#161616"/>
<path d="M71.7713 5.29486C71.9585 6.24257 72.1691 7.21952 72.409 8.20818C73.1987 11.4959 74.2225 14.9065 75.6207 18.9547C76.0302 20.1423 76.4982 21.441 77.0364 22.9093C77.247 23.4885 77.4634 24.0676 77.6799 24.6468L77.7676 24.8808L77.908 25.2552V25.2669L78.1362 25.8636L78.2181 26.0976L78.3058 26.3316L78.3292 26.4018C79.0722 25.8519 79.7917 25.1733 80.5932 24.2665L80.5698 24.2841C81.0437 23.7517 81.5233 23.155 82.0498 22.4647C82.6407 21.6867 83.2081 20.8735 83.7639 20.0955C83.9804 19.7854 84.2027 19.4754 84.4191 19.1711C84.7467 18.709 85.1445 18.1649 85.554 17.6267C85.9167 17.1529 86.3087 16.6849 86.6831 16.2286L86.7182 16.1876L86.8644 16.0121L86.9288 15.9302C87.9174 14.7368 88.9412 13.5083 89.9182 12.2564C90.4505 11.572 90.9243 10.9401 91.3689 10.3259C91.6147 9.98659 91.8487 9.65314 92.071 9.33724C92.1938 9.16174 92.305 8.99208 92.4161 8.80488L92.4395 8.76978L92.4688 8.71713C85.7763 7.71678 78.8089 6.56432 71.7655 5.30071L71.7713 5.29486Z" fill="#FA4862"/>
<path d="M107.1 10.712C107.538 11.7767 107.971 12.8823 108.41 14.105C109.106 16.0414 109.761 18.0304 110.387 19.955V19.9726L110.434 20.1013C110.756 21.0841 111.089 22.102 111.423 23.1024C111.552 23.4768 111.674 23.8512 111.809 24.2256C111.815 24.2373 111.821 24.2548 111.821 24.2665C112.113 25.1031 112.371 25.8343 112.616 26.4895C112.897 27.25 113.19 27.993 113.482 28.7008C113.64 29.0869 113.798 29.4555 113.944 29.8006C114.026 29.9878 114.108 30.1809 114.19 30.3681C114.219 30.4325 114.248 30.5027 114.284 30.567C114.898 29.7889 115.535 28.9407 116.167 28.0573C118.004 25.5067 119.748 22.804 121.356 20.2709C121.696 19.7386 122.035 19.2004 122.368 18.668L122.556 18.3755L122.678 18.1766C123.07 17.5565 123.462 16.9306 123.86 16.3105C124.252 15.6904 124.679 15.0235 125.124 14.3448C125.334 14.0172 125.551 13.6955 125.767 13.3737L125.896 13.1865C125.99 13.0461 126.083 12.9057 126.183 12.7653C119.958 12.2096 113.541 11.5193 107.106 10.712H107.1Z" fill="#98C12A"/>
<path d="M37.7124 -1.538C37.8177 -1.0115 37.9172 -0.484997 38.0225 0.0415059C38.3091 1.50987 38.5841 3.00748 38.8532 4.45829L38.8707 4.55773C39.1983 6.33615 39.5727 8.36026 39.9647 10.3376C40.3683 12.3558 40.7135 13.9821 41.0528 15.4622C41.2458 16.3105 41.4506 17.1587 41.6612 17.9836C41.7665 18.3989 41.8718 18.8143 41.9829 19.2296L42.0707 19.5514L42.1526 19.8731L42.1701 19.9492C43.1646 19.0658 44.1942 18.1064 45.2473 17.0944C47.6224 14.807 49.9565 12.3792 52.3901 9.67652L52.3609 9.69992C53.3964 8.55916 54.4494 7.3482 55.5082 6.10214C56.023 5.49374 56.532 4.88534 57.0409 4.27108L57.1989 4.08388C57.4036 3.83818 57.6142 3.58663 57.819 3.34093C57.9477 3.18883 58.0822 3.03672 58.2168 2.88462L58.2343 2.86707C58.2636 2.83197 58.2987 2.79687 58.3279 2.76177C52.8698 1.69122 48.0787 0.714261 43.6736 -0.233445C41.5559 -0.689748 39.6137 -1.1168 37.7241 -1.54385L37.7124 -1.538Z" fill="#FFE11A"/>
<path d="M7.31563 -9.95622C7.29223 -8.46446 7.32733 -6.92005 7.42678 -5.22354V-5.19429V-5.17089C7.54378 -3.14677 7.74852 -0.929607 8.07613 1.81406C8.27503 3.50472 8.50317 5.23633 8.70792 6.75734L8.83662 7.72845C8.96533 8.70541 9.08818 9.69406 9.20518 10.6652C9.26368 11.1741 9.31633 11.6538 9.36898 12.1277L9.39824 12.3968C9.42749 12.66 9.45673 12.9876 9.48013 13.3035C10.6033 12.2856 11.7733 11.1683 13.1715 9.78766C15.7221 7.2663 18.3605 4.49338 21.227 1.30511L21.2563 1.27586L21.268 1.26416L21.2855 1.24661C22.0577 0.38665 22.8943 -0.555205 23.918 -1.71936L24.3041 -2.15812C24.9008 -2.83672 25.5736 -3.60893 26.2639 -4.31093C25.9714 -4.39283 25.6848 -4.46888 25.3981 -4.54493L25.0237 -4.64438C18.4716 -6.37599 12.686 -8.1193 7.32732 -9.96207L7.31563 -9.95622Z" fill="#C12F8A"/>
<path d="M23.5717 134.617C23.6391 134.374 23.7334 134.15 23.8636 133.921C23.9938 133.696 24.1465 133.489 24.3351 133.292C24.5507 133.063 24.8066 132.852 25.112 132.659C25.588 132.358 26.1583 132.129 26.8589 131.963C27.2541 131.868 27.6717 131.81 28.0399 131.761C28.5968 131.684 29.1671 131.621 29.7149 131.563C31.1699 131.401 32.6698 131.235 34.1113 130.844C34.7759 130.651 35.2923 130.44 35.7414 130.189C35.9569 130.05 36.1456 129.906 36.3072 129.753C36.4015 129.645 36.4869 129.538 36.5587 129.421C36.6126 129.313 36.6575 129.21 36.6979 129.093C36.7249 128.963 36.7428 128.833 36.7473 128.698C36.7383 128.514 36.7114 128.33 36.662 128.137C36.6126 127.984 36.5542 127.845 36.4824 127.714C36.3476 127.508 36.1815 127.306 35.9659 127.086C35.674 126.807 35.3372 126.538 34.9016 126.237C34.493 125.95 34.0439 125.671 33.4467 125.325C31.8704 124.432 30.1775 123.641 28.6821 122.941C28.2644 122.748 27.8468 122.55 27.4292 122.357C26.0146 121.697 24.5507 121.014 23.1271 120.309C21.6766 119.591 19.7816 118.607 17.9718 117.408C17.1994 116.896 16.5258 116.385 15.9151 115.85C15.2729 115.289 14.7565 114.741 14.3299 114.171C14.1458 113.919 13.9617 113.632 13.7731 113.29C13.6204 113.012 13.4902 112.707 13.3869 112.379C13.2836 112.051 13.2207 111.741 13.1893 111.44C13.1579 111.113 13.1623 110.762 13.2117 110.398C13.2522 110.102 13.3285 109.792 13.4587 109.424C13.5934 109.042 13.7865 108.688 13.9796 108.364C14.0829 108.194 14.1952 108.023 14.3344 107.839C14.4916 107.632 14.6757 107.448 14.8733 107.264C15.3403 106.819 15.9286 106.505 16.3283 106.312C16.8537 106.056 17.424 105.881 17.9584 105.733C18.5197 105.576 19.1439 105.463 19.9298 105.373C20.6213 105.293 21.3713 105.252 22.1482 105.252C22.6915 105.252 23.2573 105.27 23.8726 105.311C25.0132 105.382 26.1493 105.526 27.254 105.733C28.0399 105.881 28.8797 106.074 29.9035 106.339C30.7568 106.559 31.6594 106.828 32.7416 107.179C34.8837 107.875 37.129 108.764 39.8099 109.976C41.0045 110.515 42.1675 111.148 43.1465 111.692C43.874 112.096 44.6105 112.518 45.32 112.931C45.6972 113.151 46.0744 113.367 46.4561 113.582L46.4382 113.573C46.5729 113.65 46.7076 113.722 46.8423 113.798C47.2644 114.036 47.7045 114.278 48.1177 114.548C48.3063 114.674 48.4949 114.799 48.6835 114.93C49.0293 115.163 49.384 115.406 49.7478 115.621C49.9139 115.711 50.0711 115.792 50.2283 115.868C50.4124 115.953 50.61 116.03 50.8839 116.106C50.9423 116.12 51.0052 116.133 51.0635 116.142C51.0007 115.904 50.9333 115.626 50.857 115.347C50.5381 114.238 50.143 113.295 49.6535 112.46C49.3257 111.925 48.9484 111.413 48.4994 110.888C48.176 110.511 47.8213 110.134 47.4126 109.729C45.778 108.144 43.8785 106.801 42.2394 105.692C41.5478 105.225 40.8383 104.758 40.1512 104.309C38.9522 103.519 37.7128 102.706 36.5228 101.857C34.3493 100.308 32.7416 98.9114 31.4573 97.4474C30.7388 96.6301 30.0966 95.7275 29.5488 94.7575C28.8886 93.5944 28.489 92.5077 28.3273 91.4389C28.1612 90.3207 28.2869 89.1666 28.7 88.1023C28.8797 87.6353 29.1401 87.1548 29.4724 86.6743C29.7509 86.2701 30.1056 85.866 30.5592 85.4349C30.9229 85.0891 31.354 84.7568 31.839 84.4514C32.3285 84.1416 32.8494 83.8676 33.3838 83.6386C33.8823 83.4276 34.4391 83.2434 35.0858 83.0818C35.6246 82.9471 36.2039 82.8528 36.8102 82.8034C37.147 82.7764 37.4883 82.7629 37.861 82.7584C38.2113 82.7584 38.584 82.7719 38.9702 82.7989C39.6393 82.8438 40.3398 82.9471 41.1122 83.1087C42.446 83.3916 43.8156 83.8407 45.2975 84.4874C47.9964 85.6639 50.5381 87.285 52.8778 88.8613C57.6064 92.0451 62.3171 95.8487 66.8842 100.155C70.2162 103.299 73.5303 106.752 77.0151 110.708L76.3729 109.837L75.7352 108.97C74.6081 107.435 73.5124 105.926 72.484 104.354C70.0321 100.595 68.5861 97.389 67.935 94.259C67.8047 93.6438 67.7104 93.0376 67.6476 92.4538C67.5937 91.9553 67.5577 91.4254 67.5353 90.8416C67.4859 89.5349 67.5443 88.2505 67.7104 87.0291C67.899 85.628 68.2269 84.4604 68.7163 83.459C68.9768 82.9291 69.2911 82.4576 69.6594 82.0579C69.8255 81.8783 70.0231 81.6987 70.2611 81.5145C70.5036 81.3259 70.7731 81.1867 71.0066 81.0744C71.4287 80.8724 71.9361 80.7466 72.5199 80.7107C72.6008 80.7062 72.6861 80.7017 72.7669 80.7017C73.1172 80.7017 73.445 80.7511 73.7414 80.8499C73.9569 80.9218 74.1186 80.9936 74.2668 81.0789C74.4419 81.1822 74.6081 81.3035 74.7563 81.4382C75.0167 81.6762 75.2458 81.9816 75.4389 82.3408C75.8834 83.1716 76.09 84.1101 76.2292 84.9229C76.3909 85.8705 76.4762 86.845 76.557 87.788L76.575 87.9946L76.5975 88.2685C76.7052 89.5169 76.813 90.8057 77.06 92.0541C77.2396 92.9118 77.4552 93.5854 77.7381 94.1692C77.9087 94.4926 78.0928 94.771 78.3084 95.0225C78.4746 95.2021 78.6587 95.3637 78.8518 95.503C79.0538 95.6332 79.2784 95.741 79.5164 95.8308C79.7274 95.8981 79.9295 95.9385 80.1361 95.961C80.163 95.961 80.19 95.961 80.2124 95.961C80.3516 95.961 80.4909 95.9475 80.6301 95.9251C80.7917 95.8847 80.9534 95.8263 81.1151 95.7544C81.3127 95.6467 81.5013 95.5164 81.6944 95.3503C81.9818 95.0808 82.2557 94.762 82.5296 94.3668C83.3514 93.1139 83.8813 91.6814 84.3169 90.4375C84.5549 89.7459 84.7794 89.0364 84.995 88.3493C85.1073 87.9901 85.2195 87.6353 85.3363 87.2761C85.471 86.8584 85.6372 86.3645 85.8213 85.8705C86.0054 85.3855 86.1895 84.9948 86.4051 84.64C86.7239 84.1236 87.1056 83.6611 87.5502 83.2704C87.7882 83.0593 88.0172 82.8797 88.2462 82.7225C88.4753 82.5654 88.7402 82.4127 89.0725 82.2465C90.0739 81.748 91.255 81.4651 92.4854 81.4292C92.5707 81.4292 92.6561 81.4292 92.7414 81.4292C93.8596 81.4292 94.9733 81.6403 96.0555 82.0579C96.5719 82.2555 97.0839 82.5339 97.6317 82.9022C98.0853 83.2075 98.5164 83.5937 98.9475 84.0832C99.3157 84.5008 99.6301 84.9948 99.913 85.5965C100.155 86.113 100.326 86.7057 100.452 87.4736C100.551 88.0754 100.587 88.7445 100.56 89.5259C100.537 90.1905 100.465 90.9135 100.344 91.7398C100.187 92.8175 99.9579 93.9043 99.7378 94.9551C99.41 96.5223 99.0732 98.139 98.952 99.7691C98.8891 100.82 98.9385 101.736 99.1002 102.58C99.2304 103.164 99.4145 103.716 99.6615 104.224C99.904 104.691 100.205 105.135 100.56 105.549C100.946 105.971 101.368 106.343 101.822 106.662C102.158 106.882 102.491 107.053 102.827 107.179C103.106 107.268 103.398 107.327 103.681 107.354C103.735 107.354 103.784 107.354 103.838 107.354C104.089 107.354 104.35 107.331 104.61 107.282C105.064 107.179 105.535 107.004 106.061 106.748C106.707 106.415 107.327 106.02 107.929 105.638C108.23 105.45 108.54 105.252 108.849 105.064C109.393 104.736 109.891 104.471 110.376 104.251C110.879 104.026 111.4 103.86 111.979 103.748C112.262 103.694 112.563 103.662 112.873 103.662C113.133 103.662 113.403 103.68 113.672 103.721C114.265 103.806 114.903 104.031 115.567 104.39C116.789 105.05 117.84 106.15 118.599 107.574C119.631 109.509 120.054 111.696 120.368 113.6C120.543 114.665 120.7 115.747 120.853 116.798C121.1 118.495 121.351 120.251 121.693 121.966C121.98 123.363 122.299 124.602 122.672 125.757C123.049 126.92 123.538 128.105 124.167 129.372C125.469 131.94 127.059 134.298 128.891 136.381L128.905 136.399L128.945 136.444L128.927 136.431C129.475 137.037 129.991 137.567 130.508 138.048C131.096 138.595 131.725 139.116 132.336 139.619L132.538 139.785C133.086 140.239 133.651 140.706 134.19 141.186C134.81 141.739 135.371 142.314 135.87 142.897C135.955 142.996 135.969 143.167 135.946 143.279C135.919 143.4 135.847 143.513 135.748 143.584C135.762 143.638 135.766 143.692 135.757 143.751C135.744 143.863 135.69 143.957 135.587 144.052C135.205 144.397 134.819 144.757 134.451 145.102C134.195 145.345 133.934 145.583 133.678 145.821C133.068 146.382 132.336 147.024 131.514 147.541C130.387 148.25 129.03 148.753 127.243 149.135C125.591 149.485 123.902 149.602 122.317 149.696C121.823 149.723 121.324 149.75 120.83 149.773C119.757 149.827 118.648 149.88 117.561 149.984C117.292 150.011 117.027 150.038 116.757 150.069C116.578 150.087 116.398 150.109 116.223 150.127C115.792 150.172 115.334 150.217 114.741 150.271C113.762 150.361 112.711 150.437 111.53 150.514C109.622 150.63 107.601 150.707 105.356 150.743C104.511 150.756 103.622 150.765 102.715 150.765C101.624 150.765 100.497 150.756 99.2618 150.734L98.5568 150.72C97.8024 150.707 97.0255 150.693 96.2576 150.689C95.6962 150.689 95.1304 150.684 94.5691 150.684C94.0437 150.684 93.5228 150.684 92.9974 150.684C92.7818 150.684 92.5663 150.684 92.3552 150.684H92.3597C92.3597 150.684 92.3642 150.684 92.3687 150.684H92.3821C91.6142 150.693 90.8508 150.698 90.0874 150.702C88.5112 150.716 86.8856 150.729 85.2869 150.729C84.9321 150.729 84.5774 150.729 84.2226 150.729C82.7676 150.725 81.3351 150.702 79.961 150.662C79.3637 150.644 78.7081 150.617 77.9581 150.585C77.4103 150.558 76.813 150.545 76.1394 150.545C74.4285 150.558 72.6951 150.653 71.0156 150.747C69.5247 150.828 67.9889 150.913 66.471 150.94C66.1746 150.945 65.8827 150.949 65.5863 150.949C64.1808 150.949 62.9189 150.886 61.7289 150.756C60.9834 150.675 60.2065 150.545 59.4162 150.37C58.7561 150.226 58.042 150.02 57.2337 149.741C55.6799 149.207 54.1621 148.497 52.752 147.81C52.1682 147.527 51.5755 147.231 51.0052 146.944C50.134 146.508 49.2314 146.054 48.3332 145.632C47.5878 145.282 46.8288 144.95 46.0744 144.644C45.302 144.334 44.5027 144.069 43.7258 143.809L43.6809 143.796C41.7319 143.149 40.1423 142.664 38.6738 142.264C37.843 142.044 37.1066 141.874 36.424 141.739C35.7369 141.604 35.0364 141.487 34.3583 141.375L33.9766 141.312C33.2356 141.186 32.4408 141.052 31.6324 140.895C30.8196 140.737 30.0023 140.544 29.2075 140.324C28.4755 140.122 27.7615 139.871 27.0879 139.579C26.3335 139.251 25.6688 138.856 25.112 138.411C24.8964 138.236 24.6764 138.025 24.4249 137.738C24.2273 137.518 24.0747 137.266 23.922 137.006C23.7962 136.795 23.7019 136.557 23.6166 136.251C23.5807 136.121 23.5492 135.991 23.5268 135.861C23.4954 135.676 23.4909 135.488 23.4954 135.34C23.4954 135.088 23.5358 134.841 23.6031 134.594L23.5717 134.617ZM48.8496 87.3614L48.8317 87.3524H48.8182L48.8047 87.3389C48.8227 87.3479 48.8407 87.3569 48.8586 87.3659C48.8586 87.3659 48.8496 87.3614 48.8452 87.3569L48.8496 87.3614ZM69.4663 103.528C69.3181 103.38 69.1699 103.236 69.0217 103.092L69.0082 103.083L68.9813 103.056C69.143 103.213 69.3046 103.371 69.4663 103.532V103.528ZM85.1297 82.1657C84.3888 83.5757 83.3424 84.8017 82.332 85.9827C81.9144 86.4722 81.4833 86.9797 81.0791 87.4916C80.8995 87.7206 80.7199 87.9586 80.5448 88.2056C80.5448 88.2326 80.5447 88.2595 80.5358 88.2909C80.5043 88.4661 80.3831 88.6098 80.2214 88.6861C80.1496 88.7939 80.0822 88.9062 80.0148 89.0184C79.952 89.1217 79.8532 89.1801 79.7499 89.1801C79.705 89.1801 79.6646 89.1711 79.6242 89.1487C79.5523 89.1127 79.4939 89.0409 79.4715 88.9601C79.449 88.8882 79.458 88.8164 79.4939 88.7535C79.5254 88.6996 79.5613 88.6412 79.5972 88.5873C79.3323 88.3718 79.2559 87.9586 79.2245 87.6667C79.1975 87.4422 79.1975 87.2132 79.202 86.9976C79.202 86.6563 79.229 86.3195 79.2559 86.0052C79.3053 85.39 79.3906 84.7164 79.5254 83.8946C79.6466 83.1491 79.7993 82.3767 79.9699 81.5954C80.1541 80.7646 80.3292 80.1 80.5133 79.5072C80.6705 79.0043 80.8591 78.425 81.1151 77.8996C81.2588 77.6032 81.4564 77.3517 81.627 77.1451C81.7932 76.9475 81.9952 76.7499 82.2467 76.5479C82.4218 76.4042 82.6374 76.2739 82.9068 76.1527C83.073 76.0763 83.2751 76.0269 83.5041 76.0045C83.5445 76 83.5849 76 83.6253 76C83.7017 76 83.7735 76.0045 83.8454 76.0135C83.9352 76.0225 84.0205 76.0359 84.1058 76.0584C84.3034 76.1123 84.4696 76.1841 84.6178 76.2829C84.7211 76.3503 84.8064 76.4087 84.8827 76.4805C84.977 76.5613 85.0624 76.6601 85.1432 76.7544C85.3812 77.0329 85.5743 77.3966 85.718 77.8277C85.8527 78.2319 85.9291 78.6854 85.9425 79.1839C85.956 79.6823 85.9021 80.1718 85.7809 80.6299C85.6596 81.0879 85.4575 81.5819 85.1432 82.1747L85.1297 82.1657ZM9.35875 121.616C9.39917 121.463 9.4755 121.302 9.59226 121.104C9.68208 120.961 9.79883 120.817 9.98295 120.642C10.1266 120.502 10.2928 120.395 10.45 120.296C10.5982 120.202 10.7643 120.121 10.9529 120.04C11.2942 119.896 11.6939 119.775 12.1385 119.69C12.4753 119.622 12.839 119.573 13.2836 119.537C13.6204 119.51 13.9617 119.497 14.2985 119.497C14.9721 119.497 15.6636 119.55 16.3507 119.663C17.4868 119.842 18.6634 120.188 19.8444 120.687C22.5613 121.832 24.9189 123.606 27.1059 125.321C27.1912 125.388 27.2361 125.46 27.254 125.55C27.2675 125.64 27.254 125.734 27.2002 125.806C27.1373 125.9 27.016 125.963 26.8993 125.963C26.8274 125.963 26.7646 125.941 26.7152 125.9C26.5715 125.788 26.4233 125.671 26.2796 125.559C26.2481 125.586 26.2167 125.608 26.1853 125.622C26.1314 125.644 26.0775 125.658 26.0236 125.658C25.9787 125.658 25.9338 125.649 25.8799 125.635H25.8664L25.853 125.631C25.7272 125.626 25.597 125.622 25.4712 125.617L25.2782 125.608C25.1569 125.608 25.0357 125.604 24.9099 125.604C24.8021 125.604 24.6989 125.604 24.5911 125.608C23.9354 125.644 23.2708 125.725 22.687 125.792C22.22 125.846 21.7485 125.909 21.2904 125.968C20.9851 126.008 20.6797 126.048 20.3743 126.084C19.0227 126.255 17.4419 126.435 15.8612 126.435C15.6906 126.435 15.5199 126.435 15.3493 126.43C14.5769 126.412 13.8045 126.313 13.0501 126.143C12.3765 125.99 11.7208 125.721 11.1595 125.366C10.8856 125.191 10.6206 124.975 10.3736 124.728C10.1626 124.513 9.96498 124.248 9.77188 123.915C9.61471 123.641 9.48448 123.336 9.36324 122.914C9.29588 122.689 9.27792 122.46 9.26893 122.249C9.25995 122.065 9.2869 121.863 9.35426 121.616H9.35875Z" fill="#7DCBF1"/>
<path d="M47.3498 93.06C47.5025 93.06 47.6686 93.0645 47.8797 93.0825C48.2299 93.1094 48.5757 93.1588 48.9035 93.2127C49.3302 93.2801 49.7882 93.3744 50.3451 93.5136C51.5396 93.8055 52.7925 94.2591 54.1711 94.9012C55.3611 95.4536 56.5826 96.1496 57.9118 97.0298C58.9492 97.7169 60.0314 98.5252 61.2304 99.5041C62.2723 100.357 63.35 101.318 64.5266 102.45C65.4247 103.312 66.3722 104.278 67.4186 105.391C67.8137 105.814 68.2403 106.276 68.7523 106.846C69.1654 107.304 69.6549 107.852 70.1399 108.423C70.8764 109.294 71.6443 110.277 72.5514 111.521C73.3462 112.612 74.1007 113.713 74.9943 115.028C75.2593 115.419 75.5242 115.814 75.7892 116.209C77.0735 118.118 78.4027 120.094 79.8083 121.962L79.7589 121.904C80.7693 123.233 81.7213 124.382 82.6733 125.42C83.7062 126.542 84.8064 127.571 85.9381 128.469C86.8317 129.165 87.6041 129.65 88.381 130C88.7851 130.171 89.1309 130.274 89.4767 130.337C89.6069 130.355 89.7237 130.359 89.8404 130.359C89.9078 130.359 89.9707 130.36 90.038 130.351C90.1548 130.333 90.2626 130.306 90.3658 130.27C90.4422 130.234 90.5185 130.193 90.5904 130.144C90.6533 130.09 90.7161 130.032 90.7745 129.969C90.8419 129.879 90.9002 129.78 90.9541 129.668C91.017 129.506 91.0619 129.34 91.1023 129.138C91.1517 128.752 91.1517 128.339 91.1023 127.827C91.0439 127.373 90.9586 126.924 90.8374 126.462C90.7386 126.075 90.5994 125.667 90.4108 125.182C89.5486 123.089 88.2103 121.217 86.9125 119.411C86.6566 119.056 86.4051 118.702 86.1536 118.347C85.4755 117.381 84.6941 116.227 84.034 114.957C83.7825 114.476 83.5535 113.951 83.329 113.353C83.1269 112.814 82.9473 112.289 82.7991 111.786C82.6868 111.4 82.606 111.054 82.5521 110.726C82.4982 110.412 82.4847 110.16 82.5027 109.931C82.5207 109.729 82.5701 109.563 82.6554 109.424C82.6913 109.361 82.7452 109.303 82.7991 109.253C82.8709 109.195 82.9473 109.155 83.0595 109.114C83.1224 109.092 83.1943 109.078 83.2751 109.078C83.3649 109.078 83.4592 109.092 83.54 109.105C83.7466 109.137 83.9442 109.235 84.1193 109.316C84.3394 109.424 84.5415 109.554 84.7301 109.676C85.004 109.86 85.26 110.057 85.4755 110.228C86.5443 111.072 87.5637 112.047 88.4573 112.909C88.5965 113.043 88.7357 113.178 88.875 113.313C89.1938 113.618 89.5081 113.924 89.8315 114.229C90.1368 114.516 90.4152 114.777 90.7116 115.019C90.7116 114.799 90.7026 114.561 90.6712 114.265C90.5994 113.672 90.4826 113.079 90.3703 112.5C90.1772 111.512 89.9797 110.488 89.9886 109.46C89.9976 108.674 90.1772 108.009 90.532 107.484C90.9002 106.936 91.5469 106.532 92.3507 106.352C92.5348 106.312 92.7279 106.299 92.8896 106.294C92.9076 106.294 92.9255 106.294 92.939 106.294C93.0827 106.294 93.2264 106.316 93.3656 106.339H93.397C93.68 106.388 93.9808 106.51 94.3176 106.716C94.4613 106.806 94.5916 106.914 94.7173 107.017C94.8565 107.134 94.9823 107.269 95.0945 107.399C95.3056 107.637 95.5077 107.915 95.7412 108.301C96.1498 108.97 96.4462 109.707 96.7156 110.403C96.8055 110.641 96.8953 110.875 96.9806 111.113C97.0794 111.386 97.1827 111.669 97.2949 111.948C97.8069 113.21 98.4401 114.57 99.2304 116.097C99.6885 116.982 100.173 117.849 100.667 118.666C101.188 119.533 101.7 120.3 102.23 121.005C102.688 121.603 103.312 122.371 104.08 122.99C104.363 123.206 104.628 123.368 104.884 123.484C105.041 123.547 105.194 123.592 105.351 123.623C105.432 123.632 105.508 123.637 105.585 123.637C105.625 123.637 105.666 123.637 105.706 123.637C105.818 123.619 105.922 123.592 106.029 123.556C106.137 123.507 106.236 123.448 106.335 123.381C106.478 123.264 106.613 123.13 106.743 122.972C106.936 122.712 107.112 122.402 107.278 122.038C107.372 121.809 107.439 121.567 107.484 121.288C107.525 120.983 107.538 120.678 107.547 120.417V120.3C107.561 120.049 107.565 119.793 107.601 119.537C107.637 119.281 107.7 119.079 107.799 118.89C107.839 118.814 107.902 118.733 107.992 118.648C108.077 118.563 108.198 118.495 108.342 118.441C108.49 118.387 108.656 118.36 108.849 118.36C108.944 118.36 109.043 118.365 109.155 118.378C109.658 118.437 110.147 118.603 110.61 118.774C110.825 118.85 111.032 118.94 111.243 119.048C111.45 119.151 111.656 119.29 111.876 119.47C112.047 119.609 112.213 119.757 112.375 119.928C112.545 120.107 112.693 120.3 112.86 120.52C113.151 120.911 113.389 121.351 113.583 121.728C113.812 122.178 114.014 122.649 114.211 123.103L114.234 123.156L114.265 123.228C114.449 123.655 114.638 124.1 114.844 124.526C114.934 124.719 115.038 124.908 115.136 125.092L115.213 125.236C115.365 125.519 115.532 125.828 115.725 126.183C116.915 128.339 118.284 130.445 119.793 132.448L119.762 132.407C121.181 134.266 122.748 136.072 124.432 137.76C126.053 139.39 127.822 140.953 129.843 142.543L129.825 142.529L129.807 142.516C130.319 142.911 130.84 143.311 131.366 143.701C131.402 143.661 131.442 143.62 131.478 143.58C131.55 143.499 131.658 143.459 131.774 143.459C131.891 143.459 132.012 143.504 132.089 143.589C132.255 143.755 132.25 144.025 132.084 144.2C131.253 145.066 130.283 145.92 129.12 146.813C128.034 147.644 126.83 148.434 125.541 149.157C124.333 149.836 123.058 150.433 121.747 150.922C121.185 151.133 120.588 151.317 119.973 151.475C119.358 151.632 118.697 151.744 117.826 151.847C116.942 151.951 116.03 152 115.038 152C112.792 152 110.511 151.74 108.18 151.443C107.875 151.407 107.574 151.367 107.269 151.326C105.975 151.16 104.637 150.994 103.317 150.864C102.558 150.792 101.795 150.738 101.054 150.707C100.344 150.675 99.6256 150.653 98.9295 150.635L98.2739 150.617C96.042 150.55 93.7743 150.491 91.5828 150.437C86.706 150.316 81.6629 150.19 76.7097 149.93C73.8402 149.777 70.0725 149.548 66.3318 149.086C63.2198 148.704 60.0718 148.156 56.9823 147.455C54.0588 146.795 51.0007 145.942 47.8976 144.923C45.0595 143.989 42.1092 142.879 38.8759 141.528C38.5975 141.411 38.3146 141.299 38.0317 141.182C37.6005 141.007 37.156 140.827 36.7249 140.639C35.6516 140.172 34.7939 139.745 34.0215 139.296C33.6128 139.058 33.2132 138.788 32.836 138.506C32.4318 138.2 32.0995 137.895 31.8211 137.58C31.5606 137.284 31.3585 136.97 31.2238 136.651C31.0711 136.287 31.0127 135.914 31.0487 135.551C31.0936 135.115 31.2822 134.675 31.5831 134.307C31.857 133.974 32.2252 133.701 32.6833 133.494C33.1054 133.305 33.5859 133.175 34.1966 133.085C34.6816 133.018 35.198 132.982 35.8267 132.982H35.948C37.0437 132.991 38.1574 133.108 39.2307 133.225L39.5091 133.256C39.9626 133.305 40.4342 133.355 40.9057 133.377C41.0045 133.382 41.1078 133.386 41.2066 133.386C41.4939 133.386 41.8128 133.368 42.199 133.328C42.7199 133.265 43.1286 133.171 43.4878 133.04C43.6629 132.964 43.8111 132.883 43.9459 132.793C44.0222 132.731 44.0851 132.668 44.1434 132.6C44.1794 132.546 44.2108 132.497 44.2422 132.439C44.2647 132.376 44.2827 132.313 44.3006 132.246C44.3096 132.156 44.3096 132.061 44.3006 131.963C44.2782 131.805 44.2333 131.648 44.1704 131.482C44.0267 131.15 43.8246 130.813 43.5417 130.431C43.1016 129.861 42.5807 129.3 41.8442 128.613C41.2335 128.038 40.5419 127.454 39.6707 126.762L39.6573 126.749L39.6438 126.736L39.6303 126.722L39.6124 126.709C38.4852 125.828 37.2682 124.948 35.8851 124.014C34.9241 123.363 34.0529 122.797 33.2132 122.285C33.1009 122.213 32.9841 122.146 32.8674 122.079C32.562 121.899 32.2432 121.742 31.9288 121.585L31.8839 121.562C31.6325 121.437 31.3765 121.311 31.1205 121.19C30.5457 120.911 29.9529 120.619 29.3781 120.314C28.3992 119.797 27.6403 119.317 26.9846 118.801C26.6658 118.549 26.3829 118.28 26.1538 118.001C26.0506 117.88 25.9518 117.741 25.862 117.588C25.7811 117.453 25.7093 117.296 25.6374 117.085C25.588 116.941 25.5746 116.789 25.5611 116.641C25.5476 116.497 25.5745 116.349 25.6015 116.196C25.6284 116.048 25.6958 115.909 25.7676 115.756C25.853 115.576 25.9877 115.415 26.1269 115.253C26.2616 115.096 26.4143 114.965 26.6074 114.813C26.7286 114.719 26.8589 114.629 27.0161 114.534C27.29 114.368 27.6268 114.229 28.0399 114.112C28.4171 114.004 28.8033 113.96 29.1312 113.928C29.3422 113.906 29.5623 113.897 29.8003 113.897C30.0023 113.897 30.2179 113.906 30.4649 113.919C31.2957 113.969 32.1983 114.117 33.312 114.386C34.237 114.611 35.225 114.912 36.415 115.334C37.3625 115.671 38.3415 116.061 39.5046 116.56C41.3907 117.368 43.1824 118.244 44.6868 118.994C44.9248 119.11 45.1628 119.232 45.4008 119.348C46.3798 119.833 47.3902 120.336 48.3647 120.862C50.1295 121.814 51.9303 122.901 53.8747 124.189C54.6741 124.719 55.5183 125.303 56.4568 125.977L56.614 126.089C57.1574 126.475 57.7187 126.875 58.2441 127.306C58.5405 127.548 58.8369 127.8 59.1243 128.047C59.2411 128.146 59.3533 128.244 59.4701 128.339C60.0988 128.869 60.6152 129.291 61.0912 129.672H61.1002C61.7109 130.157 62.2273 130.535 62.7303 130.876C63.3321 131.28 63.8754 131.59 64.3963 131.819C64.7331 131.958 65.0161 132.043 65.2855 132.088C65.3798 132.097 65.4651 132.106 65.5504 132.106C65.5953 132.106 65.6358 132.106 65.6807 132.106C65.8019 132.088 65.9322 132.052 66.0714 131.999C66.2016 131.94 66.3139 131.877 66.4216 131.801C66.5025 131.734 66.5698 131.666 66.6327 131.594C66.6956 131.509 66.745 131.424 66.7899 131.329C66.8348 131.213 66.8707 131.091 66.8931 130.961C66.9201 130.741 66.9201 130.503 66.8931 130.243C66.8258 129.767 66.6866 129.259 66.4486 128.649C66.0669 127.71 65.5504 126.749 64.7825 125.532C64.2032 124.611 63.5341 123.655 62.6764 122.519C62.2453 121.953 61.8007 121.383 61.3113 120.776L61.1765 120.61C60.9475 120.327 60.7095 120.031 60.4625 119.753C60.229 119.483 59.9685 119.232 59.7171 118.985L59.6048 118.872C59.1512 118.432 58.6842 117.988 58.2307 117.557L58.1813 117.512L57.9612 117.301C56.7712 116.173 55.5363 115.006 54.3417 113.838C52.6847 112.222 51.4453 110.955 50.3271 109.725C49.7119 109.047 49.173 108.423 48.6835 107.812C48.3332 107.376 47.8842 106.792 47.498 106.155C47.3633 105.93 47.242 105.706 47.1477 105.486C47.0399 105.239 46.9681 105.032 46.9277 104.83C46.8872 104.628 46.8872 104.444 46.9187 104.269C46.9591 104.044 47.0848 103.869 47.2151 103.712C47.3857 103.501 47.6372 103.389 47.8123 103.321C47.9291 103.276 48.0593 103.258 48.1761 103.245C48.2434 103.236 48.3198 103.236 48.3916 103.236C48.4635 103.236 48.5398 103.236 48.6161 103.245C49.3257 103.308 49.9993 103.618 50.5741 103.905C51.4048 104.314 52.1638 104.817 52.8643 105.302C53.7041 105.881 54.4989 106.487 55.159 107.004C55.2489 107.071 55.3342 107.143 55.424 107.21C54.8851 106.667 54.3372 106.114 53.8074 105.58C53.3763 105.144 52.9452 104.713 52.514 104.278C51.58 103.33 50.3495 102.073 49.164 100.753C48.3692 99.8679 47.3408 98.6913 46.4561 97.416C46.1059 96.9085 45.8274 96.4415 45.6164 95.9969C45.3919 95.5254 45.2706 95.1302 45.2302 94.7485C45.2032 94.4926 45.2167 94.1198 45.4323 93.7875C45.6119 93.5136 45.9128 93.307 46.3304 93.1858C46.5504 93.1184 46.7884 93.096 46.9905 93.078C47.1028 93.069 47.2196 93.0645 47.3498 93.0645V93.06Z" fill="#49BDF1"/>
<path d="M23.1226 133.472C23.1765 133.314 23.2618 133.162 23.3472 133.018C23.4325 132.874 23.5448 132.749 23.657 132.627C23.7873 132.488 23.931 132.367 24.0881 132.259C24.3845 132.052 24.7123 131.895 25.0491 131.77C25.4578 131.617 25.8844 131.518 26.311 131.437C27.2271 131.262 28.1701 131.213 29.0997 131.172C30.0113 131.132 30.9229 131.118 31.8345 131.056C32.3599 131.015 32.8898 130.957 33.4018 130.818C34.1517 130.58 34.8927 130.283 35.5707 129.874C35.6785 129.803 35.7863 129.731 35.8896 129.654C36.0063 129.569 36.1096 129.47 36.2084 129.367C36.2848 129.273 36.3566 129.183 36.4195 129.08C36.4599 128.999 36.4913 128.918 36.5183 128.833C36.5318 128.752 36.5407 128.675 36.5407 128.595C36.5318 128.5 36.5138 128.411 36.4913 128.321C36.4419 128.182 36.3791 128.056 36.3072 127.926C36.1006 127.611 35.8492 127.337 35.5797 127.077C34.6816 126.268 33.6488 125.617 32.6159 124.998C32.0142 124.634 31.4034 124.293 30.7882 123.947C30.1281 123.574 29.459 123.21 28.7943 122.847C27.6896 122.254 26.5266 121.773 25.368 121.297C24.0387 120.754 22.705 120.224 21.3937 119.636C20.1139 119.061 18.8565 118.423 17.671 117.664C16.5932 116.973 15.5918 116.142 14.7924 115.136C14.4018 114.642 14.1009 114.094 13.8225 113.533C13.5081 112.886 13.2656 112.204 13.1174 111.499C13.0097 110.987 12.9917 110.452 13.0546 109.936C13.0815 109.711 13.1399 109.487 13.2072 109.267C13.2836 109.02 13.4048 108.786 13.5306 108.562C13.7506 108.162 14.0784 107.821 14.4197 107.524C14.6083 107.358 14.8149 107.215 15.0215 107.08C15.2685 106.918 15.5334 106.775 15.7984 106.644C16.3238 106.379 16.8851 106.186 17.4464 106.011C18.1021 105.805 18.7757 105.647 19.4493 105.504C19.9657 105.396 20.4911 105.306 21.012 105.225C21.6227 105.126 22.229 105.055 22.8442 105.001C24.0208 104.902 25.2018 104.911 26.3784 105.001C28.6641 105.176 30.905 105.755 33.0515 106.532C35.2429 107.327 37.3356 108.369 39.3878 109.464C41.44 110.56 43.4519 111.732 45.4951 112.841C47.1073 113.713 48.7464 114.543 50.4304 115.271C50.3989 114.925 50.3316 114.584 50.2373 114.251C50.0397 113.632 49.7478 113.048 49.411 112.491C48.5263 111.095 47.3677 109.887 46.1687 108.759C44.6688 107.363 43.0747 106.074 41.467 104.808C39.7516 103.451 38.0137 102.127 36.3117 100.748C34.7355 99.4682 33.1862 98.139 31.7717 96.6795C30.5951 95.467 29.4949 94.1288 28.7584 92.593C28.4486 91.9464 28.224 91.2503 28.1162 90.5453C28.013 89.8672 28.0444 89.1666 28.1971 88.4975C28.2779 88.1607 28.3857 87.8329 28.5249 87.5141C28.6821 87.1458 28.8886 86.7956 29.1087 86.4588C29.3332 86.1175 29.5982 85.7986 29.8766 85.4933C30.1999 85.1385 30.5457 84.8107 30.9094 84.5008C31.5696 83.9395 32.3105 83.468 33.0919 83.0863C33.8508 82.718 34.6636 82.4576 35.4854 82.278C36.3297 82.0983 37.1964 82.0355 38.0541 82.0355C38.9612 82.0355 39.8728 82.1387 40.7664 82.3004C41.723 82.4755 42.6615 82.727 43.5866 83.0279C44.579 83.3512 45.549 83.7374 46.4965 84.1685C47.498 84.6176 48.4769 85.125 49.4379 85.6549C50.4573 86.2163 51.4497 86.818 52.4287 87.4467C54.4764 88.7625 56.4389 90.213 58.3474 91.7263C60.2829 93.2666 62.151 94.8877 63.9742 96.5583C66.9021 99.2482 69.7043 102.077 72.3762 105.019C72.7669 105.45 73.1576 105.885 73.5438 106.321C72.3762 104.511 71.2176 102.693 70.1893 100.797C69.4124 99.3604 68.7298 97.8695 68.1999 96.3247C67.9574 95.6152 67.7509 94.8922 67.5802 94.1647C67.3871 93.3385 67.2614 92.4987 67.1895 91.6545C67.1222 90.8866 67.1177 90.1142 67.1536 89.3463C67.185 88.5918 67.2883 87.8464 67.4096 87.1009C67.6027 85.9334 67.8766 84.7703 68.3212 83.6746C68.5188 83.1806 68.7747 82.7091 69.0666 82.2645C69.363 81.8199 69.7402 81.4247 70.1758 81.1194C70.3689 80.9802 70.58 80.8679 70.791 80.7691C71.0111 80.6703 71.2491 80.6074 71.4871 80.5535C71.7386 80.4952 71.999 80.4907 72.255 80.4862C72.2729 80.4862 72.2909 80.4862 72.3089 80.4862C72.6457 80.4862 72.978 80.549 73.3058 80.6254C73.8222 80.7466 74.3386 80.9308 74.8012 81.1957C75.0123 81.317 75.2098 81.4517 75.3984 81.6044C75.5736 81.7436 75.7308 81.9052 75.879 82.0714C76.0271 82.2375 76.1484 82.4217 76.2652 82.6103C76.3819 82.8034 76.4852 83.001 76.575 83.212C76.6648 83.4186 76.7367 83.6386 76.795 83.8587C76.8579 84.0877 76.9118 84.3212 76.9567 84.5592C77.042 85.0173 77.078 85.4798 77.1004 85.9468C77.1274 86.4722 77.1273 87.0021 77.1184 87.5275C77.1004 88.6008 77.042 89.6696 77.0645 90.7429C77.0914 91.5512 77.1678 92.3595 77.3878 93.1409C77.4417 93.3115 77.5046 93.4777 77.5719 93.6393C77.6483 93.8279 77.7471 94.0076 77.8503 94.1827C78.0075 94.4207 78.1827 94.6363 78.3847 94.8338C78.488 94.9282 78.5958 95.0135 78.7081 95.0988C78.8338 95.1931 78.964 95.2739 79.0988 95.3503C79.3368 95.4715 79.5748 95.5793 79.8352 95.6511C79.9699 95.6781 80.1092 95.6961 80.2484 95.6961C80.3606 95.6871 80.4684 95.6691 80.5717 95.6422C80.6795 95.6018 80.7783 95.5568 80.8771 95.503C81.0163 95.4087 81.142 95.3009 81.2588 95.1841C81.4878 94.9282 81.6764 94.6408 81.8426 94.3444C82.1569 93.7606 82.3994 93.1409 82.6284 92.5167C82.9068 91.7622 83.1538 90.9988 83.4098 90.2399C83.6837 89.4226 83.9711 88.6098 84.29 87.8105C84.6088 87.0111 84.977 86.2297 85.4037 85.4798C85.8123 84.7568 86.2928 84.0742 86.8676 83.4725C87.137 83.1896 87.42 82.9291 87.7253 82.6911C88.0576 82.4306 88.4169 82.2106 88.7896 82.0175C89.1444 81.8334 89.5216 81.6897 89.9078 81.5819C90.3613 81.4517 90.8194 81.3708 91.2864 81.3304C92.3777 81.2406 93.4779 81.3978 94.5377 81.6582C95.0765 81.7885 95.6064 81.9501 96.1274 82.1522C96.5989 82.3363 97.0479 82.5654 97.479 82.8258C98.1931 83.2614 98.8128 83.8497 99.2843 84.5368C99.7244 85.1789 100.003 85.9109 100.178 86.6653C100.376 87.5141 100.407 88.3987 100.385 89.2654C100.358 90.195 100.241 91.1201 100.097 92.0362C99.9399 93.0511 99.7468 94.057 99.5582 95.0674C99.199 96.9894 98.8487 98.9338 98.8891 100.892C98.9026 101.291 98.934 101.691 98.9879 102.086C99.0418 102.481 99.1271 102.872 99.2394 103.258C99.3202 103.519 99.4145 103.775 99.5268 104.026C99.6391 104.278 99.7693 104.52 99.913 104.758C100.048 104.969 100.196 105.171 100.358 105.369C100.533 105.584 100.726 105.782 100.928 105.971C101.31 106.321 101.709 106.635 102.158 106.891C102.45 107.044 102.756 107.17 103.074 107.251C103.339 107.309 103.604 107.336 103.878 107.331C104.175 107.313 104.462 107.264 104.749 107.183C105.284 107.013 105.782 106.757 106.258 106.46C107.619 105.593 108.831 104.484 110.304 103.797C110.641 103.64 110.996 103.519 111.36 103.42C111.755 103.317 112.159 103.281 112.568 103.276C112.967 103.276 113.358 103.353 113.744 103.451C114.225 103.577 114.669 103.797 115.1 104.04C115.599 104.323 116.057 104.682 116.488 105.059C116.708 105.252 116.919 105.454 117.126 105.661C117.337 105.872 117.525 106.105 117.709 106.343C118.024 106.757 118.289 107.21 118.527 107.668C118.814 108.221 119.048 108.804 119.254 109.393C119.69 110.628 119.977 111.912 120.224 113.192C120.498 114.62 120.7 116.061 120.907 117.498C121.298 120.233 121.67 122.986 122.465 125.64C122.685 126.34 122.932 127.032 123.233 127.706C123.377 128.029 123.534 128.343 123.705 128.653C123.911 129.035 124.145 129.398 124.374 129.762C124.36 129.744 124.351 129.722 124.338 129.704C125.546 131.626 126.866 133.476 128.298 135.236C129.713 136.974 131.249 138.618 132.883 140.154C134.226 141.407 135.632 142.583 137.105 143.679C138.636 144.819 140.248 145.852 141.91 146.791C142.008 146.845 142.017 146.997 141.959 147.083C141.928 147.128 141.878 147.159 141.824 147.168C141.766 147.177 141.721 147.159 141.667 147.132C140.127 146.265 138.636 145.309 137.199 144.276C135.766 143.248 134.401 142.13 133.09 140.948C130.499 138.618 128.168 136.004 126.094 133.207C125.586 132.524 125.101 131.823 124.625 131.118C124.387 130.764 124.158 130.409 123.929 130.05C123.709 129.708 123.493 129.363 123.287 129.012C122.64 127.908 122.2 126.695 121.832 125.478C121.419 124.108 121.136 122.703 120.889 121.297C120.628 119.833 120.422 118.365 120.202 116.896C119.869 114.692 119.524 112.473 118.886 110.331C118.554 109.267 118.145 108.225 117.561 107.273C117.4 107.026 117.233 106.788 117.049 106.554C116.829 106.272 116.573 106.02 116.313 105.773C116.021 105.504 115.72 105.248 115.401 105.01C115.132 104.808 114.844 104.628 114.553 104.466C114.193 104.282 113.821 104.13 113.43 104.026C113.25 103.986 113.071 103.954 112.891 103.932C112.716 103.909 112.545 103.905 112.37 103.909C111.988 103.927 111.62 103.995 111.252 104.103C110.637 104.305 110.071 104.601 109.523 104.938C108.836 105.373 108.185 105.867 107.52 106.339C106.891 106.784 106.24 107.215 105.526 107.524C105.212 107.664 104.88 107.767 104.543 107.839C104.179 107.915 103.802 107.929 103.434 107.893C103.07 107.861 102.711 107.758 102.369 107.623C102.185 107.551 102.01 107.457 101.835 107.363C101.597 107.233 101.377 107.075 101.161 106.914C100.95 106.757 100.753 106.577 100.56 106.397C100.389 106.236 100.223 106.069 100.066 105.894C99.7513 105.544 99.4864 105.149 99.2574 104.74C98.8128 103.95 98.5658 103.056 98.4356 102.167C98.3727 101.727 98.3413 101.278 98.3323 100.829C98.3233 100.308 98.3413 99.7915 98.3772 99.2706C98.4535 98.2198 98.6152 97.178 98.7948 96.1406C99.0238 94.8294 99.2888 93.5271 99.4998 92.2113C99.6974 90.9854 99.8411 89.7504 99.8187 88.5065C99.7962 87.779 99.7064 87.0605 99.5088 86.36C99.4415 86.1489 99.3651 85.9378 99.2798 85.7313C99.1765 85.4888 99.0553 85.2553 98.9205 85.0307C98.8173 84.8691 98.705 84.7119 98.5837 84.5592C98.44 84.3751 98.2739 84.2044 98.1032 84.0383C97.9191 83.8677 97.726 83.7105 97.5195 83.5623C97.3039 83.4051 97.0794 83.2704 96.8504 83.1447C96.545 82.983 96.2306 82.8438 95.9073 82.718C95.5032 82.5609 95.0855 82.4396 94.6679 82.3318C94.1694 82.2106 93.6665 82.1163 93.1545 82.0489C92.71 81.9906 92.2609 81.9681 91.8118 81.9771C91.5244 81.9906 91.2415 82.013 90.9586 82.0534C90.6622 82.0938 90.3703 82.1657 90.0829 82.2465C89.5979 82.4037 89.1399 82.6103 88.7043 82.8752C88.2418 83.1761 87.8241 83.5309 87.4424 83.926C86.8586 84.5592 86.3781 85.2777 85.965 86.0322C85.1567 87.5455 84.6043 89.1711 84.0609 90.7967C83.8095 91.5467 83.567 92.2966 83.2885 93.0376C83.0505 93.6708 82.7856 94.2905 82.4533 94.8743C82.1928 95.3323 81.8605 95.7679 81.4339 96.0778C81.3351 96.1496 81.2273 96.2125 81.1151 96.2709C81.0028 96.3292 80.886 96.3652 80.7693 96.4011C80.5268 96.4729 80.2708 96.4864 80.0193 96.4729C79.8846 96.464 79.7544 96.4325 79.6242 96.4011C79.4939 96.3697 79.3682 96.3292 79.2469 96.2798C79.0494 96.2035 78.8563 96.1047 78.6721 96.0014C78.4207 95.8577 78.1916 95.6961 77.9716 95.5075C77.801 95.3593 77.6438 95.1931 77.4956 95.018C77.3519 94.8473 77.2306 94.6542 77.1139 94.4656C76.8534 94.039 76.6918 93.554 76.5615 93.0735C76.4223 92.5481 76.3595 92.0092 76.319 91.4703C76.2786 90.9 76.2741 90.3297 76.2831 89.7594C76.2966 88.6008 76.3684 87.4467 76.3415 86.2881C76.3145 85.4933 76.2382 84.6984 76.0182 83.935C75.9598 83.7599 75.8969 83.5892 75.8206 83.4186C75.7532 83.2569 75.6679 83.1042 75.5781 82.956C75.4254 82.727 75.2592 82.5205 75.0661 82.3274C74.9673 82.242 74.8686 82.1567 74.7653 82.0804C74.644 81.9861 74.5093 81.9097 74.3791 81.8334C73.9929 81.6358 73.5887 81.4876 73.1711 81.3753C72.987 81.3349 72.8028 81.299 72.6187 81.2765C72.4571 81.2541 72.2909 81.2541 72.1248 81.2541C71.999 81.2631 71.8778 81.2765 71.7565 81.29C71.6442 81.308 71.532 81.3349 71.4197 81.3664C71.3254 81.3978 71.2311 81.4337 71.1368 81.4696C71.0066 81.5235 70.8808 81.5909 70.7596 81.6672C70.6698 81.7301 70.58 81.793 70.4946 81.8603C70.3689 81.9546 70.2611 82.0624 70.1489 82.1747C70.0231 82.3139 69.9064 82.4576 69.7941 82.6103C69.6504 82.8034 69.5247 83.0144 69.4079 83.2255C69.0037 84.0069 68.7298 84.8376 68.5143 85.6909C68.3571 86.3645 68.2358 87.0425 68.137 87.7251C68.0742 88.1562 68.0293 88.5873 67.9978 89.0229C67.9574 89.5349 67.9529 90.0468 67.9619 90.5587C67.9754 90.9494 68.0023 91.3356 68.0382 91.7218C68.0742 92.1125 68.1326 92.4987 68.1954 92.8849C68.3257 93.6887 68.5277 94.4791 68.7568 95.2605C68.9858 95.9969 69.2507 96.7154 69.5471 97.425C69.848 98.1525 70.1848 98.8575 70.5396 99.558C71.2446 100.955 72.0529 102.297 72.8792 103.622C74.5362 106.254 76.3101 108.809 77.8234 111.53C77.8548 111.606 77.8683 111.683 77.8593 111.764C77.8459 111.876 77.7875 111.984 77.7022 112.06C77.5225 112.208 77.2217 112.195 77.078 112.002C76.4268 111.113 75.7397 110.25 75.0392 109.402C74.0962 108.252 73.1172 107.125 72.1248 106.02C69.61 103.213 66.9695 100.519 64.2212 97.9369C64.2212 97.9369 64.2122 97.9279 64.2077 97.9234C64.2077 97.9234 64.2122 97.9279 64.2167 97.9324C64.2077 97.9234 64.1942 97.9144 64.1853 97.901C64.1763 97.892 64.1673 97.883 64.1583 97.8785C64.1673 97.8875 64.1763 97.8965 64.1853 97.901C61.7872 95.6601 59.2994 93.5091 56.7038 91.5018C54.1621 89.5394 51.4991 87.7161 48.679 86.1714L48.7104 86.1893C48.7104 86.1893 48.6835 86.1759 48.67 86.1669C48.67 86.1669 48.67 86.1669 48.661 86.1669C48.6431 86.1579 48.6296 86.1489 48.6116 86.1399C48.6251 86.1444 48.6341 86.1534 48.6476 86.1579C46.4292 84.9634 44.0985 83.935 41.6466 83.3288C40.3264 83.0144 38.9747 82.8303 37.6185 82.8528C37.156 82.8662 36.6979 82.9066 36.2443 82.974C35.7504 83.0459 35.2609 83.1536 34.7804 83.2973C34.3897 83.4186 34.008 83.5623 33.6353 83.7284C33.2446 83.9036 32.8719 84.1057 32.5126 84.3302C31.7806 84.7972 31.1115 85.3541 30.5098 85.9828C30.1011 86.4273 29.7374 86.9078 29.441 87.4377C29.2389 87.8194 29.0773 88.2191 28.965 88.6412C28.8707 89.0544 28.8258 89.472 28.8303 89.8986C28.8527 90.3701 28.9336 90.8372 29.0638 91.2907C29.2973 92.0317 29.6431 92.7277 30.0517 93.3879C31.0217 94.9012 32.2746 96.2125 33.5769 97.4429C35.1082 98.871 36.7338 100.191 38.3729 101.489C40.0839 102.841 41.8128 104.165 43.5013 105.54C45.0326 106.784 46.537 108.072 47.9021 109.5C48.4904 110.116 49.0472 110.762 49.5457 111.454C49.9813 112.056 50.363 112.698 50.6549 113.38C50.8255 113.775 50.9513 114.189 51.0411 114.611C51.1264 115.01 51.1489 115.424 51.1354 115.832C51.1264 116.048 50.866 116.191 50.6773 116.111C46.8378 114.503 43.2767 112.338 39.6303 110.358C38.1035 109.532 36.5587 108.741 34.9735 108.041C33.3434 107.322 31.6594 106.721 29.935 106.281C29.0009 106.056 28.0624 105.881 27.1103 105.764C26.1269 105.643 25.1344 105.602 24.142 105.62C23.6121 105.638 23.0867 105.67 22.5613 105.719C21.9685 105.778 21.3803 105.867 20.792 105.966C19.7951 106.132 18.8026 106.339 17.8326 106.622C17.0108 106.873 16.2115 107.188 15.475 107.637C15.3044 107.749 15.1427 107.866 14.9856 107.991C14.8419 108.104 14.7116 108.234 14.5814 108.364C14.4871 108.472 14.3973 108.58 14.3164 108.692C14.2401 108.795 14.1727 108.908 14.1099 109.02C14.0605 109.114 14.0156 109.213 13.9752 109.312C13.9213 109.437 13.8808 109.572 13.8449 109.702C13.8135 109.846 13.791 109.99 13.7731 110.138C13.7551 110.291 13.7551 110.443 13.7551 110.596C13.7686 110.812 13.791 111.027 13.827 111.243C13.8629 111.481 13.9258 111.71 13.9931 111.939C14.2356 112.693 14.5679 113.421 14.9811 114.094C15.1652 114.373 15.3628 114.642 15.5783 114.898C15.7939 115.154 16.0274 115.392 16.2699 115.626C16.7279 116.048 17.2174 116.429 17.7338 116.784C18.2637 117.152 18.8206 117.476 19.3864 117.79C21.8832 119.133 24.5641 120.071 27.1642 121.19C27.7031 121.423 28.242 121.666 28.7674 121.931C29.0279 122.061 29.2793 122.2 29.5308 122.339C29.9889 122.591 30.4469 122.842 30.9005 123.094C31.6459 123.502 32.3824 123.92 33.1144 124.355C33.8104 124.769 34.4885 125.2 35.1441 125.676C35.6201 126.022 36.0692 126.399 36.4779 126.821C36.6485 126.996 36.8012 127.189 36.9359 127.391C37.0751 127.593 37.1829 127.804 37.2637 128.038C37.3266 128.226 37.3625 128.415 37.3625 128.613C37.3625 128.702 37.3625 128.792 37.3491 128.882C37.3356 128.976 37.3086 129.071 37.2817 129.16C37.2548 129.255 37.2098 129.34 37.1649 129.425C37.1155 129.52 37.0617 129.605 37.0033 129.69C36.9404 129.78 36.8686 129.861 36.7922 129.937C36.6755 130.059 36.5542 130.171 36.4195 130.279C36.195 130.458 35.939 130.606 35.692 130.75C35.3597 130.939 35.0004 131.091 34.6457 131.235C34.3044 131.374 33.9541 131.5 33.5993 131.603C33.4242 131.653 33.2491 131.693 33.0739 131.729C32.7147 131.797 32.3465 131.832 31.9827 131.859C31.5247 131.895 31.0666 131.913 30.6131 131.931C29.7374 131.963 28.8662 131.985 27.9905 132.052C27.1957 132.115 26.3963 132.219 25.6329 132.439C25.2961 132.546 24.9728 132.681 24.6674 132.861C24.5147 132.964 24.371 133.081 24.2363 133.211C24.1465 133.314 24.0657 133.422 23.9983 133.539C23.9309 133.674 23.8816 133.808 23.8411 133.952C23.8007 134.15 23.7828 134.347 23.7828 134.549C23.8052 134.9 23.8726 135.241 23.9714 135.578C24.0567 135.838 24.151 136.09 24.2588 136.337C24.3621 136.579 24.4788 136.822 24.609 137.055C24.7258 137.226 24.8605 137.383 25.0087 137.531C25.1434 137.652 25.2826 137.765 25.4263 137.872C25.6239 138.021 25.8395 138.146 26.055 138.263C26.6748 138.586 27.3214 138.838 27.9815 139.062C28.736 139.314 29.5039 139.516 30.2763 139.705C31.2058 139.929 32.1444 140.127 33.0739 140.347C33.4691 140.441 33.8598 140.544 34.246 140.661C34.9376 140.868 35.6246 141.07 36.3207 141.267C39.1229 142.067 41.9385 142.812 44.7362 143.638C47.5249 144.46 50.3001 145.354 52.9766 146.494C54.2789 147.047 55.5452 147.68 56.7802 148.372C58.0465 149.077 59.2545 149.88 60.4086 150.756C60.6197 150.918 60.6781 151.219 60.5209 151.439C60.3637 151.654 60.0538 151.708 59.8383 151.551C58.5091 150.581 57.1125 149.71 55.671 148.919C53.9061 147.972 52.0829 147.146 50.2193 146.405C48.2569 145.623 46.2495 144.963 44.2243 144.352C42.199 143.742 40.1557 143.189 38.117 142.623C37.1425 142.354 36.1635 142.076 35.1935 141.797C34.4526 141.582 33.7206 141.348 32.9751 141.16C31.7851 140.877 30.5861 140.625 29.4006 140.324C28.1432 140.001 26.8813 139.619 25.7272 139.009C25.2737 138.771 24.8471 138.488 24.4698 138.137C24.3037 137.98 24.1555 137.814 24.0208 137.63C23.8367 137.383 23.7109 137.095 23.5807 136.817C23.3561 136.332 23.1765 135.82 23.0598 135.295C22.9655 134.868 22.9385 134.41 23.0014 133.979C23.0283 133.804 23.0777 133.633 23.1361 133.467L23.1226 133.472ZM64.1987 97.9369C64.1987 97.9369 64.1853 97.9234 64.1763 97.9144C64.1853 97.9234 64.1898 97.9279 64.1987 97.9369ZM48.6655 86.1893C48.6655 86.1893 48.6565 86.1893 48.6565 86.1848C48.6565 86.1848 48.661 86.1848 48.6655 86.1848V86.1893ZM48.6565 86.1848C48.6565 86.1848 48.6431 86.1759 48.6386 86.1759C48.6431 86.1759 48.6476 86.1803 48.6521 86.1848H48.6565ZM9.00398 122.335C9.0444 121.67 9.4306 121.091 9.90662 120.646C10.2299 120.345 10.6027 120.094 10.9889 119.874C11.2763 119.708 11.5816 119.573 11.8915 119.456C12.4708 119.241 13.086 119.133 13.7012 119.083C13.9123 119.065 14.1233 119.061 14.3389 119.061C14.779 119.061 15.2191 119.092 15.6547 119.151C16.3597 119.241 17.0512 119.393 17.7383 119.586C19.1708 119.995 20.5585 120.592 21.8697 121.293C23.1451 121.971 24.3621 122.761 25.5027 123.655C26.3739 124.338 27.2091 125.087 27.8962 125.954C27.9411 126.013 27.9725 126.066 27.9725 126.143C27.9725 126.21 27.9456 126.277 27.8962 126.322C27.8872 126.331 27.8738 126.34 27.8603 126.349C27.8558 126.381 27.8423 126.408 27.8288 126.439C27.748 126.583 27.5639 126.628 27.4202 126.551C27.1867 126.426 26.9487 126.309 26.7062 126.206C26.0685 125.95 25.3994 125.788 24.7213 125.689C22.9206 125.456 21.0973 125.68 19.3011 125.887C18.3805 125.995 17.4599 126.098 16.5348 126.143C15.6277 126.188 14.7161 126.165 13.818 126.035C12.9513 125.909 12.1115 125.653 11.3212 125.272C10.9844 125.11 10.661 124.917 10.3647 124.692C10.0907 124.49 9.83476 124.266 9.6192 124.001C9.23302 123.534 8.96358 122.954 9.00398 122.339V122.335ZM9.58328 122.622C9.60574 122.761 9.64166 122.896 9.69106 123.031C9.7674 123.206 9.8662 123.372 9.98296 123.525C10.1716 123.763 10.3916 123.969 10.6296 124.153C11.0338 124.454 11.4828 124.692 11.9499 124.89C12.61 125.159 13.3015 125.334 14.0111 125.433C15.8118 125.662 17.6306 125.433 19.4178 125.218C20.3339 125.11 21.2545 125.007 22.1751 124.957C23.0777 124.912 23.9848 124.939 24.8785 125.074C25.35 125.146 25.817 125.263 26.2706 125.402C26.4951 125.469 26.7152 125.55 26.9307 125.635C26.7511 125.447 26.567 125.263 26.3739 125.083C25.9068 124.643 25.4129 124.234 24.9054 123.844C23.2798 122.613 21.488 121.576 19.602 120.794C19.6109 120.794 19.6199 120.799 19.6244 120.803C19.6109 120.799 19.5975 120.794 19.5885 120.79C19.5795 120.79 19.5705 120.781 19.5615 120.781C19.566 120.781 19.5705 120.781 19.575 120.785C18.3266 120.278 17.0288 119.878 15.6906 119.69C14.9361 119.591 14.1727 119.564 13.4138 119.649C12.8884 119.717 12.372 119.842 11.878 120.035C11.4245 120.229 10.9933 120.476 10.5982 120.772C10.3557 120.961 10.1311 121.172 9.93803 121.414C9.83476 121.558 9.74495 121.706 9.6731 121.868C9.6237 121.989 9.58778 122.119 9.56981 122.249C9.55635 122.371 9.55635 122.492 9.56981 122.618L9.58328 122.622ZM19.5975 120.799C19.5975 120.799 19.6064 120.799 19.6109 120.803C19.602 120.803 19.5975 120.799 19.5885 120.794C19.5885 120.794 19.593 120.794 19.5975 120.794V120.799ZM86.5173 80.1359C86.1087 81.3439 85.4171 82.4396 84.6986 83.4859C83.9038 84.6445 83.0371 85.7537 82.1838 86.8719C82.0895 86.9976 81.9952 87.1189 81.9009 87.2446C81.5327 87.7251 81.169 88.2146 80.8277 88.7176C80.5627 89.1083 80.3067 89.5079 80.1181 89.9435C80.1047 89.9794 80.0867 90.0199 80.0732 90.0603C80.0463 90.1456 80.0014 90.213 79.9205 90.2579C79.8442 90.3028 79.7544 90.3118 79.6736 90.2893C79.6017 90.2713 79.5388 90.2219 79.4939 90.1636C79.4894 90.1636 79.485 90.1591 79.4805 90.1546C79.3996 90.1097 79.3143 90.0154 79.3008 89.9211C79.2784 89.7684 79.229 89.6247 79.202 89.472C79.1706 89.3193 79.1526 89.1666 79.1347 89.014C79.0898 88.6682 79.0583 88.3224 79.0359 87.9721C79.0045 87.532 78.9865 87.0919 78.982 86.6519C78.9775 86.1893 78.991 85.7268 79.0134 85.2642C79.0808 84.0024 79.2335 82.7405 79.4894 81.5056C79.6197 80.8724 79.7858 80.2437 80.0014 79.6285C80.2035 79.0402 80.4504 78.4609 80.7738 77.9265C81.0522 77.4595 81.398 77.0149 81.8291 76.6781C82.0401 76.5119 82.2647 76.3682 82.5117 76.2605C82.6419 76.2021 82.7766 76.1527 82.9158 76.1168C83.064 76.0763 83.2122 76.0539 83.3649 76.0359C83.4547 76.027 83.5445 76.0225 83.6343 76.0225C83.8274 76.0225 84.016 76.0449 84.2091 76.0719C84.528 76.1213 84.8288 76.2335 85.1252 76.3548C85.3632 76.4536 85.5878 76.5793 85.7943 76.7365C85.9021 76.8173 86.0054 76.9026 86.1042 76.9969C86.203 77.0957 86.2883 77.2035 86.3691 77.3158C86.6476 77.6975 86.7643 78.1735 86.7778 78.6405C86.7868 78.892 86.7553 79.148 86.7104 79.3949C86.6655 79.6464 86.5982 79.8934 86.5128 80.1314L86.5173 80.1359ZM85.9874 78.4923C85.965 78.3486 85.9291 78.2049 85.8797 78.0657C85.8258 77.949 85.7629 77.8367 85.6911 77.7334C85.5968 77.6211 85.4935 77.5179 85.3767 77.4235C85.2061 77.3023 85.0175 77.199 84.8244 77.1137C84.5684 77.0104 84.2989 76.9341 84.025 76.8892C83.8319 76.8667 83.6388 76.8622 83.4457 76.8802C83.2751 76.9071 83.1089 76.9475 82.9473 77.0104C82.7676 77.0912 82.597 77.19 82.4398 77.3068C82.2243 77.4819 82.0312 77.684 81.8605 77.904C81.5507 78.3262 81.3082 78.7932 81.1061 79.2737C80.6031 80.5176 80.3337 81.8558 80.1496 83.1806C80.0328 84.0563 79.9565 84.9364 79.9161 85.8166C79.9026 86.1534 79.8936 86.4857 79.8936 86.8225C79.8936 87.2806 79.9205 87.7431 79.952 88.2011C79.9655 88.4032 79.9834 88.6053 79.9969 88.8074C80.0059 88.7939 80.0149 88.7759 80.0238 88.7625C80.3157 88.2999 80.6346 87.8509 80.9579 87.4108C81.7527 86.3196 82.5835 85.2598 83.3739 84.1595C83.8274 83.5309 84.263 82.8887 84.6627 82.2286C85.013 81.6493 85.3453 81.052 85.6102 80.4278C85.7764 80.0147 85.9156 79.588 85.9829 79.1435C86.0099 78.9234 86.0144 78.7034 85.9964 78.4833L85.9874 78.4923ZM21.5644 129.946C21.9506 129.56 22.4131 129.255 22.9071 129.026C23.9534 128.541 25.112 128.366 26.2571 128.321C26.4322 128.316 26.6074 128.312 26.778 128.312C28.4081 128.312 30.0293 128.577 31.6324 128.855C31.7582 128.878 31.83 129.03 31.7986 129.147C31.7806 129.21 31.7402 129.259 31.6863 129.291C31.628 129.322 31.5696 129.327 31.5067 129.313C31.0397 129.232 30.5771 129.156 30.1056 129.093C28.5563 128.882 26.9756 128.752 25.4219 128.936C24.7932 129.017 24.169 129.16 23.5762 129.394C23.172 129.565 22.7903 129.776 22.44 130.041C22.1661 130.261 21.9146 130.508 21.6991 130.786C21.4925 131.065 21.3174 131.37 21.1782 131.684C21.1422 131.761 21.0524 131.819 20.9716 131.841C20.8863 131.864 20.7965 131.85 20.7201 131.81C20.6438 131.765 20.5854 131.689 20.563 131.603C20.5405 131.514 20.563 131.437 20.5944 131.356C20.8234 130.831 21.1467 130.351 21.5554 129.946H21.5644ZM64.2841 95.3997C63.9068 94.991 63.5206 94.5869 63.1255 94.1962C62.7213 93.792 62.3082 93.4058 61.886 93.0196C61.0328 92.2338 60.1482 91.4838 59.2231 90.7833C58.3609 90.1321 57.4627 89.5214 56.5332 88.969C55.6126 88.4257 54.6606 87.9452 53.6726 87.5365C53.6726 87.5365 53.6726 87.5365 53.6771 87.5365C53.6142 87.5096 53.5514 87.4826 53.484 87.4602C53.3987 87.4243 53.3313 87.3883 53.2819 87.303C53.237 87.2267 53.228 87.1369 53.2505 87.0515C53.2729 86.9662 53.3313 86.8944 53.4077 86.8495C53.4571 86.8225 53.5199 86.8045 53.5783 86.8045C53.6053 86.8045 53.6322 86.8045 53.6591 86.818C55.5048 87.5051 57.2158 88.502 58.8099 89.6516C60.4311 90.8192 61.9354 92.1439 63.332 93.5675C63.7901 94.0345 64.2392 94.5105 64.6837 94.991C64.7915 95.1078 64.8005 95.2874 64.6837 95.3997C64.576 95.5075 64.3784 95.5164 64.2751 95.3997H64.2841ZM50.1968 84.5862C48.9709 83.8452 47.6911 83.1896 46.3708 82.6372C46.1642 82.5519 45.9577 82.4711 45.7511 82.3902C45.6658 82.3588 45.5984 82.3184 45.5535 82.2375C45.5086 82.1612 45.4996 82.0714 45.5221 81.9906C45.5445 81.9097 45.5984 81.8379 45.6747 81.793C45.7197 81.766 45.7825 81.7481 45.8409 81.7481C45.8678 81.7481 45.8948 81.7481 45.9217 81.7615C47.5249 82.3588 49.0607 83.1312 50.5202 84.0203C50.6729 84.1101 50.7312 84.3077 50.6414 84.4649C50.5561 84.6176 50.3495 84.676 50.1968 84.5862Z" fill="#161616"/>
</g>
<defs>
<clipPath id="clip0_2130_5206">
<rect width="114" height="114" rx="4" fill="white"/>
</clipPath>
</defs>
</svg>
