<svg width="114" height="114" viewBox="0 0 114 114" fill="none" xmlns="http://www.w3.org/2000/svg">
<g clip-path="url(#clip0_2130_5221)">
<rect width="114" height="114" rx="4" fill="#CCECFB"/>
<path d="M64.1723 54.867C64.1723 54.867 58.4163 55.7689 56.3513 57.3414C54.2863 58.9199 52.874 60.5933 51.6516 62.7532C50.4292 64.9132 49.6993 64.0884 49.3908 63.4712C49.0822 62.8482 47.7767 64.1952 45.8957 66.5569C44.0146 68.9186 41.457 69.607 38.5909 68.5092C35.7307 67.4114 37.0659 66.6756 34.5796 67.9039C32.0992 69.1322 29.1678 70.3131 29.4526 68.3964C29.7374 66.4798 29.3042 66.0288 24.9902 65.6905C20.6822 65.3582 16.5225 63.6671 16.8844 62.2904C17.2464 60.9137 23.0973 61.6495 22.2131 61.2757C21.329 60.9018 13.3774 59.7388 13.7869 57.5254C14.1963 55.312 16.3266 57.8933 16.0477 57.0981C15.7748 56.3089 12.0957 54.4991 9.84673 50.2741C7.59775 46.0491 9.92387 46.0609 11.1463 46.8858C12.3687 47.7106 9.19399 43.5627 10.1731 41.8775C11.1581 40.1922 15.3475 46.0787 15.6442 45.0403C15.9409 44.0018 13.9174 42.9575 14.5405 41.8775C15.1636 40.7975 19.9286 46.8205 21.7622 48.1141C21.7622 48.1141 19.5547 45.5091 20.7949 44.0018C22.0351 42.4946 23.6788 45.5803 26.8001 47.7462C29.9214 49.9121 32.9655 50.7607 32.8765 50.1079C32.7875 49.4552 29.7968 49.0457 30.9183 47.5622C32.0398 46.0787 36.9887 50.0604 39.4217 50.1791C39.4217 50.1791 38.4663 49.3899 39.7837 48.5413C41.101 47.6928 45.2845 48.844 49.8358 47.9539C54.3931 47.0638 60.1431 46.0431 65.5609 48.3811L64.1545 54.861L64.1723 54.867Z" fill="url(#paint0_linear_2130_5221)"/>
<path d="M61.2409 55.2764C56.1555 55.3476 51.7109 59.4955 49.8121 60.973C47.9191 62.4506 43.2372 67.358 40.8933 65.5956C38.5494 63.8332 42.5311 61.875 42.1928 61.8097C41.8546 61.7444 32.5264 66.634 28.9897 65.02C25.4531 63.4 28.0344 61.786 29.6306 61.7326C31.2268 61.6792 32.6213 60.9849 31.1082 60.4212C29.595 59.8574 25.6845 61.1748 19.8751 57.9467C14.0658 54.7186 13.9293 49.7637 16.5521 51.9415C19.1749 54.1193 18.8248 52.3984 18.1187 51.6685C17.4125 50.9387 15.6561 47.8649 17.5193 46.9451C19.3826 46.0253 22.1004 52.0602 24.3078 53.6327C26.5153 55.2052 27.3816 55.0865 25.7379 52.7723C24.0883 50.458 26.0939 49.3483 28.1471 50.6123C30.2003 51.8762 34.1048 55.312 49.0584 49.2771C64.0061 43.2423 72.9783 52.7841 72.9783 52.7841C72.9783 52.7841 65.4006 55.223 61.2468 55.2823L61.2409 55.2764Z" fill="url(#paint1_linear_2130_5221)"/>
<path d="M72.3256 52.2916C72.3256 52.2916 71.3049 52.618 69.8036 53.0393C71.1447 52.3747 70.5632 50.3571 64.9318 47.8945C69.7027 49.5026 72.3256 52.2916 72.3256 52.2916Z" fill="#C1F3FF"/>
<path d="M63.116 52.3747C63.116 52.3747 60.0066 51.5736 57.4728 51.9474C54.933 52.3213 55.4315 50.7903 57.5737 50.2681C59.7158 49.7459 59.2292 49.3958 57.3363 49.2653C55.4434 49.1347 52.6069 49.4611 54.4464 48.4345C56.286 47.4079 59.8701 47.7106 59.8701 47.7106C59.8701 47.7106 57.2532 47.9954 56.4996 48.3158C55.746 48.6363 57.3244 48.4761 59.3538 48.6838C61.3773 48.8914 62.0894 49.111 59.965 49.9952C57.8407 50.8793 58.7011 51.2828 63.116 52.3747Z" fill="url(#paint2_linear_2130_5221)"/>
<path d="M38.2764 53.9294C38.2764 53.9294 34.7635 54.6237 32.5026 53.8582C30.2418 53.0927 25.821 51.1345 27.791 53.3538C29.7552 55.5672 27.8741 56.0359 26.2007 55.6502C24.5273 55.2586 22.6285 53.8226 22.6285 53.8226C22.6285 53.8226 25.008 56.6412 27.9157 56.6531C30.8174 56.6649 30.9717 55.6918 29.8027 54.7305C28.6337 53.7751 29.2271 53.6624 31.2268 54.5821C33.2266 55.5019 37.3982 54.505 38.2704 53.9294H38.2764Z" fill="url(#paint3_linear_2130_5221)"/>
<path d="M27.1502 49.0042C27.1502 49.0042 25.5599 48.0251 24.2782 46.8323C22.9964 45.6396 20.9967 45.0047 22.3259 47.1053C23.6551 49.2 23.5246 50.0486 21.8986 48.8202C21.8986 48.8202 24.0883 51.2532 24.7292 50.4995C25.37 49.7459 24.7885 49.111 24.0349 48.1022C23.2753 47.0934 25.3641 48.0903 27.1502 48.9982V49.0042Z" fill="url(#paint4_linear_2130_5221)"/>
<path d="M15.7332 45.4497C15.7332 45.4497 15.9943 46.7137 13.9827 45.1946C11.977 43.6755 10.0425 41.29 10.9742 44.0375C11.9058 46.7849 13.3834 49.2594 11.977 48.4879C10.5707 47.7165 9.7043 46.868 9.52628 47.7521C9.34233 48.6363 13.3952 52.9088 13.3952 52.9088C13.3952 52.9088 12.0482 50.9683 11.526 49.9892C11.0038 49.0101 11.2353 48.8974 12.5407 49.74C13.8462 50.5826 15.3712 50.8141 13.9293 48.4108C12.4933 46.0135 10.9682 43.984 12.8493 45.4082C14.7304 46.8324 16.6471 47.2121 15.7273 45.4497H15.7332Z" fill="url(#paint5_linear_2130_5221)"/>
<path d="M48.8685 60.6229C48.8685 60.6229 42.6913 65.0556 42.4005 64.0349C42.1097 63.0143 46.4653 60.0473 43.7891 60.4983C41.1128 60.9552 35.2738 63.9637 37.6415 61.602C40.0091 59.2403 41.3443 59.0148 41.3443 59.0148C41.3443 59.0148 40.5313 59.7031 39.754 60.5398C38.9766 61.3765 42.7684 60.0236 44.7682 59.4955C46.7679 58.9673 47.0171 60.1779 45.5277 61.3825C44.0383 62.5871 48.8626 60.6288 48.8626 60.6288L48.8685 60.6229Z" fill="url(#paint6_linear_2130_5221)"/>
<path d="M44.3053 67.0494C44.3053 67.0494 38.7392 69.1263 38.5434 67.3046C38.3476 65.4828 36.0927 66.545 34.443 66.8951C32.7934 67.2512 29.8027 69.1382 30.9123 67.5004C32.022 65.8626 32.74 65.6787 32.74 65.6787C32.74 65.6787 31.1378 66.9426 32.2831 66.8655C33.4283 66.7883 36.1876 65.1624 37.8373 65.0971C39.4869 65.0319 39.2021 65.6193 39.2733 66.3314C39.3504 67.0435 40.4957 67.9336 44.2994 67.0494H44.3053Z" fill="url(#paint7_linear_2130_5221)"/>
<path d="M25.1326 64.7351C25.1326 64.7351 20.243 64.3376 19.887 63.1982C19.5309 62.0589 23.0795 62.504 23.6729 61.786C24.2663 61.0679 20.8898 60.4567 19.0325 59.7328C17.1752 59.0089 16.3741 58.9851 16.7242 58.3264C17.0743 57.6678 18.6468 58.0298 18.6468 58.0298C18.6468 58.0298 17.1039 58.5935 18.6943 59.0267C20.2846 59.4598 25.0495 60.344 25.0792 61.7266C25.103 63.1033 21.7087 62.9134 21.6553 63.3644C21.6078 63.8154 25.1326 64.7351 25.1326 64.7351Z" fill="url(#paint8_linear_2130_5221)"/>
<path d="M23.4355 41.5689C25.0258 43.1117 24.8181 44.8504 23.299 43.7526C21.7859 42.6548 20.338 39.8599 20.3677 41.4443C20.3973 43.0287 15.4365 38.6197 14.3921 37.4092C13.3478 36.1927 17.46 37.4982 15.4187 35.4272C13.3774 33.3563 12.8493 30.953 15.2051 32.6798C17.5609 34.4125 21.2577 38.1094 19.3529 37.6762C17.4481 37.249 21.1331 39.3437 23.4237 41.5689H23.4355Z" fill="url(#paint9_linear_2130_5221)"/>
<path d="M60.4754 57.4126C60.4754 57.4126 58.9444 62.3378 58.2798 64.7174C57.6152 67.0969 56.2385 69.1322 55.7697 67.3342C55.301 65.5362 53.9183 66.723 51.8118 68.8652C49.7052 71.0074 47.4266 67.8268 50.3342 66.0525C53.2478 64.2723 57.4491 61.5367 56.2682 61.1748C55.0873 60.8128 58.0899 58.3977 60.4754 57.4126Z" fill="url(#paint10_linear_2130_5221)"/>
<path d="M10.1968 36.2639C10.9326 37.8958 9.76954 37.7059 8.29791 36.8573C6.82629 36.0147 6.0074 36.9997 6.45245 39.2962C6.8975 41.5926 5.7463 42.637 3.34898 39.8362C0.957583 37.0353 -0.223278 30.6088 2.74371 32.2704C5.7107 33.9319 6.62453 34.2582 6.25069 32.7391C5.87092 31.2141 9.27109 34.2108 10.2027 36.2639H10.1968Z" fill="url(#paint11_linear_2130_5221)"/>
<path d="M18.1602 36.0325C18.1602 36.0325 14.9914 32.7866 14.8609 33.2257C14.7303 33.6589 17.5668 36.7505 16.3741 36.7505C15.1813 36.7505 16.4868 38.2459 17.7092 39.1538C18.9316 40.0557 20.0294 40.3287 18.9079 39.4445C17.7923 38.5544 16.4571 37.3498 17.4066 37.605C18.3619 37.8602 17.4481 36.4538 16.8725 35.7121C16.291 34.9703 16.3207 34.4778 18.1543 36.0384L18.1602 36.0325Z" fill="url(#paint12_linear_2130_5221)"/>
<path d="M9.30074 35.9197C9.41349 36.0147 6.80254 32.7213 6.93902 34.1336C7.0755 35.5459 6.63639 35.8367 4.97487 34.7567C3.31336 33.6826 1.93668 32.4246 2.43513 34.9822C2.93359 37.5457 5.30124 40.6788 4.88586 39.6404C4.47049 38.6019 2.10283 34.1752 4.0195 35.2492C5.93618 36.3233 7.34253 36.7268 7.39594 35.5993C7.44934 34.4719 8.21483 35.0118 9.30668 35.9138L9.30074 35.9197Z" fill="url(#paint13_linear_2130_5221)"/>
<path d="M58.2739 63.5543C58.3095 63.495 57.3067 67.7793 56.4403 66.4441C55.574 65.109 53.592 66.5747 52.3281 67.6072C51.0641 68.6397 49.1831 68.432 51.1531 66.7171C53.1232 65.0022 54.672 63.9875 53.8412 64.7708C53.0105 65.5481 50.5597 67.8268 51.7821 67.2393C52.9986 66.6578 55.1408 63.9578 56.0071 64.9013C56.8676 65.8448 57.5856 64.753 58.2799 63.5543H58.2739Z" fill="url(#paint14_linear_2130_5221)"/>
<path fill-rule="evenodd" clip-rule="evenodd" d="M54.1913 115.043C53.2834 117.637 54.1082 120.319 54.6363 122.888C54.8737 124.579 54.9034 126.288 54.8084 127.991C54.7075 130.27 54.5058 132.543 54.393 134.815C54.3752 136.222 54.2447 137.747 54.8618 139.046C55.3721 139.853 56.4581 139.687 57.2829 139.794C58.3391 139.871 59.4013 139.96 60.4576 139.996C63.8696 140.061 64.0061 139.391 63.8815 136.21C63.8399 133.35 64.0061 130.49 64.3087 127.647C64.4511 126.276 64.5876 124.906 64.9318 123.6C65.4184 121.749 66.2195 120.004 66.8603 118.206C66.979 117.755 67.2935 117.322 67.2876 116.853C67.2282 116.586 66.8841 116.468 66.6882 116.663C66.979 114.64 66.4271 112.581 65.454 110.813C64.3265 108.89 62.8668 106.516 60.4279 106.303C58.7961 106.131 58.0602 107.846 57.3126 108.991C56.1673 110.961 54.844 112.854 54.2032 115.055L54.1913 115.043Z" fill="url(#paint15_linear_2130_5221)"/>
<path fill-rule="evenodd" clip-rule="evenodd" d="M30.2655 104.356C24.2425 103.804 24.8596 106.481 25.5539 111.269C25.7438 112.67 26.1889 113.969 26.7645 115.216C26.7882 115.192 26.8179 115.174 26.8475 115.162C26.8475 115.079 26.8772 115.002 26.9425 114.943C26.9187 114.871 26.8891 114.8 26.8713 114.729C26.8416 114.61 26.806 114.48 26.8297 114.361C26.8416 114.272 26.8772 114.177 26.9425 114.112C26.9959 114.058 27.073 114.023 27.1442 114.017C27.2214 114.011 27.3044 114.017 27.3757 114.047C27.4409 114.07 27.5062 114.094 27.5715 114.13C27.7258 114.219 27.8622 114.337 27.9987 114.456C28.1174 114.557 28.2361 114.67 28.3429 114.782C28.4556 114.901 28.5446 115.037 28.6337 115.168C28.6752 115.233 28.6989 115.305 28.6871 115.382C28.6752 115.453 28.6337 115.524 28.5743 115.566C28.4556 115.655 28.2598 115.637 28.1767 115.506C28.1055 115.399 28.0343 115.293 27.9512 115.192C27.8741 115.109 27.797 115.032 27.7139 114.954C27.6545 114.901 27.5893 114.842 27.524 114.788C27.6071 115.008 27.6961 115.227 27.791 115.447C27.791 115.447 27.791 115.447 27.791 115.453C27.975 115.732 28.1471 116.017 28.3132 116.301C28.6337 116.847 28.9363 117.399 29.2389 117.951C29.5475 118.509 29.862 119.067 30.1528 119.636C30.4554 120.224 30.7284 120.829 30.9657 121.446C31.0844 121.761 31.2031 122.081 31.3039 122.402C31.4048 122.716 31.4998 123.037 31.5947 123.357C31.7787 123.98 31.9507 124.609 32.111 125.238C32.4373 126.52 32.7162 127.813 32.8527 129.131C32.9239 129.789 32.9714 130.454 32.9892 131.119C33.0129 131.789 33.0129 132.46 33.007 133.136C33.007 133.789 32.9892 134.442 32.9833 135.094C32.9833 135.729 32.9892 136.358 33.007 136.993C33.007 136.999 33.007 137.011 33.007 137.017C33.007 137.017 33.007 137.023 33.007 137.029C33.007 137.064 33.007 137.106 33.007 137.142C33.007 137.142 33.007 137.142 33.007 137.136C33.007 137.136 33.007 137.142 33.007 137.147C33.007 137.153 33.007 137.159 33.007 137.165C33.007 137.331 33.0189 137.504 33.0248 137.67C33.9268 138.91 35.6536 139.171 37.4753 139.224C37.7304 139.23 37.9856 139.236 38.2408 139.236C42.6912 139.468 42.6972 137.866 42.7031 134.002C42.7447 130.294 42.5844 126.579 42.1335 122.894C41.5994 119.506 42.1275 116.094 41.7596 112.694C41.5697 111.679 41.8249 108.397 41.1662 107.893C40.8042 107.715 40.4007 108.166 40.7212 108.475C40.7212 108.498 40.7271 108.522 40.733 108.546C40.7686 108.825 40.8042 109.104 40.828 109.382C40.1396 107.656 38.9944 105.858 37.1192 105.288C34.8821 104.712 32.5501 104.576 30.2596 104.344L30.2655 104.356Z" fill="url(#paint16_linear_2130_5221)"/>
<path style="mix-blend-mode:multiply" opacity="0.5" fill-rule="evenodd" clip-rule="evenodd" d="M54.7728 112.765C51.9661 118.746 54.9746 121.161 54.5236 126.947C54.4821 129.908 54.0489 132.857 54.0607 135.818C54.0073 138.619 54.7669 139.889 57.7517 139.907C57.8941 139.907 58.0128 139.895 58.1077 139.859C58.1255 139.865 58.1493 139.871 58.1671 139.865C58.2561 139.865 58.3095 139.8 58.3391 139.681C58.3748 139.622 58.3866 139.557 58.3629 139.509C58.3926 139.029 58.2323 138.216 58.2857 137.99C58.2501 135.901 58.2383 133.807 58.4104 131.718C58.4875 130.555 58.5943 129.392 58.8732 128.264C59.0868 127.534 59.3954 126.751 58.7308 126.164C58.6952 125.659 59.3183 125.268 59.3242 124.734C59.2767 124.164 58.5587 123.844 58.6833 123.215C59.4429 119.886 61.1162 115.524 65.0267 115.162C65.3412 115.364 65.5549 114.806 65.1988 114.729C64.8843 114.699 64.5698 114.729 64.2613 114.794C64.2078 113.922 63.6026 113.044 63.0863 112.379C61.7631 110.812 59.5972 110.023 57.5796 110.1C56.0664 110.16 55.3603 111.572 54.7788 112.771L54.7728 112.765Z" fill="url(#paint17_linear_2130_5221)"/>
<path style="mix-blend-mode:multiply" opacity="0.5" fill-rule="evenodd" clip-rule="evenodd" d="M38.2645 138.376C38.2408 136.655 38.1459 134.94 37.9975 133.225C37.9144 132.08 37.8254 130.929 37.6593 129.789C37.5406 128.816 37.0837 127.801 37.6296 126.882C38.1815 125.558 36.3182 126.205 37.6118 124.858C38.2705 123.701 36.2589 123.286 36.0571 122.259C35.8613 121.363 35.9681 120.431 36.0096 119.524C36.0452 116.272 37.2202 111.981 41.0476 111.643C41.2493 111.661 41.3621 111.376 41.2019 111.252C40.288 111.097 39.2733 111.62 38.496 112.094C38.6977 111.584 35.9622 110.195 35.4815 110.071C31.9448 108.664 28.2598 111.987 27.9394 115.471C27.8919 116.076 28.2658 116.58 28.5447 117.085C29.1321 118.111 29.7077 119.15 30.2418 120.2C31.6838 123.013 32.384 126.14 32.6747 129.273C32.918 131.492 32.8646 133.718 32.7993 135.937C32.5204 137.842 33.9031 138.661 35.4874 139.046C35.8731 139.076 36.2648 139.1 36.6505 139.118C36.9769 139.135 37.3032 139.147 37.6296 139.165C37.772 139.171 37.9204 139.177 38.0687 139.189C38.1281 139.189 38.1815 139.195 38.2408 139.201C38.3298 138.963 38.2408 138.578 38.2705 138.364L38.2645 138.376Z" fill="url(#paint18_linear_2130_5221)"/>
<path fill-rule="evenodd" clip-rule="evenodd" d="M2.5301 113.222C3.34305 113.204 4.33996 109.964 4.63666 108.789C7.42563 103.086 2.83273 99.7337 6.7907 93.153C7.88255 91.355 9.6212 90.008 11.5379 89.1653C10.8436 91.2007 10.2383 93.2835 9.98911 95.4197C9.6212 100.648 10.2265 105.947 11.4192 111.038C12.9324 116.675 15.484 121.778 14.5464 127.778C14.4337 129.665 14.404 131.558 14.4455 133.451C14.5227 134.839 14.3031 136.346 15.0211 137.598C15.2466 138.198 15.8281 138.4 16.4156 138.512C17.46 138.708 18.5222 138.815 19.5844 138.827C22.6166 138.993 23.0498 137.029 23.1863 134.489C23.3346 132.905 23.5126 131.362 23.9102 129.825C24.3197 127.968 25.3047 126.318 25.8862 124.526C26.3966 122.71 26.45 120.74 27.4469 119.084C28.6159 117.061 30.2418 115.376 31.5473 113.453C32.0813 112.616 32.5857 111.756 33.0485 110.872C33.7844 111.145 34.5261 111.4 35.2857 111.62C43.4805 114.159 52.245 109.43 60.3686 112.254C61.6029 112.741 62.76 113.429 63.7272 114.337C63.8222 114.48 63.9112 114.628 64.0002 114.776C65.5074 117.66 66.3619 121.12 65.4718 124.324C64.9734 126.395 64.1901 128.383 63.2644 130.3C61.8521 132.934 61.3477 134.815 64.4037 136.418C65.9525 137.331 67.7327 138.257 69.59 138.032C71.4473 137.699 72.1713 135.646 73.1266 134.258C74.7763 131.469 76.4912 128.68 77.6483 125.642C78.4435 123.683 78.6215 121.547 78.034 119.506C77.5593 117.447 77.2864 115.382 77.0846 113.287C76.4793 108.255 76.8769 102.992 78.6986 98.2443C80.5441 92.969 85.5702 88.7796 91.2609 88.6431C94.2219 88.7084 94.2575 87.5098 91.6406 86.4298C90.9167 86.1687 90.1809 85.955 89.4273 85.783C92.2044 85.1302 94.6966 83.6942 96.5836 81.3978C100.435 77.06 103.141 71.2863 102.767 65.3938C102.417 59.9405 99.0285 54.4041 93.86 52.3331C90.3826 51.0039 86.6976 52.434 83.4755 53.8344C81.5351 54.6296 79.2327 54.4338 77.411 53.4072C74.4914 51.4608 74.8238 52.9147 75.2569 55.4722C74.4796 55.2052 73.6785 54.772 72.8418 54.8076C72.64 54.8373 72.5392 54.9619 72.5095 55.1043C72.3434 55.1992 72.2603 55.4307 72.3908 55.6087C73.002 56.6531 73.5361 57.7627 74.4677 58.5697C76.604 60.3618 79.7371 61.3884 82.4786 60.5814C84.2944 59.9761 85.9618 58.819 87.9379 58.8249C92.4892 58.4155 94.6848 65.4057 90.8099 67.7318C84.9649 70.8531 78.5206 66.2483 72.4798 68.8355C69.4594 69.9274 67.0146 72.0933 64.5817 74.1108C62.5167 75.7901 59.9651 76.7989 57.2829 76.7752C56.8082 76.7752 56.3335 76.7693 55.8588 76.7396C53.586 76.4369 51.3608 75.7249 49.1534 75.1374C40.4185 72.6451 28.8236 69.9689 20.8602 75.6833C17.6024 77.5288 15.3712 80.6145 13.7038 83.9553C10.3155 85.332 7.01619 87.1775 5.34874 90.5301C3.84151 93.2301 2.96328 96.3217 3.08196 99.4311C3.13537 101.354 3.59822 103.241 3.69316 105.134C3.72876 105.715 3.7347 106.297 3.7169 106.878C3.4914 107.389 3.18877 107.851 2.76746 108.231C2.00791 109.009 1.06441 109.56 0.120905 110.077C-0.0630485 110.231 -0.0274447 110.534 0.162443 110.664C0.90419 110.878 2.16813 109.667 2.81493 109.276C2.1978 110.059 1.3077 110.682 0.927926 111.625C0.81518 111.904 1.01694 112.254 1.33737 112.219C2.03165 111.993 2.44109 111.258 2.93954 110.765C2.81493 111.317 1.59253 113.038 2.53603 113.222H2.5301Z" fill="url(#paint19_linear_2130_5221)"/>
<path style="mix-blend-mode:multiply" opacity="0.5" fill-rule="evenodd" clip-rule="evenodd" d="M83.9028 76.52C83.8434 76.5319 83.7841 76.5497 83.7247 76.5616C83.7129 76.5497 83.701 76.5438 83.6891 76.5378C83.6239 76.5022 83.5586 76.4785 83.4815 76.4844C83.4518 76.4844 83.428 76.4963 83.3984 76.5022C83.4102 76.4844 83.4221 76.4666 83.434 76.4429C83.4458 76.431 83.4577 76.4192 83.4637 76.4014C83.4933 76.3657 83.5111 76.3301 83.523 76.2886C83.6595 76.3361 83.79 76.4132 83.8968 76.5141L83.9028 76.52Z" fill="url(#paint20_linear_2130_5221)"/>
<path style="mix-blend-mode:multiply" opacity="0.5" fill-rule="evenodd" clip-rule="evenodd" d="M90.5429 69.696C90.4835 69.7019 90.4183 69.7078 90.353 69.7078C89.2552 69.5595 88.1396 69.696 87.0478 69.3874C86.9172 69.3399 86.7867 69.2984 86.6561 69.2569C86.5137 69.2094 86.3713 69.1441 86.2289 69.0907C86.0924 69.0373 85.9559 68.978 85.8194 68.9186C85.8728 68.9127 85.9262 68.9067 85.9796 68.8949C86.1577 68.8711 86.3298 68.8355 86.5078 68.794C86.5493 68.7999 86.5849 68.8118 86.6265 68.8177C86.7155 68.8059 86.8045 68.794 86.8935 68.7762C88.4541 68.438 90.1216 67.987 91.2312 66.7705C93.0589 64.7233 92.7325 61.1688 90.3589 59.6794C88.4126 58.2909 86.6027 59.1513 84.7395 60.0117C83.4874 60.5873 82.2056 61.1688 80.8468 61.0561C77.9628 60.9493 74.7644 59.8218 73.2572 57.2109C73.1979 57.0685 73.0436 56.748 72.9071 56.392C72.6697 56.0894 72.4798 55.7867 72.379 55.5078C72.4086 55.3832 72.4798 55.3298 72.5629 55.3239C72.5985 55.0331 72.8893 54.9263 73.0258 55.3239C73.0258 55.401 73.0554 55.4841 73.1029 55.5672C73.1207 55.5909 73.1445 55.6146 73.1623 55.6384C73.364 55.8876 73.5836 56.125 73.8269 56.3326C73.8921 56.3861 73.9515 56.4454 74.0227 56.4988C74.0998 56.5581 74.171 56.6115 74.2482 56.6709C74.3609 56.7599 74.4796 56.843 74.6042 56.9142C74.6754 56.9617 74.7526 57.0091 74.8238 57.0507C74.9068 57.1041 74.9959 57.1456 75.0849 57.1931C75.2926 57.3058 75.5121 57.4067 75.7317 57.4898C76.3369 57.828 76.9897 58.0594 77.6899 58.0594C77.9154 58.0713 78.1587 57.9882 78.4079 57.9052C78.8648 57.7509 79.3158 57.5907 79.6244 58.0535C79.8202 58.3205 79.7134 58.9851 80.2 58.908C81.3689 58.0238 81.6063 58.2375 81.7903 58.4451C81.9861 58.6766 82.1166 58.9021 83.345 57.6737C83.8078 57.2643 83.9087 57.4245 84.1876 57.5847C84.5021 57.7687 85.0302 57.9586 86.5434 57.3592C89.8545 56.2911 93.8718 58.0001 95.1002 61.3231C95.7885 63.4831 95.3375 66.1059 93.9312 67.892C93.5099 68.4261 92.8156 68.2184 92.2637 68.4083C91.8721 68.7821 91.522 69.2806 91.0473 69.5417C91.0117 69.5417 90.9761 69.5595 90.9405 69.5714C90.8574 69.5832 90.7802 69.6129 90.715 69.6426C90.6616 69.6604 90.6082 69.6841 90.5607 69.7078L90.5429 69.696Z" fill="url(#paint21_linear_2130_5221)"/>
<path style="mix-blend-mode:multiply" opacity="0.5" fill-rule="evenodd" clip-rule="evenodd" d="M61.4842 88.5423C61.9292 88.0438 62.303 87.5038 62.6353 86.9223C63.5017 85.332 63.9408 83.5518 64.7953 81.9615C66.1186 79.4336 68.2133 77.6594 71.1743 77.6356C71.922 77.5644 75.3697 78.1993 75.0433 79.22C75.6545 81.8369 72.0763 79.3565 68.7711 81.8131C65.8812 83.89 64.7478 87.8065 61.5138 89.4739C60.7127 89.5807 61.134 88.8271 61.4782 88.5482L61.4842 88.5423Z" fill="url(#paint22_linear_2130_5221)"/>
<path style="mix-blend-mode:multiply" opacity="0.5" fill-rule="evenodd" clip-rule="evenodd" d="M53.1707 87.8421C52.5654 89.2603 53.8234 91.2304 54.4168 92.5358C55.6096 94.4762 56.7785 96.9626 59.1996 97.5145C60.3508 97.8111 61.6029 97.7755 62.6472 98.4105C65.0683 99.8702 65.6142 103.419 69.0381 103.134C69.6731 103.11 70.3021 102.95 70.937 102.938C72.0823 103.033 73.2869 103.146 74.266 102.398C74.6992 101.971 77.1084 101.318 76.4081 100.57C76.4022 100.57 76.3963 100.565 76.3844 100.559C76.4556 99.5142 75.3222 97.6331 75.2036 96.8261C74.4084 94.4406 74.2066 91.8772 74.6398 89.3968C74.8475 88.0498 75.3341 86.7739 75.9453 85.5634C76.0284 85.2905 76.4556 84.9403 76.1589 84.6852C76.0462 84.614 75.8919 84.6437 75.8207 84.7564C75.6723 84.9878 75.5418 85.243 75.4231 85.4922C74.711 86.9223 74.2244 88.4651 74.0524 90.0614C73.7735 92.2391 73.9693 94.4585 74.6161 96.5591C74.8297 97.2771 75.0789 97.9773 75.3519 98.6775C75.5537 99.3243 76.0165 99.9711 75.8978 100.665C74.9128 100.57 73.9159 100.499 72.9368 100.677C70.9608 101.188 69.0441 101.858 67.5606 99.9533C66.4272 98.5944 66.1364 96.292 64.2079 95.8055C62.7422 95.3248 61.1044 95.7521 59.7159 95.0222C58.1434 94.0727 56.3098 90.7497 55.6926 89.0111C60.7781 87.9548 61.7037 84.9582 62.9499 80.4661C64.1248 77.244 67.5962 75.6596 70.8658 75.7961C72.2722 75.9148 73.7557 76.3123 74.9069 77.1431C74.9899 77.1787 75.0611 77.2499 75.1264 77.3271C75.1561 77.5229 75.2866 77.5882 75.3934 77.5466C75.435 77.5585 75.4824 77.5644 75.5299 77.5525C75.7732 77.3686 75.6783 77.1668 75.4765 76.977C75.3756 76.7871 75.1798 76.5497 74.8238 76.2945C72.0585 74.2177 69.5544 73.9744 66.3382 75.1315C64.1842 75.9978 62.4158 77.6475 61.1341 79.5582C60.244 80.9646 59.8464 82.632 58.7902 83.9434C57.7992 85.154 56.5649 86.2577 55.1467 86.9342C54.5118 87.2724 53.6513 87.2902 53.1648 87.848L53.1707 87.8421Z" fill="url(#paint23_linear_2130_5221)"/>
<path style="mix-blend-mode:multiply" opacity="0.5" fill-rule="evenodd" clip-rule="evenodd" d="M77.0727 100.962C77.3932 97.6391 78.7283 94.4822 81.0485 92.0611C83.1016 90.0139 85.7897 88.3939 88.7033 88.0557C90.1453 87.8421 91.6169 88.0735 93.047 87.7827C93.2072 87.5691 93.6107 87.7827 93.4742 88.0379C93.498 88.5008 92.4773 88.4177 92.1332 88.5601C90.5428 88.7915 88.9169 88.8271 87.38 89.3552C84.8166 90.2453 82.0869 92.9097 80.4907 95.0756C79.4819 96.5769 78.669 98.1969 78.1349 99.9296C77.8026 100.796 77.7314 101.763 77.3635 102.612C76.6573 103.015 77.1024 101.312 77.0787 100.95L77.0727 100.962Z" fill="url(#paint24_linear_2130_5221)"/>
<path style="mix-blend-mode:multiply" opacity="0.5" fill-rule="evenodd" clip-rule="evenodd" d="M33.0485 110.991C33.2918 110.468 33.4936 109.928 33.6775 109.382C33.8733 108.807 34.0276 108.219 34.176 107.626C34.2472 107.347 34.3125 107.062 34.3718 106.783C34.4311 106.493 34.4845 106.202 34.5201 105.905C34.5558 105.62 34.5795 105.329 34.5914 105.039C34.5914 104.968 34.5914 104.896 34.5914 104.825C34.5914 104.748 34.5914 104.665 34.5617 104.588C34.5617 104.552 34.5676 104.511 34.5736 104.475C34.7278 104.528 34.8525 104.724 34.9593 104.837C35.2619 105.193 35.5942 105.549 35.968 105.852C38.8757 108.035 42.5785 108.783 46.0677 109.519C50.9395 110.534 55.9893 110.439 60.9086 109.798C60.9738 109.792 61.0391 109.78 61.1044 109.774C62.5463 109.448 63.9289 108.937 65.1395 108.101C65.1929 108.024 65.2819 108 65.359 108.018C65.3412 108.107 65.3294 108.196 65.3175 108.285C65.3116 108.332 65.3056 108.38 65.2997 108.427C65.2997 108.439 65.2997 108.457 65.2997 108.469C65.2997 108.504 65.2938 108.534 65.2878 108.569C65.2878 108.569 65.2878 108.575 65.2878 108.581C65.2878 108.581 65.2878 108.581 65.2878 108.587C65.0861 109.252 64.9674 109.952 65.0149 110.646C65.1692 112.765 66.0355 114.747 66.89 116.663C67.5605 118.277 68.8067 119.547 69.6849 121.025C70.0409 121.921 68.3201 122.158 68.7651 122.591C70.8954 124.686 68.6405 124.004 68.2429 125.185C67.1689 127.724 65.8397 130.151 64.3503 132.472C63.9408 133.166 63.3474 133.813 63.294 134.649C63.2643 134.756 63.294 134.904 63.3177 135.035C63.3593 135.071 63.383 135.118 63.389 135.171C63.389 135.338 63.3118 135.403 63.205 135.415C63.1813 135.427 63.1575 135.439 63.1219 135.444C63.021 135.427 62.9439 135.379 62.8964 135.302C62.8668 135.278 62.843 135.249 62.8193 135.219C61.3061 133.308 62.7184 130.786 63.4898 128.846C64.6885 126.199 65.7329 123.404 65.4896 120.449C65.4065 118.901 64.9793 117.447 64.3859 116.011C64.1426 115.447 63.8874 114.865 63.6857 114.272C60.9916 111.803 57.1286 111.756 53.6513 111.815C49.7942 111.768 45.9787 112.45 42.1275 112.486C41.2018 112.498 40.282 112.444 39.3682 112.343C37.8372 112.284 36.2944 112.011 34.8406 111.513C34.4667 111.418 34.0454 111.293 33.7547 111.145C33.5826 111.085 33.4046 111.008 33.2859 110.913C33.2859 110.919 33.2859 110.925 33.2799 110.937C33.2562 110.991 33.2206 111.032 33.1791 111.05C33.1791 111.05 33.1731 111.05 33.1672 111.05C33.1435 111.038 33.1257 111.032 33.1019 111.02C33.0841 111.014 33.0723 111.002 33.0604 110.996L33.0485 110.991Z" fill="url(#paint25_linear_2130_5221)"/>
<path style="mix-blend-mode:multiply" opacity="0.5" fill-rule="evenodd" clip-rule="evenodd" d="M20.4032 76.0809C20.1659 76.2055 19.9285 76.3302 19.6852 76.4488C19.6437 76.4904 19.6081 76.5378 19.5665 76.5794C19.4953 76.6209 19.4301 76.6625 19.3588 76.704C19.2817 76.7515 19.2046 76.8049 19.1215 76.8523C16.7716 78.7037 15.0448 81.2494 13.6919 83.9613C13.5198 84.0325 13.3537 84.1037 13.1875 84.1749C12.6653 85.2015 12.2143 86.2577 11.8227 87.3436C7.28914 89.3078 4.44083 94.7255 4.32808 99.5142C4.2272 101.49 4.71972 103.431 4.75533 105.401C4.75533 106.018 4.69005 106.641 4.57138 107.246C4.55357 107.412 4.44083 107.715 4.42303 107.946C4.41709 107.946 4.41116 107.946 4.40522 107.946C4.38742 107.935 4.37555 107.923 4.35182 107.917C4.24501 107.893 4.12633 107.952 4.09072 108.059C3.43205 108.724 2.69624 109.335 1.85361 109.768C1.39076 110.005 0.892309 110.148 0.399789 110.302C0.198034 110.362 0.209902 110.593 0.328581 110.7C1.0822 110.718 2.20965 109.649 2.80898 109.287C2.54789 109.62 2.24526 109.922 1.94262 110.231C2.31053 110.053 2.66657 109.851 2.99887 109.608C3.12349 109.483 3.53886 109.198 3.90677 108.89C3.53293 109.602 3.04041 110.255 2.53009 110.872C2.20965 111.24 1.82988 111.554 1.40263 111.792C1.23055 111.887 1.28395 112.112 1.42043 112.189C2.0613 111.934 2.45295 111.246 2.9336 110.777C2.90393 110.907 2.80898 111.109 2.70217 111.341C3.17689 110.83 3.69908 110.172 4.07886 109.566C3.98391 109.911 3.88303 110.249 3.77622 110.587C3.5448 111.305 3.2837 112.017 2.87426 112.652C2.80305 112.777 2.86832 112.901 2.9692 112.961C3.66941 112.154 4.39336 109.774 4.64258 108.807C4.76126 108.564 4.86214 108.332 4.95115 108.101C4.96302 108.035 4.96895 107.976 4.96895 107.923C5.04609 107.774 5.11137 107.62 5.17664 107.466C6.73728 102.541 3.15909 99.2175 6.79068 93.1708C7.88253 91.3728 9.62119 90.0258 11.5379 89.1832C10.8436 91.2185 10.2383 93.3013 9.9891 95.4376C9.62119 100.665 10.2265 105.964 11.4192 111.056C12.9324 116.693 15.484 121.796 14.5464 127.796C14.4336 129.683 14.404 131.575 14.4455 133.468C14.5227 134.857 14.3031 136.364 15.0211 137.616C15.2466 138.216 15.8281 138.417 16.4156 138.53C16.9971 138.637 17.5787 138.714 18.1721 138.767C18.2195 138.767 18.267 138.767 18.3085 138.767C18.3085 138.767 18.3085 138.762 18.3085 138.756C18.1008 138.073 17.9347 137.367 17.8279 136.667C17.6202 135.338 17.6321 133.991 17.6795 132.65C17.8398 129.7 17.4837 126.751 17.3591 123.808C17.3591 123.784 17.3591 123.76 17.3532 123.737C17.3116 123.695 17.276 123.636 17.2701 123.571C17.2345 123.333 17.2464 123.084 17.2464 122.847C17.2464 122.775 17.2464 122.71 17.2464 122.639C17.1811 121.951 17.1277 121.262 17.0802 120.574C17.0802 120.574 17.0802 120.58 17.0802 120.586C17.0802 120.574 17.0802 120.562 17.0802 120.55C17.0268 119.755 17.0031 118.96 16.9853 118.165C16.9556 116.841 17.009 115.518 17.1573 114.207C17.3116 112.848 17.4837 111.489 17.7151 110.142C17.7982 109.638 17.8932 109.133 18 108.635C18 108.617 17.994 108.599 17.9881 108.575C17.9762 108.522 17.9703 108.463 17.9584 108.409C17.8101 108.166 17.6558 107.923 17.5134 107.673C17.3354 107.365 17.1573 107.056 16.9912 106.742C16.6826 106.16 16.3978 105.555 16.1189 104.956C16.0774 104.867 16.0358 104.772 15.9943 104.683C14.7363 102.386 14.0301 99.8346 13.775 97.2178C13.775 97.0041 13.7868 96.7964 13.7928 96.5828C13.7809 96.4819 13.769 96.3751 13.7572 96.2743C13.7394 96.114 13.7216 95.9598 13.7038 95.7995C13.6741 95.491 13.6444 95.1765 13.6385 94.862C13.6385 94.8501 13.6385 94.8382 13.6385 94.8264C13.6266 94.6721 13.6207 94.5119 13.6148 94.3516C13.6088 94.0312 13.6148 93.7167 13.6207 93.3963C13.6326 93.058 13.6385 92.7198 13.6563 92.3756C13.68 91.8297 13.7156 91.2838 13.7572 90.7379C13.7572 90.6963 13.7631 90.6488 13.769 90.6073C13.769 90.5954 13.769 90.5776 13.769 90.5658C13.7928 90.2691 13.8165 89.9724 13.8462 89.6816C13.8877 89.3078 13.9352 88.9339 13.9945 88.566C14.1013 87.9192 14.2438 87.2724 14.404 86.6315C14.5701 85.9907 14.7541 85.3617 14.9736 84.7386C15.1932 84.1155 15.4187 83.4984 15.662 82.8813C15.7807 82.5727 15.9231 82.276 16.0655 81.9793C16.1308 81.8488 16.1901 81.7182 16.2613 81.5877C16.3503 81.4274 16.4393 81.2672 16.5343 81.1129C16.7123 80.8222 16.8903 80.5373 17.0921 80.2644C17.2938 79.9795 17.4956 79.6947 17.7092 79.4218C17.7567 79.3624 17.8101 79.2971 17.8576 79.2378C17.8516 79.2497 17.8398 79.2556 17.8338 79.2675C18.089 78.947 18.3619 78.6325 18.6527 78.3358C18.9791 77.9027 19.3292 77.4873 19.703 77.0956C19.9404 76.8523 20.1777 76.6091 20.4329 76.3836C20.5041 76.3242 20.5694 76.2649 20.6406 76.2055C20.7296 76.1343 20.8245 76.0691 20.9373 76.0394C20.9907 76.0216 21.05 76.0216 21.1034 76.0394C21.1628 75.9682 21.2281 75.9029 21.2874 75.8376C21.4535 75.6596 21.6197 75.4816 21.7918 75.3095C21.768 75.3214 21.7384 75.3332 21.7146 75.351C21.2815 75.6062 20.8483 75.8554 20.4032 76.0928V76.0809Z" fill="url(#paint26_linear_2130_5221)"/>
<path fill-rule="evenodd" clip-rule="evenodd" d="M80.7993 84.0681C81.7013 84.0384 82.6863 83.807 83.3212 83.1186C84.0274 82.3057 84.0689 80.8696 83.0898 80.2406C81.7428 79.4633 80.0457 80.033 79.1853 81.2554C78.2536 82.4718 79.3514 84.1511 80.8052 84.0621L80.7993 84.0681Z" fill="#E0926C"/>
<path style="mix-blend-mode:multiply" opacity="0.5" fill-rule="evenodd" clip-rule="evenodd" d="M57.5559 94.3635C57.3067 94.405 57.2651 94.0549 57.5144 94.0193C57.5144 94.0193 57.4788 94.0015 57.461 93.9897C57.4372 93.9719 57.4194 93.9481 57.4075 93.9244C57.1702 94.0015 56.9744 93.7879 57.1702 93.6039C57.6805 93.3903 58.2324 93.2538 58.7427 93.0284C59.2589 92.7554 59.7515 92.4409 60.2143 92.0908C60.4754 91.895 60.7424 91.7051 60.9501 91.4499C61.0807 91.26 61.3655 91.4262 61.2528 91.622C61.2409 91.6457 61.2231 91.6635 61.2053 91.6873C61.1934 91.6991 61.1816 91.7169 61.1697 91.7288C61.146 91.8238 61.0629 91.9009 61.0095 91.978C60.8315 92.1917 60.6416 92.3993 60.4398 92.6011C60.1668 92.8741 59.8939 93.147 59.5853 93.3844C58.9741 93.8294 58.268 94.1321 57.55 94.3635H57.5559ZM80.8468 77.6C80.7577 77.8136 80.4433 77.7009 80.4967 77.4813C80.6509 76.9057 81.0426 76.4132 81.452 75.9919C81.9861 75.4282 82.7041 75.0543 83.4577 74.8882C83.8375 74.817 84.2232 74.8407 84.603 74.8763C84.6979 74.8822 84.7691 74.9831 84.7573 75.0721C84.7217 75.2917 84.4665 75.2086 84.3063 75.2027C84.0214 75.1849 83.7722 75.1849 83.4874 75.2383C82.9296 75.3807 82.3777 75.624 81.9445 76.0097C81.458 76.4488 81.0426 76.9591 80.8468 77.5941V77.6ZM80.6687 75.897C81.2087 75.0069 82.1226 74.455 83.1254 74.2473C83.428 74.1939 83.2916 73.8082 83.0067 73.9209C82.4667 74.0574 81.9327 74.2473 81.4698 74.5618C81.1672 74.7636 80.9002 75.0128 80.6628 75.2917C80.556 75.4222 80.4551 75.5528 80.3661 75.6952C80.3186 75.7723 80.3424 75.8792 80.4136 75.9326C80.4907 75.9919 80.6153 75.98 80.6687 75.897ZM99.4142 72.2535C99.4676 72.028 99.5269 71.8025 99.5922 71.577C99.5447 71.666 99.5091 71.7906 99.4676 71.9746C99.4498 72.0636 99.432 72.1586 99.4142 72.2476V72.2535ZM86.4662 84.9403C87.0596 84.7148 87.659 84.5072 88.2405 84.2461C88.6618 84.0502 89.0653 83.8248 89.457 83.5755C90.5607 82.8812 91.5339 82.009 92.5367 81.1782C93.3971 80.4305 94.3762 79.7896 95.0468 78.8402C95.3909 78.3299 95.6817 77.784 95.9606 77.2321C96.2929 76.6328 96.5837 75.7011 97.2542 75.4163C98.1977 75.1315 98.5004 74.0515 98.7911 73.2148C98.892 72.8766 98.9691 72.5265 99.0403 72.1764C99.1115 71.8619 99.1472 71.5117 99.3489 71.2507C99.5091 71.0786 99.7287 70.9896 99.9304 70.8709C100.18 70.5326 100.476 70.23 100.5 69.7731C100.607 68.6516 100.097 68.0107 101.183 67.2096C101.794 66.4679 101.129 65.5184 101.26 64.6817C101.734 63.8272 101.93 63.2576 101.859 62.593C101.8 62.3497 101.734 62.1064 101.663 61.869C101.657 61.7326 101.628 61.5901 101.598 61.4596C101.556 61.2994 101.509 61.1451 101.461 60.9849C101.438 60.9137 101.414 60.8425 101.384 60.7712C101.361 60.706 101.343 60.6407 101.313 60.5754C101.307 60.5576 101.301 60.5398 101.295 60.528C101.23 60.2728 101.159 60.0176 101.076 59.7684C100.993 59.5251 100.91 59.2878 100.815 59.0504C100.779 58.9555 100.737 58.8605 100.696 58.7656C100.761 58.7537 100.832 58.7774 100.886 58.8368C101.04 59.1394 101.188 59.448 101.331 59.7565C101.461 59.8633 101.485 60.1304 101.574 60.2787C101.711 60.5932 101.841 60.9137 101.954 61.24C101.972 61.2816 101.99 61.3231 102.001 61.3706C102.179 61.8334 102.286 62.2013 102.328 62.5218C102.53 63.3407 102.66 64.1774 102.731 65.014C103.253 69.4052 102.227 73.8735 99.7643 77.5466C99.5566 77.8908 99.343 78.229 99.1234 78.5554C96.8626 82.1988 92.8275 85.7118 88.9585 85.8838C88.8932 85.8779 88.7508 85.872 88.5787 85.872C88.5431 85.872 88.5016 85.872 88.466 85.872C88.466 85.8482 88.466 85.8186 88.466 85.7948C88.4957 85.777 88.5194 85.7592 88.5431 85.7414C88.5906 85.6999 88.6203 85.6583 88.6559 85.6049C88.6915 85.5575 88.7034 85.4981 88.7152 85.4447C88.7271 85.3973 88.7152 85.3498 88.7152 85.3082C88.1812 85.3617 87.6412 85.3854 87.1012 85.3795C86.9113 85.3617 86.4722 85.4032 86.3891 85.1896C86.3535 85.0946 86.401 84.9819 86.4959 84.9463L86.4662 84.9403ZM96.643 70.1173C96.6964 70.0401 96.6786 69.9214 96.5955 69.874C96.3997 69.7553 96.198 69.6307 96.0021 69.5061C95.474 69.1678 94.9934 68.7643 94.5839 68.2896C94.3288 67.987 94.1151 67.7081 93.9075 67.3817C93.8066 67.2512 93.7532 67.0672 93.6226 66.9663C93.5277 66.9188 93.4031 66.9723 93.3793 67.085C93.3675 67.1384 93.3793 67.1799 93.409 67.2215C93.498 67.3758 93.587 67.53 93.6879 67.6843C94.1923 68.4379 94.8035 69.1263 95.5512 69.6425C95.8301 69.8384 96.1149 70.0223 96.4175 70.1825C96.4947 70.2241 96.5955 70.1944 96.643 70.1232V70.1173ZM94.5543 71.3634C94.6136 71.2922 94.6077 71.1794 94.5365 71.1201C94.3822 70.9896 94.2338 70.8471 94.0914 70.7047C93.8896 70.503 93.6998 70.2953 93.5039 70.0876C92.8453 69.3874 92.3349 68.5566 92.0264 67.6428C91.9967 67.5716 91.9789 67.4885 91.9196 67.4351C91.8365 67.358 91.6822 67.3936 91.6466 67.5063C91.6288 67.5538 91.6347 67.6072 91.6644 67.6547C91.7237 67.8267 91.7831 67.9988 91.8484 68.1709C92.1985 69.0551 92.7503 69.8443 93.409 70.5208C93.6642 70.7937 93.9371 71.0548 94.216 71.3041C94.2991 71.399 94.4415 71.4821 94.5483 71.3634H94.5543ZM91.3558 70.4792C91.3558 70.4792 91.344 70.4614 91.344 70.4555C91.338 70.4555 91.3321 70.4555 91.3262 70.4496C91.3262 70.4496 91.3262 70.4496 91.3202 70.4496C91.3499 70.4911 91.3855 70.5386 91.4152 70.5801C91.3974 70.5445 91.3796 70.5148 91.3558 70.4792ZM90.9227 69.5595C90.9879 69.5357 91.0591 69.5179 91.1244 69.5298C90.9761 69.2806 90.8396 69.0254 90.715 68.7643C90.6675 68.6753 90.62 68.5507 90.5073 68.5448C90.3767 68.5329 90.2759 68.6872 90.353 68.7999C90.4895 69.0669 90.62 69.334 90.7684 69.5951C90.8158 69.5773 90.8693 69.5595 90.9227 69.5535V69.5595ZM96.6489 67.2037C96.6905 67.1206 96.6549 67.0138 96.5718 66.9782C96.4472 66.9188 96.3285 66.8536 96.2098 66.7883C95.5334 66.3492 94.8094 65.9101 94.3466 65.2336C94.3347 64.931 93.9015 65.0378 94.0083 65.3226C94.0558 65.4472 94.1448 65.554 94.2279 65.6608C94.7026 66.2305 95.3197 66.6696 95.9547 67.0435C96.109 67.1265 96.2632 67.2096 96.4235 67.2808C96.5065 67.3164 96.6074 67.2927 96.6489 67.2037ZM96.6252 65.1505C96.6549 65.0615 96.6074 64.9606 96.5184 64.931C96.3819 64.8894 96.2514 64.842 96.1208 64.7885C95.5749 64.5512 95.0527 64.2545 94.5602 63.9222C94.4296 63.8747 94.305 64.0053 94.3466 64.1299C94.3822 64.2248 94.483 64.2664 94.5543 64.3257C94.7797 64.48 95.0112 64.6165 95.2485 64.747C95.5749 64.925 95.9131 65.0912 96.2692 65.2099C96.3879 65.2573 96.5659 65.3107 96.6252 65.1505ZM84.7098 59.1869C84.6326 59.2403 84.5199 59.2165 84.4665 59.1394C84.33 58.9436 84.2113 58.73 84.0986 58.5223C83.8078 57.9407 83.4993 57.3473 83.3924 56.7005C83.3628 56.4988 83.3628 56.297 83.3687 56.0953C83.339 55.8935 83.6298 55.8223 83.6951 56.0181C83.7247 56.1131 83.701 56.2199 83.7069 56.3208C83.7069 56.7183 83.8316 57.0803 83.9858 57.4482C84.1579 57.8399 84.3478 58.2493 84.5674 58.6469C84.6326 58.813 84.9175 59.0267 84.7038 59.1928L84.7098 59.1869ZM82.3659 59.4361C82.1107 59.537 82.0514 59.1335 81.9564 58.9733C81.7013 58.3621 81.6122 57.6974 81.6182 57.0388C81.6182 56.8964 81.6004 56.6531 81.8081 56.659C81.8911 56.6649 81.9564 56.7361 81.9624 56.8192C81.9624 57.1219 81.9623 57.4245 81.998 57.7212C82.0454 58.1247 82.1522 58.5163 82.3006 58.8902C82.3481 59.0623 82.5854 59.2996 82.3599 59.4302L82.3659 59.4361ZM80.0516 59.899C79.9626 59.9286 79.8677 59.8752 79.838 59.7862C79.7371 59.5014 79.654 59.2047 79.5947 58.908C79.4641 58.3561 79.4226 57.7805 79.4938 57.2168C79.5235 57.0388 79.5294 56.8489 79.5888 56.6827C79.6778 56.5047 79.9448 56.6056 79.9033 56.7955C79.8558 57.0922 79.8202 57.3948 79.8083 57.6915C79.7964 58.1959 79.9033 58.6884 80.016 59.1809C80.0575 59.3471 80.105 59.5192 80.1644 59.6853C80.194 59.7743 80.1406 59.8752 80.0516 59.899ZM91.6347 72.7341C91.7178 72.6748 91.7297 72.5621 91.6703 72.479C91.5576 72.3247 91.4508 72.1645 91.338 72.0043C91.1956 71.7788 91.0591 71.5533 90.9405 71.31C90.7921 70.9718 90.6497 70.6335 90.5844 70.2656C90.5191 69.8977 90.5013 69.5239 90.4717 69.15C90.4657 69.0669 90.4539 68.972 90.3945 68.9127C90.2937 68.8059 90.1156 68.8711 90.08 69.0017C90.1275 69.3993 90.1453 69.8146 90.1987 70.2122C90.2996 70.8649 90.5666 71.488 90.9108 72.0517C91.0532 72.2832 91.2075 72.5087 91.3974 72.7104C91.4567 72.7757 91.5695 72.7816 91.6347 72.7282V72.7341ZM91.4211 88.7262H91.4448C91.3084 88.7262 91.1778 88.7203 91.0413 88.7144C90.8218 88.6906 90.8515 88.3702 91.071 88.382C91.5517 88.3939 92.0382 88.4058 92.507 88.2812C92.6673 88.2337 92.8275 88.1803 92.9758 88.1032C93.053 87.9667 93.2784 88.0141 93.3022 88.1684C93.3497 88.4414 92.7147 88.5779 92.5189 88.6372C92.1629 88.7262 91.789 88.7381 91.4211 88.7262ZM59.4488 96.0428C60.2321 95.6512 61.0035 95.2121 61.6681 94.6365C62.309 94.0371 62.8431 93.331 63.3059 92.5833C63.4721 92.2985 63.656 92.0196 63.84 91.7466C63.9112 91.5923 63.7154 91.438 63.5789 91.5389C63.5255 91.5745 63.4899 91.6398 63.4543 91.6873C63.027 92.2569 62.5048 92.7554 62.0123 93.2657C61.3536 93.9303 60.5704 94.4584 59.7633 94.9154C59.4014 95.1112 59.0275 95.3189 58.6299 95.4316C58.5469 95.4197 58.4638 95.4732 58.4401 95.5562C58.3807 96.1081 59.5082 95.4257 59.7218 95.3367C59.704 95.3723 59.6981 95.4079 59.704 95.4494C59.5972 95.5266 59.4963 95.5978 59.3836 95.663C59.2827 95.7224 59.1343 95.7758 59.1521 95.9182C59.1699 96.0725 59.3361 96.1081 59.4548 96.0369L59.4488 96.0428ZM61.9826 93.7938C61.9826 93.7938 61.9826 93.782 61.9767 93.776C62.0123 93.7404 62.0539 93.7048 62.0895 93.6692C62.0539 93.7108 62.0182 93.7523 61.9826 93.7938ZM62.0004 96.4048C62.0123 96.3395 62.0657 96.292 62.1132 96.2446C61.9411 96.3632 61.3714 96.7786 61.3477 96.3454C61.3596 96.2624 61.4249 96.2149 61.502 96.203C61.7334 96.1081 61.9411 95.9538 62.131 95.7936C63.0508 94.9747 63.8697 94.0253 64.4868 92.9512C64.5817 92.7554 64.6529 92.5358 64.7835 92.3637C64.9022 92.2391 65.1099 92.3637 65.0742 92.524C65.0208 92.7257 64.9022 92.9097 64.8013 93.0877C64.4927 93.7701 64.1545 94.4525 63.6976 95.0518C63.5255 95.3604 63.2941 95.6334 63.0686 95.9004C62.8253 96.1674 62.5642 96.4404 62.2437 96.6125C62.1132 96.6659 61.9589 96.5413 62.0004 96.3989V96.4048Z" fill="url(#paint27_linear_2130_5221)"/>
<path fill-rule="evenodd" clip-rule="evenodd" d="M92.3171 86.0737C92.3171 86.0737 92.3231 86.0797 92.329 86.0856C92.3468 86.0856 92.3646 86.0737 92.3824 86.0737C92.3943 86.0737 92.4061 86.0678 92.418 86.0619C92.418 86.0619 92.418 86.0559 92.4121 86.05C92.3824 86.0559 92.3527 86.0678 92.3231 86.0737H92.3171ZM103.283 80.9824C103.295 81.0417 103.248 81.0951 103.206 81.1307C103.064 81.2316 102.909 81.3266 102.761 81.4215C101.556 82.2107 100.346 82.9881 99.0819 83.6824C97.272 84.6733 95.4384 85.6584 93.4387 86.2162C93.1835 86.2992 92.9224 86.3704 92.6672 86.4476C92.4121 86.5425 92.1451 86.6315 91.8662 86.6256C91.5161 86.6019 91.166 86.4535 90.8218 86.323C90.7743 86.323 90.7328 86.323 90.6853 86.323C90.4479 86.2518 90.2106 86.1865 89.9732 86.1212C89.6587 86.0381 89.3442 85.9551 89.0297 85.8779C89.0357 85.8779 89.0475 85.8779 89.0535 85.8779C88.4541 85.7296 87.8489 85.599 87.2436 85.4744C87.0418 85.4329 86.8341 85.3913 86.6324 85.3557C86.4662 85.2489 86.3772 85.1302 86.4247 85.0056C86.668 84.9641 86.9172 84.9226 87.1605 84.881C87.1842 84.881 87.208 84.8751 87.2258 84.8691C88.2049 84.8098 89.184 84.7149 90.1572 84.5546C94.0617 83.8485 97.8239 82.5134 101.533 81.1129C101.853 80.9883 102.173 80.8518 102.5 80.7391C102.702 80.6798 102.915 80.5729 103.129 80.6145C103.253 80.6798 103.259 80.7628 103.218 80.8518C103.259 80.8696 103.289 80.9112 103.289 80.9587L103.283 80.9824Z" fill="white"/>
<path fill-rule="evenodd" clip-rule="evenodd" d="M90.3886 85.9788C90.3174 85.9966 90.264 86.0619 90.2758 86.139C90.2877 86.1924 90.3352 86.2399 90.3886 86.2518C90.442 86.323 90.5785 86.323 90.6734 86.3348C90.8455 86.3645 91.0176 86.4001 91.1837 86.4476C91.433 86.5188 91.6703 86.6137 91.9077 86.7206C92.0323 86.7799 92.1688 86.8274 92.3112 86.8036C92.9639 86.6315 93.587 86.3467 94.2219 86.1094C94.8272 85.872 95.4206 85.6228 96.014 85.3498C96.8091 84.976 97.5746 84.5606 98.3698 84.1927C99.4557 83.6942 100.494 83.1008 101.479 82.4244C102.049 82.0268 102.624 81.6233 103.099 81.1129C103.182 81.0002 103.372 80.8518 103.319 80.7094C103.337 80.6798 103.348 80.6382 103.331 80.5967C103.313 80.5373 103.259 80.5017 103.194 80.5017C103.158 80.5017 103.117 80.5195 103.099 80.5492C102.986 80.6323 102.868 80.7094 102.749 80.7925C101.384 81.7419 99.877 82.454 98.3638 83.1364C96.8447 83.8188 95.2663 84.347 93.7116 84.9285C92.7918 85.2667 91.8365 85.6168 90.893 85.8542C90.7268 85.8957 90.5607 85.9313 90.3886 85.9729V85.9788Z" fill="#D7D7D7"/>
<path fill-rule="evenodd" clip-rule="evenodd" d="M83.6713 78.4011C85.3091 77.8433 84.1342 75.5825 82.6744 76.3301C81.6538 76.971 82.532 78.7571 83.6713 78.4011Z" fill="#5E5555"/>
<path fill-rule="evenodd" clip-rule="evenodd" d="M20.0887 80.0864C20.1243 79.398 20.4507 78.769 20.8245 78.1994C21.2162 77.5822 21.5485 76.9651 21.8808 76.3064C21.9164 76.2411 21.9935 76.2115 22.0588 76.2471C22.1241 76.2767 22.1538 76.3598 22.1182 76.4251C21.9342 76.7811 21.7503 77.1431 21.5544 77.4932C21.6968 77.5644 21.6019 77.7306 21.5782 77.8492C21.5188 78.0866 21.4714 78.324 21.4298 78.5673C21.3349 79.1132 21.2637 79.6591 21.1569 80.205C21.0916 80.5195 21.0263 80.8934 20.7355 81.0773C20.1777 81.3325 20.0472 80.4721 20.0769 80.0864H20.0887ZM58.268 77.4932C58.2561 77.3864 58.2502 77.2855 58.2383 77.1787C58.2383 77.1787 58.2383 77.1846 58.2383 77.1906C58.2086 77.0838 58.2976 76.9829 58.4044 77.0185C58.535 77.0719 58.5053 77.238 58.5231 77.3508C58.5409 77.5169 58.5528 77.689 58.5706 77.8552C58.8495 78.2824 59.1046 78.7215 59.342 79.1725C59.6565 79.7541 60.0481 80.6976 59.342 81.1426C58.8435 81.3266 58.7189 80.6323 58.6477 80.2822C58.5587 79.8312 58.4994 79.404 58.4282 78.947C58.3807 78.6147 58.3392 78.2765 58.3036 77.9442C58.2501 77.8611 58.1967 77.784 58.1433 77.7068C58.0781 77.6178 58.1552 77.4873 58.262 77.4932H58.268ZM55.1763 79.1073C55.2476 79.0716 55.3425 79.1072 55.3662 79.1844C55.3425 79.0657 55.4374 78.953 55.5621 79.0064C55.6511 79.0479 55.6451 79.1488 55.6451 79.2319C55.6451 79.4218 55.6511 79.6057 55.6629 79.8134C55.8291 80.1635 56.0012 80.5077 56.1792 80.8518C56.5352 81.5699 57.4609 83.2907 56.6064 83.9019C55.924 84.1749 55.7579 83.2432 55.657 82.7626C55.5443 82.1633 55.4908 81.552 55.4434 80.9468C55.4196 80.5907 55.3959 80.2347 55.384 79.8727C55.295 79.6828 55.206 79.487 55.117 79.2912C55.0873 79.2259 55.1051 79.1429 55.1763 79.1073ZM51.9423 81.0892C51.8711 81.1129 51.8355 81.196 51.8593 81.2613C52.0788 81.8487 52.3162 82.4303 52.5713 83.0059C52.7316 83.261 52.7375 83.5577 52.7672 83.8485C52.8324 84.4538 52.8918 85.0531 52.9748 85.6584C53.0223 86.139 53.1825 86.857 53.7937 86.8392C54.9212 86.6078 53.4377 84.0977 53.141 83.5221C53.0817 83.4094 53.0164 83.2907 52.963 83.178C52.9155 82.8397 52.8621 82.5074 52.779 82.1811C52.7672 81.9971 52.5239 81.9674 52.5001 82.1573C52.3636 81.8309 52.2331 81.5046 52.1144 81.1723C52.0907 81.1011 52.0135 81.0655 51.9423 81.0892ZM49.2958 83.5755C49.361 83.5518 49.4441 83.5874 49.4679 83.6586C49.6874 84.3707 49.9485 85.0709 50.2274 85.7592C50.4944 86.4951 51.6278 88.8508 50.6784 89.3196C50.0257 89.4264 49.9129 88.2218 49.7705 87.7709C49.6281 87.1478 49.5391 86.5129 49.4738 85.8779C49.4085 85.2667 49.3551 84.6555 49.272 84.0503C49.272 84.0265 49.272 84.0028 49.2839 83.979C49.2602 83.8485 49.1178 83.6527 49.2898 83.5755H49.2958ZM46.3763 86.4773C46.311 86.5129 46.2873 86.59 46.3169 86.6553C46.5246 87.0706 46.7323 87.486 46.9519 87.8955C46.9815 88.1032 47.0112 88.3049 47.0409 88.4948C47.1358 89.0941 47.2604 89.6935 47.385 90.2809C47.5215 90.7853 47.6461 92.0849 48.4294 91.806C49.2839 91.2007 48.0793 89.4146 47.7292 88.7322C47.5571 88.4295 47.385 88.1269 47.2189 87.8183C47.1655 87.2961 47.0824 86.7562 47.1952 86.2399C47.2189 86.1687 47.1773 86.0975 47.1121 86.0737C46.7857 85.9788 46.8866 86.9816 46.8806 87.1715C46.7738 86.9579 46.6611 86.7443 46.5602 86.5307C46.5246 86.4654 46.4415 86.4416 46.3822 86.4713L46.3763 86.4773ZM43.5398 88.0082C43.6051 87.9845 43.6882 88.0201 43.7119 88.0913C43.7534 88.2218 43.8009 88.3524 43.8425 88.4829C43.9137 88.4651 43.9908 88.5126 44.0027 88.5838C44.0442 88.7915 44.0739 88.9992 44.0976 89.2069C44.3528 89.8952 44.6079 90.5776 44.8928 91.2541C45.2073 92.073 45.7057 92.9038 45.6404 93.8057C45.6167 94.0668 45.4802 94.3932 45.1776 94.3991C44.8572 94.4347 44.6554 94.138 44.5783 93.8651C44.424 93.4319 44.3528 92.975 44.2697 92.524C44.0976 91.6339 43.9849 90.7319 43.8959 89.8299C43.8781 89.646 43.8543 89.4561 43.8365 89.2722C43.706 88.9102 43.5814 88.5482 43.4627 88.1803C43.4389 88.1091 43.4745 88.032 43.5458 88.0082H43.5398ZM40.9289 91.0464C40.8043 91.0227 40.7152 91.1829 40.8043 91.2719C40.8814 91.3787 40.917 91.5152 40.9585 91.6398C41.1188 92.2213 41.2078 92.8147 41.3146 93.4081C41.4155 93.9956 41.5045 94.589 41.6053 95.1824C41.7359 95.7402 41.7774 96.9863 42.6082 96.8261C43.2313 96.5947 42.9405 95.4613 42.7684 94.9925C42.4776 94.1796 42.1038 93.3903 41.7656 92.6011C41.5519 92.1027 41.3442 91.6101 41.1366 91.1117C41.1069 91.0286 40.9941 90.993 40.9229 91.0523L40.9289 91.0464ZM38.6977 95.2239C38.7274 94.9154 38.7808 94.6009 38.846 94.2923C38.8579 94.233 38.9054 94.1914 38.9588 94.1796C38.9588 94.0846 38.9588 93.9837 38.9469 93.8829C38.8816 93.7108 39.1368 93.604 39.208 93.782C39.2199 93.8532 39.2258 93.9303 39.2317 94.0015C39.3386 94.0193 39.3564 94.1439 39.3682 94.233C39.392 94.4288 39.4098 94.6187 39.4335 94.8145C39.4513 95.4435 40.0091 98.2325 39.3326 98.4164C38.5256 98.6122 38.5968 95.7046 38.7036 95.218L38.6977 95.2239ZM36.2944 94.5356C36.3656 93.96 36.5971 93.4259 36.7395 92.8622C36.8463 92.4231 36.9056 91.9721 36.9709 91.5211C37.0065 91.3431 37.2676 91.3965 37.2379 91.5686C37.2201 91.7051 37.2023 91.8416 37.1786 91.978C37.2795 91.9959 37.2913 92.0908 37.2795 92.1857C37.4278 92.1857 37.4397 92.3756 37.4397 92.4943C37.4575 92.9156 37.4516 93.3369 37.4456 93.7642C37.4456 94.2092 37.4397 94.6543 37.4041 95.0993C37.3744 95.396 37.3566 95.7105 37.2083 95.9716C37.0896 96.1971 36.781 96.3158 36.5911 96.1022C36.2648 95.663 36.2292 95.0637 36.3004 94.5356H36.2944ZM34.3184 90.9989C34.4074 90.726 34.4846 90.4471 34.5558 90.1682C34.6092 90.0436 34.5795 89.7647 34.7813 89.7884C34.8703 89.8062 34.894 89.8715 34.8881 89.9427C34.8999 89.9427 34.9059 89.9427 34.9177 89.9368C35.0483 89.9249 35.0839 90.0495 35.0602 90.1622C35.0958 90.2572 35.0958 90.3818 35.1076 90.4649C35.1373 90.8803 35.1432 91.2956 35.1492 91.711C35.1432 92.2985 35.1136 92.8919 35.0008 93.4734C34.9534 93.7345 34.8287 94.0549 34.5439 94.1202C33.992 94.1855 33.992 93.0818 33.992 92.7079C33.992 92.1205 34.1285 91.5508 34.3244 90.9989H34.3184ZM31.8024 90.7556C31.838 90.1029 32.022 89.4858 32.289 88.8864C32.4611 88.4592 32.5916 88.0201 32.7162 87.581C32.734 87.5098 32.8171 87.4742 32.8824 87.4979C33.0367 87.5572 32.9477 87.7293 32.918 87.8421C33.1257 87.8717 33.0189 88.1388 33.0307 88.2812C33.0129 88.7144 32.9892 89.1475 32.9773 89.5748C32.9239 90.1979 33.0426 91.806 32.4611 92.1264C31.7905 92.2985 31.7549 91.1888 31.7965 90.7556H31.8024ZM30.0163 85.6524C30.0163 85.5515 29.9451 85.421 30.0519 85.3498C30.224 85.2549 30.2892 85.4625 30.2833 85.5931C30.2952 86.3526 30.5859 89.8952 29.9451 90.1682C29.4526 90.3462 29.2983 89.5095 29.2389 89.1772C29.0253 87.9429 29.5297 86.7621 30.0103 85.6524H30.0163ZM26.9128 86.0381C27.0493 85.4566 27.4053 84.9582 27.6308 84.4122C27.8088 83.985 27.9453 83.5281 28.0581 83.0771C28.0759 83.0059 28.1589 82.9703 28.2242 82.9881C28.2954 83.0118 28.331 83.0889 28.3132 83.1542C28.2776 83.2907 28.242 83.4272 28.2064 83.5637C28.4141 83.6111 28.2954 83.8841 28.2895 84.0325C28.2302 84.436 28.1589 84.8395 28.0937 85.243C27.9987 85.8305 27.9038 86.4238 27.7614 86.9994C27.702 87.2546 27.6071 87.581 27.3223 87.664C26.5805 87.7293 26.7941 86.4773 26.9128 86.0322V86.0381ZM25.1623 81.8191C25.275 81.3444 25.364 80.8696 25.4471 80.3949C25.4827 80.2228 25.7379 80.2703 25.7082 80.4424C25.6607 80.7094 25.6133 80.9824 25.5599 81.2494C25.6548 81.2672 25.6845 81.374 25.6904 81.4571C25.7141 81.6767 25.7082 81.9022 25.7082 82.1217C25.7023 82.7923 25.6667 83.4569 25.5836 84.1215C25.5124 84.5309 25.548 85.0294 25.2572 85.3617C25.1682 85.4447 25.0377 85.4863 24.9249 85.4269C24.5867 85.2192 24.5808 84.7505 24.5689 84.4004C24.5689 83.5043 24.9546 82.6795 25.1623 81.8191ZM22.1834 82.8338C22.2843 83.0652 22.5751 83.2254 22.8006 83.0533C23.21 82.7329 23.1981 81.9318 23.305 81.4452C23.394 80.8518 23.4592 80.2525 23.5838 79.665C23.5898 79.5345 23.7085 79.3802 23.6135 79.2675C23.6551 79.1725 23.6907 79.0776 23.7263 78.9767C23.7797 78.8106 23.5304 78.7275 23.4711 78.8936C23.2278 79.5167 22.9548 80.1279 22.6878 80.7391C22.4149 81.3859 21.9045 82.1158 22.1894 82.8338H22.1834Z" fill="url(#paint28_linear_2130_5221)"/>
<path fill-rule="evenodd" clip-rule="evenodd" d="M22.9726 79.6294C21.8096 78.6444 20.6584 77.6475 19.525 76.6268C19.3292 76.4488 19.5369 76.1818 19.7327 76.2233C20.7237 75.2324 22.0173 74.5737 23.2278 73.8853C24.8715 73.013 26.7348 72.6214 28.5625 72.3306C36.8938 70.9065 44.3706 73.1911 52.15 75.891C53.7997 76.3776 55.5265 76.6743 57.2532 76.6446H57.2651C57.4728 76.6506 57.6864 76.6446 57.9 76.6446C58.2205 76.6387 58.535 76.615 58.8495 76.5794C59.1818 76.5378 59.5141 76.4963 59.8464 76.431C59.9295 76.4132 60.0125 76.4014 60.1015 76.3836C60.1609 76.4488 60.1609 76.5438 60.1075 76.6506C60.0956 76.6862 60.0778 76.7159 60.06 76.7396C59.5853 77.4873 57.3838 78.8936 57.0693 79.2437C55.5205 80.4483 54.0548 81.7538 52.5832 83.0533C49.9663 85.3795 47.3138 87.6522 44.6376 89.913C42.982 91.349 41.3561 92.8147 39.6234 94.1499C39.5878 94.1796 39.5522 94.2092 39.5166 94.2389C39.4632 94.2864 39.4038 94.3279 39.3504 94.3754C39.3148 94.3635 39.2852 94.3576 39.2496 94.3457C39.1427 94.2567 39.0419 94.1677 38.935 94.0787C38.5197 93.6989 38.0865 93.331 37.683 92.9275C37.1964 92.4409 36.7157 91.9543 36.2351 91.4677C33.0248 88.7618 29.9807 85.8245 26.8297 83.0474C25.5302 81.92 24.2366 80.7747 22.9667 79.6176L22.9726 79.6294ZM82.2946 71.2447C80.734 73.9447 77.9391 76.0987 74.7466 76.2115C74.7229 76.1996 74.6991 76.1877 74.6754 76.1759C74.6517 76.1581 74.6279 76.1403 74.6042 76.1225C74.4321 75.986 74.2481 75.8732 74.0523 75.7664C74.0523 75.7664 74.0583 75.7664 74.0642 75.7664C74.0523 75.7605 74.0405 75.7546 74.0286 75.7486C74.0405 75.7486 74.0464 75.7605 74.0523 75.7605C73.5361 75.4816 72.9723 75.2798 72.4146 75.1018C72.1238 75.0069 71.833 74.9179 71.5363 74.8467C71.2574 74.7814 70.9726 74.7339 70.6818 74.7042C70.397 74.6746 70.1122 74.6508 69.8273 74.639C69.5247 74.6271 69.228 74.639 68.9254 74.6627C68.6287 74.6924 68.332 74.7517 68.0412 74.811C67.7564 74.8704 67.4715 74.9297 67.1867 75.0009C66.7773 75.1018 66.3678 75.2146 65.9821 75.3748C65.9346 75.3926 65.8872 75.4163 65.8397 75.44C65.81 75.4519 65.7804 75.4579 65.7507 75.4697C65.6736 75.4935 65.5964 75.5231 65.5193 75.5528C65.4184 75.4104 65.3294 75.2442 65.2344 75.1433C65.0149 74.8229 64.8191 74.4847 64.6054 74.1583C64.6054 74.1583 64.6173 74.1464 64.6232 74.1464L64.6588 74.1227C64.6588 74.1227 64.6648 74.0871 64.6766 74.0693C64.9496 73.7667 65.3116 73.5412 65.6142 73.2623C66.0533 72.8825 66.5102 72.5205 66.979 72.1823L67.0443 72.123C67.4181 71.7847 67.786 71.4405 68.1718 71.1142C68.6524 70.7047 69.1627 70.3368 69.6849 69.9808C70.0825 69.7197 70.486 69.4764 70.9073 69.2568C71.1625 69.1204 71.4295 69.0076 71.7025 68.9067C72.1416 68.7465 72.5926 68.6219 73.0376 68.4973C73.0376 68.4973 73.0376 68.4973 73.0317 68.4973C73.0317 68.4973 73.0317 68.4973 73.0376 68.4973C73.2809 68.432 73.5242 68.3667 73.7734 68.3074C74.0286 68.2481 74.2838 68.2006 74.5389 68.1531C74.533 68.1531 74.5211 68.1531 74.5152 68.1531C74.8653 68.0938 75.2213 68.0463 75.5714 67.9988C75.9453 67.9454 76.325 67.9039 76.6989 67.8683C76.687 67.8683 76.6751 67.8683 76.6573 67.8683C76.9718 67.8386 77.2923 67.8149 77.6068 67.803C77.9213 67.7912 78.2299 67.7852 78.5444 67.7852C78.7936 67.7852 79.0428 67.7912 79.292 67.803C79.5413 67.8149 79.7905 67.8268 80.0397 67.8446C80.3423 67.8802 80.645 67.9276 80.9476 67.987C81.2443 68.0463 81.541 68.1175 81.8436 68.1769C82.1403 68.2421 82.443 68.3015 82.7397 68.3608C82.8643 68.3845 82.9889 68.4083 83.1194 68.432C83.155 68.4736 83.161 68.521 83.1491 68.5685C83.9739 68.4914 82.437 70.8828 82.2828 71.2447H82.2946ZM71.7143 68.8889C71.7143 68.8889 71.7262 68.8889 71.7321 68.883C71.7321 68.883 71.7203 68.883 71.7143 68.8889Z" fill="url(#paint29_linear_2130_5221)"/>
<path fill-rule="evenodd" clip-rule="evenodd" d="M39.5403 90.1088C39.6056 90.1266 39.6827 90.1088 39.7302 90.0614C44.786 85.2311 50.0909 80.6085 55.8706 76.6565C55.8706 76.6565 55.8706 76.6565 55.8647 76.6565C55.7757 76.6565 55.6926 76.6506 55.6036 76.6387C55.5087 76.6268 55.4137 76.615 55.3129 76.6031C55.1526 76.5853 54.9983 76.5616 54.8381 76.5319C54.5118 76.4785 54.1913 76.4132 53.8709 76.342C53.5801 76.2767 53.2894 76.1996 52.9986 76.1106C52.9571 76.0987 52.9215 76.0868 52.8799 76.075C51.5982 76.8642 50.3817 77.7424 49.1771 78.6444C46.8807 80.3118 44.5842 81.9793 42.448 83.8544C41.5282 84.6674 40.6559 85.5397 39.8014 86.4238C39.5641 86.1805 39.2496 85.9491 39.1487 85.8126C37.7423 84.4894 36.2707 83.2373 34.7397 82.0564C30.9895 79.214 27.2511 76.2945 23.1744 73.9328C23.1447 73.9506 23.1151 73.9625 23.0854 73.9803C22.9608 74.0455 22.8362 74.1168 22.7116 74.182C22.7234 74.188 22.7353 74.1939 22.7472 74.2058C22.6048 74.2354 22.4445 74.3482 22.3021 74.4431C22.2012 74.4906 22.1004 74.5381 22.0054 74.5915C22.0054 74.5915 21.9936 74.5855 21.9876 74.5796C21.8452 74.6567 21.7028 74.7398 21.5544 74.817C21.5722 74.8407 21.59 74.8644 21.6138 74.8822C26.5865 78.5198 31.209 82.6379 35.9265 86.5959C36.7395 87.3733 37.5762 88.1684 38.3357 88.9754C38.3595 89.0051 38.3891 89.0348 38.4129 89.0585C38.4781 89.1238 38.5494 89.1891 38.6146 89.2484C38.8401 89.462 39.0478 89.6816 39.2614 89.9071C39.3267 89.9783 39.392 90.0495 39.4573 90.1207C39.481 90.1148 39.5047 90.1029 39.5225 90.091L39.5403 90.1088Z" fill="#F4E2A9"/>
<path fill-rule="evenodd" clip-rule="evenodd" d="M23.1158 73.9625C23.1158 73.9625 23.1095 73.9625 23.1032 73.9688C23.1032 73.9688 23.1158 73.9688 23.1158 73.9625Z" fill="#F4E2A9"/>
<path fill-rule="evenodd" clip-rule="evenodd" d="M71.9813 73.737C72.9189 73.7014 73.8684 73.6539 74.7881 73.4403C75.696 73.2089 76.6039 72.93 77.4347 72.4849C77.9865 72.1823 78.5265 71.8441 79.019 71.4405C79.7193 70.8353 80.3305 70.1054 80.823 69.3221C81.0603 68.9245 81.2502 68.5032 81.4164 68.076C81.357 68.076 81.2977 68.0641 81.2384 68.0582C81.2028 68.0582 81.1672 68.0522 81.1315 68.0463C81.1315 68.0463 81.1315 68.0463 81.1315 68.0582C81.1078 68.0582 81.09 68.0463 81.0663 68.0404C80.8586 68.0166 80.6509 67.9929 80.4432 67.9692C80.3186 67.9632 80.194 67.9514 80.0694 67.9454C79.7964 67.9276 79.5294 67.898 79.2564 67.8683C79.2445 67.8683 79.2327 67.8683 79.2208 67.8683C79.1081 67.9039 79.0962 68.07 79.1971 68.1234C79.0487 68.4142 78.8707 68.6931 78.6749 68.9601C77.9687 69.9274 76.9956 70.6157 75.9096 71.0904C75.2806 71.3456 74.6457 71.5889 73.9811 71.7372C73.3699 71.8678 72.7409 71.9271 72.1238 71.9509C70.6759 71.9865 69.317 71.8144 68.0353 71.1142C67.9581 71.1735 67.8869 71.2269 67.8098 71.2863C67.8157 71.3041 67.8335 71.3219 67.8513 71.3337C67.8394 71.3337 67.8276 71.3456 67.8216 71.3575C67.6199 71.5117 67.43 71.6898 67.246 71.8619C67.0383 72.0399 66.8603 72.2535 66.6586 72.4315C66.623 72.4553 66.5992 72.4849 66.5933 72.5265C66.5814 72.5858 66.6111 72.6392 66.6645 72.6689C66.6704 72.6748 66.6823 72.6807 66.6942 72.6867C67.4834 73.1199 68.3676 73.3572 69.2458 73.5174C69.8985 73.642 70.5631 73.7311 71.2277 73.7548C71.4888 73.7607 71.7499 73.7607 72.0051 73.7489L71.9813 73.737Z" fill="#F4E2A9"/>
<path fill-rule="evenodd" clip-rule="evenodd" d="M30.3843 81.1307C30.4614 80.8756 30.5563 80.6323 30.6513 80.383C30.7403 80.1516 30.8352 79.9202 30.942 79.7006C30.9955 79.5938 31.0489 79.4811 31.1082 79.3802C31.1082 79.3802 31.1082 79.3802 31.1082 79.3743C30.8234 79.125 30.5326 78.8877 30.2418 78.6385C30.0282 78.4604 29.8146 78.2765 29.6069 78.0925C28.7643 77.4813 27.9276 76.8583 27.0553 76.2886C25.8804 75.4638 24.6639 74.6983 23.4178 73.9862C23.3406 73.9387 23.2635 73.8853 23.1804 73.8438C23.1092 73.8082 23.0202 73.8438 22.9846 73.9091V73.9209C22.9312 73.9387 22.8778 73.9565 22.8303 73.9684C22.4505 74.0634 22.0707 74.1583 21.7325 74.366C21.6079 74.455 21.2875 74.5915 21.4239 74.7814C21.4417 74.8051 21.4714 74.817 21.507 74.8229C21.5308 74.8407 21.5545 74.8585 21.5782 74.8704C23.8331 76.4904 25.9872 78.2409 28.1412 79.9973C28.5091 80.3 28.8474 80.5848 29.1975 80.8993C29.2687 80.9646 29.3458 81.0298 29.417 81.0951C29.6306 81.2553 29.8443 81.4156 30.0638 81.5758C30.1172 81.6173 30.1766 81.6588 30.23 81.6945C30.2774 81.5046 30.3308 81.3147 30.3902 81.1248L30.3843 81.1307Z" fill="#E8CC7A"/>
<path fill-rule="evenodd" clip-rule="evenodd" d="M39.665 89.6875C40.3118 89.5392 40.3296 88.7381 40.2702 88.204C40.2702 87.9014 39.9617 86.3408 40.4957 86.4476C41.0357 86.6197 41.3205 87.2071 41.8605 87.3851C42.181 87.486 42.5192 87.3495 42.5429 86.9876C42.5607 86.3823 42.1632 85.8482 42.0801 85.2548C41.997 84.7445 42.3056 84.5546 42.7388 84.8217C43.0414 84.9997 43.3084 85.2311 43.617 85.3973C43.7238 85.4507 43.8425 85.4922 43.9671 85.4863C44.1748 85.4863 44.3409 85.326 44.4003 85.1302C44.5783 84.4834 43.8425 83.5459 44.3528 82.9703C44.3528 82.9703 44.3469 82.9762 44.3409 82.9821C44.3409 82.9821 44.335 82.9881 44.3291 82.994C44.7623 82.638 45.7414 83.6883 46.2517 83.7179C47.1714 83.7179 46.4238 82.4243 46.311 81.9615C46.2457 81.7301 46.1745 81.4512 46.2932 81.2316C46.406 80.9824 47.1952 81.5046 47.391 81.5817C47.9013 81.8487 48.7024 82.1632 48.6371 81.2494C48.6134 80.8459 48.1921 80.1338 48.56 79.8252C49.1831 79.4751 50.1859 80.7984 50.6784 80.0685C50.9217 79.576 50.1444 78.4545 50.4648 78.229C50.6903 78.0807 51.0463 78.2587 51.2718 78.3299C51.527 78.4308 51.7703 78.5554 52.0254 78.6622C52.1738 78.7215 52.334 78.7927 52.4942 78.7512C53.1588 78.4842 52.3043 77.3508 52.5892 76.9413C52.9096 76.6387 53.8234 77.1787 54.1617 77.3389C54.2863 77.4161 54.4228 77.4873 54.5236 77.6C54.5236 77.689 54.6245 77.7365 54.7017 77.7128C55.1289 77.422 53.9955 76.9473 53.7878 76.8405C52.7909 76.3479 51.9186 76.4666 52.3637 77.7721C52.3993 77.9501 52.5595 78.3358 52.4171 78.4782C52.334 78.4782 52.2865 78.4486 52.2153 78.4248C51.6991 78.2409 50.6488 77.5466 50.1978 78.0925C49.9307 78.4842 50.2809 79.0123 50.3758 79.4158C50.4648 79.7778 50.5716 80.1457 50.0376 79.938C49.6578 79.7778 49.2958 79.5286 48.8745 79.4751C48.4769 79.4217 48.1149 79.7184 48.1209 80.1219C48.1149 80.5136 48.293 80.8756 48.3523 81.2613C48.3879 81.4749 48.3286 81.641 48.0793 81.552C47.6936 81.4452 47.3554 81.2257 46.9934 81.0595C46.7323 80.9468 46.3941 80.7569 46.1389 80.9764C45.8422 81.285 45.949 81.7657 46.0677 82.1336C46.1033 82.365 46.7798 83.6586 46.1627 83.4094C45.593 83.1958 44.697 82.2582 44.1214 82.8041C43.5992 83.4331 44.1095 84.252 44.151 84.9403C44.0205 85.8838 42.7862 83.9375 42.0326 84.525C41.3621 85.1658 42.2581 86.1983 42.27 86.9401C42.27 87.2546 41.8783 87.124 41.7241 86.9935C41.368 86.7146 41.0654 86.3526 40.6381 86.1865C40.2524 86.0322 39.9557 86.3823 39.932 86.7443C39.8014 87.4801 40.2287 88.6075 39.8786 89.2247C39.576 89.6341 39.3564 89.2306 39.214 88.9398C39.0894 88.6431 39.036 88.3108 38.9885 87.9963C38.8876 87.3733 38.8698 86.6849 38.4604 86.1687C38.1933 85.8304 37.7067 85.8423 37.3804 86.0856C37.1786 86.2161 36.6327 86.7858 36.4665 86.3764C36.3657 85.9907 36.5556 85.599 36.5793 85.2074C36.6446 84.7148 36.4666 84.0799 35.9384 83.9316C35.7307 83.8663 35.5171 83.9612 35.3154 84.0206C35.078 84.1036 34.8584 84.2342 34.627 84.3351C34.5024 84.3825 34.3719 84.436 34.2354 84.4003C33.998 84.2461 34.4193 83.4806 34.4253 83.2195C34.4549 83.0355 34.4609 82.8397 34.4193 82.6558C34.3066 82.1336 33.7844 81.641 33.2266 81.8369C32.7815 81.9555 32.4314 82.2997 31.9864 82.3828C31.8262 82.4243 31.7609 82.276 31.7253 82.1514C31.6244 81.7953 31.8024 81.4452 31.8143 81.0892C31.8558 80.6085 31.6126 79.9795 31.0666 79.9321C30.5978 79.8965 30.2655 80.2881 29.8739 80.4661C29.6721 80.567 29.4704 80.5551 29.3339 80.3712C29.15 80.0567 29.2152 79.671 29.1915 79.3268C29.1737 78.8224 28.9957 78.2884 28.5922 77.9679C28.248 77.695 27.7495 77.7543 27.352 77.8789C27.1383 77.9264 26.7348 78.2171 26.5449 78.0985C26.2957 77.7543 26.9069 77.1906 26.2126 76.075C25.9515 75.6715 25.4294 75.5706 24.9784 75.6477C24.5689 75.7071 24.1654 75.897 23.75 75.8554C23.7797 75.5943 24.0052 75.4104 24.0586 75.1611C24.1713 74.6746 23.6492 74.277 23.1982 74.3126C22.7353 74.3363 22.2962 74.5262 21.8512 74.6449C21.685 74.7042 21.7562 74.9594 21.9342 74.9238C22.4327 74.8466 23.0854 74.455 23.5542 74.6924C23.667 74.7576 23.7797 74.8941 23.7856 75.0247C23.756 75.3095 23.4771 75.5112 23.4593 75.802C23.4177 76.0216 23.6136 76.1699 23.8212 76.1581C24.8182 76.1343 25.8091 75.351 26.2126 76.7633C26.3313 77.1134 26.2482 77.4695 26.1948 77.8196C26.1533 78.1341 26.3729 78.4842 26.723 78.4189C27.0137 78.3714 27.2629 78.1993 27.5478 78.1163C27.8326 78.051 28.1887 77.9976 28.4319 78.1934C28.7702 78.4782 28.9007 78.9411 28.9126 79.3683C28.8948 79.9736 28.9067 80.8815 29.7434 80.8103C30.135 80.745 30.4258 80.4364 30.7759 80.2703C31.1972 80.0685 31.4583 80.4068 31.5235 80.7866C31.6066 81.2613 31.3218 81.7123 31.4464 82.181C31.4998 82.4362 31.666 82.6854 31.9567 82.6676C32.5501 82.6498 33.0011 82.0505 33.5886 82.0802C34.1108 82.2166 34.271 82.8516 34.1226 83.3085C34.0396 83.5993 33.9268 83.8485 33.8912 84.1333C33.8319 84.5131 34.1286 84.7683 34.4965 84.6733C34.9059 84.6021 35.5587 84.0621 35.9503 84.2223C36.2707 84.4003 36.336 84.8098 36.3063 85.1421C36.2707 85.6109 36.0096 86.1212 36.2529 86.5722C36.4072 86.863 36.7751 86.8214 37.0243 86.6849C37.3092 86.5485 37.5109 86.2577 37.8195 86.1865C38.6621 86.0619 38.6325 87.8836 38.7808 88.4295C38.8639 88.8746 39.1131 89.7053 39.6768 89.6697L39.665 89.6875Z" fill="url(#paint30_linear_2130_5221)"/>
<path fill-rule="evenodd" clip-rule="evenodd" d="M72.7469 73.6717C73.0614 73.648 73.281 73.2682 73.3759 72.9953C73.4768 72.7401 73.459 72.1052 73.8922 72.3781C74.2126 72.568 74.3016 73.0012 74.6398 73.1733C75.1027 73.3869 75.4172 73.0783 75.4172 72.6096C75.2926 70.4852 76.5802 73.1317 77.2627 72.1052C77.4703 71.761 77.2211 71.3694 77.2745 71.0014C77.2983 70.7641 77.5178 70.8531 77.6662 70.9184C77.9569 71.043 78.1943 71.2981 78.5147 71.3456C78.7402 71.3634 78.9301 71.1498 78.9004 70.9302C78.8767 70.7107 78.7699 70.5089 78.6868 70.3072C78.3782 69.6248 78.9954 69.7434 79.4345 69.8562C79.6422 69.9096 79.8617 70.0342 80.0813 69.9571C80.2118 69.9155 80.2831 69.7672 80.2652 69.6366C80.2237 69.3637 79.9745 69.1975 79.8024 69.0076C79.7015 68.8889 79.5294 68.7406 79.6066 68.5685C79.9151 68.2718 80.7044 68.4439 81.0367 68.6575C81.1435 68.8652 81.4105 68.6397 81.2503 68.4795C80.9417 68.2362 80.5263 68.1413 80.1347 68.1353C79.7431 68.1235 79.1793 68.2956 79.3336 68.794C79.4167 69.061 79.66 69.2391 79.8439 69.4349C79.9033 69.5061 80.016 69.601 79.9864 69.696C79.7905 69.7078 79.6066 69.5892 79.4167 69.5595C78.7877 69.3755 78.1112 69.5239 78.396 70.325C78.4257 70.4615 78.7936 71.0786 78.5266 71.0667C78.2833 70.9896 78.0934 70.8116 77.862 70.7047C77.6068 70.5683 77.2152 70.4615 77.055 70.7819C76.9363 71.0133 76.9956 71.2922 77.0312 71.5355C77.0668 71.7135 77.1143 71.9687 76.9185 72.0636C76.4794 72.1645 75.9097 71.1913 75.3697 71.5711C75.1205 71.7669 75.1383 72.123 75.1383 72.4078C75.1383 72.5799 75.162 72.7994 75.0315 72.93C75.0315 72.93 75.0315 72.93 75.0374 72.93C75.0374 72.93 75.0374 72.93 75.0434 72.93C75.0315 72.9419 75.0137 72.9478 74.9959 72.9597C74.9959 72.9597 75.0018 72.9597 75.0077 72.9597C75.0077 72.9597 75.0077 72.9597 75.0137 72.9597C74.6458 73.0783 74.4974 72.5977 74.2957 72.39C74.088 72.117 73.6133 71.8915 73.3581 72.2179C73.2097 72.4078 73.1919 72.6511 73.1267 72.8766C73.0733 73.0724 72.9605 73.2504 72.8062 73.3869C72.6994 73.464 72.5986 73.3454 72.5392 73.2682C72.2959 72.9122 71.7975 71.8559 71.2575 72.2416C71.032 72.4315 71.0023 72.752 70.8302 72.9775C70.6285 73.2148 70.1597 73.4937 69.9757 73.0902C69.7918 72.7401 69.8036 72.2772 69.4595 72.0221C69.2459 71.8322 68.9017 71.7847 68.6999 72.0162C68.4982 72.2416 68.3736 72.5383 68.1243 72.7164C67.9166 72.8825 67.7268 72.7935 67.703 72.5324C67.6852 72.3247 67.7505 72.117 67.7861 71.9093C67.8039 71.8322 67.7564 71.761 67.6793 71.7432C67.6021 71.7254 67.5309 71.7788 67.5131 71.85C67.436 72.1526 67.347 72.4909 67.4716 72.7935C67.798 73.4047 68.4151 72.9656 68.6762 72.5443C68.8186 72.3485 68.9492 72.0102 69.234 72.2238C69.4061 72.3307 69.4951 72.5205 69.5366 72.7104C69.6078 72.9775 69.679 73.2623 69.8867 73.4522C70.2368 73.7667 70.7531 73.4878 71.0201 73.1911C71.1863 73.0012 71.2456 72.7579 71.3643 72.5443C71.4533 72.3959 71.5245 72.4197 71.6491 72.5205C71.8687 72.6986 72.023 72.9478 72.1594 73.1911C72.29 73.4166 72.4561 73.7073 72.7528 73.7014L72.7469 73.6717Z" fill="url(#paint31_linear_2130_5221)"/>
<path fill-rule="evenodd" clip-rule="evenodd" d="M67.8039 71.8797C67.8454 71.7194 68.1421 71.2981 67.9463 71.1913C67.8751 71.1438 67.7623 71.1913 67.7445 71.2744C67.7445 71.4583 67.3766 71.8559 67.6199 71.9627C67.6911 71.9924 67.7742 71.9568 67.8039 71.8856V71.8797Z" fill="url(#paint32_linear_2130_5221)"/>
<path d="M46.6603 77.344C46.6603 73.376 47.0763 69.536 47.9083 65.824C48.7403 62.112 50.1163 57.44 52.0363 51.808C54.0203 46.176 56.4523 41.088 59.3323 36.544C62.2763 31.936 64.7403 28.544 66.7243 26.368C68.7723 24.128 70.3083 22.592 71.3323 21.76L68.8363 26.56C68.0043 28.16 66.6923 31.392 64.9003 36.256C63.1723 41.12 61.7003 46.592 60.4843 52.672C59.2683 58.752 58.6603 65.44 58.6603 72.736V75.328L46.6603 77.344ZM42.1483 23.2C44.6443 21.28 47.4923 20.32 50.6923 20.32C55.3003 20.32 59.7163 21.824 63.9403 24.832C68.2283 27.776 71.3323 30.272 73.2523 32.32C72.9963 32.192 72.0683 31.872 70.4683 31.36C68.9323 30.784 67.2043 30.176 65.2843 29.536C63.4283 28.832 60.6763 28.48 57.0283 28.48C50.1163 28.48 45.0283 31.04 41.7643 36.16L42.1483 23.2Z" fill="#3A3A3A"/>
</g>
<defs>
<linearGradient id="paint0_linear_2130_5221" x1="20.3092" y1="60.2377" x2="53.7983" y2="36.5996" gradientUnits="userSpaceOnUse">
<stop stop-color="#CBF0FF"/>
<stop offset="1" stop-color="#99D9FD"/>
</linearGradient>
<linearGradient id="paint1_linear_2130_5221" x1="21.0344" y1="59.0922" x2="71.3402" y2="44.4129" gradientUnits="userSpaceOnUse">
<stop stop-color="#7BC7FD"/>
<stop offset="1" stop-color="#3963FF"/>
</linearGradient>
<linearGradient id="paint2_linear_2130_5221" x1="60.1365" y1="53.9493" x2="56.6354" y2="47.2892" gradientUnits="userSpaceOnUse">
<stop stop-color="#CBF0FF"/>
<stop offset="1" stop-color="#99D9FD"/>
</linearGradient>
<linearGradient id="paint3_linear_2130_5221" x1="32.1328" y1="57.1731" x2="28.698" y2="50.639" gradientUnits="userSpaceOnUse">
<stop stop-color="#CBF0FF"/>
<stop offset="1" stop-color="#99D9FD"/>
</linearGradient>
<linearGradient id="paint4_linear_2130_5221" x1="25.1902" y1="50.3043" x2="22.6445" y2="45.4615" gradientUnits="userSpaceOnUse">
<stop stop-color="white"/>
<stop offset="1" stop-color="white" stop-opacity="0"/>
</linearGradient>
<linearGradient id="paint5_linear_2130_5221" x1="15.2986" y1="51.9175" x2="10.5771" y2="42.9358" gradientUnits="userSpaceOnUse">
<stop stop-color="white"/>
<stop offset="1" stop-color="white" stop-opacity="0"/>
</linearGradient>
<linearGradient id="paint6_linear_2130_5221" x1="44.0637" y1="63.6857" x2="41.5124" y2="58.8324" gradientUnits="userSpaceOnUse">
<stop stop-color="#CBF0FF"/>
<stop offset="1" stop-color="#99D9FD"/>
</linearGradient>
<linearGradient id="paint7_linear_2130_5221" x1="38.7055" y1="69.9951" x2="35.6352" y2="64.1544" gradientUnits="userSpaceOnUse">
<stop stop-color="white"/>
<stop offset="1" stop-color="white" stop-opacity="0"/>
</linearGradient>
<linearGradient id="paint8_linear_2130_5221" x1="23.6391" y1="65.5264" x2="19.1357" y2="56.9596" gradientUnits="userSpaceOnUse">
<stop stop-color="white"/>
<stop offset="1" stop-color="white" stop-opacity="0"/>
</linearGradient>
<linearGradient id="paint9_linear_2130_5221" x1="14.8226" y1="39.3431" x2="22.6409" y2="37.0633" gradientUnits="userSpaceOnUse">
<stop stop-color="#7BC7FD"/>
<stop offset="1" stop-color="#3963FF"/>
</linearGradient>
<linearGradient id="paint10_linear_2130_5221" x1="48.1425" y1="65.7315" x2="61.6972" y2="61.777" gradientUnits="userSpaceOnUse">
<stop stop-color="#7BC7FD"/>
<stop offset="1" stop-color="#3963FF"/>
</linearGradient>
<linearGradient id="paint11_linear_2130_5221" x1="1.73946" y1="37.3848" x2="9.82427" y2="35.0253" gradientUnits="userSpaceOnUse">
<stop stop-color="#7BC7FD"/>
<stop offset="1" stop-color="#3963FF"/>
</linearGradient>
<linearGradient id="paint12_linear_2130_5221" x1="18.8698" y1="40.2323" x2="15.1092" y2="33.0784" gradientUnits="userSpaceOnUse">
<stop stop-color="#CBF0FF"/>
<stop offset="1" stop-color="#99D9FD"/>
</linearGradient>
<linearGradient id="paint13_linear_2130_5221" x1="7.26961" y1="38.6208" x2="4.14955" y2="32.6855" gradientUnits="userSpaceOnUse">
<stop stop-color="#CBF0FF"/>
<stop offset="1" stop-color="#99D9FD"/>
</linearGradient>
<linearGradient id="paint14_linear_2130_5221" x1="55.1905" y1="67.5975" x2="53.6691" y2="64.7034" gradientUnits="userSpaceOnUse">
<stop stop-color="#CBF0FF"/>
<stop offset="1" stop-color="#99D9FD"/>
</linearGradient>
<linearGradient id="paint15_linear_2130_5221" x1="61.1934" y1="107.679" x2="58.9919" y2="139.076" gradientUnits="userSpaceOnUse">
<stop stop-color="#99867A"/>
<stop offset="0.56" stop-color="#C0ADA3"/>
<stop offset="1" stop-color="#DBC9C0"/>
</linearGradient>
<linearGradient id="paint16_linear_2130_5221" x1="35.0068" y1="105.84" x2="32.8052" y2="137.237" gradientUnits="userSpaceOnUse">
<stop stop-color="#99867A"/>
<stop offset="0.56" stop-color="#C0ADA3"/>
<stop offset="1" stop-color="#DBC9C0"/>
</linearGradient>
<linearGradient id="paint17_linear_2130_5221" x1="59.9295" y1="111.97" x2="56.8675" y2="139.414" gradientUnits="userSpaceOnUse">
<stop stop-color="#DBC9C0"/>
<stop offset="0.44" stop-color="#C0ADA3"/>
<stop offset="1" stop-color="#99867A"/>
</linearGradient>
<linearGradient id="paint18_linear_2130_5221" x1="35.1255" y1="109.198" x2="32.0576" y2="136.643" gradientUnits="userSpaceOnUse">
<stop stop-color="#DBC9C0"/>
<stop offset="0.44" stop-color="#C0ADA3"/>
<stop offset="1" stop-color="#99867A"/>
</linearGradient>
<linearGradient id="paint19_linear_2130_5221" x1="67.2639" y1="44.975" x2="32.6984" y2="136.536" gradientUnits="userSpaceOnUse">
<stop stop-color="#DBC9C0"/>
<stop offset="0.44" stop-color="#C0ADA3"/>
<stop offset="1" stop-color="#99867A"/>
</linearGradient>
<linearGradient id="paint20_linear_2130_5221" x1="83.4043" y1="76.4251" x2="83.9028" y2="76.4251" gradientUnits="userSpaceOnUse">
<stop stop-color="#DBC9C0"/>
<stop offset="0.44" stop-color="#C0ADA3"/>
<stop offset="1" stop-color="#99867A"/>
</linearGradient>
<linearGradient id="paint21_linear_2130_5221" x1="72.379" y1="62.3853" x2="95.4028" y2="62.3853" gradientUnits="userSpaceOnUse">
<stop stop-color="#DBC9C0"/>
<stop offset="0.44" stop-color="#C0ADA3"/>
<stop offset="1" stop-color="#99867A"/>
</linearGradient>
<linearGradient id="paint22_linear_2130_5221" x1="61.0628" y1="83.5577" x2="75.1145" y2="83.5577" gradientUnits="userSpaceOnUse">
<stop stop-color="#DBC9C0"/>
<stop offset="0.44" stop-color="#C0ADA3"/>
<stop offset="1" stop-color="#99867A"/>
</linearGradient>
<linearGradient id="paint23_linear_2130_5221" x1="53.0105" y1="88.7915" x2="76.5328" y2="88.7915" gradientUnits="userSpaceOnUse">
<stop stop-color="#DBC9C0"/>
<stop offset="0.44" stop-color="#C0ADA3"/>
<stop offset="1" stop-color="#99867A"/>
</linearGradient>
<linearGradient id="paint24_linear_2130_5221" x1="76.96" y1="95.1883" x2="93.5039" y2="95.1883" gradientUnits="userSpaceOnUse">
<stop stop-color="#DBC9C0"/>
<stop offset="0.44" stop-color="#C0ADA3"/>
<stop offset="1" stop-color="#99867A"/>
</linearGradient>
<linearGradient id="paint25_linear_2130_5221" x1="33.0485" y1="119.957" x2="69.7205" y2="119.957" gradientUnits="userSpaceOnUse">
<stop stop-color="#DBC9C0"/>
<stop offset="0.44" stop-color="#C0ADA3"/>
<stop offset="1" stop-color="#99867A"/>
</linearGradient>
<linearGradient id="paint26_linear_2130_5221" x1="0.239572" y1="107.027" x2="21.7918" y2="107.027" gradientUnits="userSpaceOnUse">
<stop stop-color="#DBC9C0"/>
<stop offset="0.44" stop-color="#C0ADA3"/>
<stop offset="1" stop-color="#99867A"/>
</linearGradient>
<linearGradient id="paint27_linear_2130_5221" x1="57.099" y1="76.2589" x2="102.85" y2="76.2589" gradientUnits="userSpaceOnUse">
<stop stop-color="#DBC9C0"/>
<stop offset="0.44" stop-color="#C0ADA3"/>
<stop offset="1" stop-color="#99867A"/>
</linearGradient>
<linearGradient id="paint28_linear_2130_5221" x1="19.9551" y1="79.9222" x2="57.1781" y2="89.7778" gradientUnits="userSpaceOnUse">
<stop stop-color="#A80000"/>
<stop offset="0.48" stop-color="#E17371"/>
<stop offset="1" stop-color="#850000"/>
</linearGradient>
<linearGradient id="paint29_linear_2130_5221" x1="20.885" y1="70.5679" x2="78.7816" y2="85.8973" gradientUnits="userSpaceOnUse">
<stop stop-color="#A2D419"/>
<stop offset="1" stop-color="#3E7119"/>
</linearGradient>
<linearGradient id="paint30_linear_2130_5221" x1="21.2125" y1="76.3327" x2="52.7795" y2="84.6907" gradientUnits="userSpaceOnUse">
<stop stop-color="#A80000"/>
<stop offset="0.48" stop-color="#E17371"/>
<stop offset="1" stop-color="#850000"/>
</linearGradient>
<linearGradient id="paint31_linear_2130_5221" x1="68.1608" y1="68.8624" x2="80.2472" y2="72.0625" gradientUnits="userSpaceOnUse">
<stop stop-color="#A80000"/>
<stop offset="0.48" stop-color="#E17371"/>
<stop offset="1" stop-color="#850000"/>
</linearGradient>
<linearGradient id="paint32_linear_2130_5221" x1="67.5333" y1="71.348" x2="67.866" y2="71.4361" gradientUnits="userSpaceOnUse">
<stop stop-color="#A80000"/>
<stop offset="0.48" stop-color="#E17371"/>
<stop offset="1" stop-color="#850000"/>
</linearGradient>
<clipPath id="clip0_2130_5221">
<rect width="114" height="114" rx="4" fill="white"/>
</clipPath>
</defs>
</svg>
