<svg width="114" height="114" viewBox="0 0 114 114" fill="none" xmlns="http://www.w3.org/2000/svg">
<g clip-path="url(#clip0_2130_5280)">
<rect width="114" height="114" rx="4" fill="#CCECFB"/>
<path d="M74.8736 62.848C73.7216 66.624 72.0576 69.504 69.8816 71.488C67.7056 73.472 65.9776 74.656 64.6976 75.04C63.4816 75.36 62.5536 75.584 61.9136 75.712C61.3376 75.84 60.8256 75.904 60.3776 75.904C61.7856 74.688 63.4816 72.704 65.4656 69.952C67.4496 67.2 68.4416 64.352 68.4416 61.408C68.4416 56.8 65.1456 53.312 58.5536 50.944L64.6016 44.512C68.5056 45.92 71.2256 48.096 72.7616 51.04C74.3616 53.92 75.1616 56.832 75.1616 59.776L75.0656 61.696L74.9696 62.368V62.656L74.8736 62.848ZM69.5936 37.216C66.8416 41.312 64.1536 44.256 61.5296 46.048C58.9696 47.776 57.0816 48.832 55.8656 49.216C57.4656 48.256 59.4496 46.624 61.8176 44.32C64.1856 42.016 65.5936 39.168 66.0416 35.776C66.0416 35.008 65.8176 33.952 65.3696 32.608C64.9216 31.264 63.8336 29.92 62.1056 28.576C60.4416 27.168 57.9456 26.336 54.6176 26.08L60.9536 19.648C67.9936 21.184 71.5136 24.672 71.5136 30.112C71.5136 30.752 71.4496 31.456 71.3216 32.224C71.1936 32.928 71.0336 33.664 70.8416 34.432L69.5936 37.216ZM43.0016 29.344C45.6896 24.096 49.1776 21.472 53.4656 21.472C54.4896 21.472 55.2576 21.568 55.7696 21.76L57.0176 22.144L54.0416 22.72C52.7616 23.104 51.4176 23.968 50.0096 25.312C48.6656 26.592 47.9936 28.48 47.9936 30.976C48.1856 32.256 48.9856 34.112 50.3936 36.544C51.8656 38.912 54.6816 40.544 58.8416 41.44L55.0976 49.312C50.2976 47.392 47.0016 44.992 45.2096 42.112C43.4176 39.232 42.5216 36.288 42.5216 33.28L42.7136 30.784L43.0016 29.344ZM39.0656 60.256C40.0896 56.224 41.8816 53.216 44.4416 51.232C47.0016 49.184 49.2736 47.936 51.2576 47.488L55.8656 46.72C54.2656 47.04 52.3456 48 50.1056 49.6C47.9296 51.136 46.8416 53.76 46.8416 57.472L46.9376 59.488C47.0016 60.192 47.4496 61.312 48.2816 62.848C49.1776 64.384 50.8096 65.888 53.1776 67.36C55.5456 68.768 58.8096 69.472 62.9696 69.472L58.5536 77.728C50.8736 76.576 45.6576 74.464 42.9056 71.392C40.2176 68.256 38.8736 65.152 38.8736 62.08L38.9696 60.928L39.0656 60.64V60.256Z" fill="#3A3A3A"/>
<path d="M17.5548 45.7512C17.8827 45.6595 18.2154 45.5679 18.5433 45.4763C18.9435 45.3654 19.3438 45.2545 19.7392 45.1436C26.1576 43.3738 32.5711 41.604 38.9895 39.8343C38.5458 39.6752 38.107 39.5209 37.6634 39.3617C37.3017 39.2315 36.9352 39.1013 36.5736 38.9711C30.8785 36.941 25.1835 34.9156 19.4933 32.8855C19.1364 32.7601 18.7844 32.6347 18.4276 32.5045C18.1334 32.3984 17.8441 32.2972 17.5499 32.1911V45.7463L17.5548 45.7512Z" fill="url(#paint0_linear_2130_5280)"/>
<path d="M17.4487 31C17.2221 31 17.0436 31.1832 17.0436 31.4051V62.6723C17.0436 62.8989 17.2269 63.0774 17.4487 63.0774C17.6705 63.0774 17.8538 62.8941 17.8538 62.6723V31.4051C17.8538 31.1784 17.6705 31 17.4487 31Z" fill="url(#paint1_linear_2130_5280)"/>
<path d="M17.0631 103.078C35.0065 102.904 49.7432 104.462 49.9843 106.554C50.2206 108.647 35.8697 110.485 17.9263 110.658C-0.0171909 110.832 -14.7587 109.274 -14.995 107.181C-15.2313 105.088 -0.880367 103.251 17.0631 103.078Z" fill="url(#paint2_linear_2130_5280)"/>
<path d="M15.1967 110.301C7.10984 110.301 -0.432096 109.949 -6.03069 109.303C-9.39177 108.917 -11.8366 108.459 -13.2978 107.943C-14.5756 107.495 -14.6287 107.152 -14.6287 107.138C-14.6335 107.09 -14.5853 107.022 -14.5467 106.979C-14.1947 106.579 -12.5069 105.551 -4.45382 104.621C1.42446 103.941 9.06767 103.526 17.0629 103.449C17.9695 103.439 18.8857 103.434 19.7826 103.434C27.8695 103.434 35.4114 103.786 41.01 104.433C44.3711 104.818 46.816 105.277 48.2771 105.793C49.555 106.241 49.608 106.583 49.608 106.598C49.6128 106.646 49.5646 106.714 49.526 106.757C49.174 107.157 47.4814 108.184 39.4331 109.115C33.5549 109.795 25.9165 110.21 17.9164 110.287C17.0098 110.296 16.0936 110.301 15.1967 110.301Z" fill="url(#paint3_linear_2130_5280)"/>
<path d="M49.9793 106.554L50.0613 116.29C50.2976 118.383 35.9467 120.221 18.0032 120.394C0.0597734 120.568 -14.6817 119.01 -14.918 116.917L-15 107.181C-14.7637 109.274 -0.0222025 110.832 17.9213 110.658C35.8647 110.485 50.2156 108.647 49.9793 106.554Z" fill="url(#paint4_linear_2130_5280)"/>
<path style="mix-blend-mode:multiply" opacity="0.42" d="M50.0372 113.339C47.5345 115.167 34.2203 116.662 18.0129 116.821C1.38588 116.98 -12.5214 115.673 -14.9373 113.826L-14.9132 116.913C-14.6769 119.005 0.0645905 120.563 18.008 120.389C35.9515 120.216 50.3024 118.379 50.0661 116.286L50.042 113.339H50.0372Z" fill="url(#paint5_linear_2130_5280)"/>
<mask id="mask0_2130_5280" style="mask-type:luminance" maskUnits="userSpaceOnUse" x="-15" y="103" width="65" height="8">
<path d="M15.1967 110.301C7.10984 110.301 -0.432096 109.949 -6.03069 109.303C-9.39177 108.917 -11.8366 108.459 -13.2978 107.943C-14.5756 107.495 -14.6287 107.152 -14.6287 107.138C-14.6335 107.09 -14.5853 107.022 -14.5467 106.979C-14.1947 106.579 -12.5069 105.551 -4.45382 104.621C1.42446 103.941 9.06767 103.526 17.0629 103.449C17.9695 103.439 18.8857 103.434 19.7826 103.434C27.8695 103.434 35.4114 103.786 41.01 104.433C44.3711 104.818 46.816 105.277 48.2771 105.793C49.555 106.241 49.608 106.583 49.608 106.598C49.6128 106.646 49.5646 106.714 49.526 106.757C49.174 107.157 47.4814 108.184 39.4331 109.115C33.5549 109.795 25.9165 110.21 17.9164 110.287C17.0098 110.296 16.0936 110.301 15.1967 110.301Z" fill="white"/>
</mask>
<g mask="url(#mask0_2130_5280)">
<mask id="mask1_2130_5280" style="mask-type:luminance" maskUnits="userSpaceOnUse" x="-17" y="103" width="67" height="9">
<path d="M0.768623 103.724C15.838 102.629 35.1462 103.203 44.5447 105.045C54.3338 106.964 50.0661 109.588 34.2734 110.861C18.0659 112.163 -2.99753 111.473 -12.0344 109.371C-20.695 107.355 -14.6721 104.847 0.7638 103.724H0.768623Z" fill="white"/>
</mask>
<g mask="url(#mask1_2130_5280)">
<path style="mix-blend-mode:multiply" d="M15.2497 110.123C35.2426 110.123 51.4501 108.428 51.4501 106.337C51.4501 104.247 35.2426 102.552 15.2497 102.552C-4.74317 102.552 -20.9506 104.247 -20.9506 106.337C-20.9506 108.428 -4.74317 110.123 15.2497 110.123Z" fill="url(#paint6_radial_2130_5280)"/>
</g>
</g>
<path d="M17.1691 95.3958C31.0764 95.2608 42.5002 96.4664 42.6882 98.0915C42.8715 99.7117 31.7466 101.139 17.8394 101.274C3.93212 101.409 -7.49653 100.204 -7.67978 98.5785C-7.86302 96.9582 3.26183 95.5309 17.1691 95.3958Z" fill="url(#paint7_linear_2130_5280)"/>
<path d="M15.7223 100.994C9.45343 100.994 3.60891 100.72 -0.731087 100.223C-3.33508 99.9239 -5.23021 99.5719 -6.36343 99.1716C-7.35199 98.8244 -7.39539 98.5592 -7.39539 98.5496C-7.39539 98.511 -7.36163 98.4579 -7.3327 98.4242C-7.05783 98.1156 -5.75101 97.3199 0.493756 96.5966C5.05075 96.0709 10.9724 95.7479 17.1738 95.6852C17.8778 95.6803 18.5867 95.6755 19.2811 95.6755C25.55 95.6755 31.3945 95.9504 35.7345 96.4471C38.3385 96.7461 40.2336 97.0981 41.3668 97.4983C42.3554 97.8455 42.3988 98.1107 42.3988 98.1204C42.3988 98.159 42.365 98.212 42.3361 98.2458C42.0612 98.5544 40.7544 99.3501 34.5097 100.073C29.9527 100.599 24.031 100.922 17.8296 100.985C17.1256 100.99 16.4167 100.994 15.7175 100.994H15.7223Z" fill="url(#paint8_linear_2130_5280)"/>
<path d="M42.6833 98.0866L42.746 105.633C42.9293 107.254 31.8044 108.681 17.8971 108.816C3.98988 108.951 -7.43876 107.746 -7.622 106.12L-7.68469 98.5737C-7.50145 100.194 3.9272 101.399 17.8345 101.269C31.7417 101.134 42.8666 99.7117 42.6833 98.0866Z" fill="url(#paint9_linear_2130_5280)"/>
<path style="mix-blend-mode:multiply" opacity="0.42" d="M42.7267 103.352C40.7834 104.77 30.4638 105.928 17.902 106.053C5.01219 106.178 -5.77028 105.166 -7.6413 103.733L-7.62201 106.125C-7.43876 107.746 3.98988 108.956 17.8971 108.821C31.8044 108.686 42.9293 107.263 42.746 105.638L42.7267 103.352Z" fill="url(#paint10_linear_2130_5280)"/>
<mask id="mask2_2130_5280" style="mask-type:luminance" maskUnits="userSpaceOnUse" x="-8" y="95" width="51" height="6">
<path d="M15.7223 100.994C9.45343 100.994 3.60891 100.72 -0.731087 100.223C-3.33508 99.9239 -5.23021 99.5719 -6.36343 99.1716C-7.35199 98.8244 -7.39539 98.5592 -7.39539 98.5496C-7.39539 98.511 -7.36163 98.4579 -7.3327 98.4242C-7.05783 98.1156 -5.75101 97.3199 0.493756 96.5966C5.05075 96.0709 10.9724 95.7479 17.1738 95.6852C17.8778 95.6803 18.5867 95.6755 19.2811 95.6755C25.55 95.6755 31.3945 95.9504 35.7345 96.4471C38.3385 96.7461 40.2336 97.0981 41.3668 97.4983C42.3554 97.8455 42.3988 98.1107 42.3988 98.1204C42.3988 98.159 42.365 98.212 42.3361 98.2458C42.0612 98.5544 40.7544 99.3501 34.5097 100.073C29.9527 100.599 24.031 100.922 17.8296 100.985C17.1256 100.99 16.4167 100.994 15.7175 100.994H15.7223Z" fill="white"/>
</mask>
<g mask="url(#mask2_2130_5280)">
<mask id="mask3_2130_5280" style="mask-type:luminance" maskUnits="userSpaceOnUse" x="-9" y="95" width="52" height="7">
<path d="M4.53963 95.8974C16.219 95.0486 31.1872 95.4923 38.4735 96.9245C46.0637 98.4146 42.7557 100.445 30.5121 101.433C17.9502 102.446 1.61736 101.906 -5.38449 100.276C-12.097 98.7135 -7.42911 96.7702 4.5348 95.8974H4.53963Z" fill="white"/>
</mask>
<g mask="url(#mask3_2130_5280)">
<path style="mix-blend-mode:multiply" d="M43.8214 97.9227C43.8214 99.5429 31.2595 100.855 15.7609 100.855C0.262303 100.855 -12.2996 99.5429 -12.2996 97.9227C-12.2996 96.3024 0.262303 94.9908 15.7609 94.9908C31.2595 94.9908 43.8214 96.3024 43.8214 97.9227Z" fill="url(#paint11_radial_2130_5280)"/>
</g>
</g>
<path d="M36.1975 86.1951C36.1975 81.5368 34.0564 77.1389 30.3915 74.2601C27.72 72.1672 24.4264 71.0244 21.0316 71.0244H13.9671C10.5722 71.0244 7.27864 72.1624 4.60714 74.2601C0.942255 77.1341 -1.19881 81.5368 -1.19881 86.1951V97.6671H-1.19399C-1.19881 97.696 -1.20363 97.725 -1.19881 97.7491C-1.06379 98.9546 7.42331 99.8467 17.7477 99.7503C28.072 99.649 36.3325 98.593 36.1975 97.3874V86.1951Z" fill="url(#paint12_linear_2130_5280)"/>
<mask id="mask4_2130_5280" style="mask-type:luminance" maskUnits="userSpaceOnUse" x="-2" y="71" width="39" height="29">
<path d="M36.1975 86.1951C36.1975 81.5368 34.0564 77.1389 30.3915 74.2601C27.72 72.1672 24.4264 71.0244 21.0316 71.0244H13.9671C10.5722 71.0244 7.27864 72.1624 4.60714 74.2601C0.942255 77.1341 -1.19881 81.5368 -1.19881 86.1951V97.6671H-1.19399C-1.19881 97.696 -1.20363 97.725 -1.19881 97.7491C-1.06379 98.9546 7.42331 99.8467 17.7477 99.7503C28.072 99.649 36.3325 98.593 36.1975 97.3874V86.1951Z" fill="white"/>
</mask>
<g mask="url(#mask4_2130_5280)">
<path style="mix-blend-mode:multiply" opacity="0.67" d="M17.5017 76.7532C29.393 76.7532 39.0329 74.3373 39.0329 71.3571C39.0329 68.3769 29.393 65.961 17.5017 65.961C5.61036 65.961 -4.02948 68.3769 -4.02948 71.3571C-4.02948 74.3373 5.61036 76.7532 17.5017 76.7532Z" fill="url(#paint13_radial_2130_5280)"/>
</g>
<path style="mix-blend-mode:multiply" d="M32.5374 74.0575C32.5374 75.1763 25.7959 76.0829 17.4873 76.0829C9.17859 76.0829 2.43713 75.1763 2.43713 74.0575C2.43713 72.9388 9.17859 72.0322 17.4873 72.0322C25.7959 72.0322 32.5374 72.9388 32.5374 74.0575Z" fill="url(#paint14_radial_2130_5280)"/>
<path d="M17.3619 69.2305C23.8429 69.1678 29.1666 69.732 29.2534 70.4843C29.3402 71.2414 24.1564 71.902 17.6753 71.9647C11.1943 72.0274 5.87053 71.4632 5.78373 70.7109C5.69693 69.9538 10.8808 69.2932 17.3619 69.2305Z" fill="url(#paint15_linear_2130_5280)"/>
<path d="M16.6916 71.8393C13.7693 71.8393 11.0448 71.7091 9.02427 71.4777C7.80907 71.3378 6.9266 71.1739 6.40098 70.9858C5.93805 70.8218 5.91876 70.7013 5.91876 70.6965C5.91876 70.6772 5.93323 70.6531 5.94769 70.6386C6.07307 70.4939 6.68549 70.1226 9.59329 69.7851C11.7151 69.5391 14.4782 69.3896 17.3667 69.3607C17.6946 69.3607 18.0225 69.3559 18.3504 69.3559C21.2727 69.3559 23.9972 69.4861 26.0177 69.7175C27.2329 69.8574 28.1154 70.0213 28.641 70.2094C29.104 70.3734 29.1233 70.4939 29.1233 70.4987C29.1233 70.518 29.1088 70.5421 29.0943 70.5566C28.9689 70.7013 28.3565 71.0726 25.4487 71.4101C23.327 71.6561 20.5638 71.8056 17.6753 71.8345C17.3474 71.8345 17.0195 71.8345 16.6916 71.8345V71.8393Z" fill="url(#paint16_linear_2130_5280)"/>
<path d="M29.2535 70.4843L29.2824 73.9997C29.3692 74.7567 24.1853 75.4174 17.7043 75.4801C11.2232 75.5428 5.89949 74.9786 5.81269 74.2263L5.78375 70.7109C5.87055 71.468 11.1943 72.0274 17.6753 71.9647C24.1564 71.902 29.3403 71.2365 29.2535 70.4843Z" fill="url(#paint17_linear_2130_5280)"/>
<path style="mix-blend-mode:multiply" opacity="0.42" d="M29.2728 72.9388C28.3662 73.5994 23.5584 74.1395 17.7043 74.1974C11.7006 74.2552 6.67586 73.7827 5.80304 73.1172L5.81268 74.2311C5.89948 74.9882 11.2232 75.5476 17.7043 75.4849C24.1853 75.4222 29.3692 74.7568 29.2824 74.0045L29.2728 72.9388Z" fill="url(#paint18_linear_2130_5280)"/>
<mask id="mask5_2130_5280" style="mask-type:luminance" maskUnits="userSpaceOnUse" x="5" y="69" width="25" height="3">
<path d="M16.6916 71.8393C13.7693 71.8393 11.0448 71.7091 9.02427 71.4777C7.80907 71.3378 6.9266 71.1739 6.40098 70.9858C5.93805 70.8218 5.91876 70.7013 5.91876 70.6965C5.91876 70.6772 5.93323 70.6531 5.94769 70.6386C6.07307 70.4939 6.68549 70.1226 9.59329 69.7851C11.7151 69.5391 14.4782 69.3896 17.3667 69.3607C17.6946 69.3607 18.0225 69.3559 18.3504 69.3559C21.2727 69.3559 23.9972 69.4861 26.0177 69.7175C27.2329 69.8574 28.1154 70.0213 28.641 70.2094C29.104 70.3734 29.1233 70.4939 29.1233 70.4987C29.1233 70.518 29.1088 70.5421 29.0943 70.5566C28.9689 70.7013 28.3565 71.0726 25.4487 71.4101C23.327 71.6561 20.5638 71.8056 17.6753 71.8345C17.3474 71.8345 17.0195 71.8345 16.6916 71.8345V71.8393Z" fill="white"/>
</mask>
<g mask="url(#mask5_2130_5280)">
<mask id="mask6_2130_5280" style="mask-type:luminance" maskUnits="userSpaceOnUse" x="5" y="69" width="25" height="4">
<path d="M11.4788 69.462C16.9231 69.0665 23.896 69.2739 27.2908 69.9394C30.8255 70.6338 29.2872 71.5789 23.5825 72.0418C17.7284 72.5144 10.1189 72.2637 6.85429 71.5018C3.72467 70.7736 5.90431 69.867 11.4788 69.462Z" fill="white"/>
</mask>
<g mask="url(#mask6_2130_5280)">
<path style="mix-blend-mode:multiply" d="M16.7061 71.7766C23.9261 71.7766 29.7791 71.1635 29.7791 70.4071C29.7791 69.6508 23.9261 69.0376 16.7061 69.0376C9.48605 69.0376 3.63306 69.6508 3.63306 70.4071C3.63306 71.1635 9.48605 71.7766 16.7061 71.7766Z" fill="url(#paint19_radial_2130_5280)"/>
</g>
</g>
<path d="M17.4101 66.6988C22.1214 66.6554 25.9888 67.0605 26.0515 67.6102C26.1142 68.16 22.348 68.6422 17.6367 68.6856C12.9254 68.729 9.05803 68.3239 8.99534 67.7742C8.93265 67.2245 12.6988 66.7422 17.4101 66.6988Z" fill="url(#paint20_linear_2130_5280)"/>
<path d="M16.9183 68.594C14.7965 68.594 12.8145 68.5023 11.3438 68.3336C10.4613 68.2323 9.81995 68.1118 9.43417 67.9767C9.09662 67.8562 9.08698 67.7694 9.08215 67.7646C9.08215 67.7501 9.0918 67.7356 9.10144 67.7212C9.19306 67.6151 9.63671 67.345 11.7537 67.1039C13.2968 66.9255 15.3028 66.8146 17.4005 66.7953C17.6368 66.7953 17.8779 66.7953 18.1142 66.7953C20.2359 66.7953 22.2179 66.8869 23.6886 67.0557C24.5711 67.157 25.2125 67.2775 25.5982 67.4125C25.9358 67.5331 25.9454 67.6199 25.9503 67.6247C25.9503 67.6392 25.9406 67.6536 25.931 67.6681C25.8393 67.7742 25.3957 68.0442 23.2836 68.2854C21.7405 68.4638 19.7344 68.5747 17.6368 68.594C17.4005 68.594 17.1594 68.594 16.9231 68.594H16.9183Z" fill="url(#paint21_linear_2130_5280)"/>
<path d="M26.0515 67.6102L26.0708 70.166C26.1335 70.7157 22.3674 71.198 17.6561 71.2414C12.9448 71.2848 9.07734 70.8797 9.01465 70.33L8.99536 67.7742C9.05805 68.3239 12.9255 68.7338 17.6368 68.6856C22.3481 68.6422 26.1142 68.16 26.0515 67.6102Z" fill="url(#paint22_linear_2130_5280)"/>
<path style="mix-blend-mode:multiply" opacity="0.42" d="M26.066 69.3945C25.4102 69.8719 21.9141 70.2673 17.6609 70.3107C13.2968 70.3541 9.64636 70.0117 9.00983 69.5247V70.3348C9.07734 70.8845 12.9496 71.2944 17.6561 71.2462C22.3674 71.2028 26.1335 70.7206 26.0708 70.1708V69.3993L26.066 69.3945Z" fill="url(#paint23_linear_2130_5280)"/>
<mask id="mask7_2130_5280" style="mask-type:luminance" maskUnits="userSpaceOnUse" x="9" y="66" width="17" height="3">
<path d="M16.9183 68.594C14.7965 68.594 12.8145 68.5023 11.3438 68.3336C10.4613 68.2323 9.81995 68.1118 9.43417 67.9767C9.09662 67.8562 9.08698 67.7694 9.08215 67.7646C9.08215 67.7501 9.0918 67.7356 9.10144 67.7212C9.19306 67.6151 9.63671 67.345 11.7537 67.1039C13.2968 66.9255 15.3028 66.8146 17.4005 66.7953C17.6368 66.7953 17.8779 66.7953 18.1142 66.7953C20.2359 66.7953 22.2179 66.8869 23.6886 67.0557C24.5711 67.157 25.2125 67.2775 25.5982 67.4125C25.9358 67.5331 25.9454 67.6199 25.9503 67.6247C25.9503 67.6392 25.9406 67.6536 25.931 67.6681C25.8393 67.7742 25.3957 68.0442 23.2836 68.2854C21.7405 68.4638 19.7344 68.5747 17.6368 68.594C17.4005 68.594 17.1594 68.594 16.9231 68.594H16.9183Z" fill="white"/>
</mask>
<g mask="url(#mask7_2130_5280)">
<mask id="mask8_2130_5280" style="mask-type:luminance" maskUnits="userSpaceOnUse" x="8" y="66" width="18" height="3">
<path d="M13.1328 66.8676C17.0871 66.5783 22.1552 66.7326 24.6242 67.2148C27.1944 67.7211 26.0757 68.4059 21.9286 68.7434C17.6754 69.0858 12.1443 68.9026 9.77176 68.3528C7.50049 67.8224 9.08218 67.1666 13.1328 66.8724V66.8676Z" fill="white"/>
</mask>
<g mask="url(#mask8_2130_5280)">
<path style="mix-blend-mode:multiply" d="M26.4325 67.5524C26.4325 68.1021 22.1793 68.5457 16.9327 68.5457C11.6862 68.5457 7.43298 68.1021 7.43298 67.5524C7.43298 67.0026 11.6862 66.559 16.9327 66.559C22.1793 66.559 26.4325 67.0026 26.4325 67.5524Z" fill="url(#paint24_radial_2130_5280)"/>
</g>
</g>
<path d="M18.2347 49.6764C17.9984 48.9386 16.9568 48.9386 16.7254 49.6764C15.0617 55.0339 11.2039 67.4704 11.2039 67.4897C11.2521 67.8947 14.1165 68.1985 17.603 68.1648C21.0895 68.131 23.8815 67.7742 23.8333 67.3691C23.8333 67.3547 19.9177 55.005 18.2299 49.6716L18.2347 49.6764Z" fill="url(#paint25_linear_2130_5280)"/>
<g style="mix-blend-mode:multiply" opacity="0.56">
<path d="M0.185184 109.814C0.185184 110.065 0.0308722 110.268 -0.162016 110.268C-0.354905 110.268 -0.509216 110.065 -0.509216 109.814C-0.509216 109.564 -0.354905 109.361 -0.162016 109.361C0.0308722 109.361 0.185184 109.564 0.185184 109.814Z" fill="#FFBA46"/>
</g>
<g style="mix-blend-mode:multiply" opacity="0.56">
<path d="M44.0046 109.26C44.0046 109.51 43.8503 109.713 43.6574 109.713C43.4646 109.713 43.3102 109.51 43.3102 109.26C43.3102 109.009 43.4646 108.806 43.6574 108.806C43.8503 108.806 44.0046 109.009 44.0046 109.26Z" fill="#FFBA46"/>
</g>
<g style="mix-blend-mode:multiply" opacity="0.56">
<path d="M19.6091 104.693C19.6091 104.944 19.4548 105.146 19.2619 105.146C19.069 105.146 18.9147 104.944 18.9147 104.693C18.9147 104.442 19.069 104.24 19.2619 104.24C19.4548 104.24 19.6091 104.442 19.6091 104.693Z" fill="#FFBA46"/>
</g>
<g style="mix-blend-mode:multiply" opacity="0.56">
<path d="M0.643251 103.637C0.643251 103.888 0.488941 104.09 0.296052 104.09C0.103164 104.09 -0.0511475 103.888 -0.0511475 103.637C-0.0511475 103.386 0.103164 103.184 0.296052 103.184C0.488941 103.184 0.643251 103.386 0.643251 103.637Z" fill="#FFBA46"/>
</g>
<g style="mix-blend-mode:multiply" opacity="0.56">
<path d="M8.85553 105.899C8.85553 106.149 8.70122 106.352 8.50833 106.352C8.31544 106.352 8.16113 106.149 8.16113 105.899C8.16113 105.648 8.31544 105.445 8.50833 105.445C8.70122 105.445 8.85553 105.648 8.85553 105.899Z" fill="#FFBA46"/>
</g>
<g style="mix-blend-mode:multiply" opacity="0.56">
<path d="M11.1702 102.586C11.1702 102.837 11.0159 103.039 10.823 103.039C10.6301 103.039 10.4758 102.837 10.4758 102.586C10.4758 102.335 10.6301 102.132 10.823 102.132C11.0159 102.132 11.1702 102.335 11.1702 102.586Z" fill="#FFBA46"/>
</g>
<g style="mix-blend-mode:multiply" opacity="0.56">
<path d="M22.4156 87.0679C22.4156 87.3186 22.2613 87.5212 22.0684 87.5212C21.8755 87.5212 21.7212 87.3186 21.7212 87.0679C21.7212 86.8171 21.8755 86.6146 22.0684 86.6146C22.2613 86.6146 22.4156 86.8171 22.4156 87.0679Z" fill="#FFBA46"/>
</g>
<g style="mix-blend-mode:multiply" opacity="0.56">
<path d="M9.21234 90.7183C9.21234 90.969 9.05803 91.1716 8.86514 91.1716C8.67226 91.1716 8.51794 90.969 8.51794 90.7183C8.51794 90.4675 8.67226 90.265 8.86514 90.265C9.05803 90.265 9.21234 90.4675 9.21234 90.7183Z" fill="#FFBA46"/>
</g>
<g style="mix-blend-mode:multiply" opacity="0.56">
<path d="M26.6639 104.09C26.6639 104.341 26.5096 104.544 26.3167 104.544C26.1239 104.544 25.9695 104.341 25.9695 104.09C25.9695 103.84 26.1239 103.637 26.3167 103.637C26.5096 103.637 26.6639 103.84 26.6639 104.09Z" fill="#FFBA46"/>
</g>
<g style="mix-blend-mode:multiply" opacity="0.56">
<path d="M32.3493 108.411C32.3493 108.662 32.195 108.864 32.0021 108.864C31.8092 108.864 31.6549 108.662 31.6549 108.411C31.6549 108.16 31.8092 107.958 32.0021 107.958C32.195 107.958 32.3493 108.16 32.3493 108.411Z" fill="#FFBA46"/>
</g>
<g style="mix-blend-mode:multiply" opacity="0.56">
<path d="M11.8308 111.01C11.8308 111.261 11.6765 111.463 11.4836 111.463C11.2907 111.463 11.1364 111.261 11.1364 111.01C11.1364 110.759 11.2907 110.557 11.4836 110.557C11.6765 110.557 11.8308 110.759 11.8308 111.01Z" fill="#FFBA46"/>
</g>
<g style="mix-blend-mode:multiply" opacity="0.56">
<path d="M36.6749 101.891C36.6749 102.142 36.5206 102.345 36.3277 102.345C36.1348 102.345 35.9805 102.142 35.9805 101.891C35.9805 101.641 36.1348 101.438 36.3277 101.438C36.5206 101.438 36.6749 101.641 36.6749 101.891Z" fill="#FFBA46"/>
</g>
<g style="mix-blend-mode:multiply" opacity="0.56">
<path d="M30.8785 80.0612C30.8785 80.312 30.7242 80.5145 30.5313 80.5145C30.3385 80.5145 30.1841 80.312 30.1841 80.0612C30.1841 79.8104 30.3385 79.6079 30.5313 79.6079C30.7242 79.6079 30.8785 79.8104 30.8785 80.0612Z" fill="#FFBA46"/>
</g>
<g style="mix-blend-mode:multiply" opacity="0.56">
<path d="M5.76449 112.809C5.76449 112.905 5.70662 112.978 5.63429 112.978C5.56196 112.978 5.50409 112.9 5.50409 112.809C5.50409 112.717 5.56196 112.64 5.63429 112.64C5.70662 112.64 5.76449 112.717 5.76449 112.809Z" fill="#FFBA46"/>
</g>
<g style="mix-blend-mode:multiply" opacity="0.56">
<path d="M21.2149 113.6C21.2868 113.6 21.3451 113.524 21.3451 113.431C21.3451 113.338 21.2868 113.262 21.2149 113.262C21.143 113.262 21.0847 113.338 21.0847 113.431C21.0847 113.524 21.143 113.6 21.2149 113.6Z" fill="#FFBA46"/>
</g>
<g style="mix-blend-mode:multiply" opacity="0.56">
<path d="M14.0731 104.071C14.0731 104.163 14.0153 104.24 13.9429 104.24C13.8706 104.24 13.8127 104.163 13.8127 104.071C13.8127 103.979 13.8706 103.902 13.9429 103.902C14.0153 103.902 14.0731 103.979 14.0731 104.071Z" fill="#FFBA46"/>
</g>
<g style="mix-blend-mode:multiply" opacity="0.56">
<path d="M34.1769 94.0697C34.1769 94.3205 34.0226 94.523 33.8297 94.523C33.6369 94.523 33.4825 94.3205 33.4825 94.0697C33.4825 93.819 33.6369 93.6164 33.8297 93.6164C34.0226 93.6164 34.1769 93.819 34.1769 94.0697Z" fill="#FFBA46"/>
</g>
<g style="mix-blend-mode:multiply" opacity="0.56">
<path d="M23.4186 95.2753C23.4186 95.526 23.2643 95.7286 23.0714 95.7286C22.8785 95.7286 22.7242 95.526 22.7242 95.2753C22.7242 95.0245 22.8785 94.822 23.0714 94.822C23.2643 94.822 23.4186 95.0245 23.4186 95.2753Z" fill="#FFBA46"/>
</g>
<g style="mix-blend-mode:multiply" opacity="0.56">
<path d="M27.4692 104.915C27.4692 105.166 27.3149 105.368 27.122 105.368C26.9292 105.368 26.7748 105.166 26.7748 104.915C26.7748 104.664 26.9292 104.462 27.122 104.462C27.3149 104.462 27.4692 104.664 27.4692 104.915Z" fill="#FFBA46"/>
</g>
<g style="mix-blend-mode:multiply" opacity="0.56">
<path d="M25.7333 91.9576C25.7333 92.2084 25.579 92.4109 25.3861 92.4109C25.1932 92.4109 25.0389 92.2084 25.0389 91.9576C25.0389 91.7068 25.1932 91.5043 25.3861 91.5043C25.579 91.5043 25.7333 91.7068 25.7333 91.9576Z" fill="#FFBA46"/>
</g>
<g style="mix-blend-mode:multiply" opacity="0.56">
<path d="M26.3939 100.387C26.3939 100.638 26.2396 100.84 26.0467 100.84C25.8538 100.84 25.6995 100.638 25.6995 100.387C25.6995 100.136 25.8538 99.9335 26.0467 99.9335C26.2396 99.9335 26.3939 100.136 26.3939 100.387Z" fill="#FFBA46"/>
</g>
<g style="mix-blend-mode:multiply" opacity="0.56">
<path d="M28.6411 93.4477C28.6411 93.5441 28.5832 93.6164 28.5109 93.6164C28.4385 93.6164 28.3807 93.5393 28.3807 93.4477C28.3807 93.356 28.4385 93.2789 28.5109 93.2789C28.5832 93.2789 28.6411 93.356 28.6411 93.4477Z" fill="#FFBA46"/>
</g>
<g style="mix-blend-mode:multiply" opacity="0.56">
<path d="M14.4782 92.6858C14.4782 92.7822 14.4204 92.8545 14.348 92.8545C14.2757 92.8545 14.2178 92.7774 14.2178 92.6858C14.2178 92.5941 14.2757 92.517 14.348 92.517C14.4204 92.517 14.4782 92.5941 14.4782 92.6858Z" fill="#FFBA46"/>
</g>
<g style="mix-blend-mode:multiply" opacity="0.56">
<path d="M5.86575 105.016C5.86575 105.113 5.80788 105.185 5.73555 105.185C5.66321 105.185 5.60535 105.108 5.60535 105.016C5.60535 104.925 5.66321 104.847 5.73555 104.847C5.80788 104.847 5.86575 104.925 5.86575 105.016Z" fill="#FFBA46"/>
</g>
<g style="mix-blend-mode:multiply" opacity="0.56">
<path d="M18.8471 77.0184C18.8471 77.2691 18.6928 77.4717 18.4999 77.4717C18.307 77.4717 18.1527 77.2691 18.1527 77.0184C18.1527 76.7676 18.307 76.5651 18.4999 76.5651C18.6928 76.5651 18.8471 76.7676 18.8471 77.0184Z" fill="#FFBA46"/>
</g>
<g style="mix-blend-mode:multiply" opacity="0.56">
<path d="M8.09357 78.2239C8.09357 78.4747 7.93926 78.6772 7.74637 78.6772C7.55348 78.6772 7.39917 78.4747 7.39917 78.2239C7.39917 77.9732 7.55348 77.7706 7.74637 77.7706C7.93926 77.7706 8.09357 77.9732 8.09357 78.2239Z" fill="#FFBA46"/>
</g>
<g style="mix-blend-mode:multiply" opacity="0.56">
<path d="M10.4034 74.9111C10.4034 75.1618 10.2491 75.3644 10.0562 75.3644C9.86336 75.3644 9.70905 75.1618 9.70905 74.9111C9.70905 74.6603 9.86336 74.4578 10.0562 74.4578C10.2491 74.4578 10.4034 74.6603 10.4034 74.9111Z" fill="#FFBA46"/>
</g>
<g style="mix-blend-mode:multiply" opacity="0.56">
<path d="M11.0689 83.3355C11.0689 83.5862 10.9146 83.7888 10.7217 83.7888C10.5288 83.7888 10.3745 83.5862 10.3745 83.3355C10.3745 83.0847 10.5288 82.8822 10.7217 82.8822C10.9146 82.8822 11.0689 83.0847 11.0689 83.3355Z" fill="#FFBA46"/>
</g>
<g style="mix-blend-mode:multiply" opacity="0.56">
<path d="M4.9977 85.1342C4.9977 85.2258 4.93984 85.3029 4.8675 85.3029C4.79517 85.3029 4.7373 85.2258 4.7373 85.1342C4.7373 85.0425 4.79517 84.9654 4.8675 84.9654C4.93984 84.9654 4.9977 85.0425 4.9977 85.1342Z" fill="#FFBA46"/>
</g>
<g style="mix-blend-mode:multiply" opacity="0.56">
<path d="M20.5832 85.7562C20.5832 85.8479 20.5253 85.925 20.453 85.925C20.3806 85.925 20.3228 85.8479 20.3228 85.7562C20.3228 85.6646 20.3806 85.5875 20.453 85.5875C20.5253 85.5875 20.5832 85.6646 20.5832 85.7562Z" fill="#FFBA46"/>
</g>
<g style="mix-blend-mode:multiply" opacity="0.56">
<path d="M13.3112 76.3963C13.3112 76.4879 13.2534 76.5651 13.181 76.5651C13.1087 76.5651 13.0508 76.4879 13.0508 76.3963C13.0508 76.3047 13.1087 76.2275 13.181 76.2275C13.2534 76.2275 13.3112 76.3047 13.3112 76.3963Z" fill="#FFBA46"/>
</g>
<g style="mix-blend-mode:multiply" opacity="0.56">
<path d="M4.96882 77.5054C5.04073 77.5054 5.09902 77.4299 5.09902 77.3366C5.09902 77.2434 5.04073 77.1679 4.96882 77.1679C4.89692 77.1679 4.83862 77.2434 4.83862 77.3366C4.83862 77.4299 4.89692 77.5054 4.96882 77.5054Z" fill="#FFBA46"/>
</g>
<g style="mix-blend-mode:multiply" opacity="0.56">
<path d="M31.1389 86.9087C31.1389 87.1595 30.9846 87.362 30.7917 87.362C30.5988 87.362 30.4445 87.1595 30.4445 86.9087C30.4445 86.658 30.5988 86.4555 30.7917 86.4555C30.9846 86.4555 31.1389 86.658 31.1389 86.9087Z" fill="#FFBA46"/>
</g>
<g style="mix-blend-mode:multiply" opacity="0.56">
<path d="M25.4632 79.3041C25.4632 79.5549 25.3089 79.7574 25.116 79.7574C24.9231 79.7574 24.7688 79.5549 24.7688 79.3041C24.7688 79.0534 24.9231 78.8508 25.116 78.8508C25.3089 78.8508 25.4632 79.0534 25.4632 79.3041Z" fill="#FFBA46"/>
</g>
<g style="mix-blend-mode:multiply" opacity="0.56">
<path d="M16.7398 62.3155C16.7398 62.5662 16.5855 62.7687 16.3926 62.7687C16.1997 62.7687 16.0454 62.5662 16.0454 62.3155C16.0454 62.0647 16.1997 61.8622 16.3926 61.8622C16.5855 61.8622 16.7398 62.0647 16.7398 62.3155Z" fill="#FFBA46"/>
</g>
<g style="mix-blend-mode:multiply" opacity="0.56">
<path d="M19.0545 59.0026C19.0545 59.2533 18.9002 59.4559 18.7073 59.4559C18.5144 59.4559 18.3601 59.2533 18.3601 59.0026C18.3601 58.7518 18.5144 58.5493 18.7073 58.5493C18.9002 58.5493 19.0545 58.7518 19.0545 59.0026Z" fill="#FFBA46"/>
</g>
<g style="mix-blend-mode:multiply" opacity="0.56">
<path d="M19.72 67.427C19.72 67.6778 19.5657 67.8803 19.3728 67.8803C19.1799 67.8803 19.0256 67.6778 19.0256 67.427C19.0256 67.1762 19.1799 66.9737 19.3728 66.9737C19.5657 66.9737 19.72 67.1762 19.72 67.427Z" fill="#FFBA46"/>
</g>
<g style="mix-blend-mode:multiply" opacity="0.56">
<path d="M13.6488 69.2257C13.6488 69.3221 13.5909 69.3945 13.5186 69.3945C13.4462 69.3945 13.3884 69.3173 13.3884 69.2257C13.3884 69.1341 13.4462 69.0569 13.5186 69.0569C13.5909 69.0569 13.6488 69.1341 13.6488 69.2257Z" fill="#FFBA46"/>
</g>
<g style="mix-blend-mode:multiply" opacity="0.56">
<path d="M29.2293 69.8477C29.2293 69.9442 29.1715 70.0165 29.0991 70.0165C29.0268 70.0165 28.9689 69.9394 28.9689 69.8477C28.9689 69.7561 29.0268 69.679 29.0991 69.679C29.1715 69.679 29.2293 69.7561 29.2293 69.8477Z" fill="#FFBA46"/>
</g>
<g style="mix-blend-mode:multiply" opacity="0.56">
<path d="M30.4879 97.5755C30.4879 97.6671 30.4301 97.7443 30.3577 97.7443C30.2854 97.7443 30.2275 97.6671 30.2275 97.5755C30.2275 97.4839 30.2854 97.4067 30.3577 97.4067C30.4301 97.4067 30.4879 97.4839 30.4879 97.5755Z" fill="#FFBA46"/>
</g>
<g style="mix-blend-mode:multiply" opacity="0.56">
<path d="M13.6199 61.5969C13.6918 61.5969 13.7501 61.5214 13.7501 61.4282C13.7501 61.3349 13.6918 61.2594 13.6199 61.2594C13.548 61.2594 13.4897 61.3349 13.4897 61.4282C13.4897 61.5214 13.548 61.5969 13.6199 61.5969Z" fill="#FFBA46"/>
</g>
<g style="mix-blend-mode:multiply" opacity="0.56">
<path d="M2.85665 102.263C2.85665 102.354 2.79878 102.431 2.72645 102.431C2.65412 102.431 2.59625 102.354 2.59625 102.263C2.59625 102.171 2.65412 102.094 2.72645 102.094C2.79878 102.094 2.85665 102.171 2.85665 102.263Z" fill="#FFBA46"/>
</g>
<g style="mix-blend-mode:multiply" opacity="0.56">
<path d="M1.23641 105.465C1.23641 105.561 1.17855 105.633 1.10621 105.633C1.03388 105.633 0.976013 105.556 0.976013 105.465C0.976013 105.373 1.03388 105.296 1.10621 105.296C1.17855 105.296 1.23641 105.373 1.23641 105.465Z" fill="#FFBA46"/>
</g>
<g style="mix-blend-mode:multiply" opacity="0.56">
<path d="M25.0774 107.856C25.0774 107.948 25.0195 108.025 24.9472 108.025C24.8749 108.025 24.817 107.948 24.817 107.856C24.817 107.765 24.8749 107.688 24.9472 107.688C25.0195 107.688 25.0774 107.765 25.0774 107.856Z" fill="#FFBA46"/>
</g>
<g style="mix-blend-mode:multiply" opacity="0.56">
<path d="M24.1226 103.338C24.1226 103.43 24.0648 103.507 23.9924 103.507C23.9201 103.507 23.8622 103.43 23.8622 103.338C23.8622 103.246 23.9201 103.169 23.9924 103.169C24.0648 103.169 24.1226 103.246 24.1226 103.338Z" fill="#FFBA46"/>
</g>
<g opacity="0.47">
<g style="mix-blend-mode:multiply">
<path d="M5.64869 109.814C5.50402 109.834 5.37382 109.732 5.35453 109.592C5.33524 109.448 5.43651 109.318 5.57635 109.303C5.72102 109.284 5.85122 109.385 5.86569 109.525C5.88498 109.67 5.78371 109.8 5.64387 109.819L5.64869 109.814Z" fill="#B76F0F"/>
</g>
<g style="mix-blend-mode:multiply">
<path d="M9.39556 113.822C9.2509 113.841 9.1207 113.74 9.10623 113.6C9.09177 113.46 9.18821 113.325 9.32805 113.306C9.47272 113.286 9.60292 113.388 9.61739 113.527C9.63667 113.672 9.53541 113.802 9.39556 113.822Z" fill="#B76F0F"/>
</g>
<g style="mix-blend-mode:multiply">
<path d="M2.03687 114.487C1.8922 114.506 1.762 114.405 1.74754 114.265C1.72825 114.12 1.82951 113.99 1.96936 113.976C2.11402 113.957 2.24423 114.058 2.25869 114.198C2.27798 114.342 2.17671 114.473 2.03687 114.487Z" fill="#B76F0F"/>
</g>
<g style="mix-blend-mode:multiply">
<path d="M1.19782 112.529C1.05315 112.548 0.922953 112.447 0.903665 112.307C0.884376 112.163 0.985642 112.032 1.12549 112.018C1.27015 111.999 1.40035 112.1 1.41964 112.24C1.43893 112.384 1.33766 112.515 1.19782 112.534V112.529Z" fill="#B76F0F"/>
</g>
<g style="mix-blend-mode:multiply">
<path d="M3.43049 114.448C3.28582 114.468 3.15562 114.366 3.14115 114.227C3.12186 114.082 3.22313 113.952 3.36297 113.932C3.50764 113.913 3.63784 114.014 3.65231 114.154C3.6716 114.299 3.57033 114.429 3.43049 114.448Z" fill="#B76F0F"/>
</g>
<g style="mix-blend-mode:multiply">
<path d="M5.04596 111.439C4.9013 111.459 4.7711 111.357 4.75181 111.218C4.73252 111.073 4.83379 110.943 4.97363 110.923C5.1183 110.904 5.2485 111.005 5.26779 111.145C5.28707 111.285 5.18581 111.42 5.04596 111.439Z" fill="#B76F0F"/>
</g>
<g style="mix-blend-mode:multiply">
<path d="M7.92481 113.388C7.78014 113.407 7.64994 113.306 7.63548 113.166C7.61619 113.021 7.71746 112.891 7.8573 112.872C8.00197 112.852 8.13216 112.954 8.14663 113.093C8.16592 113.238 8.06465 113.368 7.92481 113.383V113.388Z" fill="#B76F0F"/>
</g>
<g style="mix-blend-mode:multiply">
<path d="M9.70423 112.278C9.55956 112.298 9.42936 112.196 9.4149 112.057C9.39561 111.912 9.49687 111.782 9.63672 111.762C9.78138 111.743 9.91158 111.844 9.93087 111.984C9.95016 112.129 9.84889 112.259 9.70905 112.274L9.70423 112.278Z" fill="#B76F0F"/>
</g>
</g>
</g>
<defs>
<linearGradient id="paint0_linear_2130_5280" x1="40.9136" y1="38.7782" x2="17.4149" y2="38.9759" gradientUnits="userSpaceOnUse">
<stop stop-color="#F19EC1"/>
<stop offset="1" stop-color="#EA5C7A"/>
</linearGradient>
<linearGradient id="paint1_linear_2130_5280" x1="16.7447" y1="47.0387" x2="18.3263" y2="47.0387" gradientUnits="userSpaceOnUse">
<stop stop-color="white"/>
<stop offset="0.64" stop-color="#A3A3A3"/>
<stop offset="1" stop-color="white"/>
</linearGradient>
<linearGradient id="paint2_linear_2130_5280" x1="17.4923" y1="112.524" x2="17.4923" y2="84.5314" gradientUnits="userSpaceOnUse">
<stop stop-color="#FFFFE3"/>
<stop offset="1" stop-color="#FF7C00"/>
</linearGradient>
<linearGradient id="paint3_linear_2130_5280" x1="21.1714" y1="110.547" x2="59.3296" y2="148.705" gradientUnits="userSpaceOnUse">
<stop stop-color="#FFDEA1"/>
<stop offset="0.32" stop-color="#FFBA38"/>
<stop offset="1" stop-color="#FF7C00"/>
</linearGradient>
<linearGradient id="paint4_linear_2130_5280" x1="-14.9952" y1="113.479" x2="50.0661" y2="113.479" gradientUnits="userSpaceOnUse">
<stop stop-color="#FF7C00"/>
<stop offset="0.19" stop-color="#FFBA38"/>
<stop offset="0.46" stop-color="#FFD171"/>
<stop offset="0.92" stop-color="#FF7C00"/>
</linearGradient>
<linearGradient id="paint5_linear_2130_5280" x1="-14.9421" y1="116.874" x2="50.0661" y2="116.874" gradientUnits="userSpaceOnUse">
<stop stop-color="#FFBA38"/>
<stop offset="0.26" stop-color="#FFD171"/>
<stop offset="1" stop-color="#FF7C00"/>
</linearGradient>
<radialGradient id="paint6_radial_2130_5280" cx="0" cy="0" r="1" gradientUnits="userSpaceOnUse" gradientTransform="translate(16.2834 106.157) scale(36.162 3.74691)">
<stop offset="0.4" stop-color="#981B00"/>
<stop offset="0.42" stop-color="#9A2006"/>
<stop offset="0.54" stop-color="#B86350"/>
<stop offset="0.67" stop-color="#D19A8E"/>
<stop offset="0.77" stop-color="#E5C5BF"/>
<stop offset="0.87" stop-color="#F3E5E1"/>
<stop offset="0.95" stop-color="#FBF8F7"/>
<stop offset="1" stop-color="white"/>
</radialGradient>
<linearGradient id="paint7_linear_2130_5280" x1="17.5018" y1="102.716" x2="17.5018" y2="81.0208" gradientUnits="userSpaceOnUse">
<stop stop-color="#FFFFE3"/>
<stop offset="1" stop-color="#FF7C00"/>
</linearGradient>
<linearGradient id="paint8_linear_2130_5280" x1="20.3516" y1="101.182" x2="49.9311" y2="130.762" gradientUnits="userSpaceOnUse">
<stop stop-color="#FFDEA1"/>
<stop offset="0.32" stop-color="#FFBA38"/>
<stop offset="1" stop-color="#FF7C00"/>
</linearGradient>
<linearGradient id="paint9_linear_2130_5280" x1="-7.68469" y1="103.459" x2="42.7508" y2="103.459" gradientUnits="userSpaceOnUse">
<stop stop-color="#FF7C00"/>
<stop offset="0.19" stop-color="#FFBA38"/>
<stop offset="0.46" stop-color="#FFD171"/>
<stop offset="0.92" stop-color="#FF7C00"/>
</linearGradient>
<linearGradient id="paint10_linear_2130_5280" x1="-7.6413" y1="106.087" x2="42.7508" y2="106.087" gradientUnits="userSpaceOnUse">
<stop stop-color="#FFBA38"/>
<stop offset="0.26" stop-color="#FFD171"/>
<stop offset="1" stop-color="#FF7C00"/>
</linearGradient>
<radialGradient id="paint11_radial_2130_5280" cx="0" cy="0" r="1" gradientUnits="userSpaceOnUse" gradientTransform="translate(16.7837 97.8295) scale(28.0171 2.90297)">
<stop offset="0.4" stop-color="#981B00"/>
<stop offset="0.42" stop-color="#9A2006"/>
<stop offset="0.54" stop-color="#B86350"/>
<stop offset="0.67" stop-color="#D19A8E"/>
<stop offset="0.77" stop-color="#E5C5BF"/>
<stop offset="0.87" stop-color="#F3E5E1"/>
<stop offset="0.95" stop-color="#FBF8F7"/>
<stop offset="1" stop-color="white"/>
</radialGradient>
<linearGradient id="paint12_linear_2130_5280" x1="0.286434" y1="85.3946" x2="38.7243" y2="85.3946" gradientUnits="userSpaceOnUse">
<stop stop-color="#FF7C00"/>
<stop offset="0.19" stop-color="#FFBA38"/>
<stop offset="0.46" stop-color="#FFD171"/>
<stop offset="0.92" stop-color="#FF7C00"/>
</linearGradient>
<radialGradient id="paint13_radial_2130_5280" cx="0" cy="0" r="1" gradientUnits="userSpaceOnUse" gradientTransform="translate(17.5017 70.8447) scale(21.5312 5.3828)">
<stop stop-color="#AD5400"/>
<stop offset="1" stop-color="white"/>
</radialGradient>
<radialGradient id="paint14_radial_2130_5280" cx="0" cy="0" r="1" gradientUnits="userSpaceOnUse" gradientTransform="translate(16.9875 74.0334) scale(15.055 2.02533)">
<stop offset="0.4" stop-color="#981B00"/>
<stop offset="0.42" stop-color="#9A2006"/>
<stop offset="0.54" stop-color="#B86350"/>
<stop offset="0.67" stop-color="#D19A8E"/>
<stop offset="0.77" stop-color="#E5C5BF"/>
<stop offset="0.87" stop-color="#F3E5E1"/>
<stop offset="0.95" stop-color="#FBF8F7"/>
<stop offset="1" stop-color="white"/>
</radialGradient>
<linearGradient id="paint15_linear_2130_5280" x1="17.5162" y1="72.6398" x2="17.5162" y2="62.5324" gradientUnits="userSpaceOnUse">
<stop stop-color="#FFFFE3"/>
<stop offset="1" stop-color="#FF7C00"/>
</linearGradient>
<linearGradient id="paint16_linear_2130_5280" x1="18.8471" y1="71.9261" x2="32.629" y2="85.7128" gradientUnits="userSpaceOnUse">
<stop stop-color="#FFDEA1"/>
<stop offset="0.32" stop-color="#FFBA38"/>
<stop offset="1" stop-color="#FF7C00"/>
</linearGradient>
<linearGradient id="paint17_linear_2130_5280" x1="5.78375" y1="72.987" x2="29.2824" y2="72.987" gradientUnits="userSpaceOnUse">
<stop stop-color="#FF7C00"/>
<stop offset="0.19" stop-color="#FFBA38"/>
<stop offset="0.46" stop-color="#FFD171"/>
<stop offset="0.92" stop-color="#FF7C00"/>
</linearGradient>
<linearGradient id="paint18_linear_2130_5280" x1="5.80304" y1="74.2118" x2="29.2824" y2="74.2118" gradientUnits="userSpaceOnUse">
<stop stop-color="#FFBA38"/>
<stop offset="0.26" stop-color="#FFD171"/>
<stop offset="1" stop-color="#FF7C00"/>
</linearGradient>
<radialGradient id="paint19_radial_2130_5280" cx="0" cy="0" r="1" gradientUnits="userSpaceOnUse" gradientTransform="translate(17.7243 70.5975) scale(13.068 1.35403)">
<stop offset="0.4" stop-color="#981B00"/>
<stop offset="0.42" stop-color="#9A2006"/>
<stop offset="0.54" stop-color="#B86350"/>
<stop offset="0.67" stop-color="#D19A8E"/>
<stop offset="0.77" stop-color="#E5C5BF"/>
<stop offset="0.87" stop-color="#F3E5E1"/>
<stop offset="0.95" stop-color="#FBF8F7"/>
<stop offset="1" stop-color="white"/>
</radialGradient>
<linearGradient id="paint20_linear_2130_5280" x1="17.521" y1="69.1775" x2="17.521" y2="61.8332" gradientUnits="userSpaceOnUse">
<stop stop-color="#FFFFE3"/>
<stop offset="1" stop-color="#FF7C00"/>
</linearGradient>
<linearGradient id="paint21_linear_2130_5280" x1="18.4855" y1="68.6567" x2="28.506" y2="78.6772" gradientUnits="userSpaceOnUse">
<stop stop-color="#FFDEA1"/>
<stop offset="0.32" stop-color="#FFBA38"/>
<stop offset="1" stop-color="#FF7C00"/>
</linearGradient>
<linearGradient id="paint22_linear_2130_5280" x1="8.99536" y1="69.4282" x2="26.0708" y2="69.4282" gradientUnits="userSpaceOnUse">
<stop stop-color="#FF7C00"/>
<stop offset="0.19" stop-color="#FFBA38"/>
<stop offset="0.46" stop-color="#FFD171"/>
<stop offset="0.92" stop-color="#FF7C00"/>
</linearGradient>
<linearGradient id="paint23_linear_2130_5280" x1="9.00983" y1="70.3203" x2="26.0708" y2="70.3203" gradientUnits="userSpaceOnUse">
<stop stop-color="#FFBA38"/>
<stop offset="0.26" stop-color="#FFD171"/>
<stop offset="1" stop-color="#FF7C00"/>
</linearGradient>
<radialGradient id="paint24_radial_2130_5280" cx="0" cy="0" r="1" gradientUnits="userSpaceOnUse" gradientTransform="translate(17.9645 67.7733) scale(9.48578 0.982864)">
<stop offset="0.4" stop-color="#981B00"/>
<stop offset="0.42" stop-color="#9A2006"/>
<stop offset="0.54" stop-color="#B86350"/>
<stop offset="0.67" stop-color="#D19A8E"/>
<stop offset="0.77" stop-color="#E5C5BF"/>
<stop offset="0.87" stop-color="#F3E5E1"/>
<stop offset="0.95" stop-color="#FBF8F7"/>
<stop offset="1" stop-color="white"/>
</radialGradient>
<linearGradient id="paint25_linear_2130_5280" x1="12.4673" y1="58.6506" x2="22.946" y2="58.6506" gradientUnits="userSpaceOnUse">
<stop stop-color="#FF7C00"/>
<stop offset="0.19" stop-color="#FFBA38"/>
<stop offset="0.46" stop-color="#FFD171"/>
<stop offset="0.92" stop-color="#FF7C00"/>
</linearGradient>
<clipPath id="clip0_2130_5280">
<rect width="114" height="114" rx="4" fill="white"/>
</clipPath>
</defs>
</svg>
